<svg xmlns="http://www.w3.org/2000/svg" xmlns:xlink="http://www.w3.org/1999/xlink" width="500" zoomAndPan="magnify" viewBox="0 0 375 374.999991" height="500" preserveAspectRatio="xMidYMid meet" version="1.2"><g id="bd073f9763"><path style=" stroke:none;fill-rule:nonzero;fill:#7d8693;fill-opacity:1;" d="M 187.5 15 C 92.476562 15 15 92.398438 15 187.5 C 15 282.601562 92.398438 360 187.5 360 C 282.601562 360 360 282.601562 360 187.5 C 360 92.398438 282.523438 15 187.5 15 Z M 187.5 15 "/><path style=" stroke:none;fill-rule:nonzero;fill:#ffffff;fill-opacity:1;" d="M 187.5 5.625 C 87.226562 5.625 5.625 87.300781 5.625 187.5 C 5.625 287.773438 87.226562 369.375 187.5 369.375 C 287.699219 369.375 369.375 287.773438 369.375 187.5 C 369.375 87.300781 287.699219 5.625 187.5 5.625 Z M 187.5 355.199219 C 95.023438 355.199219 19.800781 279.976562 19.800781 187.5 C 19.800781 95.023438 95.023438 19.800781 187.5 19.800781 C 279.976562 19.800781 355.199219 95.023438 355.199219 187.5 C 355.199219 279.976562 279.976562 355.199219 187.5 355.199219 Z M 187.5 355.199219 "/><path style=" stroke:none;fill-rule:nonzero;fill:#ffffff;fill-opacity:1;" d="M 187.5 375 C 84.148438 375 0 290.851562 0 187.5 C 0 84.148438 84.148438 0 187.5 0 C 290.851562 0 375 84.148438 375 187.5 C 375 290.851562 290.851562 375 187.5 375 Z M 187.5 11.25 C 90.300781 11.25 11.25 90.300781 11.25 187.5 C 11.25 284.699219 90.300781 363.75 187.5 363.75 C 284.699219 363.75 363.75 284.699219 363.75 187.5 C 363.75 90.300781 284.699219 11.25 187.5 11.25 Z M 187.5 11.25 "/></g></svg>