<svg xmlns="http://www.w3.org/2000/svg" xmlns:xlink="http://www.w3.org/1999/xlink" width="500" zoomAndPan="magnify" viewBox="0 0 375 374.999991" height="500" preserveAspectRatio="xMidYMid meet" version="1.2"><defs><clipPath id="b356319840"><path d="M 0 20.859375 L 375 20.859375 L 375 353.859375 L 0 353.859375 Z M 0 20.859375 "/></clipPath></defs><g id="928a741b9f"><g clip-rule="nonzero" clip-path="url(#b356319840)"><path style=" stroke:none;fill-rule:nonzero;fill:#ed1c1c;fill-opacity:1;" d="M 358.464844 330.644531 C 354.914062 336.796875 348.550781 340.46875 341.449219 340.46875 L 33.234375 340.46875 C 26.132812 340.46875 19.769531 336.796875 16.21875 330.644531 C 12.667969 324.496094 12.667969 317.148438 16.21875 311 L 170.328125 44.074219 C 173.878906 37.925781 180.242188 34.253906 187.339844 34.253906 C 187.34375 34.253906 187.339844 34.253906 187.34375 34.253906 C 194.445312 34.253906 200.804688 37.925781 204.355469 44.074219 L 358.464844 311 C 362.015625 317.148438 362.015625 324.496094 358.464844 330.644531 Z M 370.0625 304.300781 L 215.953125 37.378906 C 212.945312 32.167969 208.597656 27.886719 203.386719 24.996094 C 198.503906 22.289062 192.957031 20.859375 187.339844 20.859375 C 181.726562 20.859375 176.179688 22.289062 171.296875 24.996094 C 166.085938 27.886719 161.738281 32.167969 158.730469 37.378906 L 4.621094 304.300781 C 1.613281 309.515625 0.078125 315.417969 0.179688 321.378906 C 0.277344 326.960938 1.8125 332.480469 4.621094 337.34375 C 7.425781 342.203125 11.441406 346.292969 16.226562 349.167969 C 21.335938 352.238281 27.214844 353.863281 33.234375 353.863281 L 341.449219 353.863281 C 347.46875 353.863281 353.347656 352.238281 358.457031 349.167969 C 363.242188 346.292969 367.253906 342.203125 370.0625 337.34375 C 372.871094 332.480469 374.40625 326.960938 374.5 321.378906 C 374.605469 315.417969 373.074219 309.515625 370.0625 304.300781 "/></g><path style=" stroke:none;fill-rule:nonzero;fill:#ed1c1c;fill-opacity:1;" d="M 191.789062 51.332031 C 190.449219 49.015625 188.234375 48.765625 187.339844 48.765625 C 186.449219 48.765625 184.234375 49.015625 182.894531 51.332031 L 28.785156 318.253906 C 27.449219 320.574219 28.339844 322.617188 28.785156 323.390625 C 29.230469 324.160156 30.558594 325.957031 33.234375 325.957031 L 341.449219 325.957031 C 344.125 325.957031 345.453125 324.160156 345.898438 323.390625 C 346.34375 322.617188 347.234375 320.574219 345.898438 318.253906 L 191.789062 51.332031 "/><path style=" stroke:none;fill-rule:nonzero;fill:#0c0905;fill-opacity:1;" d="M 345.898438 323.390625 C 345.453125 324.160156 344.125 325.957031 341.449219 325.957031 L 33.234375 325.957031 C 30.558594 325.957031 29.230469 324.160156 28.785156 323.390625 C 28.339844 322.617188 27.449219 320.574219 28.785156 318.253906 L 182.894531 51.332031 C 184.234375 49.015625 186.449219 48.765625 187.339844 48.765625 C 188.234375 48.765625 190.449219 49.015625 191.789062 51.332031 L 345.898438 318.253906 C 347.234375 320.574219 346.34375 322.617188 345.898438 323.390625 Z M 204.355469 44.074219 C 200.804688 37.925781 194.445312 34.253906 187.34375 34.253906 C 187.339844 34.253906 187.34375 34.253906 187.339844 34.253906 C 180.242188 34.253906 173.878906 37.925781 170.328125 44.074219 L 16.21875 311 C 12.667969 317.148438 12.667969 324.496094 16.21875 330.644531 C 19.769531 336.796875 26.132812 340.46875 33.234375 340.46875 L 341.449219 340.46875 C 348.550781 340.46875 354.914062 336.796875 358.464844 330.644531 C 362.015625 324.496094 362.015625 317.148438 358.464844 311 L 204.355469 44.074219 "/><path style=" stroke:none;fill-rule:nonzero;fill:#0c0905;fill-opacity:1;" d="M 178.21875 228.796875 L 175.195312 125.039062 C 174.996094 118.191406 180.492188 112.53125 187.34375 112.53125 C 194.191406 112.53125 199.691406 118.191406 199.492188 125.039062 L 196.464844 228.796875 C 196.320312 233.730469 192.277344 237.65625 187.34375 237.65625 C 182.40625 237.65625 178.363281 233.730469 178.21875 228.796875 Z M 171.960938 274.9375 C 171.960938 265.550781 178.480469 258.773438 187.34375 258.773438 C 196.726562 258.773438 202.722656 265.550781 202.722656 274.9375 C 202.722656 284.058594 196.726562 291.097656 187.34375 291.097656 C 178.21875 291.097656 171.960938 284.058594 171.960938 274.9375 "/></g></svg>