<svg xmlns="http://www.w3.org/2000/svg" xmlns:xlink="http://www.w3.org/1999/xlink" width="500" zoomAndPan="magnify" viewBox="0 0 375 374.999991" height="500" preserveAspectRatio="xMidYMid meet" version="1.2"><defs><clipPath id="798fd5dc60"><path d="M 2.207031 60 L 372 60 L 372 316 L 2.207031 316 Z M 2.207031 60 "/></clipPath></defs><g id="af8213d534"><g clip-rule="nonzero" clip-path="url(#798fd5dc60)"><path style=" stroke:none;fill-rule:nonzero;fill:#ffaa1e;fill-opacity:1;" d="M 352.128906 126.113281 C 350.058594 149.277344 344.316406 201.644531 343.058594 213.058594 C 343.058594 213.058594 360.816406 216.203125 358.261719 229.441406 C 354.492188 248.980469 307.589844 232.132812 224.308594 253.699219 C 155.449219 271.53125 105.347656 316.394531 91.339844 315.054688 C 77.332031 313.714844 75.316406 301.941406 88.363281 289.550781 C 73.996094 275.847656 42.644531 235.121094 28.285156 216.171875 C 25.679688 217.859375 22.660156 218.820312 19.578125 218.714844 C 10.921875 219.382812 3.128906 212.433594 2.824219 203.039062 C 2.8125 202.648438 2.824219 202.257812 2.855469 201.878906 C 3.679688 192.757812 10.941406 185.472656 19.652344 185.453125 C 28.78125 185.769531 36.160156 193.03125 36.476562 202.003906 C 36.488281 202.40625 36.476562 202.808594 36.4375 203.199219 C 36.265625 204.875 35.8125 206.511719 35.136719 208.054688 C 48.355469 209.332031 67.871094 210.195312 81.183594 206.25 C 96.3125 201.761719 99.277344 183.308594 99.667969 172.394531 C 98.527344 172.550781 97.335938 172.574219 96.101562 172.4375 C 87.277344 173.324219 79.757812 165.554688 80.023438 156.515625 C 80.265625 147.121094 86.980469 140.535156 96.386719 140.628906 C 105.242188 139.964844 112.8125 147.332031 112.757812 157.035156 C 112.453125 161.742188 110.171875 166.429688 106.511719 169.394531 C 114.785156 174.136719 130.007812 178.960938 150.183594 168.519531 C 168.433594 159.082031 174.1875 133.851562 175.824219 114.472656 C 167.378906 111.410156 159.144531 100.242188 156.1875 89.746094 C 155.808594 88.40625 155.578125 87.023438 155.503906 85.640625 C 155.101562 78.09375 157.476562 71.042969 161.339844 66.152344 C 165.964844 60.296875 174.15625 58.425781 180.574219 62.238281 C 186.136719 65.53125 190.613281 71.898438 192.882812 79.507812 C 193.304688 80.921875 193.558594 82.390625 193.652344 83.867188 C 194.289062 93.222656 192.429688 104.242188 188.027344 110.46875 C 196.292969 123.074219 207.96875 137.875 220.257812 143.722656 C 236.089844 151.269531 249.160156 136.683594 255.851562 126.675781 C 248.632812 124.804688 243.523438 118.09375 243.480469 109.933594 C 243.027344 101.0625 250.722656 93.304688 259.800781 94.128906 C 269.121094 93.285156 276.671875 101.160156 276.828125 110.933594 C 276.355469 118.101562 271.886719 123.519531 265.28125 125.933594 C 270.230469 131.953125 279.933594 139.660156 297.890625 141.570312 C 318.285156 143.734375 336.019531 131.394531 345.507812 123.011719 C 341.550781 120.054688 338.964844 115.539062 339.441406 110.535156 C 338.449219 102.542969 344.570312 96.34375 351.949219 94.160156 C 354.535156 93.390625 357.300781 93.273438 359.878906 94.066406 C 366.433594 96.082031 371.289062 102.457031 371.617188 109.835938 C 372.039062 119.15625 363.75 126.496094 355.304688 126.546875 C 354.238281 126.515625 353.171875 126.367188 352.128906 126.113281 Z M 352.128906 126.113281 "/></g><path style=" stroke:none;fill-rule:nonzero;fill:#10b9bb;fill-opacity:1;" d="M 280.472656 169.679688 C 282.464844 173.386719 282.707031 177.832031 281.136719 181.738281 C 278.824219 187.457031 273.375 190.457031 266.421875 190.222656 C 259.148438 190.65625 252.285156 183.859375 252.875 176.585938 C 252.992188 167.992188 258.703125 160.992188 266.863281 161.414062 C 273.335938 161.425781 278.011719 165.121094 280.472656 169.679688 Z M 316.847656 167.507812 C 316.414062 167.441406 315.972656 167.433594 315.539062 167.484375 C 310.703125 168.046875 307.15625 171.792969 307.664062 176.183594 C 307.148438 180.375 310.90625 184.398438 315.8125 184.121094 C 320.722656 184.597656 324.46875 181.039062 324.417969 175.992188 C 324.398438 171.917969 321.175781 168.171875 316.847656 167.507812 Z M 121.679688 223.285156 C 125.066406 229.820312 135.109375 232.292969 142.496094 227.222656 C 148.273438 223.117188 149.792969 214.21875 146.222656 207.746094 C 142.878906 201.5625 136.3125 199.535156 130.273438 200.539062 C 127.339844 201.023438 124.644531 202.492188 122.839844 204.867188 C 119.039062 209.847656 118.207031 217.164062 121.679688 223.285156 Z M 86.113281 246.617188 C 88.320312 248.9375 92.183594 249.71875 95.59375 248.6875 C 96.703125 248.347656 97.707031 247.777344 98.519531 246.964844 C 101.410156 244.113281 101.898438 239.859375 99.828125 236.164062 C 97.960938 232.9375 94.347656 231.828125 90.410156 232.566406 C 87.941406 233.03125 85.808594 234.625 84.953125 236.988281 C 84.152344 239.207031 84.121094 241.941406 84.890625 244.453125 C 85.152344 245.246094 85.535156 246.015625 86.113281 246.617188 Z M 178.082031 72.929688 C 174.347656 70.714844 169.585938 71.800781 166.894531 75.210938 C 164.644531 78.050781 163.261719 82.15625 163.492188 86.550781 C 163.535156 87.363281 163.671875 88.164062 163.894531 88.945312 C 166.015625 96.484375 172.835938 104.632812 178.757812 103.722656 C 183.910156 102.5 186.199219 93.074219 185.683594 85.515625 C 185.621094 84.660156 185.484375 83.804688 185.230469 82.980469 C 183.921875 78.546875 181.3125 74.851562 178.082031 72.929688 Z M 178.082031 72.929688 "/><path style=" stroke:none;fill-rule:nonzero;fill:#ff00ce;fill-opacity:1;" d="M 217.796875 157.5 C 227.066406 161.140625 232.628906 172.65625 228.882812 186.699219 C 228.574219 187.859375 228.164062 189 227.636719 190.078125 C 219.78125 206.34375 208.949219 217.523438 208.855469 216.203125 C 207.726562 216.890625 190.910156 212.636719 176.574219 201.582031 C 175.960938 201.109375 175.378906 200.601562 174.851562 200.03125 C 166.617188 191.28125 165.625 181.632812 168.550781 174.136719 C 171.199219 167.359375 178.167969 164.179688 185.429688 164.730469 C 191.164062 165.164062 196.820312 170.386719 195.871094 170.664062 C 196.726562 167.148438 199.269531 160.476562 208.644531 157.246094 C 211.609375 156.253906 214.871094 156.347656 217.796875 157.5 Z M 217.796875 157.5 "/><path style=" stroke:none;fill-rule:nonzero;fill:#13111f;fill-opacity:1;" d="M 91.003906 288.90625 C 89.554688 290.351562 87.316406 288.113281 88.765625 286.667969 C 89.375 286.054688 90 285.464844 90.644531 284.882812 C 98.339844 277.886719 107.40625 272.3125 116.402344 267.160156 C 129.808594 259.496094 143.816406 252.898438 158.078125 246.996094 C 175.539062 239.765625 193.464844 233.644531 211.675781 228.617188 C 232.015625 223 252.738281 218.769531 273.671875 216.121094 C 295.851562 213.3125 318.285156 212.328125 340.613281 213.617188 C 342.636719 213.734375 342.648438 216.898438 340.613281 216.785156 C 337.835938 216.625 335.070312 216.5 332.292969 216.402344 C 310.273438 215.675781 288.175781 217.101562 266.378906 220.277344 C 245.835938 223.277344 225.523438 227.804688 205.605469 233.632812 C 187.941406 238.804688 170.546875 244.992188 153.644531 252.273438 C 140.152344 258.082031 126.90625 264.550781 114.269531 272.058594 C 106.066406 276.933594 97.738281 282.140625 91.003906 288.90625 Z M 91.003906 288.90625 "/><path style=" stroke:none;fill-rule:nonzero;fill:#fffbff;fill-opacity:1;" d="M 174.988281 82.222656 C 171.589844 82.222656 171.589844 76.941406 174.988281 76.941406 C 178.390625 76.941406 178.378906 82.222656 174.988281 82.222656 Z M 136.53125 209.4375 C 139.933594 209.4375 139.933594 204.160156 136.53125 204.160156 C 133.132812 204.160156 133.132812 209.4375 136.53125 209.4375 Z M 93.410156 240.347656 C 96.808594 240.347656 96.808594 235.066406 93.410156 235.066406 C 90.011719 235.066406 90.011719 240.347656 93.410156 240.347656 Z M 272.734375 170.992188 C 276.132812 170.992188 276.132812 165.710938 272.734375 165.710938 C 269.332031 165.710938 269.332031 170.992188 272.734375 170.992188 Z M 317.652344 176.382812 C 321.050781 176.382812 321.050781 171.105469 317.652344 171.105469 C 314.261719 171.105469 314.25 176.382812 317.652344 176.382812 Z M 217.964844 173.015625 C 218.207031 173.683594 218.410156 174.359375 218.566406 175.042969 C 218.652344 175.390625 218.703125 175.742188 218.777344 176.078125 C 218.832031 176.394531 218.832031 176.425781 218.800781 176.164062 C 218.820312 176.34375 218.84375 176.511719 218.851562 176.691406 C 218.914062 177.398438 218.9375 178.105469 218.925781 178.8125 C 218.914062 179.160156 218.894531 179.519531 218.875 179.867188 C 218.863281 179.964844 218.734375 180.964844 218.808594 180.480469 C 218.347656 183.4375 217.523438 185.464844 215.757812 187.847656 C 214.9375 188.96875 215.539062 190.847656 216.710938 191.460938 C 218.09375 192.1875 219.445312 191.703125 220.320312 190.507812 C 224.246094 185.199219 225.292969 177.808594 223.066406 171.601562 C 222.601562 170.304688 221.25 169.300781 219.8125 169.753906 C 218.535156 170.1875 217.46875 171.632812 217.964844 173.015625 Z M 107.015625 152.71875 C 106.722656 151.015625 105.84375 149.457031 104.726562 148.167969 C 103.597656 146.867188 102.066406 145.929688 100.441406 145.402344 C 99.804688 145.191406 98.972656 145.339844 98.402344 145.664062 C 97.855469 145.980469 97.335938 146.617188 97.1875 147.238281 C 96.859375 148.683594 97.621094 150.023438 99.035156 150.488281 C 99.214844 150.542969 99.382812 150.605469 99.554688 150.679688 C 99.34375 150.59375 99.132812 150.5 98.917969 150.414062 C 99.480469 150.648438 100.007812 150.964844 100.480469 151.335938 C 100.300781 151.195312 100.125 151.058594 99.945312 150.921875 C 100.417969 151.300781 100.851562 151.726562 101.230469 152.210938 C 101.09375 152.03125 100.957031 151.851562 100.820312 151.671875 C 101.1875 152.15625 101.496094 152.675781 101.738281 153.234375 C 101.652344 153.023438 101.558594 152.8125 101.472656 152.601562 C 101.675781 153.085938 101.832031 153.59375 101.917969 154.121094 C 102.023438 154.734375 102.613281 155.398438 103.132812 155.695312 C 103.703125 156.019531 104.535156 156.167969 105.167969 155.957031 C 105.800781 155.746094 106.425781 155.355469 106.742188 154.742188 C 106.828125 154.53125 106.921875 154.320312 107.007812 154.109375 C 107.144531 153.65625 107.144531 153.179688 107.015625 152.71875 Z M 30.417969 199.261719 C 30.34375 198.679688 30.28125 198.097656 30.113281 197.539062 C 29.953125 196.992188 29.722656 196.453125 29.46875 195.933594 C 29.078125 195.113281 28.507812 194.339844 27.894531 193.664062 C 26.660156 192.304688 24.917969 191.257812 23.113281 190.859375 C 22.425781 190.710938 21.699219 190.761719 21.074219 191.121094 C 20.527344 191.4375 20.007812 192.070312 19.863281 192.695312 C 19.703125 193.371094 19.746094 194.128906 20.125 194.730469 C 20.484375 195.292969 21.035156 195.796875 21.699219 195.945312 C 22.078125 196.03125 22.449219 196.144531 22.816406 196.292969 C 22.605469 196.210938 22.394531 196.113281 22.183594 196.03125 C 22.753906 196.273438 23.28125 196.578125 23.769531 196.960938 C 23.589844 196.820312 23.410156 196.683594 23.230469 196.546875 C 23.714844 196.925781 24.148438 197.359375 24.527344 197.855469 C 24.390625 197.675781 24.253906 197.496094 24.117188 197.316406 C 24.484375 197.804688 24.800781 198.34375 25.035156 198.902344 C 24.949219 198.691406 24.855469 198.480469 24.769531 198.269531 C 24.980469 198.785156 25.128906 199.324219 25.214844 199.871094 C 25.183594 199.640625 25.152344 199.410156 25.117188 199.175781 C 25.117188 199.207031 25.128906 199.230469 25.128906 199.261719 C 25.117188 199.621094 25.191406 199.96875 25.363281 200.273438 C 25.46875 200.601562 25.648438 200.886719 25.910156 201.117188 C 26.363281 201.574219 27.125 201.921875 27.78125 201.890625 C 28.464844 201.855469 29.171875 201.636719 29.648438 201.117188 C 30.082031 200.652344 30.503906 199.9375 30.417969 199.261719 Z M 270 109.785156 C 270.242188 105.78125 267.339844 101.929688 263.527344 100.84375 C 262.875 100.652344 262.082031 100.769531 261.488281 101.105469 C 260.941406 101.421875 260.425781 102.054688 260.277344 102.679688 C 259.960938 104.082031 260.699219 105.519531 262.125 105.929688 C 262.355469 105.992188 262.589844 106.078125 262.808594 106.171875 C 262.597656 106.089844 262.386719 105.992188 262.175781 105.910156 C 262.652344 106.109375 263.09375 106.375 263.507812 106.679688 C 263.328125 106.542969 263.148438 106.40625 262.96875 106.269531 C 263.402344 106.605469 263.78125 106.988281 264.128906 107.417969 C 263.992188 107.238281 263.855469 107.058594 263.71875 106.882812 C 264.078125 107.335938 264.363281 107.832031 264.59375 108.371094 C 264.507812 108.160156 264.414062 107.945312 264.328125 107.734375 C 264.542969 108.242188 264.6875 108.761719 264.773438 109.308594 C 264.742188 109.078125 264.710938 108.84375 264.679688 108.613281 C 264.730469 109.003906 264.742188 109.394531 264.71875 109.792969 C 264.679688 110.449219 265.046875 111.210938 265.492188 111.664062 C 265.945312 112.117188 266.707031 112.464844 267.359375 112.433594 C 268.046875 112.402344 268.753906 112.179688 269.226562 111.664062 C 269.714844 111.113281 269.957031 110.511719 270 109.785156 Z M 364.660156 112.644531 C 365.378906 109.507812 364.808594 105.992188 362.84375 103.40625 C 362.410156 102.835938 361.988281 102.394531 361.269531 102.195312 C 360.636719 102.023438 359.792969 102.097656 359.234375 102.457031 C 358.671875 102.816406 358.175781 103.367188 358.019531 104.03125 C 357.871094 104.675781 357.859375 105.507812 358.28125 106.066406 C 358.726562 106.648438 359.097656 107.28125 359.382812 107.957031 C 359.296875 107.746094 359.203125 107.535156 359.117188 107.324219 C 359.414062 108.042969 359.613281 108.78125 359.71875 109.542969 C 359.6875 109.308594 359.65625 109.078125 359.625 108.84375 C 359.71875 109.613281 359.730469 110.375 359.625 111.144531 C 359.65625 110.914062 359.6875 110.679688 359.71875 110.449219 C 359.675781 110.710938 359.632812 110.976562 359.570312 111.242188 C 359.414062 111.925781 359.476562 112.65625 359.835938 113.277344 C 360.152344 113.828125 360.785156 114.34375 361.40625 114.492188 C 362.757812 114.796875 364.332031 114.089844 364.660156 112.644531 Z M 184.871094 67.96875 C 184.269531 67.144531 183.636719 66.386719 182.832031 65.753906 C 182.359375 65.382812 181.882812 65.015625 181.367188 64.707031 C 180.839844 64.390625 180.269531 64.160156 179.699219 63.925781 C 179.351562 63.820312 179 63.800781 178.644531 63.882812 C 178.292969 63.90625 177.96875 64 177.660156 64.199219 C 177.355469 64.371094 177.101562 64.589844 176.921875 64.875 C 176.691406 65.128906 176.53125 65.425781 176.445312 65.773438 C 176.289062 66.449219 176.332031 67.210938 176.710938 67.8125 C 176.847656 67.992188 176.984375 68.171875 177.121094 68.351562 C 177.449219 68.675781 177.839844 68.898438 178.285156 69.027344 C 178.304688 69.035156 178.316406 69.035156 178.335938 69.046875 C 178.125 68.960938 177.914062 68.867188 177.703125 68.78125 C 178.378906 69.066406 179.011719 69.449219 179.601562 69.890625 C 179.425781 69.753906 179.246094 69.617188 179.066406 69.480469 C 179.636719 69.921875 180.140625 70.429688 180.574219 70.988281 C 180.4375 70.808594 180.300781 70.628906 180.164062 70.449219 C 180.203125 70.515625 180.257812 70.578125 180.300781 70.640625 C 180.46875 70.945312 180.691406 71.199219 180.976562 71.378906 C 181.230469 71.613281 181.523438 71.769531 181.871094 71.855469 C 182.222656 71.960938 182.570312 71.980469 182.929688 71.898438 C 183.277344 71.875 183.605469 71.78125 183.910156 71.578125 C 184.46875 71.222656 184.964844 70.671875 185.125 70.007812 C 185.15625 69.773438 185.1875 69.542969 185.21875 69.308594 C 185.230469 68.824219 185.113281 68.382812 184.871094 67.96875 Z M 342.902344 226.875 C 324.828125 226.316406 306.714844 227.054688 288.757812 229.125 C 283.5625 229.726562 278.378906 230.433594 273.207031 231.234375 C 271.792969 231.457031 271.023438 233.21875 271.359375 234.488281 C 271.773438 235.988281 273.199219 236.546875 274.613281 236.335938 C 292.15625 233.601562 309.902344 232.164062 327.667969 231.996094 C 332.746094 231.941406 337.824219 232.007812 342.902344 232.164062 C 346.300781 232.261719 346.289062 226.980469 342.902344 226.875 Z M 262.3125 238.011719 C 265.710938 238.011719 265.710938 232.734375 262.3125 232.734375 C 258.914062 232.734375 258.914062 238.011719 262.3125 238.011719 Z M 161.308594 263.445312 C 144.511719 269.871094 128.226562 277.601562 112.644531 286.59375 C 109.699219 288.292969 112.359375 292.855469 115.304688 291.15625 C 130.484375 282.394531 146.328125 274.800781 162.710938 268.53125 C 164.042969 268.023438 164.960938 266.757812 164.558594 265.28125 C 164.203125 264.015625 162.640625 262.9375 161.308594 263.445312 Z M 329.210938 141.148438 C 327.320312 145.695312 323.445312 152.578125 316.773438 154.703125 C 315.898438 154.976562 315.75 156.136719 316.542969 156.582031 C 319.953125 158.492188 325.707031 162.617188 327.890625 169.585938 C 328.195312 170.546875 329.546875 170.527344 329.84375 169.566406 C 331.28125 164.984375 334.625 159.019531 342.449219 156.90625 C 343.386719 156.65625 343.449219 155.3125 342.53125 154.976562 C 338.382812 153.394531 332.851562 149.738281 331.152344 141.347656 C 330.960938 140.34375 329.601562 140.207031 329.210938 141.148438 Z M 216.710938 149.78125 C 217.660156 154.492188 220.761719 156.539062 223.085938 157.425781 C 223.59375 157.617188 223.5625 158.363281 223.03125 158.511719 C 218.652344 159.695312 216.773438 163.042969 215.96875 165.605469 C 215.800781 166.144531 215.042969 166.15625 214.871094 165.617188 C 213.648438 161.710938 210.417969 159.398438 208.507812 158.332031 C 208.0625 158.078125 208.148438 157.4375 208.632812 157.277344 C 212.382812 156.085938 214.546875 152.230469 215.601562 149.675781 C 215.832031 149.148438 216.605469 149.222656 216.710938 149.78125 Z M 114.839844 262.230469 C 115.789062 266.9375 118.894531 268.984375 121.214844 269.871094 C 121.722656 270.0625 121.691406 270.8125 121.164062 270.960938 C 116.78125 272.140625 114.902344 275.488281 114.101562 278.054688 C 113.929688 278.59375 113.171875 278.601562 113.003906 278.066406 C 111.777344 274.160156 108.546875 271.847656 106.636719 270.78125 C 106.191406 270.527344 106.277344 269.882812 106.761719 269.726562 C 110.511719 268.53125 112.675781 264.679688 113.730469 262.125 C 113.960938 261.597656 114.734375 261.671875 114.839844 262.230469 Z M 100.355469 204.929688 C 101.695312 210.480469 105.898438 212.929688 108.601562 213.957031 C 109.171875 214.167969 109.117188 214.96875 108.535156 215.148438 C 102.613281 216.941406 100.441406 221.96875 99.628906 225.304688 C 99.480469 225.9375 98.59375 225.9375 98.414062 225.3125 C 96.503906 218.925781 92.996094 215.898438 90.78125 214.558594 C 90.296875 214.261719 90.402344 213.511719 90.960938 213.394531 C 95.910156 212.425781 98.148438 208.191406 99.140625 204.886719 C 99.332031 204.265625 100.195312 204.296875 100.355469 204.929688 Z M 293.898438 175 C 295.261719 180.648438 299.609375 183.234375 302.46875 184.34375 C 303.125 184.597656 303.136719 185.503906 302.480469 185.78125 C 297.488281 187.878906 295.082031 194.054688 294.027344 197.910156 C 293.8125 198.667969 292.75 198.660156 292.527344 197.910156 C 290.542969 191.257812 287.207031 188.070312 285.210938 186.675781 C 284.714844 186.328125 284.789062 185.570312 285.335938 185.335938 C 288.863281 183.828125 291.175781 178.601562 292.398438 174.9375 C 292.652344 174.199219 293.71875 174.242188 293.898438 175 Z M 70.542969 230.855469 C 71.90625 236.503906 76.253906 239.089844 79.117188 240.199219 C 79.769531 240.453125 79.78125 241.359375 79.125 241.632812 C 74.132812 243.734375 71.726562 249.910156 70.671875 253.761719 C 70.460938 254.523438 69.394531 254.511719 69.171875 253.761719 C 67.1875 247.113281 63.851562 243.925781 61.855469 242.53125 C 61.359375 242.183594 61.433594 241.421875 61.984375 241.191406 C 65.507812 239.679688 67.820312 234.457031 69.042969 230.792969 C 69.296875 230.054688 70.363281 230.097656 70.542969 230.855469 Z M 329.589844 184.542969 C 330.71875 189.253906 334.351562 191.40625 336.738281 192.335938 C 337.285156 192.546875 337.285156 193.308594 336.746094 193.539062 C 332.589844 195.292969 330.570312 200.441406 329.695312 203.652344 C 329.527344 204.285156 328.628906 204.285156 328.441406 203.652344 C 326.78125 198.097656 324.007812 195.4375 322.339844 194.289062 C 321.925781 194.003906 321.980469 193.371094 322.445312 193.167969 C 325.390625 191.914062 327.308594 187.554688 328.335938 184.492188 C 328.554688 183.878906 329.441406 183.910156 329.589844 184.542969 Z M 329.589844 184.542969 "/></g></svg>