<svg xmlns="http://www.w3.org/2000/svg" xmlns:xlink="http://www.w3.org/1999/xlink" width="500" zoomAndPan="magnify" viewBox="0 0 375 374.999991" height="500" preserveAspectRatio="xMidYMid meet" version="1.2"><defs><clipPath id="c5d4511f36"><path d="M 32 13.359375 L 163 13.359375 L 163 143 L 32 143 Z M 32 13.359375 "/></clipPath><clipPath id="5f44cc0d3e"><path d="M 1 280 L 82 280 L 82 361.359375 L 1 361.359375 Z M 1 280 "/></clipPath></defs><g id="34f2bd569b"><path style=" stroke:none;fill-rule:nonzero;fill:#f5af15;fill-opacity:1;" d="M 269.269531 343.578125 C 268.121094 343.578125 266.988281 343.296875 265.941406 342.738281 L 192.03125 302.753906 L 118.117188 342.738281 C 115.761719 344.003906 112.890625 343.828125 110.710938 342.28125 C 108.535156 340.722656 107.429688 338.070312 107.871094 335.4375 L 122.03125 250.480469 L 62.074219 190.347656 C 60.203125 188.476562 59.558594 185.710938 60.382812 183.207031 C 61.207031 180.707031 63.382812 178.867188 65.988281 178.484375 L 148.675781 166.117188 L 185.699219 88.949219 C 186.863281 86.523438 189.320312 84.976562 192.015625 84.976562 C 194.710938 84.976562 197.167969 86.523438 198.332031 88.949219 L 235.351562 166.117188 L 318.039062 178.484375 C 320.660156 178.878906 322.824219 180.707031 323.648438 183.207031 C 324.472656 185.710938 323.824219 188.476562 321.957031 190.347656 L 261.996094 250.480469 L 276.160156 335.4375 C 276.601562 338.070312 275.496094 340.734375 273.316406 342.28125 C 272.125 343.136719 270.699219 343.578125 269.269531 343.578125 Z M 192.015625 287.785156 C 193.164062 287.785156 194.3125 288.0625 195.34375 288.625 L 259.996094 323.601562 L 247.601562 249.214844 C 247.234375 246.992188 247.953125 244.726562 249.542969 243.121094 L 302.246094 190.257812 L 229.597656 179.394531 C 227.300781 179.058594 225.328125 177.585938 224.3125 175.496094 L 192.015625 108.160156 L 159.703125 175.523438 C 158.703125 177.613281 156.714844 179.070312 154.417969 179.425781 L 81.769531 190.289062 L 134.472656 243.152344 C 136.0625 244.753906 136.796875 247.023438 136.414062 249.246094 L 124.019531 323.628906 L 188.671875 288.652344 C 189.734375 288.078125 190.867188 287.785156 192.015625 287.785156 Z M 192.015625 287.785156 "/><g clip-rule="nonzero" clip-path="url(#c5d4511f36)"><path style=" stroke:none;fill-rule:nonzero;fill:#f5af15;fill-opacity:1;" d="M 98.039062 142.238281 C 95.402344 142.238281 92.988281 140.769531 91.796875 138.414062 L 74.703125 104.777344 L 38.152344 100.210938 C 35.53125 99.886719 33.308594 98.105469 32.425781 95.621094 C 31.542969 93.132812 32.132812 90.347656 33.941406 88.433594 L 59.808594 61.246094 L 52.699219 23.855469 C 52.195312 21.234375 53.242188 18.542969 55.375 16.953125 C 57.511719 15.347656 60.382812 15.097656 62.765625 16.316406 L 95.695312 33.128906 L 127.832031 14.742188 C 130.160156 13.417969 133.027344 13.519531 135.25 15.023438 C 137.460938 16.523438 138.621094 19.160156 138.253906 21.808594 L 132.851562 59.496094 L 159.921875 85.402344 C 161.835938 87.226562 162.542969 89.964844 161.777344 92.5 C 161.011719 95.03125 158.878906 96.898438 156.289062 97.355469 L 119.984375 103.6875 L 104.425781 138.117188 C 103.320312 140.578125 100.894531 142.179688 98.199219 142.238281 C 98.140625 142.238281 98.097656 142.238281 98.039062 142.238281 Z M 53.667969 88.039062 L 80.121094 91.335938 C 82.433594 91.628906 84.433594 93.042969 85.496094 95.117188 L 97.667969 119.054688 L 108.738281 94.542969 C 109.695312 92.425781 111.640625 90.921875 113.921875 90.527344 L 140.226562 85.949219 L 120.546875 67.121094 C 118.910156 65.558594 118.132812 63.308594 118.457031 61.070312 L 122.328125 34.011719 L 99.347656 47.160156 C 97.300781 48.335938 94.800781 48.394531 92.679688 47.320312 L 69.140625 35.292969 L 74.25 62.171875 C 74.675781 64.394531 74 66.679688 72.4375 68.3125 Z M 53.667969 88.039062 "/></g><path style=" stroke:none;fill-rule:nonzero;fill:#f5af15;fill-opacity:1;" d="M 321.292969 301.09375 C 320.308594 301.09375 319.320312 300.886719 318.394531 300.460938 C 315.949219 299.339844 314.359375 296.941406 314.300781 294.246094 L 313.828125 273.960938 L 297.371094 262.90625 C 295.179688 261.433594 294 258.859375 294.324219 256.238281 C 294.648438 253.617188 296.414062 251.410156 298.886719 250.511719 L 317.363281 243.8125 L 322.5 224.277344 C 323.191406 221.671875 325.296875 219.699219 327.945312 219.1875 C 330.582031 218.671875 333.289062 219.730469 334.894531 221.878906 L 346.773438 237.882812 L 366.25 236.878906 C 368.886719 236.71875 371.386719 238.117188 372.699219 240.414062 C 374.007812 242.722656 373.90625 245.566406 372.417969 247.773438 L 361.214844 264.480469 L 368.253906 283.472656 C 369.179688 285.972656 368.605469 288.769531 366.78125 290.714844 C 364.957031 292.65625 362.1875 293.378906 359.640625 292.597656 L 340.976562 286.871094 L 325.78125 299.472656 C 324.488281 300.546875 322.898438 301.09375 321.292969 301.09375 Z M 316.625 258.992188 L 324.636719 264.378906 C 326.519531 265.644531 327.683594 267.75 327.726562 270.03125 L 327.945312 279.496094 L 334.925781 273.710938 C 336.734375 272.210938 339.195312 271.722656 341.445312 272.402344 L 350.191406 275.082031 L 346.832031 266.011719 C 346.054688 263.90625 346.332031 261.550781 347.585938 259.683594 L 353 251.601562 L 343.742188 252.070312 C 341.445312 252.203125 339.164062 251.128906 337.765625 249.261719 L 332.332031 241.945312 L 329.964844 250.9375 C 329.375 253.160156 327.742188 254.957031 325.578125 255.738281 Z M 316.625 258.992188 "/><g clip-rule="nonzero" clip-path="url(#5f44cc0d3e)"><path style=" stroke:none;fill-rule:nonzero;fill:#f5af15;fill-opacity:1;" d="M 39.65625 361.492188 C 39.476562 361.492188 39.300781 361.492188 39.125 361.476562 C 36.445312 361.269531 34.105469 359.546875 33.132812 357.03125 L 25.800781 338.203125 L 6.652344 333.757812 C 4.074219 333.152344 2.058594 331.167969 1.425781 328.605469 C 0.792969 326.042969 1.660156 323.335938 3.664062 321.628906 L 18.839844 308.613281 L 17.015625 288.316406 C 16.777344 285.648438 18.074219 283.074219 20.371094 281.691406 C 22.667969 280.304688 25.550781 280.351562 27.789062 281.808594 L 44.351562 292.523438 L 62.308594 284.574219 C 64.753906 283.484375 67.59375 283.898438 69.640625 285.605469 C 71.6875 287.3125 72.585938 290.050781 71.9375 292.644531 L 67.078125 312.425781 L 80.136719 327.722656 C 81.859375 329.738281 82.285156 332.535156 81.269531 334.980469 C 80.238281 337.421875 77.929688 339.070312 75.292969 339.25 L 55.746094 340.589844 L 45.703125 357.988281 C 44.46875 360.167969 42.140625 361.492188 39.65625 361.492188 Z M 23.300781 323.246094 L 32.574219 325.394531 C 34.828125 325.910156 36.679688 327.515625 37.519531 329.679688 L 40.890625 338.351562 L 45.5 330.355469 C 46.660156 328.339844 48.753906 327.03125 51.078125 326.867188 L 60.46875 326.222656 L 54.109375 318.773438 C 52.652344 317.066406 52.09375 314.738281 52.636719 312.558594 L 54.949219 303.136719 L 46.558594 306.847656 C 44.394531 307.804688 41.90625 307.613281 39.917969 306.316406 L 32.25 301.355469 L 33.117188 310.925781 C 33.324219 313.179688 32.425781 315.402344 30.703125 316.875 Z M 23.300781 323.246094 "/></g></g></svg>