<svg xmlns="http://www.w3.org/2000/svg" xmlns:xlink="http://www.w3.org/1999/xlink" width="500" zoomAndPan="magnify" viewBox="0 0 375 374.999991" height="500" preserveAspectRatio="xMidYMid meet" version="1.2"><defs><clipPath id="5d84f79281"><path d="M 0 0 L 375 0 L 375 374.25 L 0 374.25 Z M 0 0 "/></clipPath></defs><g id="157ed648b0"><path style=" stroke:none;fill-rule:nonzero;fill:#f57515;fill-opacity:1;" d="M 308.90625 168.671875 C 293.4375 168.671875 280.898438 156.132812 280.898438 140.664062 C 280.898438 125.195312 293.4375 112.65625 308.90625 112.65625 C 324.375 112.65625 336.914062 125.195312 336.914062 140.664062 C 336.914062 156.132812 324.375 168.671875 308.90625 168.671875 Z M 234.21875 93.980469 C 218.75 93.980469 206.210938 81.441406 206.210938 65.972656 C 206.210938 50.503906 218.75 37.964844 234.21875 37.964844 C 249.6875 37.964844 262.226562 50.503906 262.226562 65.972656 C 262.226562 81.441406 249.6875 93.980469 234.21875 93.980469 Z M 318.242188 75.308594 C 307.929688 75.308594 299.570312 66.949219 299.570312 56.636719 C 299.570312 46.328125 307.929688 37.964844 318.242188 37.964844 C 328.554688 37.964844 336.914062 46.328125 336.914062 56.636719 C 336.914062 66.949219 328.554688 75.308594 318.242188 75.308594 Z M 308.785156 199.789062 C 340.882812 199.855469 367.4375 173.855469 368.027344 141.765625 C 368.355469 123.730469 360.597656 107.507812 348.148438 96.449219 C 360.730469 86.984375 368.683594 71.695312 367.992188 54.585938 C 366.957031 28.835938 346.046875 7.925781 320.296875 6.890625 C 303.1875 6.199219 287.898438 14.152344 278.429688 26.734375 C 267.375 14.28125 251.148438 6.527344 233.117188 6.855469 C 201.027344 7.441406 175.027344 34 175.089844 66.097656 C 175.152344 95.742188 197.03125 120.261719 225.523438 124.460938 L 7.042969 342.941406 L 31.9375 367.839844 L 250.421875 149.355469 C 254.621094 177.851562 279.140625 199.730469 308.785156 199.789062 "/><path style=" stroke:none;fill-rule:nonzero;fill:#f57515;fill-opacity:1;" d="M 193.761719 143.773438 L 231.105469 181.117188 C 237.980469 187.992188 237.980469 199.140625 231.105469 206.015625 C 224.234375 212.890625 213.085938 212.890625 206.210938 206.015625 L 168.867188 168.671875 C 161.992188 161.796875 161.992188 150.648438 168.867188 143.773438 C 175.742188 136.898438 186.886719 136.898438 193.761719 143.773438 "/><path style=" stroke:none;fill-rule:nonzero;fill:#f57515;fill-opacity:1;" d="M 125.300781 274.476562 L 162.644531 311.824219 L 143.972656 330.496094 L 125.300781 311.824219 L 106.625 330.496094 L 125.300781 349.167969 L 106.625 367.839844 L 69.28125 330.496094 L 125.300781 274.476562 "/><path style=" stroke:none;fill-rule:nonzero;fill:#100f0d;fill-opacity:1;" d="M 305.792969 56.636719 C 305.792969 49.777344 311.378906 44.191406 318.242188 44.191406 C 325.105469 44.191406 330.691406 49.777344 330.691406 56.636719 C 330.691406 63.5 325.105469 69.085938 318.242188 69.085938 C 311.378906 69.085938 305.792969 63.5 305.792969 56.636719 Z M 343.140625 56.636719 C 343.140625 42.910156 331.96875 31.742188 318.242188 31.742188 C 304.515625 31.742188 293.347656 42.910156 293.347656 56.636719 C 293.347656 70.367188 304.515625 81.535156 318.242188 81.535156 C 331.96875 81.535156 343.140625 70.367188 343.140625 56.636719 "/><g clip-rule="nonzero" clip-path="url(#5d84f79281)"><path style=" stroke:none;fill-rule:nonzero;fill:#100f0d;fill-opacity:1;" d="M 226.707031 201.613281 C 222.269531 206.050781 215.046875 206.050781 210.613281 201.613281 L 173.265625 164.269531 C 168.832031 159.832031 168.832031 152.613281 173.265625 148.175781 C 175.484375 145.957031 178.402344 144.847656 181.316406 144.847656 C 184.230469 144.847656 187.144531 145.957031 189.363281 148.175781 L 226.707031 185.519531 C 231.144531 189.957031 231.144531 197.175781 226.707031 201.613281 Z M 153.839844 311.824219 L 143.972656 321.691406 L 129.699219 307.421875 C 127.269531 304.992188 123.328125 304.992188 120.898438 307.421875 L 102.226562 326.09375 C 99.796875 328.523438 99.796875 332.464844 102.226562 334.894531 L 116.496094 349.167969 L 106.625 359.039062 L 78.085938 330.496094 L 125.300781 283.28125 Z M 374.214844 54.332031 C 373.042969 25.410156 349.472656 1.839844 320.546875 0.664062 C 304.527344 0.0234375 289.136719 6.253906 278.109375 17.566406 C 265.835938 6.433594 249.75 0.320312 233 0.632812 L 233.226562 13.078125 C 248.722656 12.808594 263.492188 19.277344 273.777344 30.863281 C 275.019531 32.257812 276.816406 33.03125 278.683594 32.953125 C 280.550781 32.875 282.28125 31.96875 283.40625 30.476562 C 292.023438 19.023438 305.726562 12.527344 320.046875 13.105469 C 342.539062 14.015625 360.867188 32.34375 361.777344 54.832031 C 362.347656 69.160156 355.855469 82.855469 344.40625 91.476562 C 342.914062 92.601562 342.003906 94.332031 341.929688 96.199219 C 341.851562 98.0625 342.621094 99.863281 344.015625 101.101562 C 355.601562 111.390625 362.085938 126.171875 361.804688 141.652344 C 361.277344 170.300781 337.554688 193.566406 308.898438 193.566406 C 308.863281 193.566406 308.828125 193.566406 308.792969 193.566406 C 296.046875 193.539062 283.746094 188.917969 274.152344 180.546875 C 264.644531 172.253906 258.402344 160.855469 256.574219 148.453125 C 256.230469 146.125 254.605469 144.191406 252.371094 143.453125 C 250.140625 142.714844 247.679688 143.296875 246.015625 144.960938 L 224.882812 166.09375 L 208.789062 150 L 229.921875 128.863281 C 231.585938 127.203125 232.167969 124.742188 231.429688 122.511719 C 230.691406 120.277344 228.753906 118.652344 226.429688 118.308594 C 214.023438 116.476562 202.628906 110.234375 194.335938 100.730469 C 185.964844 91.136719 181.34375 78.832031 181.316406 66.085938 C 181.269531 42.300781 197.304688 21.265625 220.308594 14.9375 L 217.007812 2.933594 C 188.605469 10.75 168.808594 36.726562 168.867188 66.109375 C 168.898438 81.855469 174.613281 97.058594 184.957031 108.914062 C 192.609375 117.691406 202.417969 124.214844 213.289062 127.894531 L 199.988281 141.199219 L 198.164062 139.375 C 188.871094 130.082031 173.757812 130.082031 164.464844 139.375 C 155.175781 148.664062 155.175781 163.78125 164.464844 173.070312 L 166.289062 174.894531 L 2.640625 338.542969 C 0.210938 340.972656 0.210938 344.910156 2.640625 347.34375 L 27.539062 372.238281 C 28.753906 373.453125 30.347656 374.0625 31.9375 374.0625 C 33.53125 374.0625 35.125 373.453125 36.339844 372.238281 L 69.28125 339.296875 L 102.226562 372.238281 C 103.441406 373.453125 105.035156 374.0625 106.625 374.0625 C 108.21875 374.0625 109.8125 373.453125 111.027344 372.238281 L 129.699219 353.566406 C 132.128906 351.136719 132.128906 347.195312 129.699219 344.765625 L 115.429688 330.496094 L 125.300781 320.625 L 139.570312 334.894531 C 142 337.328125 145.941406 337.328125 148.371094 334.894531 L 167.042969 316.222656 C 169.476562 313.792969 169.476562 309.851562 167.042969 307.421875 L 134.101562 274.476562 L 191.9375 216.640625 L 183.136719 207.835938 L 31.9375 359.039062 L 15.84375 342.941406 L 175.089844 183.695312 L 201.808594 210.414062 C 206.453125 215.0625 212.554688 217.382812 218.660156 217.382812 C 224.761719 217.382812 230.863281 215.0625 235.507812 210.414062 C 244.796875 201.125 244.796875 186.007812 235.507812 176.71875 L 233.683594 174.894531 L 246.984375 161.59375 C 250.667969 172.464844 257.191406 182.269531 265.96875 189.925781 C 277.824219 200.265625 293.023438 205.980469 308.769531 206.015625 C 308.8125 206.015625 308.855469 206.015625 308.898438 206.015625 C 344.289062 206.011719 373.597656 177.269531 374.25 141.882812 C 374.554688 125.128906 368.449219 109.042969 357.3125 96.773438 C 368.628906 85.746094 374.855469 70.34375 374.214844 54.332031 "/></g><path style=" stroke:none;fill-rule:nonzero;fill:#100f0d;fill-opacity:1;" d="M 234.21875 44.191406 C 246.230469 44.191406 256.003906 53.964844 256.003906 65.972656 C 256.003906 77.984375 246.230469 87.757812 234.21875 87.757812 C 222.207031 87.757812 212.433594 77.984375 212.433594 65.972656 C 212.433594 53.964844 222.207031 44.191406 234.21875 44.191406 Z M 234.21875 100.207031 C 253.09375 100.207031 268.449219 84.851562 268.449219 65.972656 C 268.449219 47.097656 253.09375 31.742188 234.21875 31.742188 C 215.34375 31.742188 199.988281 47.097656 199.988281 65.972656 C 199.988281 84.851562 215.34375 100.207031 234.21875 100.207031 "/><path style=" stroke:none;fill-rule:nonzero;fill:#100f0d;fill-opacity:1;" d="M 308.90625 118.878906 C 320.917969 118.878906 330.691406 128.652344 330.691406 140.664062 C 330.691406 152.671875 320.917969 162.445312 308.90625 162.445312 C 296.898438 162.445312 287.121094 152.671875 287.121094 140.664062 C 287.121094 128.652344 296.898438 118.878906 308.90625 118.878906 Z M 274.675781 140.664062 C 274.675781 159.539062 290.03125 174.894531 308.90625 174.894531 C 327.78125 174.894531 343.140625 159.539062 343.140625 140.664062 C 343.140625 121.785156 327.78125 106.429688 308.90625 106.429688 C 290.03125 106.429688 274.675781 121.785156 274.675781 140.664062 "/></g></svg>