<svg xmlns="http://www.w3.org/2000/svg" xmlns:xlink="http://www.w3.org/1999/xlink" width="500" zoomAndPan="magnify" viewBox="0 0 375 374.999991" height="500" preserveAspectRatio="xMidYMid meet" version="1.2"><defs><clipPath id="a242300334"><path d="M 40.828125 238 L 117 238 L 117 315 L 40.828125 315 Z M 40.828125 238 "/></clipPath><clipPath id="431e536bec"><path d="M 199 12.890625 L 276 12.890625 L 276 89 L 199 89 Z M 199 12.890625 "/></clipPath><clipPath id="b9e3b87d80"><path d="M 208 235 L 334.078125 235 L 334.078125 362 L 208 362 Z M 208 235 "/></clipPath></defs><g id="fa5bf02bf6"><g clip-rule="nonzero" clip-path="url(#a242300334)"><path style=" stroke:none;fill-rule:nonzero;fill:#ff69b4;fill-opacity:1;" d="M 78.667969 238.746094 C 74.980469 269.902344 71.992188 272.890625 40.835938 276.578125 C 71.992188 280.265625 74.980469 283.253906 78.667969 314.410156 C 82.355469 283.253906 85.34375 280.265625 116.5 276.578125 C 85.34375 272.890625 82.355469 269.902344 78.667969 238.746094 Z M 78.667969 238.746094 "/></g><g clip-rule="nonzero" clip-path="url(#431e536bec)"><path style=" stroke:none;fill-rule:nonzero;fill:#ff69b4;fill-opacity:1;" d="M 237.796875 88.585938 C 241.480469 57.429688 244.472656 54.441406 275.628906 50.753906 C 244.472656 47.066406 241.480469 44.078125 237.796875 12.921875 C 234.109375 44.078125 231.117188 47.066406 199.964844 50.753906 C 231.117188 54.441406 234.109375 57.429688 237.796875 88.585938 Z M 237.796875 88.585938 "/></g><path style=" stroke:none;fill-rule:nonzero;fill:#ff69b4;fill-opacity:1;" d="M 180.023438 85.519531 C 170.085938 169.46875 162.035156 177.523438 78.085938 187.457031 C 162.035156 197.394531 170.085938 205.445312 180.023438 289.394531 C 189.957031 205.449219 198.011719 197.394531 281.960938 187.457031 C 198.011719 177.523438 189.957031 169.46875 180.023438 85.519531 Z M 180.023438 85.519531 "/><g clip-rule="nonzero" clip-path="url(#b9e3b87d80)"><path style=" stroke:none;fill-rule:nonzero;fill:#ff69b4;fill-opacity:1;" d="M 271.066406 235.78125 C 264.921875 287.707031 259.9375 292.6875 208.011719 298.832031 C 259.9375 304.980469 264.921875 309.960938 271.066406 361.886719 C 277.210938 309.960938 282.191406 304.976562 334.117188 298.832031 C 282.195312 292.6875 277.210938 287.707031 271.066406 235.78125 Z M 271.066406 235.78125 "/></g></g></svg>