<svg xmlns="http://www.w3.org/2000/svg" xmlns:xlink="http://www.w3.org/1999/xlink" width="500" zoomAndPan="magnify" viewBox="0 0 375 374.999991" height="500" preserveAspectRatio="xMidYMid meet" version="1.2"><defs><clipPath id="c892c2e504"><path d="M 1 38 L 374 38 L 374 337.21875 L 1 337.21875 Z M 1 38 "/></clipPath><clipPath id="62ac731a76"><path d="M 0 112.96875 L 0 262.03125 C 0 303.453125 33.578125 337.03125 75 337.03125 L 300 337.03125 C 341.421875 337.03125 375 303.453125 375 262.03125 L 375 112.96875 C 375 93.078125 367.097656 74 353.03125 59.9375 C 338.96875 45.871094 319.890625 37.96875 300 37.96875 L 75 37.96875 C 33.578125 37.96875 0 71.546875 0 112.96875 Z M 0 112.96875 "/></clipPath><clipPath id="e1ebdb6b10"><path d="M 74 156 L 301 156 L 301 284 L 74 284 Z M 74 156 "/></clipPath><clipPath id="88acf577f5"><path d="M 0 112.96875 L 0 262.03125 C 0 303.453125 33.578125 337.03125 75 337.03125 L 300 337.03125 C 341.421875 337.03125 375 303.453125 375 262.03125 L 375 112.96875 C 375 93.078125 367.097656 74 353.03125 59.9375 C 338.96875 45.871094 319.890625 37.96875 300 37.96875 L 75 37.96875 C 33.578125 37.96875 0 71.546875 0 112.96875 Z M 0 112.96875 "/></clipPath></defs><g id="f2c03fba91"><g clip-rule="nonzero" clip-path="url(#c892c2e504)"><g clip-rule="nonzero" clip-path="url(#62ac731a76)"><path style=" stroke:none;fill-rule:nonzero;fill:#00a8a8;fill-opacity:1;" d="M 351.824219 118.496094 C 347.339844 113.898438 339.945312 113.78125 335.34375 118.265625 C 330.746094 122.75 330.628906 130.144531 335.113281 134.742188 L 345.941406 145.867188 L 187.5 308.675781 L 29.058594 145.867188 L 110.929688 61.722656 L 187.441406 61.722656 C 187.5 61.722656 187.558594 61.722656 187.617188 61.722656 L 264.128906 61.722656 L 276.941406 74.882812 C 279.210938 77.210938 282.238281 78.4375 285.269531 78.4375 C 288.179688 78.4375 291.148438 77.328125 293.363281 75.117188 C 297.960938 70.632812 298.078125 63.238281 293.59375 58.636719 L 277.40625 41.984375 C 275.136719 39.710938 272.167969 38.433594 269.023438 38.433594 L 187.734375 38.433594 C 187.675781 38.433594 187.617188 38.433594 187.558594 38.433594 L 105.976562 38.433594 C 102.832031 38.433594 99.804688 39.710938 97.652344 41.984375 L 4.484375 137.773438 C 0.117188 142.3125 0.117188 149.476562 4.484375 154.019531 L 178.882812 333.25 C 179.058594 333.425781 179.230469 333.65625 179.40625 333.890625 C 180.335938 334.761719 181.328125 335.402344 182.433594 335.929688 C 184.0625 336.742188 185.871094 337.207031 187.617188 337.207031 C 190.527344 337.207031 193.496094 336.101562 195.710938 333.890625 C 196.234375 333.367188 196.699219 332.839844 197.109375 332.257812 L 370.515625 154.019531 C 374.882812 149.476562 374.882812 142.3125 370.515625 137.773438 Z M 351.824219 118.496094 "/></g></g><g clip-rule="nonzero" clip-path="url(#e1ebdb6b10)"><g clip-rule="nonzero" clip-path="url(#88acf577f5)"><path style=" stroke:none;fill-rule:nonzero;fill:#00a8a8;fill-opacity:1;" d="M 280.144531 159.609375 L 187.5 254.871094 L 94.855469 159.609375 C 90.371094 155.007812 82.976562 154.890625 78.378906 159.375 C 73.777344 163.859375 73.660156 171.253906 78.144531 175.855469 L 179.40625 280.027344 L 179.523438 280.144531 C 181.734375 282.296875 184.589844 283.347656 187.441406 283.347656 C 190.46875 283.347656 193.4375 282.183594 195.769531 279.851562 C 196 279.621094 196.117188 279.386719 196.351562 279.152344 L 296.796875 175.914062 C 301.28125 171.3125 301.164062 163.917969 296.5625 159.433594 C 292.023438 154.890625 284.628906 155.007812 280.144531 159.609375 Z M 280.144531 159.609375 "/></g></g></g></svg>