<svg xmlns="http://www.w3.org/2000/svg" xmlns:xlink="http://www.w3.org/1999/xlink" width="500" zoomAndPan="magnify" viewBox="0 0 375 374.999991" height="500" preserveAspectRatio="xMidYMid meet" version="1.2"><defs><clipPath id="4f0f28b0b7"><path d="M 113 112.5 L 252 112.5 L 252 241 L 113 241 Z M 113 112.5 "/></clipPath><clipPath id="72d047f08a"><path d="M 198 192 L 256.191406 192 L 256.191406 223 L 198 223 Z M 198 192 "/></clipPath><clipPath id="0797aef010"><path d="M 108.441406 229 L 126 229 L 126 261 L 108.441406 261 Z M 108.441406 229 "/></clipPath></defs><g id="efc1ef19ff"><g clip-rule="nonzero" clip-path="url(#4f0f28b0b7)"><path style=" stroke:none;fill-rule:nonzero;fill:#558b57;fill-opacity:1;" d="M 250.515625 187.585938 C 248.824219 181.816406 239.3125 176.359375 230.359375 176.359375 C 221.40625 176.359375 210.59375 182.300781 205.664062 177.96875 C 200.734375 173.636719 210.101562 164.011719 204.480469 157.246094 C 198.859375 150.484375 175.855469 152.828125 172.339844 145.59375 C 168.828125 138.363281 178.613281 130.488281 179.652344 123.433594 C 180.683594 116.378906 175.9375 112.546875 175.9375 112.546875 L 165.183594 112.546875 C 165.183594 112.546875 172.578125 116.996094 170.515625 123.382812 C 168.453125 129.769531 153.363281 135.1875 153.363281 142.09375 C 153.363281 148.996094 162.492188 150.988281 163.164062 157.253906 C 163.839844 163.523438 154.574219 171.660156 145.496094 176.027344 C 136.367188 180.417969 119.4375 184.667969 114.785156 199.804688 C 110.195312 214.753906 120.480469 230.367188 120.742188 230.765625 C 123.335938 232.335938 126.839844 240.925781 126.839844 240.925781 L 198.839844 222.207031 L 249.347656 199.273438 C 249.347656 199.273438 252.203125 193.355469 250.515625 187.585938 Z M 250.515625 187.585938 "/></g><path style=" stroke:none;fill-rule:nonzero;fill:#d8959a;fill-opacity:1;" d="M 172.089844 191.335938 C 176.828125 192.984375 183.746094 194.714844 185.789062 202.226562 C 183.375 205.53125 180.691406 206.554688 177.457031 202.515625 C 172.5 198.894531 171.207031 195.117188 172.089844 191.335938 Z M 172.089844 191.335938 "/><path style=" stroke:none;fill-rule:nonzero;fill:#3fa07f;fill-opacity:1;" d="M 220.261719 198.765625 L 232.921875 199.394531 C 228.03125 202.210938 225.851562 212.816406 218.257812 214.285156 C 215.183594 214.878906 207.746094 212.023438 204.679688 212.347656 C 199.601562 212.886719 194.695312 208.710938 190.480469 208.769531 C 186.078125 206.109375 187.152344 203.867188 190.480469 201.796875 L 190.480469 201.792969 C 193.214844 201.46875 195.957031 201.015625 198.523438 200.375 C 210.675781 197.347656 221.507812 186.195312 221.507812 186.195312 C 224.289062 187.535156 226.378906 189.585938 227.796875 192.324219 Z M 220.261719 198.765625 "/><g clip-rule="nonzero" clip-path="url(#72d047f08a)"><path style=" stroke:none;fill-rule:nonzero;fill:#4aaf8f;fill-opacity:1;" d="M 231.554688 211.757812 L 256.191406 211.757812 L 256.191406 222.207031 L 204.679688 222.207031 C 204.679688 222.207031 198.839844 218.898438 198.839844 214.785156 C 198.839844 210.675781 204.679688 207.957031 204.679688 207.957031 C 207.746094 207.632812 210.878906 207.191406 213.953125 206.597656 C 221.542969 205.128906 228.03125 202.210938 232.921875 199.394531 C 239.207031 195.777344 242.863281 192.324219 242.863281 192.324219 C 245.964844 193.957031 248.128906 196.273438 249.347656 199.273438 C 249.71875 200.1875 250 201.167969 250.195312 202.210938 C 244.667969 206.53125 238.546875 209.859375 231.554688 211.757812 Z M 231.554688 211.757812 "/></g><path style=" stroke:none;fill-rule:nonzero;fill:#53b79a;fill-opacity:1;" d="M 177.453125 202.515625 C 179.886719 202.511719 182.757812 202.441406 185.789062 202.226562 C 187.328125 202.125 188.902344 201.980469 190.480469 201.792969 L 190.480469 208.769531 C 186.949219 208.816406 183.902344 208.753906 181.648438 208.671875 C 179.386719 208.585938 177.511719 210.394531 177.511719 212.660156 L 177.511719 214.285156 C 175.621094 213.730469 173.757812 216.492188 172.035156 216.054688 C 171.417969 215.898438 170.855469 212.488281 170.265625 212.347656 L 170.265625 207.34375 C 170.265625 204.648438 172.464844 202.472656 175.160156 202.507812 C 175.867188 202.515625 176.636719 202.523438 177.453125 202.515625 Z M 177.453125 202.515625 "/><path style=" stroke:none;fill-rule:nonzero;fill:#6fceae;fill-opacity:1;" d="M 190.480469 208.769531 C 194.695312 208.710938 199.601562 208.496094 204.679688 207.957031 C 204.679688 207.957031 202.382812 210.972656 202.382812 215.082031 C 202.382812 219.195312 204.679688 222.207031 204.679688 222.207031 L 199.402344 222.207031 C 196.765625 221.035156 193.851562 223.890625 190.972656 222.808594 C 189.054688 222.085938 185.363281 221.632812 183.425781 220.976562 C 181.738281 220.40625 178.484375 220.167969 176.839844 219.65625 C 175.914062 219.371094 178.414062 214.550781 177.511719 214.285156 L 177.511719 212.660156 C 177.511719 210.394531 179.386719 208.585938 181.648438 208.671875 C 183.902344 208.753906 186.949219 208.816406 190.480469 208.769531 Z M 190.480469 208.769531 "/><path style=" stroke:none;fill-rule:nonzero;fill:#d8959a;fill-opacity:1;" d="M 154.238281 191.335938 C 152.707031 197.746094 151.566406 205.117188 147.253906 213.453125 C 144.507812 215.984375 138.941406 212.636719 140.347656 207.222656 C 140.066406 205.65625 140.070312 204.035156 140.492188 202.402344 C 142.476562 194.742188 149.464844 192.996094 154.238281 191.335938 Z M 154.238281 191.335938 "/><path style=" stroke:none;fill-rule:nonzero;fill:#d8959a;fill-opacity:1;" d="M 170.265625 207.34375 L 170.265625 212.347656 C 168.195312 211.855469 165.488281 213.714844 163.878906 213.453125 C 161.613281 213.082031 160.34375 210.664062 158.410156 210.667969 C 152.757812 201.078125 157.332031 191.476562 163.160156 182.460938 C 163.164062 182.453125 163.164062 182.449219 163.164062 182.445312 C 163.171875 182.460938 163.175781 182.480469 163.1875 182.5 C 167.484375 191.625 170.632812 198.253906 170.265625 207.34375 Z M 170.265625 207.34375 "/><path style=" stroke:none;fill-rule:nonzero;fill:#82af7e;fill-opacity:1;" d="M 249.136719 156.734375 C 252.308594 156.734375 254.878906 158.867188 254.878906 161.496094 C 254.878906 164.121094 252.308594 166.25 249.136719 166.25 C 248.019531 166.25 246.976562 165.980469 246.089844 165.519531 C 245.261719 167.300781 243.183594 168.566406 240.742188 168.566406 C 237.570312 168.566406 235 166.4375 235 163.808594 C 235 161.863281 236.410156 160.191406 238.433594 159.453125 C 237.78125 158.683594 237.398438 157.75 237.398438 156.734375 C 237.398438 154.109375 239.96875 151.976562 243.140625 151.976562 C 246.3125 151.976562 248.882812 154.109375 248.882812 156.734375 C 248.882812 156.742188 248.878906 156.742188 248.878906 156.746094 C 248.964844 156.742188 249.050781 156.734375 249.136719 156.734375 Z M 249.136719 156.734375 "/><path style=" stroke:none;fill-rule:nonzero;fill:#82af7e;fill-opacity:1;" d="M 230.207031 130.605469 C 232.746094 130.605469 234.804688 133.292969 234.804688 136.605469 C 234.804688 139.917969 232.746094 142.605469 230.207031 142.605469 C 227.667969 142.605469 225.613281 139.917969 225.613281 136.605469 C 225.613281 133.292969 227.667969 130.605469 230.207031 130.605469 Z M 230.207031 130.605469 "/><path style=" stroke:none;fill-rule:nonzero;fill:#dfa3a5;fill-opacity:1;" d="M 157.503906 189.878906 C 161.246094 187.347656 163.050781 182.742188 163.160156 182.460938 C 160.292969 191.277344 158.710938 200.683594 158.410156 210.667969 C 154.820312 213.496094 151.082031 214.460938 147.253906 213.453125 C 147.429688 204.910156 149.875 197.601562 154.238281 191.335938 C 155.539062 190.882812 156.675781 190.433594 157.503906 189.878906 Z M 157.503906 189.878906 "/><path style=" stroke:none;fill-rule:nonzero;fill:#fda171;fill-opacity:1;" d="M 200.890625 222.886719 C 200.402344 222.660156 199.90625 222.433594 199.402344 222.207031 C 196.765625 221.035156 193.945312 219.886719 191.066406 218.804688 C 189.148438 218.082031 187.203125 217.390625 185.265625 216.734375 C 183.578125 216.164062 181.902344 215.621094 180.257812 215.113281 C 179.332031 214.828125 178.414062 214.550781 177.511719 214.285156 C 175.621094 213.730469 173.792969 213.230469 172.070312 212.796875 C 171.453125 212.636719 170.855469 212.488281 170.265625 212.347656 C 168.195312 211.855469 166.316406 211.464844 164.707031 211.203125 C 162.441406 210.832031 160.34375 210.664062 158.410156 210.667969 C 153.730469 210.6875 150.019531 211.734375 147.253906 213.453125 C 143.800781 215.597656 141.816406 218.78125 141.242188 222.296875 C 140.847656 224.691406 141.128906 227.152344 142.164062 229.472656 L 196.382812 240.925781 C 206.375 239.96875 214.367188 237.925781 214.949219 234.367188 C 215.5 230.996094 209.328125 226.800781 200.890625 222.886719 Z M 200.890625 222.886719 "/><path style=" stroke:none;fill-rule:nonzero;fill:#82af7e;fill-opacity:1;" d="M 215.082031 132.558594 C 215.082031 135.640625 212.6875 138.15625 209.65625 138.351562 C 210.679688 139.398438 211.316406 140.835938 211.316406 142.414062 C 211.316406 145.625 208.714844 148.226562 205.507812 148.226562 C 202.300781 148.226562 199.699219 145.625 199.699219 142.414062 C 199.699219 141.421875 199.953125 140.484375 200.390625 139.664062 C 197.21875 139.625 194.660156 137.042969 194.660156 133.859375 C 194.660156 130.652344 197.261719 128.050781 200.46875 128.050781 C 201.953125 128.050781 203.300781 128.609375 204.332031 129.527344 C 205.351562 127.867188 207.179688 126.75 209.273438 126.75 C 212.484375 126.75 215.082031 129.355469 215.082031 132.558594 Z M 215.082031 132.558594 "/><path style=" stroke:none;fill-rule:nonzero;fill:#ffbc92;fill-opacity:1;" d="M 160.042969 230.875 C 161.835938 231.125 163.667969 231.402344 165.515625 231.707031 C 167.636719 232.058594 169.777344 232.449219 171.890625 232.871094 C 182.058594 234.898438 191.703125 237.707031 196.382812 240.925781 C 198.257812 242.214844 199.335938 243.570312 199.335938 244.96875 C 199.335938 250.445312 182.804688 255.253906 166.800781 258.011719 C 157.746094 259.570312 148.859375 260.476562 143.230469 260.476562 C 134.964844 260.476562 129.136719 258.359375 125.492188 255.175781 C 122.269531 252.359375 118.449219 248.714844 118.449219 244.96875 C 118.449219 241.21875 122.269531 237.574219 125.492188 234.761719 C 127.3125 233.171875 129.671875 231.851562 132.605469 230.921875 C 135.296875 230.074219 138.476562 229.554688 142.164062 229.472656 C 142.511719 229.460938 142.871094 229.460938 143.230469 229.460938 C 145.4375 229.460938 148.132812 229.597656 151.144531 229.863281 C 153.894531 230.101562 156.910156 230.441406 160.042969 230.875 Z M 160.042969 230.875 "/><path style=" stroke:none;fill-rule:nonzero;fill:#dfa3a5;fill-opacity:1;" d="M 177.453125 202.515625 C 176.636719 202.523438 175.867188 202.515625 175.160156 202.507812 C 172.464844 202.472656 170.265625 204.648438 170.265625 207.34375 C 168.210938 197.128906 166.339844 191.09375 163.1875 182.5 C 163.398438 183.039062 165.207031 187.429688 168.824219 189.878906 C 169.652344 190.433594 170.789062 190.882812 172.089844 191.335938 C 174.46875 194.746094 176.273438 198.460938 177.453125 202.515625 Z M 177.453125 202.515625 "/><path style=" stroke:none;fill-rule:nonzero;fill:#82af7e;fill-opacity:1;" d="M 145.480469 123.78125 C 147.519531 126.742188 147.332031 130.414062 145.058594 131.980469 C 142.789062 133.546875 139.289062 132.417969 137.25 129.457031 C 135.210938 126.496094 135.398438 122.824219 137.667969 121.257812 C 139.941406 119.691406 143.441406 120.820312 145.480469 123.78125 Z M 145.480469 123.78125 "/><path style=" stroke:none;fill-rule:nonzero;fill:#82af7e;fill-opacity:1;" d="M 136.660156 152.65625 C 141.464844 154.121094 144.433594 158.339844 143.296875 162.085938 C 142.15625 165.832031 137.339844 167.683594 132.535156 166.21875 C 131.902344 166.027344 131.304688 165.785156 130.742188 165.503906 C 130.144531 166.347656 129.40625 167.136719 128.535156 167.832031 C 124.605469 170.960938 119.441406 171.011719 117.003906 167.949219 C 114.570312 164.882812 115.78125 159.867188 119.710938 156.738281 C 120.324219 156.25 120.96875 155.84375 121.632812 155.503906 C 120.632812 150.957031 122.515625 146.609375 126.066406 145.566406 C 129.820312 144.460938 134.011719 147.476562 135.425781 152.296875 C 135.433594 152.316406 135.4375 152.335938 135.445312 152.359375 C 135.847656 152.433594 136.253906 152.535156 136.660156 152.65625 Z M 136.660156 152.65625 "/><path style=" stroke:none;fill-rule:nonzero;fill:#53b79a;fill-opacity:1;" d="M 147.253906 213.453125 C 143.800781 215.597656 141.816406 218.78125 141.242188 222.296875 C 140.847656 224.691406 141.128906 227.152344 142.164062 229.472656 C 138.476562 229.554688 135.296875 230.074219 132.605469 230.921875 C 133.261719 228.277344 135.085938 225.738281 135.085938 225.738281 C 135.085938 225.738281 129.03125 224.464844 129.695312 220.402344 C 130.363281 216.34375 136.503906 217.074219 136.503906 217.074219 C 136.503906 217.074219 134.03125 209.042969 138.167969 207.34375 C 138.878906 207.050781 139.613281 207.039062 140.347656 207.222656 C 143.863281 208.101562 147.253906 213.453125 147.253906 213.453125 Z M 147.253906 213.453125 "/><g clip-rule="nonzero" clip-path="url(#0797aef010)"><path style=" stroke:none;fill-rule:nonzero;fill:#6fceae;fill-opacity:1;" d="M 120.742188 230.765625 C 123.335938 232.335938 125.492188 234.761719 125.492188 234.761719 C 122.269531 237.574219 120.75 241.21875 120.75 244.96875 C 120.75 248.714844 122.269531 252.359375 125.492188 255.175781 C 125.492188 255.175781 119.023438 262.441406 115.019531 259.972656 C 111.011719 257.5 114.949219 249.589844 114.949219 249.589844 C 114.949219 249.589844 108.441406 249.300781 108.441406 244.96875 C 108.441406 240.636719 114.949219 240.347656 114.949219 240.347656 C 114.949219 240.347656 111.011719 232.433594 115.019531 229.964844 C 116.710938 228.917969 118.84375 229.613281 120.742188 230.765625 Z M 120.742188 230.765625 "/></g><path style=" stroke:none;fill-rule:nonzero;fill:#f8864e;fill-opacity:1;" d="M 148.46875 229.917969 C 147.003906 230.847656 145.035156 232.472656 143.953125 234.910156 C 142.105469 239.078125 142.769531 244.035156 142.796875 244.246094 C 142.882812 244.84375 143.390625 245.273438 143.976562 245.273438 C 144.03125 245.273438 144.085938 245.269531 144.140625 245.261719 C 144.792969 245.171875 145.25 244.570312 145.160156 243.917969 C 145.152344 243.871094 144.566406 239.414062 146.132812 235.878906 C 146.972656 233.984375 148.5625 232.683594 149.746094 231.929688 C 150.300781 231.574219 150.464844 230.839844 150.113281 230.28125 C 149.757812 229.726562 149.023438 229.5625 148.46875 229.917969 Z M 148.46875 229.917969 "/><path style=" stroke:none;fill-rule:nonzero;fill:#f8864e;fill-opacity:1;" d="M 159.363281 231.816406 C 158.78125 231.507812 158.0625 231.730469 157.753906 232.316406 C 157.109375 233.546875 156.644531 234.761719 156.371094 235.9375 C 155.667969 238.996094 155.855469 242.59375 155.863281 242.746094 C 155.898438 243.382812 156.421875 243.875 157.050781 243.875 C 157.074219 243.875 157.09375 243.875 157.117188 243.871094 C 157.773438 243.835938 158.277344 243.273438 158.242188 242.617188 C 158.242188 242.582031 158.066406 239.199219 158.695312 236.476562 C 158.917969 235.5 159.3125 234.476562 159.863281 233.425781 C 160.167969 232.84375 159.945312 232.121094 159.363281 231.816406 Z M 159.363281 231.816406 "/><path style=" stroke:none;fill-rule:nonzero;fill:#f8864e;fill-opacity:1;" d="M 171.320312 233.644531 C 170.71875 233.382812 170.015625 233.65625 169.75 234.257812 C 169.394531 235.074219 169.132812 235.90625 168.96875 236.738281 C 168.449219 239.355469 168.878906 241.964844 168.898438 242.074219 C 168.996094 242.65625 169.5 243.070312 170.070312 243.070312 C 170.136719 243.070312 170.203125 243.0625 170.273438 243.050781 C 170.921875 242.941406 171.355469 242.328125 171.25 241.675781 C 171.246094 241.65625 170.875 239.375 171.304688 237.199219 C 171.433594 236.539062 171.648438 235.871094 171.933594 235.21875 C 172.199219 234.613281 171.925781 233.910156 171.320312 233.644531 Z M 171.320312 233.644531 "/><path style=" stroke:none;fill-rule:nonzero;fill:#f8864e;fill-opacity:1;" d="M 169.4375 213.664062 C 169.097656 213.101562 168.363281 212.925781 167.800781 213.269531 C 166.40625 214.121094 165.296875 215.171875 164.5 216.390625 C 162.117188 220.03125 161.980469 224.800781 161.972656 225.003906 C 161.957031 225.660156 162.480469 226.207031 163.136719 226.222656 C 163.144531 226.222656 163.15625 226.222656 163.164062 226.222656 C 163.808594 226.222656 164.339844 225.707031 164.355469 225.058594 C 164.359375 225.015625 164.488281 220.757812 166.492188 217.699219 C 167.09375 216.777344 167.953125 215.96875 169.042969 215.304688 C 169.605469 214.960938 169.78125 214.226562 169.4375 213.664062 Z M 169.4375 213.664062 "/><path style=" stroke:none;fill-rule:nonzero;fill:#f8864e;fill-opacity:1;" d="M 178.671875 216.878906 C 178.113281 216.527344 177.378906 216.699219 177.027344 217.257812 C 176.609375 217.929688 176.253906 218.609375 175.984375 219.273438 C 174.851562 222.042969 174.472656 225.453125 174.457031 225.597656 C 174.386719 226.25 174.859375 226.839844 175.511719 226.910156 C 175.554688 226.914062 175.597656 226.917969 175.640625 226.917969 C 176.242188 226.917969 176.757812 226.464844 176.824219 225.855469 C 176.828125 225.820312 177.1875 222.628906 178.1875 220.179688 C 178.410156 219.640625 178.699219 219.082031 179.046875 218.523438 C 179.398438 217.964844 179.230469 217.230469 178.671875 216.878906 Z M 178.671875 216.878906 "/><path style=" stroke:none;fill-rule:nonzero;fill:#f8864e;fill-opacity:1;" d="M 190.425781 219.417969 C 189.875 219.058594 189.136719 219.21875 188.78125 219.769531 C 188.324219 220.476562 187.953125 221.210938 187.675781 221.960938 C 186.78125 224.34375 186.785156 226.867188 186.785156 226.976562 C 186.789062 227.632812 187.320312 228.160156 187.976562 228.160156 C 187.976562 228.160156 187.980469 228.160156 187.984375 228.160156 C 188.640625 228.160156 189.171875 227.621094 189.167969 226.964844 C 189.167969 226.941406 189.164062 224.773438 189.90625 222.796875 C 190.125 222.207031 190.421875 221.625 190.78125 221.066406 C 191.136719 220.511719 190.980469 219.773438 190.425781 219.417969 Z M 190.425781 219.417969 "/><path style=" stroke:none;fill-rule:nonzero;fill:#e7a05c;fill-opacity:1;" d="M 322.449219 104.660156 C 328.976562 108.035156 333.929688 114.898438 337.910156 120.90625 C 347.988281 136.125 353.914062 155.320312 350.21875 173.511719 C 347.273438 187.902344 338.597656 200.316406 327.402344 209.640625 C 315.238281 219.765625 300.148438 223.828125 286.894531 232.066406 C 260.355469 248.515625 255.261719 284.273438 232.359375 304.78125 C 207.824219 326.75 170.433594 332.929688 139.488281 323.003906 C 111.832031 314.109375 89.703125 293.113281 74.671875 268.769531 C 57.898438 241.59375 47.820312 209.070312 58.671875 177.746094 C 68.203125 150.253906 91.792969 124.882812 121.421875 120.707031 C 131.328125 119.332031 145.269531 119.132812 150.824219 109.265625 C 153.628906 104.285156 154.976562 98.109375 157.378906 92.875 C 160.300781 86.464844 163.679688 80.257812 167.601562 74.394531 C 183.316406 50.851562 211.171875 31 240.546875 40.898438 C 248.617188 43.613281 256.492188 48.734375 262.390625 54.914062 C 269.089844 61.863281 267.941406 65.496094 267.941406 74.023438 C 267.972656 91.816406 277.074219 105.402344 294.683594 103.886719 C 302.898438 103.199219 314.320312 100.480469 322.449219 104.660156 "/><path style=" stroke:none;fill-rule:nonzero;fill:#d4834e;fill-opacity:1;" d="M 341.917969 126.226562 C 341.804688 126.085938 341.71875 125.941406 341.632812 125.828125 C 333.988281 114.46875 324.570312 100.394531 309.570312 99.28125 C 303.300781 98.792969 297.085938 100.882812 290.84375 100.453125 C 280.453125 99.796875 270.949219 91.613281 269.746094 81.117188 C 268.714844 72.335938 258.46875 88.152344 268.488281 101.683594 C 277.105469 113.355469 306.277344 115.957031 307.191406 152.714844 C 307.964844 182.953125 286.578125 196.339844 261.242188 201.832031 C 228.007812 209.039062 229.550781 214.273438 214.523438 246.683594 C 177.421875 326.636719 69.691406 276.378906 59.902344 220.226562 C 59.902344 220.226562 73.585938 275.832031 88.242188 292.308594 C 102.902344 308.789062 129.984375 325.121094 164.28125 329.070312 C 198.578125 333.015625 212.832031 320.230469 228.867188 311.535156 C 244.898438 302.835938 270.546875 253.40625 277.875 241.507812 C 285.207031 229.605469 311.199219 228.234375 335.132812 202.460938 C 345.039062 191.789062 349.734375 177.402344 350.191406 163.042969 C 350.621094 150.339844 349.019531 137.070312 341.917969 126.226562 "/><path style=" stroke:none;fill-rule:nonzero;fill:#f1c171;fill-opacity:1;" d="M 69.464844 207.636719 C 68.519531 164.789062 93.195312 142.246094 131.441406 136.984375 C 193.308594 128.515625 173.070312 210.011719 148.707031 234.070312 C 117.101562 265.308594 70.09375 235.984375 69.464844 207.636719 "/><path style=" stroke:none;fill-rule:nonzero;fill:#f1c171;fill-opacity:1;" d="M 181.628906 102.597656 C 173.898438 73.648438 196.285156 51.738281 222.796875 48.078125 C 265.710938 42.15625 257.953125 87.039062 242.148438 104.886719 C 220.191406 129.660156 186.722656 121.5625 181.628906 102.597656 "/><path style=" stroke:none;fill-rule:nonzero;fill:#efeec6;fill-opacity:1;" d="M 81.6875 329.8125 C 86.382812 335.074219 87.5 346.890625 84.09375 353.382812 C 80 361.308594 68.117188 364.109375 60.101562 361.25 C 50.511719 357.789062 48.992188 349.320312 50.367188 341.140625 C 51.855469 332.328125 52.972656 330.242188 42.894531 334.730469 C 32.933594 339.167969 21.511719 330.011719 20.453125 318.085938 C 19.535156 307.785156 29.355469 300.578125 38.886719 300.175781 C 47.046875 299.804688 52.371094 303.550781 59.902344 299.175781 C 68.402344 294.226562 74.101562 285.960938 80.140625 278.265625 C 86.296875 285.417969 97.148438 299.71875 104.589844 305.582031 C 100.324219 308.558594 75.675781 323.0625 81.6875 329.8125 "/><path style=" stroke:none;fill-rule:nonzero;fill:#efeec6;fill-opacity:1;" d="M 298.71875 103.257812 C 296.226562 105.289062 289.5 103.714844 285.75 102.972656 C 282.570312 102.339844 279.480469 100.710938 276.816406 99.023438 C 272.207031 96.078125 269.773438 89.441406 268.832031 83.949219 C 267.972656 78.972656 271.0625 75.824219 274.785156 72.734375 C 278.878906 69.332031 300.40625 52.082031 301.179688 47.875 C 301.808594 44.671875 301.464844 41.582031 300.921875 40.011719 C 299.375 35.519531 298.03125 28.882812 300.378906 24.476562 C 304.960938 15.925781 319.960938 13.980469 325.65625 21.160156 C 329.867188 26.480469 332.355469 30.683594 329.492188 36.003906 C 327.375 39.925781 322.738281 44.902344 329.320312 44.386719 C 335.046875 43.957031 337.824219 41.382812 344.464844 42.527344 C 349.90625 43.472656 353.054688 47.589844 354.230469 52.597656 C 356.320312 61.578125 349.046875 75.679688 337.421875 74.910156 C 316.695312 73.507812 305.933594 97.449219 298.71875 103.257812 "/><path style=" stroke:none;fill-rule:nonzero;fill:#d4834e;fill-opacity:1;" d="M 242.691406 75.195312 C 244.210938 81.34375 253.800781 78.972656 252.253906 72.820312 C 250.738281 66.671875 241.175781 69.042969 242.691406 75.195312 "/><path style=" stroke:none;fill-rule:nonzero;fill:#d4834e;fill-opacity:1;" d="M 212.605469 59.175781 C 214.152344 65.324219 223.710938 62.953125 222.195312 56.800781 C 220.675781 50.652344 211.085938 53.027344 212.605469 59.175781 "/><path style=" stroke:none;fill-rule:nonzero;fill:#d4834e;fill-opacity:1;" d="M 199.0625 85.320312 C 200.609375 91.5 210.171875 89.125 208.652344 82.945312 C 207.109375 76.796875 197.546875 79.171875 199.0625 85.320312 "/><path style=" stroke:none;fill-rule:nonzero;fill:#5a3134;fill-opacity:1;" d="M 305.675781 50.308594 C 306.105469 49.507812 306.535156 48.707031 305.675781 50.308594 "/><path style=" stroke:none;fill-rule:nonzero;fill:#dacda4;fill-opacity:1;" d="M 306.847656 91.15625 C 296.199219 95.847656 276.160156 87.953125 280.28125 71.589844 C 280.28125 71.589844 268.257812 76.96875 268.144531 84.632812 C 268.027344 92.300781 276.101562 101.195312 282.570312 103.398438 C 296.65625 108.207031 306.847656 91.15625 306.847656 91.15625 "/><path style=" stroke:none;fill-rule:nonzero;fill:#dacda4;fill-opacity:1;" d="M 108.453125 301.0625 C 97.804688 305.753906 85.179688 290.164062 81.199219 282.871094 C 81.199219 282.871094 71.238281 285.042969 71.125 292.710938 C 71.007812 300.378906 79.054688 309.273438 85.550781 311.476562 C 99.636719 316.28125 108.453125 301.0625 108.453125 301.0625 "/><path style=" stroke:none;fill-rule:nonzero;fill:#663337;fill-opacity:1;" d="M 296.257812 97.878906 C 294.050781 99.738281 293.480469 100.367188 290.128906 99.679688 C 287.324219 99.082031 284.574219 97.59375 282.226562 96.019531 C 278.132812 93.332031 274.125 89.410156 273.296875 84.347656 C 272.523438 79.773438 276.300781 78.398438 279.625 75.539062 C 283.230469 72.421875 286.78125 69.1875 290.300781 65.925781 C 291.617188 64.695312 292.992188 63.550781 294.367188 62.378906 C 295.855469 61.09375 297.34375 59.863281 298.777344 58.546875 C 300.207031 57.230469 301.582031 55.886719 302.8125 54.425781 C 303.871094 53.199219 306.246094 51.824219 306.246094 47.875 C 306.246094 47.105469 305.960938 46.332031 305.617188 45.644531 C 304.988281 44.273438 304.101562 43.042969 303.640625 41.613281 C 302.269531 37.492188 301.066406 31.34375 303.15625 27.28125 C 307.222656 19.386719 318.613281 19.328125 323.683594 25.992188 C 327.402344 30.855469 326.972656 34.71875 324.425781 39.636719 C 322.535156 43.269531 321.621094 48.707031 327.488281 48.25 C 332.558594 47.847656 336.421875 42.871094 342.289062 43.929688 C 347.128906 44.789062 349.933594 48.589844 350.964844 53.226562 C 352.824219 61.519531 347.042969 73.679688 337.082031 70.703125 C 331.640625 69.101562 329.867188 66.640625 324.597656 70.21875 C 321.105469 72.621094 317.929688 75.59375 314.894531 78.511719 C 308.539062 84.605469 302.925781 92.328125 296.257812 97.878906 Z M 318.988281 106.917969 C 325.34375 110.207031 330.152344 116.875 333.988281 122.679688 C 343.777344 137.46875 349.535156 156.148438 345.953125 173.796875 C 343.09375 187.757812 334.675781 199.828125 323.796875 208.867188 C 311.972656 218.679688 297.34375 222.65625 284.460938 230.636719 C 258.695312 246.597656 253.742188 281.324219 231.5 301.265625 C 207.679688 322.605469 171.351562 328.582031 141.320312 318.941406 C 114.464844 310.304688 92.996094 289.9375 78.394531 266.28125 C 62.078125 239.875 52.285156 208.324219 62.851562 177.917969 C 72.097656 151.199219 95 126.542969 123.769531 122.507812 C 133.390625 121.164062 146.960938 120.992188 152.34375 111.378906 C 155.0625 106.546875 156.378906 100.566406 158.699219 95.476562 C 161.53125 89.269531 164.824219 83.234375 168.601562 77.539062 C 183.890625 54.65625 210.945312 35.375 239.429688 44.988281 C 247.300781 47.648438 254.917969 52.625 260.671875 58.605469 C 267.171875 65.382812 263.820312 71.621094 263.847656 79.886719 C 263.847656 97.164062 279.136719 110.78125 296.226562 109.292969 C 304.214844 108.605469 311.113281 102.855469 318.988281 106.917969 Z M 77.019531 329.070312 C 81.085938 333.617188 83.921875 343.515625 81 349.148438 C 77.449219 355.984375 67.171875 358.417969 60.246094 355.929688 C 51.972656 352.953125 53 346.605469 54.175781 339.539062 C 55.464844 331.929688 53.632812 325.664062 44.957031 329.554688 C 36.3125 333.359375 26.894531 328.925781 25.976562 318.628906 C 25.203125 309.761719 33.679688 303.496094 41.921875 303.152344 C 48.964844 302.835938 53.375 308.929688 59.871094 305.125 C 67.230469 300.835938 74.101562 294.054688 79.3125 287.417969 C 84.636719 293.597656 89.988281 300.121094 96.429688 305.183594 C 92.765625 307.757812 71.8125 323.234375 77.019531 329.070312 Z M 331.582031 78.65625 C 337.136719 79.027344 341.203125 81.429688 346.957031 79.085938 C 351.480469 77.253906 354.714844 73.59375 356.804688 69.246094 C 364.621094 52.96875 356.402344 31.257812 335.792969 35.71875 C 337.59375 12.664062 307.59375 2.566406 295.65625 22.816406 C 293.652344 26.195312 293.105469 29.484375 293.164062 33.34375 C 293.277344 37.777344 295.683594 41.785156 295.96875 45.84375 C 296.113281 48.046875 295.828125 48.335938 293.9375 50.25 C 292.277344 51.910156 290.53125 53.511719 288.839844 55.140625 C 284.746094 59.0625 278.878906 63.4375 274.554688 67.128906 C 273.496094 58.230469 264.078125 48.820312 257.378906 43.929688 C 249.507812 38.152344 240.117188 34.660156 230.441406 33.488281 C 210.6875 31.113281 192.59375 39.695312 178.191406 52.652344 C 171.121094 58.976562 164.882812 66.269531 159.613281 74.136719 C 154.890625 81.230469 152.429688 88.839844 149.050781 96.589844 C 145.757812 104.199219 141.148438 109.75 132.847656 111.839844 C 122.195312 114.554688 108.941406 115.070312 98.664062 119.992188 C 68.804688 134.238281 50.769531 161.925781 46.902344 194.851562 C 44.785156 212.929688 48.964844 230.265625 55.894531 246.886719 C 58.011719 252.003906 60.417969 257.039062 62.992188 261.960938 C 65.371094 266.449219 70.292969 273.117188 71.753906 277.894531 C 72.871094 281.527344 59.871094 292.910156 56.238281 294.226562 C 53.058594 295.371094 47.535156 293.167969 43.441406 293.082031 C 40.175781 293.027344 36.769531 293.140625 33.5625 293.855469 C 25.691406 295.65625 19.648438 301.40625 16.957031 308.988281 C 11.117188 325.578125 24.375 344.945312 43.097656 341.28125 C 41.179688 360.363281 59.84375 372.089844 77.164062 364.308594 C 83.492188 361.449219 88.558594 355.929688 90.246094 349.121094 C 91.019531 345.972656 91.050781 342.65625 90.390625 339.480469 C 89.960938 337.335938 89.1875 335.332031 88.273438 333.332031 C 87.585938 332.070312 86.898438 330.8125 86.238281 329.527344 C 84.777344 328.039062 93.425781 321.144531 95.773438 319 C 97.546875 317.339844 99.292969 315.679688 101.070312 313.992188 C 104.1875 311.019531 103.359375 310.246094 106.652344 312.390625 C 113.894531 317.140625 120.277344 321.117188 127.320312 324.0625 C 147.617188 332.558594 169.578125 335.734375 191.21875 331.070312 C 210.3125 326.953125 228.835938 317.683594 242.40625 303.464844 C 255.144531 290.136719 262.476562 273.632812 271.636719 257.957031 C 276.300781 250.003906 281.886719 243.136719 289.785156 238.246094 C 298.460938 232.898438 308.367188 229.863281 317.15625 224.714844 C 331.785156 216.164062 343.835938 203.320312 350.304688 187.585938 C 357.492188 170.078125 356.917969 150.484375 349.792969 133.0625 C 343.4375 117.558594 329.75 97.394531 310.855469 96.421875 C 314.207031 90.898438 325.601562 78.253906 331.582031 78.65625 "/><path style=" stroke:none;fill-rule:nonzero;fill:#ffffff;fill-opacity:1;" d="M 312.574219 23.621094 C 308.652344 24.304688 306.074219 28.480469 307.90625 32.171875 C 309.539062 35.492188 313.347656 35.460938 316.296875 33.972656 C 322.136719 31.054688 318.644531 22.589844 312.574219 23.621094 "/><path style=" stroke:none;fill-rule:nonzero;fill:#ffffff;fill-opacity:1;" d="M 336.449219 47.675781 C 329.953125 49.191406 330.351562 58.773438 336.792969 60.035156 C 340.945312 60.863281 345.066406 57.71875 344.378906 53.367188 C 343.777344 49.648438 340.199219 46.816406 336.449219 47.675781 "/><path style=" stroke:none;fill-rule:nonzero;fill:#ffffff;fill-opacity:1;" d="M 44.46875 310.53125 C 37.800781 300.921875 24.117188 316.367188 34.507812 321.945312 C 42.179688 326.066406 48.25 315.9375 44.46875 310.53125 "/><path style=" stroke:none;fill-rule:nonzero;fill:#ffffff;fill-opacity:1;" d="M 70.578125 347.03125 C 71.382812 346.203125 71.980469 345.171875 72.296875 343.941406 C 73.328125 339.625 69.863281 334.875 65.285156 335.332031 C 61.277344 335.734375 57.984375 339.480469 57.984375 343.484375 C 57.953125 350.464844 66.628906 351.09375 70.578125 347.03125 "/></g></svg>