<svg xmlns="http://www.w3.org/2000/svg" xmlns:xlink="http://www.w3.org/1999/xlink" width="500" zoomAndPan="magnify" viewBox="0 0 375 374.999991" height="500" preserveAspectRatio="xMidYMid meet" version="1.2"><defs><clipPath id="d37c1ede86"><path d="M 113 112.5 L 252 112.5 L 252 241 L 113 241 Z M 113 112.5 "/></clipPath><clipPath id="07cfba5968"><path d="M 198 192 L 256.191406 192 L 256.191406 223 L 198 223 Z M 198 192 "/></clipPath><clipPath id="da35806463"><path d="M 108.441406 229 L 126 229 L 126 261 L 108.441406 261 Z M 108.441406 229 "/></clipPath><clipPath id="db2efa5ba2"><path d="M 77 230 L 148 230 L 148 348 L 77 348 Z M 77 230 "/></clipPath><clipPath id="1cfde23eb7"><path d="M 147 138 L 375 138 L 375 348 L 147 348 Z M 147 138 "/></clipPath></defs><g id="63ac2fa0be"><g clip-rule="nonzero" clip-path="url(#d37c1ede86)"><path style=" stroke:none;fill-rule:nonzero;fill:#558b57;fill-opacity:1;" d="M 250.515625 187.585938 C 248.824219 181.816406 239.3125 176.359375 230.359375 176.359375 C 221.40625 176.359375 210.59375 182.300781 205.664062 177.96875 C 200.734375 173.636719 210.101562 164.011719 204.480469 157.246094 C 198.859375 150.484375 175.855469 152.828125 172.339844 145.59375 C 168.828125 138.363281 178.613281 130.488281 179.652344 123.433594 C 180.683594 116.378906 175.9375 112.546875 175.9375 112.546875 L 165.183594 112.546875 C 165.183594 112.546875 172.578125 116.996094 170.515625 123.382812 C 168.453125 129.769531 153.363281 135.1875 153.363281 142.09375 C 153.363281 148.996094 162.492188 150.988281 163.164062 157.253906 C 163.839844 163.523438 154.574219 171.660156 145.496094 176.027344 C 136.367188 180.417969 119.4375 184.667969 114.785156 199.804688 C 110.195312 214.753906 120.480469 230.367188 120.742188 230.765625 C 123.335938 232.335938 126.839844 240.925781 126.839844 240.925781 L 198.839844 222.207031 L 249.347656 199.273438 C 249.347656 199.273438 252.203125 193.355469 250.515625 187.585938 Z M 250.515625 187.585938 "/></g><path style=" stroke:none;fill-rule:nonzero;fill:#d8959a;fill-opacity:1;" d="M 172.089844 191.335938 C 176.828125 192.984375 183.746094 194.714844 185.789062 202.226562 C 183.375 205.53125 180.691406 206.554688 177.457031 202.515625 C 172.5 198.894531 171.207031 195.117188 172.089844 191.335938 Z M 172.089844 191.335938 "/><path style=" stroke:none;fill-rule:nonzero;fill:#3fa07f;fill-opacity:1;" d="M 220.261719 198.765625 L 232.921875 199.394531 C 228.03125 202.210938 225.851562 212.816406 218.257812 214.285156 C 215.183594 214.878906 207.746094 212.023438 204.679688 212.347656 C 199.601562 212.886719 194.695312 208.710938 190.480469 208.769531 C 186.078125 206.109375 187.152344 203.867188 190.480469 201.796875 L 190.480469 201.792969 C 193.214844 201.46875 195.957031 201.015625 198.523438 200.375 C 210.675781 197.347656 221.507812 186.195312 221.507812 186.195312 C 224.289062 187.535156 226.378906 189.585938 227.796875 192.324219 Z M 220.261719 198.765625 "/><g clip-rule="nonzero" clip-path="url(#07cfba5968)"><path style=" stroke:none;fill-rule:nonzero;fill:#4aaf8f;fill-opacity:1;" d="M 231.554688 211.757812 L 256.191406 211.757812 L 256.191406 222.207031 L 204.679688 222.207031 C 204.679688 222.207031 198.839844 218.898438 198.839844 214.785156 C 198.839844 210.675781 204.679688 207.957031 204.679688 207.957031 C 207.746094 207.632812 210.878906 207.191406 213.953125 206.597656 C 221.542969 205.128906 228.03125 202.210938 232.921875 199.394531 C 239.207031 195.777344 242.863281 192.324219 242.863281 192.324219 C 245.964844 193.957031 248.128906 196.273438 249.347656 199.273438 C 249.71875 200.1875 250 201.167969 250.195312 202.210938 C 244.667969 206.53125 238.546875 209.859375 231.554688 211.757812 Z M 231.554688 211.757812 "/></g><path style=" stroke:none;fill-rule:nonzero;fill:#53b79a;fill-opacity:1;" d="M 177.453125 202.515625 C 179.886719 202.511719 182.757812 202.441406 185.789062 202.226562 C 187.328125 202.125 188.902344 201.980469 190.480469 201.792969 L 190.480469 208.769531 C 186.949219 208.816406 183.902344 208.753906 181.648438 208.671875 C 179.386719 208.585938 177.511719 210.394531 177.511719 212.660156 L 177.511719 214.285156 C 175.621094 213.730469 173.757812 216.492188 172.035156 216.054688 C 171.417969 215.898438 170.855469 212.488281 170.265625 212.347656 L 170.265625 207.34375 C 170.265625 204.648438 172.464844 202.472656 175.160156 202.507812 C 175.867188 202.515625 176.636719 202.523438 177.453125 202.515625 Z M 177.453125 202.515625 "/><path style=" stroke:none;fill-rule:nonzero;fill:#6fceae;fill-opacity:1;" d="M 190.480469 208.769531 C 194.695312 208.710938 199.601562 208.496094 204.679688 207.957031 C 204.679688 207.957031 202.382812 210.972656 202.382812 215.082031 C 202.382812 219.195312 204.679688 222.207031 204.679688 222.207031 L 199.402344 222.207031 C 196.765625 221.035156 193.851562 223.890625 190.972656 222.808594 C 189.054688 222.085938 185.363281 221.632812 183.425781 220.976562 C 181.738281 220.40625 178.484375 220.167969 176.839844 219.65625 C 175.914062 219.371094 178.414062 214.550781 177.511719 214.285156 L 177.511719 212.660156 C 177.511719 210.394531 179.386719 208.585938 181.648438 208.671875 C 183.902344 208.753906 186.949219 208.816406 190.480469 208.769531 Z M 190.480469 208.769531 "/><path style=" stroke:none;fill-rule:nonzero;fill:#d8959a;fill-opacity:1;" d="M 154.238281 191.335938 C 152.707031 197.746094 151.566406 205.117188 147.253906 213.453125 C 144.507812 215.984375 138.941406 212.636719 140.347656 207.222656 C 140.066406 205.65625 140.070312 204.035156 140.492188 202.402344 C 142.476562 194.742188 149.464844 192.996094 154.238281 191.335938 Z M 154.238281 191.335938 "/><path style=" stroke:none;fill-rule:nonzero;fill:#d8959a;fill-opacity:1;" d="M 170.265625 207.34375 L 170.265625 212.347656 C 168.195312 211.855469 165.488281 213.714844 163.878906 213.453125 C 161.613281 213.082031 160.34375 210.664062 158.410156 210.667969 C 152.757812 201.078125 157.332031 191.476562 163.160156 182.460938 C 163.164062 182.453125 163.164062 182.449219 163.164062 182.445312 C 163.171875 182.460938 163.175781 182.480469 163.1875 182.5 C 167.484375 191.625 170.632812 198.253906 170.265625 207.34375 Z M 170.265625 207.34375 "/><path style=" stroke:none;fill-rule:nonzero;fill:#82af7e;fill-opacity:1;" d="M 249.136719 156.734375 C 252.308594 156.734375 254.878906 158.867188 254.878906 161.496094 C 254.878906 164.121094 252.308594 166.25 249.136719 166.25 C 248.019531 166.25 246.976562 165.980469 246.089844 165.519531 C 245.261719 167.300781 243.183594 168.566406 240.742188 168.566406 C 237.570312 168.566406 235 166.4375 235 163.808594 C 235 161.863281 236.410156 160.191406 238.433594 159.453125 C 237.78125 158.683594 237.398438 157.75 237.398438 156.734375 C 237.398438 154.109375 239.96875 151.976562 243.140625 151.976562 C 246.3125 151.976562 248.882812 154.109375 248.882812 156.734375 C 248.882812 156.742188 248.878906 156.742188 248.878906 156.746094 C 248.964844 156.742188 249.050781 156.734375 249.136719 156.734375 Z M 249.136719 156.734375 "/><path style=" stroke:none;fill-rule:nonzero;fill:#82af7e;fill-opacity:1;" d="M 230.207031 130.605469 C 232.746094 130.605469 234.804688 133.292969 234.804688 136.605469 C 234.804688 139.917969 232.746094 142.605469 230.207031 142.605469 C 227.667969 142.605469 225.613281 139.917969 225.613281 136.605469 C 225.613281 133.292969 227.667969 130.605469 230.207031 130.605469 Z M 230.207031 130.605469 "/><path style=" stroke:none;fill-rule:nonzero;fill:#dfa3a5;fill-opacity:1;" d="M 157.503906 189.878906 C 161.246094 187.347656 163.050781 182.742188 163.160156 182.460938 C 160.292969 191.277344 158.710938 200.683594 158.410156 210.667969 C 154.820312 213.496094 151.082031 214.460938 147.253906 213.453125 C 147.429688 204.910156 149.875 197.601562 154.238281 191.335938 C 155.539062 190.882812 156.675781 190.433594 157.503906 189.878906 Z M 157.503906 189.878906 "/><path style=" stroke:none;fill-rule:nonzero;fill:#fda171;fill-opacity:1;" d="M 200.890625 222.886719 C 200.402344 222.660156 199.90625 222.433594 199.402344 222.207031 C 196.765625 221.035156 193.945312 219.886719 191.066406 218.804688 C 189.148438 218.082031 187.203125 217.390625 185.265625 216.734375 C 183.578125 216.164062 181.902344 215.621094 180.257812 215.113281 C 179.332031 214.828125 178.414062 214.550781 177.511719 214.285156 C 175.621094 213.730469 173.792969 213.230469 172.070312 212.796875 C 171.453125 212.636719 170.855469 212.488281 170.265625 212.347656 C 168.195312 211.855469 166.316406 211.464844 164.707031 211.203125 C 162.441406 210.832031 160.34375 210.664062 158.410156 210.667969 C 153.730469 210.6875 150.019531 211.734375 147.253906 213.453125 C 143.800781 215.597656 141.816406 218.78125 141.242188 222.296875 C 140.847656 224.691406 141.128906 227.152344 142.164062 229.472656 L 196.382812 240.925781 C 206.375 239.96875 214.367188 237.925781 214.949219 234.367188 C 215.5 230.996094 209.328125 226.800781 200.890625 222.886719 Z M 200.890625 222.886719 "/><path style=" stroke:none;fill-rule:nonzero;fill:#82af7e;fill-opacity:1;" d="M 215.082031 132.558594 C 215.082031 135.640625 212.6875 138.15625 209.65625 138.351562 C 210.679688 139.398438 211.316406 140.835938 211.316406 142.414062 C 211.316406 145.625 208.714844 148.226562 205.507812 148.226562 C 202.300781 148.226562 199.699219 145.625 199.699219 142.414062 C 199.699219 141.421875 199.953125 140.484375 200.390625 139.664062 C 197.21875 139.625 194.660156 137.042969 194.660156 133.859375 C 194.660156 130.652344 197.261719 128.050781 200.46875 128.050781 C 201.953125 128.050781 203.300781 128.609375 204.332031 129.527344 C 205.351562 127.867188 207.179688 126.75 209.273438 126.75 C 212.484375 126.75 215.082031 129.355469 215.082031 132.558594 Z M 215.082031 132.558594 "/><path style=" stroke:none;fill-rule:nonzero;fill:#ffbc92;fill-opacity:1;" d="M 160.042969 230.875 C 161.835938 231.125 163.667969 231.402344 165.515625 231.707031 C 167.636719 232.058594 169.777344 232.449219 171.890625 232.871094 C 182.058594 234.898438 191.703125 237.707031 196.382812 240.925781 C 198.257812 242.214844 199.335938 243.570312 199.335938 244.96875 C 199.335938 250.445312 182.804688 255.253906 166.800781 258.011719 C 157.746094 259.570312 148.859375 260.476562 143.230469 260.476562 C 134.964844 260.476562 129.136719 258.359375 125.492188 255.175781 C 122.269531 252.359375 118.449219 248.714844 118.449219 244.96875 C 118.449219 241.21875 122.269531 237.574219 125.492188 234.761719 C 127.3125 233.171875 129.671875 231.851562 132.605469 230.921875 C 135.296875 230.074219 138.476562 229.554688 142.164062 229.472656 C 142.511719 229.460938 142.871094 229.460938 143.230469 229.460938 C 145.4375 229.460938 148.132812 229.597656 151.144531 229.863281 C 153.894531 230.101562 156.910156 230.441406 160.042969 230.875 Z M 160.042969 230.875 "/><path style=" stroke:none;fill-rule:nonzero;fill:#dfa3a5;fill-opacity:1;" d="M 177.453125 202.515625 C 176.636719 202.523438 175.867188 202.515625 175.160156 202.507812 C 172.464844 202.472656 170.265625 204.648438 170.265625 207.34375 C 168.210938 197.128906 166.339844 191.09375 163.1875 182.5 C 163.398438 183.039062 165.207031 187.429688 168.824219 189.878906 C 169.652344 190.433594 170.789062 190.882812 172.089844 191.335938 C 174.46875 194.746094 176.273438 198.460938 177.453125 202.515625 Z M 177.453125 202.515625 "/><path style=" stroke:none;fill-rule:nonzero;fill:#82af7e;fill-opacity:1;" d="M 145.480469 123.78125 C 147.519531 126.742188 147.332031 130.414062 145.058594 131.980469 C 142.789062 133.546875 139.289062 132.417969 137.25 129.457031 C 135.210938 126.496094 135.398438 122.824219 137.667969 121.257812 C 139.941406 119.691406 143.441406 120.820312 145.480469 123.78125 Z M 145.480469 123.78125 "/><path style=" stroke:none;fill-rule:nonzero;fill:#82af7e;fill-opacity:1;" d="M 136.660156 152.65625 C 141.464844 154.121094 144.433594 158.339844 143.296875 162.085938 C 142.15625 165.832031 137.339844 167.683594 132.535156 166.21875 C 131.902344 166.027344 131.304688 165.785156 130.742188 165.503906 C 130.144531 166.347656 129.40625 167.136719 128.535156 167.832031 C 124.605469 170.960938 119.441406 171.011719 117.003906 167.949219 C 114.570312 164.882812 115.78125 159.867188 119.710938 156.738281 C 120.324219 156.25 120.96875 155.84375 121.632812 155.503906 C 120.632812 150.957031 122.515625 146.609375 126.066406 145.566406 C 129.820312 144.460938 134.011719 147.476562 135.425781 152.296875 C 135.433594 152.316406 135.4375 152.335938 135.445312 152.359375 C 135.847656 152.433594 136.253906 152.535156 136.660156 152.65625 Z M 136.660156 152.65625 "/><path style=" stroke:none;fill-rule:nonzero;fill:#53b79a;fill-opacity:1;" d="M 147.253906 213.453125 C 143.800781 215.597656 141.816406 218.78125 141.242188 222.296875 C 140.847656 224.691406 141.128906 227.152344 142.164062 229.472656 C 138.476562 229.554688 135.296875 230.074219 132.605469 230.921875 C 133.261719 228.277344 135.085938 225.738281 135.085938 225.738281 C 135.085938 225.738281 129.03125 224.464844 129.695312 220.402344 C 130.363281 216.34375 136.503906 217.074219 136.503906 217.074219 C 136.503906 217.074219 134.03125 209.042969 138.167969 207.34375 C 138.878906 207.050781 139.613281 207.039062 140.347656 207.222656 C 143.863281 208.101562 147.253906 213.453125 147.253906 213.453125 Z M 147.253906 213.453125 "/><g clip-rule="nonzero" clip-path="url(#da35806463)"><path style=" stroke:none;fill-rule:nonzero;fill:#6fceae;fill-opacity:1;" d="M 120.742188 230.765625 C 123.335938 232.335938 125.492188 234.761719 125.492188 234.761719 C 122.269531 237.574219 120.75 241.21875 120.75 244.96875 C 120.75 248.714844 122.269531 252.359375 125.492188 255.175781 C 125.492188 255.175781 119.023438 262.441406 115.019531 259.972656 C 111.011719 257.5 114.949219 249.589844 114.949219 249.589844 C 114.949219 249.589844 108.441406 249.300781 108.441406 244.96875 C 108.441406 240.636719 114.949219 240.347656 114.949219 240.347656 C 114.949219 240.347656 111.011719 232.433594 115.019531 229.964844 C 116.710938 228.917969 118.84375 229.613281 120.742188 230.765625 Z M 120.742188 230.765625 "/></g><path style=" stroke:none;fill-rule:nonzero;fill:#f8864e;fill-opacity:1;" d="M 148.46875 229.917969 C 147.003906 230.847656 145.035156 232.472656 143.953125 234.910156 C 142.105469 239.078125 142.769531 244.035156 142.796875 244.246094 C 142.882812 244.84375 143.390625 245.273438 143.976562 245.273438 C 144.03125 245.273438 144.085938 245.269531 144.140625 245.261719 C 144.792969 245.171875 145.25 244.570312 145.160156 243.917969 C 145.152344 243.871094 144.566406 239.414062 146.132812 235.878906 C 146.972656 233.984375 148.5625 232.683594 149.746094 231.929688 C 150.300781 231.574219 150.464844 230.839844 150.113281 230.28125 C 149.757812 229.726562 149.023438 229.5625 148.46875 229.917969 Z M 148.46875 229.917969 "/><path style=" stroke:none;fill-rule:nonzero;fill:#f8864e;fill-opacity:1;" d="M 159.363281 231.816406 C 158.78125 231.507812 158.0625 231.730469 157.753906 232.316406 C 157.109375 233.546875 156.644531 234.761719 156.371094 235.9375 C 155.667969 238.996094 155.855469 242.59375 155.863281 242.746094 C 155.898438 243.382812 156.421875 243.875 157.050781 243.875 C 157.074219 243.875 157.09375 243.875 157.117188 243.871094 C 157.773438 243.835938 158.277344 243.273438 158.242188 242.617188 C 158.242188 242.582031 158.066406 239.199219 158.695312 236.476562 C 158.917969 235.5 159.3125 234.476562 159.863281 233.425781 C 160.167969 232.84375 159.945312 232.121094 159.363281 231.816406 Z M 159.363281 231.816406 "/><path style=" stroke:none;fill-rule:nonzero;fill:#f8864e;fill-opacity:1;" d="M 171.320312 233.644531 C 170.71875 233.382812 170.015625 233.65625 169.75 234.257812 C 169.394531 235.074219 169.132812 235.90625 168.96875 236.738281 C 168.449219 239.355469 168.878906 241.964844 168.898438 242.074219 C 168.996094 242.65625 169.5 243.070312 170.070312 243.070312 C 170.136719 243.070312 170.203125 243.0625 170.273438 243.050781 C 170.921875 242.941406 171.355469 242.328125 171.25 241.675781 C 171.246094 241.65625 170.875 239.375 171.304688 237.199219 C 171.433594 236.539062 171.648438 235.871094 171.933594 235.21875 C 172.199219 234.613281 171.925781 233.910156 171.320312 233.644531 Z M 171.320312 233.644531 "/><path style=" stroke:none;fill-rule:nonzero;fill:#f8864e;fill-opacity:1;" d="M 169.4375 213.664062 C 169.097656 213.101562 168.363281 212.925781 167.800781 213.269531 C 166.40625 214.121094 165.296875 215.171875 164.5 216.390625 C 162.117188 220.03125 161.980469 224.800781 161.972656 225.003906 C 161.957031 225.660156 162.480469 226.207031 163.136719 226.222656 C 163.144531 226.222656 163.15625 226.222656 163.164062 226.222656 C 163.808594 226.222656 164.339844 225.707031 164.355469 225.058594 C 164.359375 225.015625 164.488281 220.757812 166.492188 217.699219 C 167.09375 216.777344 167.953125 215.96875 169.042969 215.304688 C 169.605469 214.960938 169.78125 214.226562 169.4375 213.664062 Z M 169.4375 213.664062 "/><path style=" stroke:none;fill-rule:nonzero;fill:#f8864e;fill-opacity:1;" d="M 178.671875 216.878906 C 178.113281 216.527344 177.378906 216.699219 177.027344 217.257812 C 176.609375 217.929688 176.253906 218.609375 175.984375 219.273438 C 174.851562 222.042969 174.472656 225.453125 174.457031 225.597656 C 174.386719 226.25 174.859375 226.839844 175.511719 226.910156 C 175.554688 226.914062 175.597656 226.917969 175.640625 226.917969 C 176.242188 226.917969 176.757812 226.464844 176.824219 225.855469 C 176.828125 225.820312 177.1875 222.628906 178.1875 220.179688 C 178.410156 219.640625 178.699219 219.082031 179.046875 218.523438 C 179.398438 217.964844 179.230469 217.230469 178.671875 216.878906 Z M 178.671875 216.878906 "/><path style=" stroke:none;fill-rule:nonzero;fill:#f8864e;fill-opacity:1;" d="M 190.425781 219.417969 C 189.875 219.058594 189.136719 219.21875 188.78125 219.769531 C 188.324219 220.476562 187.953125 221.210938 187.675781 221.960938 C 186.78125 224.34375 186.785156 226.867188 186.785156 226.976562 C 186.789062 227.632812 187.320312 228.160156 187.976562 228.160156 C 187.976562 228.160156 187.980469 228.160156 187.984375 228.160156 C 188.640625 228.160156 189.171875 227.621094 189.167969 226.964844 C 189.167969 226.941406 189.164062 224.773438 189.90625 222.796875 C 190.125 222.207031 190.421875 221.625 190.78125 221.066406 C 191.136719 220.511719 190.980469 219.773438 190.425781 219.417969 Z M 190.425781 219.417969 "/><path style=" stroke:none;fill-rule:nonzero;fill:#e7a05c;fill-opacity:1;" d="M 223.953125 170.722656 C 225.726562 171.644531 227.074219 173.527344 228.15625 175.171875 C 230.894531 179.34375 232.503906 184.601562 231.5 189.585938 C 230.699219 193.53125 228.34375 196.933594 225.300781 199.488281 C 221.992188 202.261719 217.894531 203.375 214.292969 205.632812 C 207.078125 210.140625 205.695312 219.9375 199.46875 225.558594 C 192.804688 231.578125 182.640625 233.269531 174.230469 230.550781 C 166.714844 228.113281 160.703125 222.359375 156.617188 215.6875 C 152.058594 208.242188 149.320312 199.332031 152.269531 190.746094 C 154.859375 183.214844 161.269531 176.261719 169.324219 175.117188 C 172.015625 174.742188 175.804688 174.6875 177.3125 171.984375 C 178.074219 170.621094 178.441406 168.925781 179.09375 167.492188 C 179.886719 165.734375 180.804688 164.035156 181.871094 162.429688 C 186.144531 155.976562 193.714844 150.539062 201.695312 153.25 C 203.890625 153.996094 206.027344 155.398438 207.632812 157.089844 C 209.453125 158.996094 209.140625 159.992188 209.140625 162.328125 C 209.148438 167.203125 211.621094 170.925781 216.40625 170.507812 C 218.640625 170.320312 221.746094 169.578125 223.953125 170.722656 "/><path style=" stroke:none;fill-rule:nonzero;fill:#d4834e;fill-opacity:1;" d="M 229.246094 176.632812 C 229.214844 176.59375 229.191406 176.554688 229.167969 176.519531 C 227.089844 173.410156 224.53125 169.554688 220.453125 169.246094 C 218.75 169.113281 217.0625 169.6875 215.363281 169.570312 C 212.539062 169.390625 209.957031 167.148438 209.632812 164.269531 C 209.351562 161.863281 206.566406 166.199219 209.289062 169.90625 C 211.628906 173.105469 219.558594 173.816406 219.808594 183.890625 C 220.015625 192.175781 214.207031 195.84375 207.320312 197.347656 C 198.289062 199.324219 198.707031 200.757812 194.625 209.636719 C 184.539062 231.546875 155.265625 217.773438 152.601562 202.386719 C 152.601562 202.386719 156.320312 217.625 160.304688 222.140625 C 164.289062 226.652344 171.648438 231.128906 180.96875 232.210938 C 190.289062 233.292969 194.164062 229.789062 198.519531 227.40625 C 202.878906 225.023438 209.847656 211.480469 211.839844 208.21875 C 213.832031 204.957031 220.898438 204.582031 227.402344 197.519531 C 230.09375 194.597656 231.367188 190.652344 231.492188 186.71875 C 231.609375 183.238281 231.175781 179.601562 229.246094 176.632812 "/><path style=" stroke:none;fill-rule:nonzero;fill:#f1c171;fill-opacity:1;" d="M 155.203125 198.9375 C 154.945312 187.195312 161.652344 181.019531 172.046875 179.578125 C 188.859375 177.257812 183.359375 199.589844 176.738281 206.179688 C 168.148438 214.738281 155.371094 206.707031 155.203125 198.9375 "/><path style=" stroke:none;fill-rule:nonzero;fill:#f1c171;fill-opacity:1;" d="M 185.683594 170.15625 C 183.582031 162.226562 189.667969 156.21875 196.871094 155.21875 C 208.535156 153.59375 206.425781 165.894531 202.132812 170.785156 C 196.164062 177.570312 187.070312 175.355469 185.683594 170.15625 "/><path style=" stroke:none;fill-rule:nonzero;fill:#efeec6;fill-opacity:1;" d="M 158.523438 232.414062 C 159.800781 233.855469 160.101562 237.09375 159.175781 238.875 C 158.066406 241.042969 154.835938 241.8125 152.65625 241.027344 C 150.050781 240.082031 149.640625 237.761719 150.011719 235.519531 C 150.417969 233.105469 150.71875 232.53125 147.980469 233.761719 C 145.273438 234.976562 142.171875 232.46875 141.882812 229.203125 C 141.632812 226.378906 144.300781 224.40625 146.890625 224.292969 C 149.109375 224.191406 150.558594 225.21875 152.601562 224.019531 C 154.914062 222.664062 156.460938 220.398438 158.105469 218.289062 C 159.777344 220.25 162.726562 224.167969 164.746094 225.777344 C 163.589844 226.589844 156.890625 230.566406 158.523438 232.414062 "/><path style=" stroke:none;fill-rule:nonzero;fill:#efeec6;fill-opacity:1;" d="M 217.503906 170.335938 C 216.828125 170.894531 215 170.460938 213.980469 170.257812 C 213.117188 170.085938 212.277344 169.640625 211.554688 169.175781 C 210.300781 168.371094 209.640625 166.550781 209.382812 165.046875 C 209.148438 163.683594 209.988281 162.820312 211 161.972656 C 212.113281 161.042969 217.964844 156.316406 218.171875 155.164062 C 218.34375 154.285156 218.25 153.4375 218.105469 153.007812 C 217.683594 151.777344 217.316406 149.957031 217.957031 148.75 C 219.199219 146.40625 223.277344 145.875 224.824219 147.839844 C 225.96875 149.300781 226.644531 150.453125 225.867188 151.910156 C 225.292969 152.984375 224.03125 154.347656 225.820312 154.207031 C 227.378906 154.089844 228.132812 153.382812 229.9375 153.695312 C 231.414062 153.957031 232.269531 155.085938 232.589844 156.457031 C 233.15625 158.917969 231.183594 162.78125 228.023438 162.570312 C 222.390625 162.183594 219.464844 168.746094 217.503906 170.335938 "/><path style=" stroke:none;fill-rule:nonzero;fill:#d4834e;fill-opacity:1;" d="M 202.277344 162.648438 C 202.691406 164.332031 205.296875 163.683594 204.878906 161.996094 C 204.464844 160.3125 201.867188 160.960938 202.277344 162.648438 "/><path style=" stroke:none;fill-rule:nonzero;fill:#d4834e;fill-opacity:1;" d="M 194.101562 158.257812 C 194.523438 159.945312 197.121094 159.292969 196.707031 157.609375 C 196.296875 155.921875 193.691406 156.574219 194.101562 158.257812 "/><path style=" stroke:none;fill-rule:nonzero;fill:#d4834e;fill-opacity:1;" d="M 190.421875 165.421875 C 190.84375 167.117188 193.441406 166.464844 193.027344 164.773438 C 192.609375 163.085938 190.007812 163.738281 190.421875 165.421875 "/><path style=" stroke:none;fill-rule:nonzero;fill:#5a3134;fill-opacity:1;" d="M 219.394531 155.828125 C 219.511719 155.609375 219.628906 155.390625 219.394531 155.828125 "/><path style=" stroke:none;fill-rule:nonzero;fill:#dacda4;fill-opacity:1;" d="M 219.714844 167.023438 C 216.820312 168.308594 211.375 166.144531 212.496094 161.660156 C 212.496094 161.660156 209.226562 163.132812 209.195312 165.234375 C 209.164062 167.335938 211.359375 169.773438 213.117188 170.375 C 216.945312 171.691406 219.714844 167.023438 219.714844 167.023438 "/><path style=" stroke:none;fill-rule:nonzero;fill:#dacda4;fill-opacity:1;" d="M 165.796875 224.539062 C 162.902344 225.824219 159.472656 221.550781 158.390625 219.554688 C 158.390625 219.554688 155.683594 220.148438 155.652344 222.25 C 155.621094 224.351562 157.808594 226.789062 159.574219 227.390625 C 163.402344 228.707031 165.796875 224.539062 165.796875 224.539062 "/><path style=" stroke:none;fill-rule:nonzero;fill:#663337;fill-opacity:1;" d="M 216.835938 168.863281 C 216.238281 169.375 216.082031 169.546875 215.171875 169.355469 C 214.40625 169.191406 213.660156 168.785156 213.023438 168.355469 C 211.910156 167.617188 210.820312 166.542969 210.597656 165.15625 C 210.386719 163.902344 211.414062 163.527344 212.316406 162.742188 C 213.296875 161.886719 214.261719 161 215.21875 160.109375 C 215.574219 159.769531 215.949219 159.457031 216.320312 159.136719 C 216.726562 158.785156 217.132812 158.445312 217.519531 158.085938 C 217.910156 157.726562 218.28125 157.355469 218.617188 156.957031 C 218.90625 156.621094 219.550781 156.246094 219.550781 155.164062 C 219.550781 154.949219 219.472656 154.738281 219.378906 154.550781 C 219.207031 154.175781 218.96875 153.835938 218.84375 153.445312 C 218.46875 152.316406 218.140625 150.632812 218.710938 149.519531 C 219.816406 147.355469 222.910156 147.339844 224.289062 149.167969 C 225.300781 150.5 225.183594 151.558594 224.492188 152.90625 C 223.976562 153.902344 223.730469 155.390625 225.324219 155.265625 C 226.699219 155.15625 227.75 153.789062 229.347656 154.082031 C 230.660156 154.316406 231.421875 155.359375 231.703125 156.628906 C 232.207031 158.902344 230.636719 162.234375 227.929688 161.417969 C 226.453125 160.976562 225.96875 160.304688 224.539062 161.285156 C 223.589844 161.941406 222.726562 162.757812 221.898438 163.558594 C 220.171875 165.226562 218.648438 167.34375 216.835938 168.863281 Z M 223.011719 171.339844 C 224.738281 172.242188 226.046875 174.066406 227.089844 175.660156 C 229.75 179.710938 231.3125 184.828125 230.339844 189.664062 C 229.5625 193.492188 227.277344 196.796875 224.320312 199.277344 C 221.105469 201.964844 217.132812 203.054688 213.628906 205.242188 C 206.628906 209.613281 205.28125 219.128906 199.238281 224.59375 C 192.765625 230.441406 182.890625 232.078125 174.730469 229.4375 C 167.433594 227.070312 161.597656 221.488281 157.628906 215.007812 C 153.195312 207.773438 150.535156 199.125 153.40625 190.792969 C 155.917969 183.472656 162.140625 176.71875 169.960938 175.613281 C 172.574219 175.242188 176.261719 175.195312 177.726562 172.5625 C 178.464844 171.238281 178.820312 169.601562 179.453125 168.207031 C 180.222656 166.503906 181.117188 164.851562 182.144531 163.289062 C 186.296875 157.019531 193.652344 151.738281 201.390625 154.371094 C 203.53125 155.101562 205.601562 156.464844 207.164062 158.101562 C 208.929688 159.960938 208.019531 161.667969 208.027344 163.933594 C 208.027344 168.667969 212.183594 172.398438 216.828125 171.992188 C 219 171.804688 220.875 170.226562 223.011719 171.339844 Z M 157.253906 232.210938 C 158.359375 233.457031 159.128906 236.167969 158.335938 237.714844 C 157.371094 239.585938 154.578125 240.253906 152.695312 239.570312 C 150.449219 238.757812 150.726562 237.015625 151.046875 235.082031 C 151.398438 232.996094 150.898438 231.277344 148.542969 232.34375 C 146.191406 233.386719 143.632812 232.171875 143.382812 229.351562 C 143.171875 226.921875 145.476562 225.203125 147.71875 225.109375 C 149.632812 225.023438 150.828125 226.691406 152.59375 225.652344 C 154.59375 224.476562 156.460938 222.617188 157.878906 220.800781 C 159.324219 222.492188 160.78125 224.277344 162.53125 225.667969 C 161.535156 226.371094 155.839844 230.613281 157.253906 232.210938 Z M 226.4375 163.597656 C 227.945312 163.699219 229.050781 164.355469 230.613281 163.714844 C 231.84375 163.210938 232.722656 162.210938 233.289062 161.019531 C 235.414062 156.558594 233.179688 150.609375 227.578125 151.832031 C 228.070312 145.515625 219.917969 142.746094 216.671875 148.296875 C 216.128906 149.222656 215.980469 150.121094 215.996094 151.179688 C 216.027344 152.394531 216.679688 153.492188 216.757812 154.605469 C 216.796875 155.210938 216.71875 155.289062 216.207031 155.8125 C 215.753906 156.269531 215.28125 156.707031 214.820312 157.152344 C 213.707031 158.226562 212.113281 159.425781 210.9375 160.4375 C 210.648438 158 208.089844 155.421875 206.269531 154.082031 C 204.128906 152.496094 201.578125 151.542969 198.949219 151.21875 C 193.582031 150.570312 188.664062 152.921875 184.75 156.472656 C 182.828125 158.203125 181.132812 160.203125 179.699219 162.359375 C 178.417969 164.300781 177.75 166.386719 176.832031 168.511719 C 175.933594 170.597656 174.683594 172.117188 172.425781 172.6875 C 169.53125 173.433594 165.929688 173.574219 163.136719 174.921875 C 155.023438 178.824219 150.121094 186.414062 149.070312 195.433594 C 148.496094 200.386719 149.632812 205.136719 151.515625 209.691406 C 152.089844 211.09375 152.742188 212.476562 153.441406 213.824219 C 154.089844 215.054688 155.425781 216.878906 155.824219 218.1875 C 156.128906 219.183594 152.59375 222.304688 151.605469 222.664062 C 150.742188 222.976562 149.242188 222.375 148.128906 222.351562 C 147.242188 222.335938 146.316406 222.367188 145.445312 222.5625 C 143.304688 223.054688 141.664062 224.632812 140.933594 226.707031 C 139.347656 231.253906 142.949219 236.5625 148.035156 235.558594 C 147.515625 240.785156 152.585938 244 157.292969 241.867188 C 159.015625 241.085938 160.390625 239.570312 160.851562 237.707031 C 161.058594 236.84375 161.066406 235.933594 160.890625 235.0625 C 160.773438 234.476562 160.5625 233.929688 160.3125 233.378906 C 160.125 233.035156 159.941406 232.691406 159.761719 232.335938 C 159.363281 231.929688 161.714844 230.039062 162.351562 229.453125 C 162.832031 228.996094 163.308594 228.542969 163.789062 228.082031 C 164.640625 227.265625 164.414062 227.054688 165.308594 227.640625 C 167.277344 228.941406 169.011719 230.03125 170.925781 230.839844 C 176.441406 233.167969 182.410156 234.039062 188.289062 232.761719 C 193.480469 231.632812 198.511719 229.089844 202.199219 225.195312 C 205.664062 221.542969 207.65625 217.019531 210.144531 212.726562 C 211.414062 210.546875 212.929688 208.664062 215.078125 207.324219 C 217.433594 205.859375 220.125 205.027344 222.515625 203.617188 C 226.492188 201.273438 229.765625 197.753906 231.523438 193.445312 C 233.476562 188.648438 233.320312 183.277344 231.382812 178.503906 C 229.65625 174.257812 225.9375 168.730469 220.804688 168.464844 C 221.714844 166.949219 224.808594 163.488281 226.4375 163.597656 "/><path style=" stroke:none;fill-rule:nonzero;fill:#ffffff;fill-opacity:1;" d="M 221.269531 148.515625 C 220.203125 148.703125 219.503906 149.847656 220 150.859375 C 220.445312 151.769531 221.480469 151.761719 222.28125 151.351562 C 223.867188 150.554688 222.917969 148.234375 221.269531 148.515625 "/><path style=" stroke:none;fill-rule:nonzero;fill:#ffffff;fill-opacity:1;" d="M 227.757812 155.109375 C 225.992188 155.523438 226.101562 158.148438 227.851562 158.492188 C 228.980469 158.722656 230.101562 157.859375 229.914062 156.667969 C 229.75 155.648438 228.777344 154.871094 227.757812 155.109375 "/><path style=" stroke:none;fill-rule:nonzero;fill:#ffffff;fill-opacity:1;" d="M 148.410156 227.132812 C 146.597656 224.5 142.878906 228.730469 145.703125 230.257812 C 147.789062 231.386719 149.4375 228.613281 148.410156 227.132812 "/><path style=" stroke:none;fill-rule:nonzero;fill:#ffffff;fill-opacity:1;" d="M 155.503906 237.132812 C 155.722656 236.90625 155.886719 236.625 155.972656 236.289062 C 156.25 235.105469 155.308594 233.800781 154.066406 233.929688 C 152.976562 234.039062 152.082031 235.0625 152.082031 236.160156 C 152.074219 238.074219 154.429688 238.246094 155.503906 237.132812 "/><path style=" stroke:none;fill-rule:nonzero;fill:#cd502a;fill-opacity:1;" d="M 57.117188 248.175781 L 57.117188 253.199219 L 37.207031 242.160156 L 37.207031 219.636719 L 41.734375 222.148438 L 57.117188 230.675781 Z M 57.117188 280.320312 L 57.117188 285.328125 L 37.207031 274.304688 L 37.207031 251.785156 L 41.734375 254.296875 L 57.117188 262.804688 Z M 28.171875 232.480469 L 28.171875 237.472656 L 8.261719 226.449219 L 8.261719 203.921875 L 12.769531 206.417969 L 28.171875 214.945312 Z M 28.171875 264.609375 L 28.171875 269.617188 L 8.261719 258.574219 L 8.261719 236.054688 L 12.769531 238.546875 L 28.171875 247.09375 Z M 0.0742188 186.914062 L 0.0742188 266.097656 L 70.089844 304.890625 L 70.089844 225.707031 L 0.0742188 186.914062 "/><path style=" stroke:none;fill-rule:nonzero;fill:#ad4323;fill-opacity:1;" d="M 12.769531 206.417969 L 8.261719 203.921875 L 8.261719 226.449219 L 28.171875 237.472656 L 28.171875 232.480469 L 12.769531 223.933594 L 12.769531 206.417969 "/><path style=" stroke:none;fill-rule:nonzero;fill:#ad4323;fill-opacity:1;" d="M 12.769531 238.546875 L 8.261719 236.054688 L 8.261719 258.574219 L 28.171875 269.617188 L 28.171875 264.609375 L 12.769531 256.082031 L 12.769531 238.546875 "/><path style=" stroke:none;fill-rule:nonzero;fill:#ad4323;fill-opacity:1;" d="M 41.734375 222.148438 L 37.207031 219.636719 L 37.207031 242.160156 L 57.117188 253.199219 L 57.117188 248.175781 L 41.734375 239.648438 L 41.734375 222.148438 "/><path style=" stroke:none;fill-rule:nonzero;fill:#ad4323;fill-opacity:1;" d="M 41.734375 254.296875 L 37.207031 251.785156 L 37.207031 274.304688 L 57.117188 285.328125 L 57.117188 280.320312 L 41.734375 271.792969 L 41.734375 254.296875 "/><path style=" stroke:none;fill-rule:nonzero;fill:#9f3d1f;fill-opacity:1;" d="M 12.769531 223.933594 L 28.171875 232.480469 L 28.171875 214.945312 L 12.769531 206.417969 L 12.769531 223.933594 "/><path style=" stroke:none;fill-rule:nonzero;fill:#9f3d1f;fill-opacity:1;" d="M 12.769531 256.082031 L 28.171875 264.609375 L 28.171875 247.09375 L 12.769531 238.546875 L 12.769531 256.082031 "/><path style=" stroke:none;fill-rule:nonzero;fill:#9f3d1f;fill-opacity:1;" d="M 41.734375 239.648438 L 57.117188 248.175781 L 57.117188 230.675781 L 41.734375 222.148438 L 41.734375 239.648438 "/><path style=" stroke:none;fill-rule:nonzero;fill:#9f3d1f;fill-opacity:1;" d="M 41.734375 271.792969 L 57.117188 280.320312 L 57.117188 262.804688 L 41.734375 254.296875 L 41.734375 271.792969 "/><path style=" stroke:none;fill-rule:nonzero;fill:#eb6723;fill-opacity:1;" d="M 79.339844 150.105469 L 71.746094 145.898438 L 71.738281 145.902344 L 79.332031 150.109375 L 79.339844 150.105469 "/><path style=" stroke:none;fill-rule:nonzero;fill:#eb6723;fill-opacity:1;" d="M 43.382812 209.378906 L 43.382812 204.65625 L 12.769531 188.28125 L 43.382812 170.726562 L 43.382812 162.125 L 0.0742188 186.90625 L 65.128906 222.941406 L 70.097656 225.703125 L 71.449219 224.929688 L 43.382812 209.378906 "/><path style=" stroke:none;fill-rule:nonzero;fill:#f47332;fill-opacity:1;" d="M 12.769531 188.28125 L 43.382812 204.65625 L 43.382812 170.726562 Z M 12.769531 188.28125 "/><path style=" stroke:none;fill-rule:nonzero;fill:#f47332;fill-opacity:1;" d="M 108.4375 166.226562 L 79.339844 150.105469 L 79.332031 150.109375 L 113.398438 168.988281 L 113.40625 168.984375 L 108.4375 166.226562 "/><path style=" stroke:none;fill-rule:nonzero;fill:#eb5f24;fill-opacity:1;" d="M 140.152344 264.800781 L 140.167969 264.796875 L 77.378906 230.015625 L 78.976562 229.101562 L 71.449219 224.929688 L 70.097656 225.703125 L 70.089844 225.707031 L 70.089844 304.890625 L 77.382812 300.722656 L 77.382812 230.019531 L 140.152344 264.800781 "/><g clip-rule="nonzero" clip-path="url(#db2efa5ba2)"><path style=" stroke:none;fill-rule:nonzero;fill:#cd502a;fill-opacity:1;" d="M 134.425781 291.285156 L 134.425781 296.304688 L 114.511719 285.265625 L 114.511719 262.746094 L 119.039062 265.257812 L 134.425781 273.785156 Z M 134.425781 323.429688 L 134.425781 328.4375 L 114.511719 317.414062 L 114.511719 294.890625 L 119.039062 297.402344 L 134.425781 305.914062 Z M 105.476562 307.722656 L 105.476562 312.726562 L 85.566406 301.6875 L 85.566406 279.164062 L 90.078125 281.65625 L 105.476562 290.203125 Z M 85.566406 247.035156 L 90.078125 249.527344 L 105.476562 258.054688 L 105.476562 280.582031 L 85.566406 269.558594 Z M 140.152344 264.800781 L 77.382812 230.019531 L 77.382812 309.207031 L 147.394531 348.003906 L 147.394531 268.816406 L 140.152344 264.800781 "/></g><path style=" stroke:none;fill-rule:nonzero;fill:#ad4323;fill-opacity:1;" d="M 105.476562 275.589844 L 90.078125 267.042969 L 90.078125 249.527344 L 85.566406 247.035156 L 85.566406 269.558594 L 105.476562 280.582031 L 105.476562 275.589844 "/><path style=" stroke:none;fill-rule:nonzero;fill:#ad4323;fill-opacity:1;" d="M 90.078125 281.65625 L 85.566406 279.164062 L 85.566406 301.6875 L 105.476562 312.726562 L 105.476562 307.722656 L 90.078125 299.191406 L 90.078125 281.65625 "/><path style=" stroke:none;fill-rule:nonzero;fill:#ad4323;fill-opacity:1;" d="M 119.039062 265.257812 L 114.511719 262.746094 L 114.511719 285.265625 L 134.425781 296.304688 L 134.425781 291.285156 L 119.039062 282.753906 L 119.039062 265.257812 "/><path style=" stroke:none;fill-rule:nonzero;fill:#ad4323;fill-opacity:1;" d="M 119.039062 297.402344 L 114.511719 294.890625 L 114.511719 317.414062 L 134.425781 328.4375 L 134.425781 323.429688 L 119.039062 314.902344 L 119.039062 297.402344 "/><path style=" stroke:none;fill-rule:nonzero;fill:#9f3d1f;fill-opacity:1;" d="M 105.476562 275.589844 L 105.476562 258.054688 L 90.078125 249.527344 L 90.078125 267.042969 L 105.476562 275.589844 "/><path style=" stroke:none;fill-rule:nonzero;fill:#9f3d1f;fill-opacity:1;" d="M 90.078125 281.65625 L 90.078125 299.191406 L 105.476562 307.722656 L 105.476562 290.203125 L 90.078125 281.65625 "/><path style=" stroke:none;fill-rule:nonzero;fill:#9f3d1f;fill-opacity:1;" d="M 119.039062 265.257812 L 119.039062 282.753906 L 134.425781 291.285156 L 134.425781 273.785156 L 119.039062 265.257812 "/><path style=" stroke:none;fill-rule:nonzero;fill:#9f3d1f;fill-opacity:1;" d="M 119.039062 314.902344 L 134.425781 323.429688 L 134.425781 305.914062 L 119.039062 297.402344 L 119.039062 314.902344 "/><path style=" stroke:none;fill-rule:nonzero;fill:#eb6723;fill-opacity:1;" d="M 374.921875 138.636719 L 374.925781 138.632812 L 374.921875 138.632812 L 374.921875 138.636719 "/><path style=" stroke:none;fill-rule:nonzero;fill:#eb6723;fill-opacity:1;" d="M 365.128906 138.636719 L 148.699219 262.746094 L 117.292969 245.945312 L 113.398438 248.175781 L 78.976562 229.101562 L 77.378906 230.015625 L 140.164062 264.796875 L 142.433594 266.054688 L 147.402344 268.8125 L 374.917969 138.632812 L 339.316406 118.902344 L 333.964844 121.964844 L 365.128906 138.636719 "/><path style=" stroke:none;fill-rule:nonzero;fill:#f47332;fill-opacity:1;" d="M 148.699219 262.746094 L 365.128906 138.636719 L 333.964844 121.964844 L 117.292969 245.945312 L 148.699219 262.746094 "/><g clip-rule="nonzero" clip-path="url(#1cfde23eb7)"><path style=" stroke:none;fill-rule:nonzero;fill:#eb5f24;fill-opacity:1;" d="M 374.917969 138.628906 L 374.914062 138.632812 L 147.402344 268.8125 L 147.394531 268.816406 L 147.394531 348.003906 L 374.917969 217.8125 L 374.917969 138.628906 "/></g><path style=" stroke:none;fill-rule:nonzero;fill:#cd502a;fill-opacity:1;" d="M 51.570312 147.207031 L 56.078125 149.703125 L 71.480469 158.226562 L 71.480469 180.75 L 51.570312 169.730469 Z M 85.042969 197.574219 L 100.425781 206.085938 L 100.425781 228.605469 L 80.515625 217.585938 L 80.515625 195.0625 Z M 80.515625 162.917969 L 85.042969 165.429688 L 100.425781 173.957031 L 100.425781 196.476562 L 80.515625 185.4375 Z M 71.480469 207.890625 L 71.480469 212.898438 L 51.570312 201.859375 L 51.570312 179.335938 L 56.078125 181.832031 L 71.480469 190.375 Z M 43.382812 204.65625 L 43.382812 209.378906 L 71.449219 224.929688 L 78.976562 229.101562 L 113.398438 248.175781 L 113.398438 168.988281 L 79.332031 150.109375 L 71.738281 145.902344 L 43.382812 130.191406 L 43.382812 204.65625 "/><path style=" stroke:none;fill-rule:nonzero;fill:#ad4323;fill-opacity:1;" d="M 51.570312 169.730469 L 71.480469 180.75 L 71.480469 175.761719 L 56.078125 167.214844 L 56.078125 149.703125 L 51.570312 147.207031 L 51.570312 169.730469 "/><path style=" stroke:none;fill-rule:nonzero;fill:#ad4323;fill-opacity:1;" d="M 56.078125 181.832031 L 51.570312 179.335938 L 51.570312 201.859375 L 71.480469 212.898438 L 71.480469 207.890625 L 56.078125 199.363281 L 56.078125 181.832031 "/><path style=" stroke:none;fill-rule:nonzero;fill:#ad4323;fill-opacity:1;" d="M 100.425781 191.453125 L 85.042969 182.925781 L 85.042969 165.429688 L 80.515625 162.917969 L 80.515625 185.4375 L 100.425781 196.476562 L 100.425781 191.453125 "/><path style=" stroke:none;fill-rule:nonzero;fill:#ad4323;fill-opacity:1;" d="M 80.515625 217.585938 L 100.425781 228.605469 L 100.425781 223.597656 L 85.042969 215.074219 L 85.042969 197.574219 L 80.515625 195.0625 L 80.515625 217.585938 "/><path style=" stroke:none;fill-rule:nonzero;fill:#9f3d1f;fill-opacity:1;" d="M 56.078125 167.214844 L 71.480469 175.761719 L 71.480469 158.226562 L 56.078125 149.703125 L 56.078125 167.214844 "/><path style=" stroke:none;fill-rule:nonzero;fill:#9f3d1f;fill-opacity:1;" d="M 56.078125 199.363281 L 71.480469 207.890625 L 71.480469 190.375 L 56.078125 181.832031 L 56.078125 199.363281 "/><path style=" stroke:none;fill-rule:nonzero;fill:#9f3d1f;fill-opacity:1;" d="M 100.425781 191.453125 L 100.425781 173.957031 L 85.042969 165.429688 L 85.042969 182.925781 L 100.425781 191.453125 "/><path style=" stroke:none;fill-rule:nonzero;fill:#9f3d1f;fill-opacity:1;" d="M 85.042969 215.074219 L 100.425781 223.597656 L 100.425781 206.085938 L 85.042969 197.574219 L 85.042969 215.074219 "/><path style=" stroke:none;fill-rule:nonzero;fill:#eb6723;fill-opacity:1;" d="M 340.929688 38.804688 L 340.921875 38.804688 L 340.921875 38.808594 L 340.929688 38.804688 "/><path style=" stroke:none;fill-rule:nonzero;fill:#eb6723;fill-opacity:1;" d="M 56.082031 131.558594 L 272.511719 7.449219 L 331.132812 38.804688 L 114.703125 162.914062 Z M 108.4375 166.222656 L 113.40625 168.984375 L 340.921875 38.800781 L 270.90625 0.00390625 L 266.078125 2.769531 L 43.382812 130.183594 L 71.746094 145.894531 L 79.339844 150.105469 L 108.4375 166.222656 "/><path style=" stroke:none;fill-rule:nonzero;fill:#f47332;fill-opacity:1;" d="M 114.703125 162.917969 L 331.132812 38.808594 L 272.511719 7.449219 L 56.078125 131.5625 L 114.703125 162.917969 "/><path style=" stroke:none;fill-rule:nonzero;fill:#eb5f24;fill-opacity:1;" d="M 113.40625 168.984375 L 113.398438 168.988281 L 113.398438 248.175781 L 117.292969 245.945312 L 333.964844 121.964844 L 339.316406 118.902344 L 340.921875 117.984375 L 340.921875 38.800781 L 340.917969 38.800781 L 113.40625 168.984375 "/></g></svg>