<svg xmlns="http://www.w3.org/2000/svg" xmlns:xlink="http://www.w3.org/1999/xlink" width="500" zoomAndPan="magnify" viewBox="0 0 375 374.999991" height="500" preserveAspectRatio="xMidYMid meet" version="1.2"><defs><filter x="0%" y="0%" width="100%" filterUnits="objectBoundingBox" id="e6f93b3590" height="100%"><feColorMatrix values="0 0 0 0 1 0 0 0 0 1 0 0 0 0 1 0 0 0 1 0" type="matrix" in="SourceGraphic"/></filter><clipPath id="a0e02fb2e8"><path d="M 0.398438 0.121094 L 55 0.121094 L 55 159.71875 L 0.398438 159.71875 Z M 0.398438 0.121094 "/></clipPath><clipPath id="d100bc6e7c"><path d="M 0.398438 49 L 55 49 L 55 159.71875 L 0.398438 159.71875 Z M 0.398438 49 "/></clipPath><clipPath id="cc66f2eff7"><path d="M 5 0.121094 L 50 0.121094 L 50 45 L 5 45 Z M 5 0.121094 "/></clipPath><clipPath id="92bd43e86b"><rect x="0" width="55" y="0" height="160"/></clipPath><clipPath id="a06a876c33"><path d="M 1 0.121094 L 55.878906 0.121094 L 55.878906 159.71875 L 1 159.71875 Z M 1 0.121094 "/></clipPath><clipPath id="87ba10275e"><path d="M 1 49 L 55.878906 49 L 55.878906 159.71875 L 1 159.71875 Z M 1 49 "/></clipPath><clipPath id="3d50de9b47"><path d="M 5 0.121094 L 50 0.121094 L 50 45 L 5 45 Z M 5 0.121094 "/></clipPath><clipPath id="c2a8429166"><rect x="0" width="56" y="0" height="160"/></clipPath><clipPath id="71823945f8"><path d="M 0 0.121094 L 54.480469 0.121094 L 54.480469 159.71875 L 0 159.71875 Z M 0 0.121094 "/></clipPath><clipPath id="5375afefc2"><path d="M 0 49 L 54.480469 49 L 54.480469 159.71875 L 0 159.71875 Z M 0 49 "/></clipPath><clipPath id="69240a8fe0"><path d="M 4 0.121094 L 49 0.121094 L 49 45 L 4 45 Z M 4 0.121094 "/></clipPath><clipPath id="f1ec686988"><rect x="0" width="55" y="0" height="160"/></clipPath><clipPath id="ebdd9d703d"><path d="M 0.28125 0.121094 L 55 0.121094 L 55 159.71875 L 0.28125 159.71875 Z M 0.28125 0.121094 "/></clipPath><clipPath id="a1ecf41178"><path d="M 0.28125 49 L 55 49 L 55 159.71875 L 0.28125 159.71875 Z M 0.28125 49 "/></clipPath><clipPath id="3d3baa19ce"><path d="M 5 0.121094 L 49 0.121094 L 49 45 L 5 45 Z M 5 0.121094 "/></clipPath><clipPath id="3de105f6d8"><rect x="0" width="55" y="0" height="160"/></clipPath><clipPath id="f1d9f149f0"><path d="M 0.558594 0.558594 L 62 0.558594 L 62 180 L 0.558594 180 Z M 0.558594 0.558594 "/></clipPath><clipPath id="d31b54f81e"><path d="M 0.558594 55 L 62 55 L 62 180 L 0.558594 180 Z M 0.558594 55 "/></clipPath><clipPath id="0eac7284e2"><path d="M 5 0.558594 L 56 0.558594 L 56 51 L 5 51 Z M 5 0.558594 "/></clipPath><clipPath id="750637da78"><rect x="0" width="62" y="0" height="181"/></clipPath><clipPath id="18cbfd5250"><path d="M 1 0.558594 L 62.761719 0.558594 L 62.761719 180 L 1 180 Z M 1 0.558594 "/></clipPath><clipPath id="a309b6ae31"><path d="M 1 55 L 62.761719 55 L 62.761719 180 L 1 180 Z M 1 55 "/></clipPath><clipPath id="7db73c33e7"><path d="M 6 0.558594 L 56 0.558594 L 56 51 L 6 51 Z M 6 0.558594 "/></clipPath><clipPath id="03d5769d90"><rect x="0" width="63" y="0" height="181"/></clipPath><clipPath id="cc3e04db2b"><path d="M 0.679688 0.558594 L 62 0.558594 L 62 180 L 0.679688 180 Z M 0.679688 0.558594 "/></clipPath><clipPath id="e15ba5b3a2"><path d="M 0.679688 55 L 62 55 L 62 180 L 0.679688 180 Z M 0.679688 55 "/></clipPath><clipPath id="98b9e16693"><path d="M 5 0.558594 L 56 0.558594 L 56 51 L 5 51 Z M 5 0.558594 "/></clipPath><clipPath id="2103f8d931"><rect x="0" width="63" y="0" height="181"/></clipPath><clipPath id="88e16806e9"><path d="M 0.238281 0.238281 L 68.640625 0.238281 L 68.640625 199.679688 L 0.238281 199.679688 Z M 0.238281 0.238281 "/></clipPath><clipPath id="57ac120b50"><path d="M 0.238281 61 L 68.640625 61 L 68.640625 199.679688 L 0.238281 199.679688 Z M 0.238281 61 "/></clipPath><clipPath id="51f275b916"><path d="M 6 0.238281 L 62 0.238281 L 62 56 L 6 56 Z M 6 0.238281 "/></clipPath><clipPath id="1908b853be"><rect x="0" width="69" y="0" height="200"/></clipPath><clipPath id="2eb784f618"><path d="M 0.199219 0.238281 L 68.601562 0.238281 L 68.601562 199.679688 L 0.199219 199.679688 Z M 0.199219 0.238281 "/></clipPath><clipPath id="10e0449f3f"><path d="M 0.199219 61 L 68.601562 61 L 68.601562 199.679688 L 0.199219 199.679688 Z M 0.199219 61 "/></clipPath><clipPath id="ade3ad19d5"><path d="M 5 0.238281 L 61 0.238281 L 61 56 L 5 56 Z M 5 0.238281 "/></clipPath><clipPath id="91aa454cd0"><rect x="0" width="69" y="0" height="200"/></clipPath><clipPath id="154cfc0bd0"><path d="M 150 126 L 227 126 L 227 347.953125 L 150 347.953125 Z M 150 126 "/></clipPath><clipPath id="1e39d402ac"><path d="M 150 194 L 227 194 L 227 347.953125 L 150 347.953125 Z M 150 194 "/></clipPath><clipPath id="2390de2fa9"><path d="M 150 126 L 228 126 L 228 347.953125 L 150 347.953125 Z M 150 126 "/></clipPath><clipPath id="7eb2ce7243"><path d="M 0.238281 0.71875 L 77 0.71875 L 77 221.953125 L 0.238281 221.953125 Z M 0.238281 0.71875 "/></clipPath><clipPath id="018e3ad15e"><path d="M 0.238281 68 L 77 68 L 77 221.953125 L 0.238281 221.953125 Z M 0.238281 68 "/></clipPath><clipPath id="663e5675bd"><path d="M 7 0.71875 L 69 0.71875 L 69 63 L 7 63 Z M 7 0.71875 "/></clipPath><clipPath id="e7cab871ff"><rect x="0" width="78" y="0" height="222"/></clipPath></defs><g id="a5f9153ce8"><path style=" stroke:none;fill-rule:nonzero;fill:#8ccdb0;fill-opacity:1;" d="M 320.691406 108.261719 C 320.703125 108.261719 320.710938 108.261719 320.722656 108.261719 C 320.722656 113.160156 320.632812 118.066406 320.742188 122.964844 C 320.886719 129.175781 322.953125 134.722656 326.425781 139.902344 C 328.121094 142.429688 329.660156 145.335938 330.25 148.273438 C 332.242188 158.273438 333.785156 168.367188 335.503906 178.425781 C 336.464844 184.066406 338.828125 186.132812 344.429688 186.203125 C 346.589844 186.234375 348.757812 186.226562 350.921875 186.207031 C 356.476562 186.140625 359.082031 184.019531 360.023438 178.554688 C 361.289062 171.183594 362.238281 163.757812 363.691406 156.433594 C 364.707031 151.28125 365.191406 145.480469 367.96875 141.34375 C 372.078125 135.210938 374.703125 129.011719 374.824219 121.785156 C 374.988281 112.414062 374.898438 103.039062 374.859375 93.667969 C 374.832031 86.589844 371.691406 81.328125 364.933594 79.011719 C 353.421875 75.0625 341.722656 75.070312 330.246094 79.101562 C 323.898438 81.332031 320.789062 86.367188 320.703125 93.117188 C 320.636719 98.160156 320.691406 103.210938 320.691406 108.261719 Z M 369.070312 49.441406 C 369.140625 37.191406 359.535156 27.316406 347.410156 27.175781 C 335.5625 27.035156 325.320312 37.113281 325.152344 49.074219 C 324.988281 61.066406 334.855469 71.015625 347.035156 71.140625 C 359.371094 71.265625 368.996094 61.789062 369.070312 49.441406 Z M 369.070312 49.441406 "/><path style=" stroke:none;fill-rule:evenodd;fill:#8ccdb0;fill-opacity:1;" d="M 320.691406 108.261719 C 320.691406 103.210938 320.636719 98.160156 320.703125 93.117188 C 320.789062 86.367188 323.898438 81.332031 330.246094 79.101562 C 341.722656 75.070312 353.421875 75.0625 364.933594 79.011719 C 371.691406 81.324219 374.835938 86.589844 374.859375 93.667969 C 374.902344 103.039062 374.988281 112.414062 374.824219 121.78125 C 374.703125 129.011719 372.082031 135.210938 367.96875 141.34375 C 365.191406 145.480469 364.707031 151.28125 363.691406 156.433594 C 362.238281 163.757812 361.289062 171.183594 360.023438 178.554688 C 359.082031 184.019531 356.476562 186.140625 350.921875 186.207031 C 348.757812 186.226562 346.59375 186.234375 344.429688 186.203125 C 338.832031 186.128906 336.464844 184.066406 335.503906 178.421875 C 333.785156 168.367188 332.242188 158.273438 330.25 148.273438 C 329.660156 145.335938 328.121094 142.425781 326.425781 139.902344 C 322.957031 134.722656 320.886719 129.175781 320.746094 122.964844 C 320.632812 118.066406 320.722656 113.160156 320.722656 108.257812 C 320.710938 108.261719 320.703125 108.261719 320.691406 108.261719 Z M 320.691406 108.261719 "/><path style=" stroke:none;fill-rule:evenodd;fill:#8ccdb0;fill-opacity:1;" d="M 369.070312 49.441406 C 368.996094 61.789062 359.371094 71.265625 347.035156 71.140625 C 334.855469 71.015625 324.988281 61.066406 325.152344 49.074219 C 325.320312 37.113281 335.5625 27.039062 347.410156 27.175781 C 359.535156 27.316406 369.140625 37.191406 369.070312 49.441406 Z M 369.070312 49.441406 "/><path style=" stroke:none;fill-rule:nonzero;fill:#8ccdb0;fill-opacity:1;" d="M 110.027344 108.261719 C 110.035156 108.261719 110.042969 108.261719 110.058594 108.261719 C 110.058594 113.160156 109.96875 118.066406 110.078125 122.964844 C 110.21875 129.175781 112.292969 134.722656 115.761719 139.902344 C 117.453125 142.429688 118.996094 145.335938 119.582031 148.273438 C 121.578125 158.273438 123.117188 168.367188 124.839844 178.425781 C 125.800781 184.066406 128.164062 186.132812 133.765625 186.203125 C 135.925781 186.234375 138.089844 186.226562 140.253906 186.207031 C 145.808594 186.140625 148.417969 184.019531 149.355469 178.554688 C 150.625 171.183594 151.570312 163.757812 153.027344 156.433594 C 154.042969 151.28125 154.527344 145.480469 157.304688 141.34375 C 161.417969 135.210938 164.039062 129.011719 164.160156 121.785156 C 164.324219 112.414062 164.234375 103.039062 164.199219 93.667969 C 164.167969 86.589844 161.03125 81.328125 154.265625 79.011719 C 142.753906 75.0625 131.058594 75.070312 119.578125 79.101562 C 113.230469 81.332031 110.125 86.367188 110.035156 93.117188 C 109.96875 98.160156 110.027344 103.210938 110.027344 108.261719 Z M 158.402344 49.441406 C 158.476562 37.191406 148.871094 27.316406 136.742188 27.175781 C 124.894531 27.035156 114.652344 37.113281 114.484375 49.074219 C 114.324219 61.066406 124.1875 71.015625 136.367188 71.140625 C 148.703125 71.265625 158.328125 61.789062 158.402344 49.441406 Z M 158.402344 49.441406 "/><path style=" stroke:none;fill-rule:evenodd;fill:#8ccdb0;fill-opacity:1;" d="M 110.027344 108.261719 C 110.027344 103.210938 109.96875 98.160156 110.035156 93.117188 C 110.125 86.367188 113.230469 81.332031 119.582031 79.101562 C 131.058594 75.070312 142.753906 75.0625 154.265625 79.011719 C 161.03125 81.324219 164.167969 86.589844 164.199219 93.667969 C 164.234375 103.039062 164.324219 112.414062 164.160156 121.78125 C 164.039062 129.011719 161.417969 135.210938 157.304688 141.34375 C 154.527344 145.480469 154.042969 151.28125 153.027344 156.433594 C 151.574219 163.757812 150.625 171.183594 149.355469 178.554688 C 148.417969 184.019531 145.8125 186.140625 140.257812 186.207031 C 138.089844 186.226562 135.925781 186.234375 133.765625 186.203125 C 128.164062 186.128906 125.800781 184.066406 124.839844 178.421875 C 123.117188 168.367188 121.582031 158.273438 119.585938 148.273438 C 118.996094 145.335938 117.457031 142.425781 115.761719 139.902344 C 112.292969 134.722656 110.222656 129.175781 110.078125 122.964844 C 109.96875 118.066406 110.058594 113.160156 110.058594 108.257812 C 110.042969 108.261719 110.035156 108.261719 110.027344 108.261719 Z M 110.027344 108.261719 "/><path style=" stroke:none;fill-rule:evenodd;fill:#8ccdb0;fill-opacity:1;" d="M 158.402344 49.441406 C 158.328125 61.789062 148.703125 71.265625 136.367188 71.140625 C 124.1875 71.015625 114.324219 61.066406 114.484375 49.074219 C 114.652344 37.113281 124.894531 27.039062 136.742188 27.175781 C 148.871094 27.316406 158.472656 37.191406 158.402344 49.441406 Z M 158.402344 49.441406 "/><path style=" stroke:none;fill-rule:nonzero;fill:#8ccdb0;fill-opacity:1;" d="M 0.0234375 108.261719 C 0.03125 108.261719 0.0429688 108.261719 0.0546875 108.261719 C 0.0546875 113.160156 -0.0351562 118.066406 0.0742188 122.964844 C 0.21875 129.175781 2.285156 134.722656 5.757812 139.902344 C 7.453125 142.429688 8.992188 145.335938 9.582031 148.273438 C 11.574219 158.273438 13.113281 168.367188 14.835938 178.425781 C 15.796875 184.066406 18.160156 186.132812 23.761719 186.203125 C 25.921875 186.234375 28.085938 186.226562 30.253906 186.207031 C 35.808594 186.140625 38.414062 184.019531 39.351562 178.554688 C 40.621094 171.183594 41.570312 163.757812 43.023438 156.433594 C 44.039062 151.28125 44.523438 145.480469 47.300781 141.34375 C 51.410156 135.210938 54.035156 129.011719 54.15625 121.785156 C 54.320312 112.414062 54.230469 103.039062 54.191406 93.667969 C 54.164062 86.589844 51.023438 81.328125 44.261719 79.011719 C 32.75 75.0625 21.054688 75.070312 9.578125 79.101562 C 3.226562 81.332031 0.121094 86.367188 0.03125 93.117188 C -0.0351562 98.160156 0.0234375 103.210938 0.0234375 108.261719 Z M 48.398438 49.441406 C 48.472656 37.191406 38.867188 27.316406 26.738281 27.175781 C 14.894531 27.035156 4.648438 37.113281 4.484375 49.074219 C 4.316406 61.066406 14.183594 71.015625 26.363281 71.140625 C 38.699219 71.265625 48.324219 61.789062 48.398438 49.441406 Z M 48.398438 49.441406 "/><path style=" stroke:none;fill-rule:evenodd;fill:#8ccdb0;fill-opacity:1;" d="M 0.0234375 108.261719 C 0.0234375 103.210938 -0.0351562 98.160156 0.03125 93.117188 C 0.121094 86.367188 3.226562 81.332031 9.578125 79.101562 C 21.054688 75.070312 32.75 75.0625 44.261719 79.011719 C 51.023438 81.324219 54.164062 86.589844 54.191406 93.667969 C 54.230469 103.039062 54.320312 112.414062 54.15625 121.78125 C 54.035156 129.011719 51.410156 135.210938 47.300781 141.34375 C 44.523438 145.480469 44.039062 151.28125 43.023438 156.433594 C 41.570312 163.757812 40.621094 171.183594 39.355469 178.554688 C 38.414062 184.019531 35.808594 186.140625 30.253906 186.207031 C 28.089844 186.226562 25.921875 186.234375 23.761719 186.203125 C 18.160156 186.128906 15.796875 184.066406 14.835938 178.421875 C 13.117188 168.367188 11.574219 158.273438 9.582031 148.273438 C 8.992188 145.335938 7.453125 142.425781 5.757812 139.902344 C 2.285156 134.722656 0.21875 129.175781 0.0742188 122.964844 C -0.0351562 118.066406 0.0546875 113.160156 0.0546875 108.257812 C 0.0429688 108.261719 0.03125 108.261719 0.0234375 108.261719 Z M 0.0234375 108.261719 "/><path style=" stroke:none;fill-rule:evenodd;fill:#8ccdb0;fill-opacity:1;" d="M 48.398438 49.441406 C 48.324219 61.789062 38.699219 71.265625 26.363281 71.140625 C 14.183594 71.015625 4.316406 61.066406 4.484375 49.074219 C 4.648438 37.113281 14.894531 27.035156 26.738281 27.175781 C 38.867188 27.316406 48.472656 37.191406 48.398438 49.441406 Z M 48.398438 49.441406 "/><path style=" stroke:none;fill-rule:nonzero;fill:#8ccdb0;fill-opacity:1;" d="M 215.546875 108.261719 C 215.5625 108.261719 215.570312 108.261719 215.582031 108.261719 C 215.582031 113.160156 215.492188 118.066406 215.605469 122.964844 C 215.746094 129.175781 217.8125 134.722656 221.285156 139.902344 C 222.984375 142.429688 224.523438 145.335938 225.109375 148.273438 C 227.105469 158.273438 228.640625 168.367188 230.363281 178.425781 C 231.328125 184.066406 233.6875 186.132812 239.289062 186.203125 C 241.453125 186.234375 243.617188 186.226562 245.78125 186.207031 C 251.332031 186.140625 253.945312 184.019531 254.878906 178.554688 C 256.148438 171.183594 257.097656 163.757812 258.550781 156.433594 C 259.570312 151.28125 260.054688 145.480469 262.828125 141.34375 C 266.941406 135.210938 269.558594 129.011719 269.683594 121.785156 C 269.847656 112.414062 269.765625 103.039062 269.722656 93.667969 C 269.691406 86.589844 266.554688 81.328125 259.792969 79.011719 C 248.28125 75.0625 236.582031 75.070312 225.105469 79.101562 C 218.753906 81.332031 215.648438 86.367188 215.558594 93.117188 C 215.492188 98.160156 215.546875 103.210938 215.546875 108.261719 Z M 263.925781 49.441406 C 264 37.191406 254.394531 27.316406 242.265625 27.175781 C 230.425781 27.035156 220.179688 37.113281 220.011719 49.074219 C 219.847656 61.066406 229.710938 71.015625 241.890625 71.140625 C 254.226562 71.265625 263.855469 61.789062 263.925781 49.441406 Z M 263.925781 49.441406 "/><path style=" stroke:none;fill-rule:evenodd;fill:#8ccdb0;fill-opacity:1;" d="M 215.546875 108.261719 C 215.546875 103.210938 215.492188 98.160156 215.5625 93.117188 C 215.648438 86.367188 218.757812 81.332031 225.105469 79.101562 C 236.582031 75.070312 248.285156 75.0625 259.792969 79.011719 C 266.554688 81.324219 269.691406 86.589844 269.722656 93.667969 C 269.765625 103.039062 269.847656 112.414062 269.683594 121.78125 C 269.558594 129.011719 266.941406 135.210938 262.828125 141.34375 C 260.054688 145.480469 259.570312 151.28125 258.550781 156.433594 C 257.097656 163.757812 256.148438 171.183594 254.882812 178.554688 C 253.945312 184.019531 251.335938 186.140625 245.785156 186.207031 C 243.617188 186.226562 241.453125 186.234375 239.289062 186.203125 C 233.6875 186.128906 231.328125 184.066406 230.363281 178.421875 C 228.644531 168.367188 227.105469 158.273438 225.109375 148.273438 C 224.523438 145.335938 222.984375 142.425781 221.285156 139.902344 C 217.8125 134.722656 215.746094 129.175781 215.605469 122.964844 C 215.496094 118.066406 215.582031 113.160156 215.582031 108.257812 C 215.574219 108.261719 215.5625 108.261719 215.546875 108.261719 Z M 215.546875 108.261719 "/><path style=" stroke:none;fill-rule:evenodd;fill:#8ccdb0;fill-opacity:1;" d="M 263.925781 49.441406 C 263.855469 61.789062 254.230469 71.265625 241.890625 71.140625 C 229.710938 71.015625 219.847656 61.066406 220.011719 49.074219 C 220.179688 37.113281 230.425781 27.039062 242.265625 27.175781 C 254.394531 27.316406 264 37.191406 263.925781 49.441406 Z M 263.925781 49.441406 "/><g mask="url(#674096d2f6)" transform="matrix(1,0,0,1,320,27)"><g clip-path="url(#92bd43e86b)"><g clip-rule="nonzero" clip-path="url(#a0e02fb2e8)"><path style=" stroke:none;fill-rule:nonzero;fill:#000000;fill-opacity:1;" d="M 0.691406 81.261719 C 0.703125 81.261719 0.710938 81.261719 0.722656 81.261719 C 0.722656 86.160156 0.632812 91.066406 0.742188 95.964844 C 0.886719 102.175781 2.953125 107.722656 6.425781 112.902344 C 8.121094 115.429688 9.660156 118.335938 10.25 121.273438 C 12.242188 131.273438 13.785156 141.367188 15.503906 151.425781 C 16.464844 157.066406 18.828125 159.132812 24.429688 159.203125 C 26.589844 159.234375 28.757812 159.226562 30.921875 159.207031 C 36.476562 159.140625 39.082031 157.019531 40.019531 151.554688 C 41.289062 144.183594 42.238281 136.757812 43.691406 129.433594 C 44.707031 124.28125 45.191406 118.480469 47.96875 114.34375 C 52.078125 108.210938 54.703125 102.011719 54.824219 94.785156 C 54.988281 85.414062 54.898438 76.039062 54.859375 66.667969 C 54.832031 59.589844 51.691406 54.328125 44.933594 52.011719 C 33.421875 48.0625 21.722656 48.070312 10.246094 52.101562 C 3.898438 54.332031 0.789062 59.367188 0.703125 66.117188 C 0.636719 71.160156 0.691406 76.210938 0.691406 81.261719 Z M 49.070312 22.441406 C 49.140625 10.191406 39.535156 0.316406 27.410156 0.175781 C 15.5625 0.0351562 5.320312 10.113281 5.152344 22.074219 C 4.988281 34.066406 14.855469 44.015625 27.035156 44.140625 C 39.371094 44.265625 48.996094 34.789062 49.070312 22.441406 Z M 49.070312 22.441406 "/></g><g clip-rule="nonzero" clip-path="url(#d100bc6e7c)"><path style=" stroke:none;fill-rule:evenodd;fill:#000000;fill-opacity:1;" d="M 0.691406 81.261719 C 0.691406 76.210938 0.636719 71.160156 0.703125 66.117188 C 0.789062 59.367188 3.898438 54.332031 10.246094 52.101562 C 21.722656 48.070312 33.421875 48.0625 44.933594 52.011719 C 51.691406 54.324219 54.835938 59.589844 54.859375 66.667969 C 54.902344 76.039062 54.988281 85.414062 54.824219 94.78125 C 54.703125 102.011719 52.082031 108.210938 47.96875 114.34375 C 45.191406 118.480469 44.707031 124.28125 43.691406 129.433594 C 42.238281 136.757812 41.289062 144.183594 40.023438 151.554688 C 39.082031 157.019531 36.476562 159.140625 30.921875 159.207031 C 28.757812 159.226562 26.59375 159.234375 24.429688 159.203125 C 18.832031 159.128906 16.464844 157.066406 15.503906 151.421875 C 13.785156 141.367188 12.242188 131.273438 10.25 121.273438 C 9.660156 118.335938 8.121094 115.425781 6.425781 112.902344 C 2.957031 107.722656 0.886719 102.175781 0.746094 95.964844 C 0.632812 91.066406 0.722656 86.160156 0.722656 81.257812 C 0.710938 81.261719 0.703125 81.261719 0.691406 81.261719 Z M 0.691406 81.261719 "/></g><g clip-rule="nonzero" clip-path="url(#cc66f2eff7)"><path style=" stroke:none;fill-rule:evenodd;fill:#000000;fill-opacity:1;" d="M 49.070312 22.441406 C 48.996094 34.789062 39.371094 44.265625 27.035156 44.140625 C 14.855469 44.015625 4.988281 34.066406 5.152344 22.074219 C 5.320312 10.113281 15.5625 0.0390625 27.410156 0.175781 C 39.535156 0.316406 49.140625 10.191406 49.070312 22.441406 Z M 49.070312 22.441406 "/></g></g><mask id="674096d2f6"><g filter="url(#e6f93b3590)"><rect x="0" width="375" y="0" height="374.999991" style="fill:#000000;fill-opacity:0.5;stroke:none;"/></g></mask></g><g mask="url(#99c4608120)" transform="matrix(1,0,0,1,109,27)"><g clip-path="url(#c2a8429166)"><g clip-rule="nonzero" clip-path="url(#a06a876c33)"><path style=" stroke:none;fill-rule:nonzero;fill:#000000;fill-opacity:1;" d="M 1.027344 81.261719 C 1.035156 81.261719 1.042969 81.261719 1.058594 81.261719 C 1.058594 86.160156 0.96875 91.066406 1.078125 95.964844 C 1.21875 102.175781 3.292969 107.722656 6.761719 112.902344 C 8.453125 115.429688 9.996094 118.335938 10.582031 121.273438 C 12.578125 131.273438 14.117188 141.367188 15.839844 151.425781 C 16.800781 157.066406 19.164062 159.132812 24.765625 159.203125 C 26.925781 159.234375 29.089844 159.226562 31.253906 159.207031 C 36.808594 159.140625 39.417969 157.019531 40.355469 151.554688 C 41.625 144.183594 42.570312 136.757812 44.027344 129.433594 C 45.042969 124.28125 45.527344 118.480469 48.304688 114.34375 C 52.417969 108.210938 55.039062 102.011719 55.160156 94.785156 C 55.324219 85.414062 55.234375 76.039062 55.199219 66.667969 C 55.167969 59.589844 52.03125 54.328125 45.265625 52.011719 C 33.753906 48.0625 22.058594 48.070312 10.578125 52.101562 C 4.230469 54.332031 1.125 59.367188 1.035156 66.117188 C 0.96875 71.160156 1.027344 76.210938 1.027344 81.261719 Z M 49.402344 22.441406 C 49.476562 10.191406 39.871094 0.316406 27.742188 0.175781 C 15.894531 0.0351562 5.652344 10.113281 5.484375 22.074219 C 5.324219 34.066406 15.1875 44.015625 27.367188 44.140625 C 39.703125 44.265625 49.328125 34.789062 49.402344 22.441406 Z M 49.402344 22.441406 "/></g><g clip-rule="nonzero" clip-path="url(#87ba10275e)"><path style=" stroke:none;fill-rule:evenodd;fill:#000000;fill-opacity:1;" d="M 1.027344 81.261719 C 1.027344 76.210938 0.96875 71.160156 1.035156 66.117188 C 1.125 59.367188 4.230469 54.332031 10.582031 52.101562 C 22.058594 48.070312 33.753906 48.0625 45.265625 52.011719 C 52.03125 54.324219 55.167969 59.589844 55.199219 66.667969 C 55.234375 76.039062 55.324219 85.414062 55.160156 94.78125 C 55.039062 102.011719 52.417969 108.210938 48.304688 114.34375 C 45.527344 118.480469 45.042969 124.28125 44.027344 129.433594 C 42.574219 136.757812 41.625 144.183594 40.355469 151.554688 C 39.417969 157.019531 36.8125 159.140625 31.257812 159.207031 C 29.089844 159.226562 26.925781 159.234375 24.765625 159.203125 C 19.164062 159.128906 16.800781 157.066406 15.839844 151.421875 C 14.117188 141.367188 12.582031 131.273438 10.585938 121.273438 C 9.996094 118.335938 8.457031 115.425781 6.761719 112.902344 C 3.292969 107.722656 1.222656 102.175781 1.078125 95.964844 C 0.96875 91.066406 1.058594 86.160156 1.058594 81.257812 C 1.042969 81.261719 1.035156 81.261719 1.027344 81.261719 Z M 1.027344 81.261719 "/></g><g clip-rule="nonzero" clip-path="url(#3d50de9b47)"><path style=" stroke:none;fill-rule:evenodd;fill:#000000;fill-opacity:1;" d="M 49.402344 22.441406 C 49.328125 34.789062 39.703125 44.265625 27.367188 44.140625 C 15.1875 44.015625 5.324219 34.066406 5.484375 22.074219 C 5.652344 10.113281 15.894531 0.0390625 27.742188 0.175781 C 39.871094 0.316406 49.472656 10.191406 49.402344 22.441406 Z M 49.402344 22.441406 "/></g></g><mask id="99c4608120"><g filter="url(#e6f93b3590)"><rect x="0" width="375" y="0" height="374.999991" style="fill:#000000;fill-opacity:0.5;stroke:none;"/></g></mask></g><g mask="url(#9d2c79ebdd)" transform="matrix(1,0,0,1,0,27)"><g clip-path="url(#f1ec686988)"><g clip-rule="nonzero" clip-path="url(#71823945f8)"><path style=" stroke:none;fill-rule:nonzero;fill:#000000;fill-opacity:1;" d="M 0.0234375 81.261719 C 0.03125 81.261719 0.0429688 81.261719 0.0546875 81.261719 C 0.0546875 86.160156 -0.0351562 91.066406 0.0742188 95.964844 C 0.21875 102.175781 2.285156 107.722656 5.757812 112.902344 C 7.453125 115.429688 8.992188 118.335938 9.582031 121.273438 C 11.574219 131.273438 13.113281 141.367188 14.835938 151.425781 C 15.796875 157.066406 18.160156 159.132812 23.761719 159.203125 C 25.921875 159.234375 28.085938 159.226562 30.253906 159.207031 C 35.808594 159.140625 38.414062 157.019531 39.351562 151.554688 C 40.621094 144.183594 41.570312 136.757812 43.023438 129.433594 C 44.039062 124.28125 44.523438 118.480469 47.300781 114.34375 C 51.410156 108.210938 54.035156 102.011719 54.15625 94.785156 C 54.320312 85.414062 54.230469 76.039062 54.191406 66.667969 C 54.164062 59.589844 51.023438 54.328125 44.261719 52.011719 C 32.75 48.0625 21.054688 48.070312 9.578125 52.101562 C 3.226562 54.332031 0.121094 59.367188 0.03125 66.117188 C -0.0351562 71.160156 0.0234375 76.210938 0.0234375 81.261719 Z M 48.398438 22.441406 C 48.472656 10.191406 38.867188 0.316406 26.738281 0.175781 C 14.894531 0.0351562 4.648438 10.113281 4.484375 22.074219 C 4.316406 34.066406 14.183594 44.015625 26.363281 44.140625 C 38.699219 44.265625 48.324219 34.789062 48.398438 22.441406 Z M 48.398438 22.441406 "/></g><g clip-rule="nonzero" clip-path="url(#5375afefc2)"><path style=" stroke:none;fill-rule:evenodd;fill:#000000;fill-opacity:1;" d="M 0.0234375 81.261719 C 0.0234375 76.210938 -0.0351562 71.160156 0.03125 66.117188 C 0.121094 59.367188 3.226562 54.332031 9.578125 52.101562 C 21.054688 48.070312 32.75 48.0625 44.261719 52.011719 C 51.023438 54.324219 54.164062 59.589844 54.191406 66.667969 C 54.230469 76.039062 54.320312 85.414062 54.15625 94.78125 C 54.035156 102.011719 51.410156 108.210938 47.300781 114.34375 C 44.523438 118.480469 44.039062 124.28125 43.023438 129.433594 C 41.570312 136.757812 40.621094 144.183594 39.355469 151.554688 C 38.414062 157.019531 35.808594 159.140625 30.253906 159.207031 C 28.089844 159.226562 25.921875 159.234375 23.761719 159.203125 C 18.160156 159.128906 15.796875 157.066406 14.835938 151.421875 C 13.117188 141.367188 11.574219 131.273438 9.582031 121.273438 C 8.992188 118.335938 7.453125 115.425781 5.757812 112.902344 C 2.285156 107.722656 0.21875 102.175781 0.0742188 95.964844 C -0.0351562 91.066406 0.0546875 86.160156 0.0546875 81.257812 C 0.0429688 81.261719 0.03125 81.261719 0.0234375 81.261719 Z M 0.0234375 81.261719 "/></g><g clip-rule="nonzero" clip-path="url(#69240a8fe0)"><path style=" stroke:none;fill-rule:evenodd;fill:#000000;fill-opacity:1;" d="M 48.398438 22.441406 C 48.324219 34.789062 38.699219 44.265625 26.363281 44.140625 C 14.183594 44.015625 4.316406 34.066406 4.484375 22.074219 C 4.648438 10.113281 14.894531 0.0351562 26.738281 0.175781 C 38.867188 0.316406 48.472656 10.191406 48.398438 22.441406 Z M 48.398438 22.441406 "/></g></g><mask id="9d2c79ebdd"><g filter="url(#e6f93b3590)"><rect x="0" width="375" y="0" height="374.999991" style="fill:#000000;fill-opacity:0.5;stroke:none;"/></g></mask></g><g mask="url(#9bcee360e1)" transform="matrix(1,0,0,1,215,27)"><g clip-path="url(#3de105f6d8)"><g clip-rule="nonzero" clip-path="url(#ebdd9d703d)"><path style=" stroke:none;fill-rule:nonzero;fill:#000000;fill-opacity:1;" d="M 0.546875 81.261719 C 0.5625 81.261719 0.570312 81.261719 0.582031 81.261719 C 0.582031 86.160156 0.492188 91.066406 0.605469 95.964844 C 0.746094 102.175781 2.8125 107.722656 6.285156 112.902344 C 7.984375 115.429688 9.523438 118.335938 10.109375 121.273438 C 12.105469 131.273438 13.640625 141.367188 15.363281 151.425781 C 16.328125 157.066406 18.6875 159.132812 24.289062 159.203125 C 26.453125 159.234375 28.617188 159.226562 30.78125 159.207031 C 36.332031 159.140625 38.945312 157.019531 39.878906 151.554688 C 41.148438 144.183594 42.097656 136.757812 43.550781 129.433594 C 44.570312 124.28125 45.054688 118.480469 47.828125 114.34375 C 51.941406 108.210938 54.558594 102.011719 54.683594 94.785156 C 54.847656 85.414062 54.765625 76.039062 54.722656 66.667969 C 54.691406 59.589844 51.554688 54.328125 44.792969 52.011719 C 33.28125 48.0625 21.582031 48.070312 10.105469 52.101562 C 3.753906 54.332031 0.648438 59.367188 0.558594 66.117188 C 0.492188 71.160156 0.546875 76.210938 0.546875 81.261719 Z M 48.925781 22.441406 C 49 10.191406 39.394531 0.316406 27.265625 0.175781 C 15.425781 0.0351562 5.179688 10.113281 5.011719 22.074219 C 4.847656 34.066406 14.710938 44.015625 26.890625 44.140625 C 39.226562 44.265625 48.855469 34.789062 48.925781 22.441406 Z M 48.925781 22.441406 "/></g><g clip-rule="nonzero" clip-path="url(#a1ecf41178)"><path style=" stroke:none;fill-rule:evenodd;fill:#000000;fill-opacity:1;" d="M 0.546875 81.261719 C 0.546875 76.210938 0.492188 71.160156 0.5625 66.117188 C 0.648438 59.367188 3.757812 54.332031 10.105469 52.101562 C 21.582031 48.070312 33.285156 48.0625 44.792969 52.011719 C 51.554688 54.324219 54.691406 59.589844 54.722656 66.667969 C 54.765625 76.039062 54.847656 85.414062 54.683594 94.78125 C 54.558594 102.011719 51.941406 108.210938 47.828125 114.34375 C 45.054688 118.480469 44.570312 124.28125 43.550781 129.433594 C 42.097656 136.757812 41.148438 144.183594 39.882812 151.554688 C 38.945312 157.019531 36.335938 159.140625 30.785156 159.207031 C 28.617188 159.226562 26.453125 159.234375 24.289062 159.203125 C 18.6875 159.128906 16.328125 157.066406 15.363281 151.421875 C 13.644531 141.367188 12.105469 131.273438 10.109375 121.273438 C 9.523438 118.335938 7.984375 115.425781 6.285156 112.902344 C 2.8125 107.722656 0.746094 102.175781 0.605469 95.964844 C 0.496094 91.066406 0.582031 86.160156 0.582031 81.257812 C 0.574219 81.261719 0.5625 81.261719 0.546875 81.261719 Z M 0.546875 81.261719 "/></g><g clip-rule="nonzero" clip-path="url(#3d3baa19ce)"><path style=" stroke:none;fill-rule:evenodd;fill:#000000;fill-opacity:1;" d="M 48.925781 22.441406 C 48.855469 34.789062 39.230469 44.265625 26.890625 44.140625 C 14.710938 44.015625 4.847656 34.066406 5.011719 22.074219 C 5.179688 10.113281 15.425781 0.0390625 27.265625 0.175781 C 39.394531 0.316406 49 10.191406 48.925781 22.441406 Z M 48.925781 22.441406 "/></g></g><mask id="9bcee360e1"><g filter="url(#e6f93b3590)"><rect x="0" width="375" y="0" height="374.999991" style="fill:#000000;fill-opacity:0.5;stroke:none;"/></g></mask></g><path style=" stroke:none;fill-rule:nonzero;fill:#8ccdb0;fill-opacity:1;" d="M 280.722656 156.03125 C 280.734375 156.03125 280.742188 156.03125 280.757812 156.03125 C 280.757812 161.542969 280.65625 167.0625 280.78125 172.578125 C 280.941406 179.566406 283.269531 185.804688 287.175781 191.632812 C 289.082031 194.472656 290.8125 197.742188 291.476562 201.050781 C 293.71875 212.300781 295.449219 223.652344 297.386719 234.964844 C 298.472656 241.316406 301.128906 243.636719 307.425781 243.71875 C 309.859375 243.753906 312.292969 243.746094 314.730469 243.722656 C 320.976562 243.652344 323.914062 241.261719 324.96875 235.117188 C 326.390625 226.824219 327.460938 218.472656 329.097656 210.230469 C 330.242188 204.4375 330.785156 197.90625 333.910156 193.253906 C 338.535156 186.351562 341.484375 179.382812 341.621094 171.25 C 341.804688 160.707031 341.710938 150.164062 341.664062 139.617188 C 341.632812 131.660156 338.097656 125.734375 330.492188 123.128906 C 317.546875 118.691406 304.382812 118.695312 291.472656 123.230469 C 284.328125 125.738281 280.835938 131.402344 280.734375 138.996094 C 280.660156 144.671875 280.722656 150.355469 280.722656 156.03125 Z M 335.144531 89.863281 C 335.226562 76.078125 324.421875 64.972656 310.777344 64.816406 C 297.453125 64.660156 285.925781 75.992188 285.738281 89.449219 C 285.554688 102.941406 296.652344 114.132812 310.355469 114.273438 C 324.234375 114.417969 335.0625 103.753906 335.144531 89.863281 Z M 335.144531 89.863281 "/><path style=" stroke:none;fill-rule:evenodd;fill:#8ccdb0;fill-opacity:1;" d="M 280.722656 156.03125 C 280.722656 150.355469 280.660156 144.671875 280.734375 138.996094 C 280.835938 131.402344 284.328125 125.738281 291.472656 123.230469 C 304.382812 118.695312 317.546875 118.691406 330.492188 123.128906 C 338.097656 125.734375 341.632812 131.65625 341.664062 139.617188 C 341.710938 150.160156 341.804688 160.703125 341.621094 171.246094 C 341.484375 179.382812 338.535156 186.351562 333.910156 193.253906 C 330.785156 197.90625 330.242188 204.4375 329.097656 210.230469 C 327.460938 218.472656 326.390625 226.824219 324.96875 235.113281 C 323.914062 241.261719 320.976562 243.652344 314.730469 243.722656 C 312.292969 243.746094 309.859375 243.753906 307.425781 243.71875 C 301.128906 243.636719 298.46875 241.316406 297.386719 234.964844 C 295.449219 223.652344 293.71875 212.300781 291.476562 201.050781 C 290.8125 197.742188 289.082031 194.472656 287.175781 191.632812 C 283.269531 185.804688 280.941406 179.566406 280.78125 172.578125 C 280.65625 167.0625 280.757812 161.542969 280.757812 156.03125 C 280.742188 156.03125 280.734375 156.03125 280.722656 156.03125 Z M 280.722656 156.03125 "/><path style=" stroke:none;fill-rule:evenodd;fill:#8ccdb0;fill-opacity:1;" d="M 335.144531 89.863281 C 335.0625 103.753906 324.234375 114.417969 310.355469 114.273438 C 296.652344 114.132812 285.554688 102.941406 285.738281 89.449219 C 285.925781 75.992188 297.453125 64.660156 310.777344 64.816406 C 324.421875 64.972656 335.226562 76.078125 335.144531 89.863281 Z M 335.144531 89.863281 "/><path style=" stroke:none;fill-rule:nonzero;fill:#8ccdb0;fill-opacity:1;" d="M 160.078125 156.03125 C 160.089844 156.03125 160.101562 156.03125 160.113281 156.03125 C 160.113281 161.542969 160.015625 167.0625 160.140625 172.578125 C 160.296875 179.566406 162.625 185.804688 166.53125 191.632812 C 168.441406 194.472656 170.171875 197.742188 170.832031 201.050781 C 173.078125 212.300781 174.808594 223.652344 176.746094 234.964844 C 177.828125 241.316406 180.488281 243.636719 186.785156 243.71875 C 189.21875 243.753906 191.65625 243.746094 194.089844 243.722656 C 200.335938 243.652344 203.273438 241.261719 204.324219 235.117188 C 205.75 226.824219 206.820312 218.472656 208.453125 210.230469 C 209.601562 204.4375 210.148438 197.90625 213.269531 193.253906 C 217.894531 186.351562 220.839844 179.382812 220.980469 171.25 C 221.164062 160.707031 221.070312 150.164062 221.023438 139.617188 C 220.992188 131.660156 217.460938 125.734375 209.851562 123.128906 C 196.90625 118.691406 183.742188 118.695312 170.832031 123.230469 C 163.6875 125.738281 160.1875 131.402344 160.089844 138.996094 C 160.015625 144.671875 160.078125 150.355469 160.078125 156.03125 Z M 214.5 89.863281 C 214.585938 76.078125 203.78125 64.972656 190.136719 64.816406 C 176.8125 64.660156 165.285156 75.992188 165.097656 89.449219 C 164.914062 102.941406 176.007812 114.132812 189.710938 114.273438 C 203.59375 114.417969 214.421875 103.753906 214.5 89.863281 Z M 214.5 89.863281 "/><path style=" stroke:none;fill-rule:evenodd;fill:#8ccdb0;fill-opacity:1;" d="M 160.078125 156.03125 C 160.078125 150.355469 160.015625 144.671875 160.089844 138.996094 C 160.1875 131.402344 163.683594 125.738281 170.832031 123.230469 C 183.742188 118.695312 196.90625 118.691406 209.851562 123.128906 C 217.457031 125.734375 220.988281 131.65625 221.023438 139.617188 C 221.070312 150.160156 221.164062 160.703125 220.976562 171.246094 C 220.839844 179.382812 217.894531 186.351562 213.265625 193.253906 C 210.148438 197.90625 209.601562 204.4375 208.453125 210.230469 C 206.816406 218.472656 205.75 226.824219 204.324219 235.113281 C 203.273438 241.261719 200.335938 243.652344 194.089844 243.722656 C 191.65625 243.746094 189.21875 243.753906 186.785156 243.71875 C 180.488281 243.636719 177.824219 241.316406 176.742188 234.964844 C 174.808594 223.652344 173.078125 212.300781 170.828125 201.050781 C 170.171875 197.742188 168.441406 194.472656 166.53125 191.632812 C 162.625 185.804688 160.296875 179.566406 160.136719 172.578125 C 160.015625 167.0625 160.113281 161.542969 160.113281 156.03125 C 160.101562 156.03125 160.089844 156.03125 160.078125 156.03125 Z M 160.078125 156.03125 "/><path style=" stroke:none;fill-rule:evenodd;fill:#8ccdb0;fill-opacity:1;" d="M 214.5 89.863281 C 214.421875 103.753906 203.59375 114.417969 189.710938 114.273438 C 176.007812 114.132812 164.914062 102.941406 165.097656 89.449219 C 165.285156 75.992188 176.8125 64.660156 190.136719 64.816406 C 203.78125 64.972656 214.585938 76.078125 214.5 89.863281 Z M 214.5 89.863281 "/><path style=" stroke:none;fill-rule:nonzero;fill:#8ccdb0;fill-opacity:1;" d="M 43.722656 156.03125 C 43.734375 156.03125 43.742188 156.03125 43.757812 156.03125 C 43.757812 161.542969 43.65625 167.0625 43.78125 172.578125 C 43.941406 179.566406 46.269531 185.804688 50.175781 191.632812 C 52.082031 194.472656 53.8125 197.742188 54.476562 201.050781 C 56.71875 212.300781 58.453125 223.652344 60.386719 234.964844 C 61.46875 241.316406 64.125 243.636719 70.425781 243.71875 C 72.859375 243.753906 75.296875 243.746094 77.730469 243.722656 C 83.976562 243.652344 86.910156 241.261719 87.96875 235.117188 C 89.394531 226.824219 90.460938 218.472656 92.097656 210.230469 C 93.242188 204.4375 93.785156 197.90625 96.910156 193.253906 C 101.535156 186.351562 104.484375 179.382812 104.621094 171.25 C 104.804688 160.707031 104.707031 150.164062 104.664062 139.617188 C 104.632812 131.660156 101.101562 125.734375 93.492188 123.128906 C 80.542969 118.691406 67.382812 118.695312 54.46875 123.230469 C 47.328125 125.738281 43.832031 131.402344 43.734375 138.996094 C 43.65625 144.671875 43.722656 150.355469 43.722656 156.03125 Z M 98.148438 89.863281 C 98.226562 76.078125 87.417969 64.972656 73.777344 64.816406 C 60.449219 64.660156 48.929688 75.992188 48.738281 89.449219 C 48.554688 102.941406 59.65625 114.132812 73.355469 114.273438 C 87.230469 114.417969 98.0625 103.753906 98.148438 89.863281 Z M 98.148438 89.863281 "/><path style=" stroke:none;fill-rule:evenodd;fill:#8ccdb0;fill-opacity:1;" d="M 43.722656 156.03125 C 43.722656 150.355469 43.65625 144.671875 43.734375 138.996094 C 43.832031 131.402344 47.328125 125.738281 54.46875 123.230469 C 67.382812 118.695312 80.542969 118.691406 93.492188 123.128906 C 101.101562 125.734375 104.632812 131.65625 104.664062 139.617188 C 104.707031 150.160156 104.804688 160.703125 104.621094 171.246094 C 104.484375 179.382812 101.535156 186.351562 96.910156 193.253906 C 93.785156 197.90625 93.242188 204.4375 92.097656 210.230469 C 90.460938 218.472656 89.394531 226.824219 87.96875 235.113281 C 86.910156 241.261719 83.976562 243.652344 77.730469 243.722656 C 75.296875 243.746094 72.859375 243.753906 70.425781 243.71875 C 64.125 243.636719 61.46875 241.316406 60.386719 234.964844 C 58.453125 223.652344 56.71875 212.300781 54.476562 201.050781 C 53.808594 197.742188 52.082031 194.472656 50.175781 191.632812 C 46.269531 185.804688 43.941406 179.566406 43.78125 172.578125 C 43.65625 167.0625 43.757812 161.542969 43.757812 156.03125 C 43.742188 156.03125 43.734375 156.03125 43.722656 156.03125 Z M 43.722656 156.03125 "/><path style=" stroke:none;fill-rule:evenodd;fill:#8ccdb0;fill-opacity:1;" d="M 98.148438 89.863281 C 98.0625 103.753906 87.230469 114.417969 73.355469 114.273438 C 59.65625 114.132812 48.554688 102.941406 48.738281 89.449219 C 48.929688 75.992188 60.449219 64.660156 73.777344 64.816406 C 87.417969 64.972656 98.226562 76.078125 98.148438 89.863281 Z M 98.148438 89.863281 "/><g mask="url(#820173c7d1)" transform="matrix(1,0,0,1,280,64)"><g clip-path="url(#750637da78)"><g clip-rule="nonzero" clip-path="url(#f1d9f149f0)"><path style=" stroke:none;fill-rule:nonzero;fill:#000000;fill-opacity:1;" d="M 0.722656 92.03125 C 0.734375 92.03125 0.742188 92.03125 0.757812 92.03125 C 0.757812 97.542969 0.65625 103.0625 0.78125 108.578125 C 0.941406 115.566406 3.269531 121.804688 7.175781 127.632812 C 9.082031 130.472656 10.8125 133.742188 11.476562 137.050781 C 13.71875 148.300781 15.449219 159.652344 17.386719 170.964844 C 18.472656 177.316406 21.128906 179.636719 27.425781 179.71875 C 29.859375 179.753906 32.292969 179.746094 34.730469 179.722656 C 40.976562 179.652344 43.914062 177.261719 44.96875 171.117188 C 46.390625 162.824219 47.460938 154.472656 49.097656 146.230469 C 50.242188 140.4375 50.785156 133.90625 53.910156 129.253906 C 58.535156 122.351562 61.484375 115.382812 61.621094 107.25 C 61.804688 96.707031 61.710938 86.164062 61.664062 75.617188 C 61.632812 67.660156 58.097656 61.734375 50.492188 59.128906 C 37.546875 54.691406 24.382812 54.695312 11.472656 59.230469 C 4.328125 61.738281 0.835938 67.402344 0.734375 74.996094 C 0.660156 80.671875 0.722656 86.355469 0.722656 92.03125 Z M 55.144531 25.863281 C 55.226562 12.078125 44.421875 0.972656 30.777344 0.816406 C 17.453125 0.660156 5.925781 11.992188 5.738281 25.449219 C 5.554688 38.941406 16.652344 50.132812 30.355469 50.273438 C 44.234375 50.417969 55.0625 39.753906 55.144531 25.863281 Z M 55.144531 25.863281 "/></g><g clip-rule="nonzero" clip-path="url(#d31b54f81e)"><path style=" stroke:none;fill-rule:evenodd;fill:#000000;fill-opacity:1;" d="M 0.722656 92.03125 C 0.722656 86.355469 0.660156 80.671875 0.734375 74.996094 C 0.835938 67.402344 4.328125 61.738281 11.472656 59.230469 C 24.382812 54.695312 37.546875 54.691406 50.492188 59.128906 C 58.097656 61.734375 61.632812 67.65625 61.664062 75.617188 C 61.710938 86.160156 61.804688 96.703125 61.621094 107.246094 C 61.484375 115.382812 58.535156 122.351562 53.910156 129.253906 C 50.785156 133.90625 50.242188 140.4375 49.097656 146.230469 C 47.460938 154.472656 46.390625 162.824219 44.96875 171.113281 C 43.914062 177.261719 40.976562 179.652344 34.730469 179.722656 C 32.292969 179.746094 29.859375 179.753906 27.425781 179.71875 C 21.128906 179.636719 18.46875 177.316406 17.386719 170.964844 C 15.449219 159.652344 13.71875 148.300781 11.476562 137.050781 C 10.8125 133.742188 9.082031 130.472656 7.175781 127.632812 C 3.269531 121.804688 0.941406 115.566406 0.78125 108.578125 C 0.65625 103.0625 0.757812 97.542969 0.757812 92.03125 C 0.742188 92.03125 0.734375 92.03125 0.722656 92.03125 Z M 0.722656 92.03125 "/></g><g clip-rule="nonzero" clip-path="url(#0eac7284e2)"><path style=" stroke:none;fill-rule:evenodd;fill:#000000;fill-opacity:1;" d="M 55.144531 25.863281 C 55.0625 39.753906 44.234375 50.417969 30.355469 50.273438 C 16.652344 50.132812 5.554688 38.941406 5.738281 25.449219 C 5.925781 11.992188 17.453125 0.660156 30.777344 0.816406 C 44.421875 0.972656 55.226562 12.078125 55.144531 25.863281 Z M 55.144531 25.863281 "/></g></g><mask id="820173c7d1"><g filter="url(#e6f93b3590)"><rect x="0" width="375" y="0" height="374.999991" style="fill:#000000;fill-opacity:0.3;stroke:none;"/></g></mask></g><g mask="url(#cff52f1748)" transform="matrix(1,0,0,1,159,64)"><g clip-path="url(#03d5769d90)"><g clip-rule="nonzero" clip-path="url(#18cbfd5250)"><path style=" stroke:none;fill-rule:nonzero;fill:#000000;fill-opacity:1;" d="M 1.078125 92.03125 C 1.089844 92.03125 1.101562 92.03125 1.113281 92.03125 C 1.113281 97.542969 1.015625 103.0625 1.140625 108.578125 C 1.296875 115.566406 3.625 121.804688 7.53125 127.632812 C 9.441406 130.472656 11.171875 133.742188 11.832031 137.050781 C 14.078125 148.300781 15.808594 159.652344 17.746094 170.964844 C 18.828125 177.316406 21.488281 179.636719 27.785156 179.71875 C 30.21875 179.753906 32.65625 179.746094 35.089844 179.722656 C 41.335938 179.652344 44.273438 177.261719 45.324219 171.117188 C 46.75 162.824219 47.820312 154.472656 49.453125 146.230469 C 50.601562 140.4375 51.148438 133.90625 54.269531 129.253906 C 58.894531 122.351562 61.839844 115.382812 61.980469 107.25 C 62.164062 96.707031 62.070312 86.164062 62.023438 75.617188 C 61.992188 67.660156 58.460938 61.734375 50.851562 59.128906 C 37.90625 54.691406 24.742188 54.695312 11.832031 59.230469 C 4.6875 61.738281 1.1875 67.402344 1.089844 74.996094 C 1.015625 80.671875 1.078125 86.355469 1.078125 92.03125 Z M 55.5 25.863281 C 55.585938 12.078125 44.78125 0.972656 31.136719 0.816406 C 17.8125 0.660156 6.285156 11.992188 6.097656 25.449219 C 5.914062 38.941406 17.007812 50.132812 30.710938 50.273438 C 44.59375 50.417969 55.421875 39.753906 55.5 25.863281 Z M 55.5 25.863281 "/></g><g clip-rule="nonzero" clip-path="url(#a309b6ae31)"><path style=" stroke:none;fill-rule:evenodd;fill:#000000;fill-opacity:1;" d="M 1.078125 92.03125 C 1.078125 86.355469 1.015625 80.671875 1.089844 74.996094 C 1.1875 67.402344 4.683594 61.738281 11.832031 59.230469 C 24.742188 54.695312 37.90625 54.691406 50.851562 59.128906 C 58.457031 61.734375 61.988281 67.65625 62.023438 75.617188 C 62.070312 86.160156 62.164062 96.703125 61.976562 107.246094 C 61.839844 115.382812 58.894531 122.351562 54.265625 129.253906 C 51.148438 133.90625 50.601562 140.4375 49.453125 146.230469 C 47.816406 154.472656 46.75 162.824219 45.324219 171.113281 C 44.273438 177.261719 41.335938 179.652344 35.089844 179.722656 C 32.65625 179.746094 30.21875 179.753906 27.785156 179.71875 C 21.488281 179.636719 18.824219 177.316406 17.742188 170.964844 C 15.808594 159.652344 14.078125 148.300781 11.828125 137.050781 C 11.171875 133.742188 9.441406 130.472656 7.53125 127.632812 C 3.625 121.804688 1.296875 115.566406 1.136719 108.578125 C 1.015625 103.0625 1.113281 97.542969 1.113281 92.03125 C 1.101562 92.03125 1.089844 92.03125 1.078125 92.03125 Z M 1.078125 92.03125 "/></g><g clip-rule="nonzero" clip-path="url(#7db73c33e7)"><path style=" stroke:none;fill-rule:evenodd;fill:#000000;fill-opacity:1;" d="M 55.5 25.863281 C 55.421875 39.753906 44.59375 50.417969 30.710938 50.273438 C 17.007812 50.132812 5.914062 38.941406 6.097656 25.449219 C 6.285156 11.992188 17.8125 0.660156 31.136719 0.816406 C 44.78125 0.972656 55.585938 12.078125 55.5 25.863281 Z M 55.5 25.863281 "/></g></g><mask id="cff52f1748"><g filter="url(#e6f93b3590)"><rect x="0" width="375" y="0" height="374.999991" style="fill:#000000;fill-opacity:0.3;stroke:none;"/></g></mask></g><g mask="url(#8ab49cd89f)" transform="matrix(1,0,0,1,43,64)"><g clip-path="url(#2103f8d931)"><g clip-rule="nonzero" clip-path="url(#cc3e04db2b)"><path style=" stroke:none;fill-rule:nonzero;fill:#000000;fill-opacity:1;" d="M 0.722656 92.03125 C 0.734375 92.03125 0.742188 92.03125 0.757812 92.03125 C 0.757812 97.542969 0.65625 103.0625 0.78125 108.578125 C 0.941406 115.566406 3.269531 121.804688 7.175781 127.632812 C 9.082031 130.472656 10.8125 133.742188 11.476562 137.050781 C 13.71875 148.300781 15.453125 159.652344 17.386719 170.964844 C 18.46875 177.316406 21.125 179.636719 27.425781 179.71875 C 29.859375 179.753906 32.296875 179.746094 34.730469 179.722656 C 40.976562 179.652344 43.910156 177.261719 44.96875 171.117188 C 46.394531 162.824219 47.460938 154.472656 49.097656 146.230469 C 50.242188 140.4375 50.785156 133.90625 53.910156 129.253906 C 58.535156 122.351562 61.484375 115.382812 61.621094 107.25 C 61.804688 96.707031 61.707031 86.164062 61.664062 75.617188 C 61.632812 67.660156 58.101562 61.734375 50.492188 59.128906 C 37.542969 54.691406 24.382812 54.695312 11.46875 59.230469 C 4.328125 61.738281 0.832031 67.402344 0.734375 74.996094 C 0.65625 80.671875 0.722656 86.355469 0.722656 92.03125 Z M 55.148438 25.863281 C 55.226562 12.078125 44.417969 0.972656 30.777344 0.816406 C 17.449219 0.660156 5.929688 11.992188 5.738281 25.449219 C 5.554688 38.941406 16.65625 50.132812 30.355469 50.273438 C 44.230469 50.417969 55.0625 39.753906 55.148438 25.863281 Z M 55.148438 25.863281 "/></g><g clip-rule="nonzero" clip-path="url(#e15ba5b3a2)"><path style=" stroke:none;fill-rule:evenodd;fill:#000000;fill-opacity:1;" d="M 0.722656 92.03125 C 0.722656 86.355469 0.65625 80.671875 0.734375 74.996094 C 0.832031 67.402344 4.328125 61.738281 11.46875 59.230469 C 24.382812 54.695312 37.542969 54.691406 50.492188 59.128906 C 58.101562 61.734375 61.632812 67.65625 61.664062 75.617188 C 61.707031 86.160156 61.804688 96.703125 61.621094 107.246094 C 61.484375 115.382812 58.535156 122.351562 53.910156 129.253906 C 50.785156 133.90625 50.242188 140.4375 49.097656 146.230469 C 47.460938 154.472656 46.394531 162.824219 44.96875 171.113281 C 43.910156 177.261719 40.976562 179.652344 34.730469 179.722656 C 32.296875 179.746094 29.859375 179.753906 27.425781 179.71875 C 21.125 179.636719 18.46875 177.316406 17.386719 170.964844 C 15.453125 159.652344 13.71875 148.300781 11.476562 137.050781 C 10.808594 133.742188 9.082031 130.472656 7.175781 127.632812 C 3.269531 121.804688 0.941406 115.566406 0.78125 108.578125 C 0.65625 103.0625 0.757812 97.542969 0.757812 92.03125 C 0.742188 92.03125 0.734375 92.03125 0.722656 92.03125 Z M 0.722656 92.03125 "/></g><g clip-rule="nonzero" clip-path="url(#98b9e16693)"><path style=" stroke:none;fill-rule:evenodd;fill:#000000;fill-opacity:1;" d="M 55.148438 25.863281 C 55.0625 39.753906 44.230469 50.417969 30.355469 50.273438 C 16.65625 50.132812 5.554688 38.941406 5.738281 25.449219 C 5.929688 11.992188 17.449219 0.660156 30.777344 0.816406 C 44.417969 0.972656 55.226562 12.078125 55.148438 25.863281 Z M 55.148438 25.863281 "/></g></g><mask id="8ab49cd89f"><g filter="url(#e6f93b3590)"><rect x="0" width="375" y="0" height="374.999991" style="fill:#000000;fill-opacity:0.3;stroke:none;"/></g></mask></g><path style=" stroke:none;fill-rule:nonzero;fill:#8ccdb0;fill-opacity:1;" d="M 222.683594 203.808594 C 222.695312 203.808594 222.707031 203.808594 222.722656 203.808594 C 222.722656 209.929688 222.613281 216.0625 222.75 222.191406 C 222.925781 229.953125 225.511719 236.886719 229.851562 243.359375 C 231.972656 246.515625 233.894531 250.152344 234.632812 253.824219 C 237.125 266.324219 239.050781 278.941406 241.199219 291.511719 C 242.402344 298.566406 245.355469 301.144531 252.355469 301.238281 C 255.058594 301.273438 257.765625 301.265625 260.472656 301.238281 C 267.414062 301.160156 270.671875 298.503906 271.847656 291.671875 C 273.429688 282.464844 274.617188 273.179688 276.433594 264.027344 C 277.707031 257.585938 278.308594 250.332031 281.78125 245.164062 C 286.921875 237.492188 290.199219 229.75 290.351562 220.710938 C 290.554688 209 290.445312 197.285156 290.398438 185.566406 C 290.359375 176.722656 286.4375 170.140625 277.984375 167.246094 C 263.597656 162.3125 248.972656 162.320312 234.625 167.363281 C 226.691406 170.148438 222.808594 176.441406 222.695312 184.878906 C 222.613281 191.183594 222.683594 197.496094 222.683594 203.808594 Z M 283.152344 130.285156 C 283.246094 114.96875 271.238281 102.628906 256.078125 102.453125 C 241.273438 102.277344 228.46875 114.875 228.261719 129.828125 C 228.054688 144.816406 240.386719 157.253906 255.609375 157.40625 C 271.03125 157.566406 283.0625 145.71875 283.152344 130.285156 Z M 283.152344 130.285156 "/><path style=" stroke:none;fill-rule:evenodd;fill:#8ccdb0;fill-opacity:1;" d="M 222.683594 203.808594 C 222.683594 197.496094 222.613281 191.183594 222.695312 184.878906 C 222.808594 176.441406 226.691406 170.148438 234.625 167.359375 C 248.972656 162.320312 263.597656 162.3125 277.984375 167.246094 C 286.4375 170.136719 290.359375 176.722656 290.398438 185.566406 C 290.445312 197.285156 290.554688 209 290.351562 220.710938 C 290.199219 229.75 286.921875 237.492188 281.78125 245.160156 C 278.308594 250.332031 277.707031 257.585938 276.433594 264.023438 C 274.617188 273.179688 273.429688 282.464844 271.847656 291.671875 C 270.671875 298.503906 267.414062 301.15625 260.472656 301.238281 C 257.765625 301.265625 255.058594 301.273438 252.355469 301.234375 C 245.355469 301.144531 242.402344 298.566406 241.199219 291.511719 C 239.050781 278.941406 237.125 266.324219 234.632812 253.824219 C 233.894531 250.152344 231.972656 246.515625 229.851562 243.359375 C 225.515625 236.886719 222.925781 229.953125 222.75 222.191406 C 222.613281 216.0625 222.722656 209.929688 222.722656 203.808594 C 222.707031 203.808594 222.695312 203.808594 222.683594 203.808594 Z M 222.683594 203.808594 "/><path style=" stroke:none;fill-rule:evenodd;fill:#8ccdb0;fill-opacity:1;" d="M 283.152344 130.285156 C 283.0625 145.71875 271.03125 157.566406 255.609375 157.40625 C 240.386719 157.253906 228.054688 144.816406 228.257812 129.828125 C 228.46875 114.875 241.273438 102.277344 256.078125 102.453125 C 271.238281 102.628906 283.246094 114.96875 283.152344 130.285156 Z M 283.152344 130.285156 "/><path style=" stroke:none;fill-rule:nonzero;fill:#8ccdb0;fill-opacity:1;" d="M 91.257812 203.808594 C 91.273438 203.808594 91.285156 203.808594 91.296875 203.808594 C 91.296875 209.929688 91.1875 216.0625 91.324219 222.191406 C 91.5 229.953125 94.085938 236.886719 98.425781 243.359375 C 100.546875 246.515625 102.46875 250.152344 103.207031 253.824219 C 105.699219 266.324219 107.625 278.941406 109.777344 291.511719 C 110.980469 298.566406 113.933594 301.144531 120.933594 301.238281 C 123.636719 301.273438 126.339844 301.265625 129.046875 301.238281 C 135.988281 301.160156 139.25 298.503906 140.421875 291.671875 C 142.003906 282.464844 143.191406 273.179688 145.007812 264.027344 C 146.28125 257.585938 146.886719 250.332031 150.355469 245.164062 C 155.496094 237.492188 158.769531 229.75 158.925781 220.710938 C 159.128906 209 159.023438 197.285156 158.972656 185.566406 C 158.933594 176.722656 155.011719 170.140625 146.5625 167.246094 C 132.171875 162.3125 117.546875 162.320312 103.203125 167.363281 C 95.265625 170.148438 91.378906 176.441406 91.273438 184.878906 C 91.1875 191.183594 91.257812 197.496094 91.257812 203.808594 Z M 151.726562 130.285156 C 151.820312 114.96875 139.8125 102.628906 124.65625 102.453125 C 109.847656 102.277344 97.039062 114.875 96.835938 129.828125 C 96.628906 144.816406 108.960938 157.253906 124.183594 157.40625 C 139.605469 157.566406 151.636719 145.71875 151.726562 130.285156 Z M 151.726562 130.285156 "/><path style=" stroke:none;fill-rule:evenodd;fill:#8ccdb0;fill-opacity:1;" d="M 91.257812 203.808594 C 91.257812 197.496094 91.1875 191.183594 91.273438 184.878906 C 91.378906 176.441406 95.265625 170.148438 103.203125 167.359375 C 117.546875 162.320312 132.171875 162.3125 146.5625 167.246094 C 155.011719 170.136719 158.933594 176.722656 158.972656 185.566406 C 159.023438 197.285156 159.128906 209 158.925781 220.710938 C 158.769531 229.75 155.496094 237.492188 150.355469 245.160156 C 146.886719 250.332031 146.28125 257.585938 145.007812 264.023438 C 143.191406 273.179688 142.003906 282.464844 140.421875 291.671875 C 139.25 298.503906 135.988281 301.15625 129.046875 301.238281 C 126.339844 301.265625 123.636719 301.273438 120.933594 301.234375 C 113.933594 301.144531 110.980469 298.566406 109.777344 291.511719 C 107.625 278.941406 105.699219 266.324219 103.207031 253.824219 C 102.472656 250.152344 100.546875 246.515625 98.425781 243.359375 C 94.085938 236.886719 91.5 229.953125 91.324219 222.191406 C 91.1875 216.0625 91.296875 209.929688 91.296875 203.808594 C 91.285156 203.808594 91.273438 203.808594 91.257812 203.808594 Z M 91.257812 203.808594 "/><path style=" stroke:none;fill-rule:evenodd;fill:#8ccdb0;fill-opacity:1;" d="M 151.726562 130.285156 C 151.640625 145.71875 139.605469 157.566406 124.183594 157.40625 C 108.960938 157.253906 96.628906 144.816406 96.835938 129.828125 C 97.039062 114.875 109.847656 102.277344 124.652344 102.453125 C 139.8125 102.628906 151.820312 114.96875 151.726562 130.285156 Z M 151.726562 130.285156 "/><g mask="url(#315c66b214)" transform="matrix(1,0,0,1,222,102)"><g clip-path="url(#1908b853be)"><g clip-rule="nonzero" clip-path="url(#88e16806e9)"><path style=" stroke:none;fill-rule:nonzero;fill:#000000;fill-opacity:1;" d="M 0.683594 101.808594 C 0.695312 101.808594 0.707031 101.808594 0.722656 101.808594 C 0.722656 107.929688 0.613281 114.0625 0.75 120.191406 C 0.925781 127.953125 3.511719 134.886719 7.851562 141.359375 C 9.972656 144.515625 11.894531 148.152344 12.632812 151.824219 C 15.125 164.324219 17.050781 176.941406 19.199219 189.511719 C 20.402344 196.566406 23.355469 199.144531 30.355469 199.238281 C 33.058594 199.273438 35.765625 199.265625 38.472656 199.238281 C 45.414062 199.160156 48.671875 196.503906 49.847656 189.671875 C 51.429688 180.464844 52.617188 171.179688 54.433594 162.027344 C 55.707031 155.585938 56.308594 148.332031 59.78125 143.164062 C 64.921875 135.492188 68.199219 127.75 68.351562 118.710938 C 68.554688 107 68.445312 95.285156 68.398438 83.566406 C 68.359375 74.722656 64.4375 68.140625 55.984375 65.246094 C 41.597656 60.3125 26.972656 60.320312 12.625 65.363281 C 4.691406 68.148438 0.808594 74.441406 0.695312 82.878906 C 0.613281 89.183594 0.683594 95.496094 0.683594 101.808594 Z M 61.152344 28.285156 C 61.246094 12.96875 49.238281 0.628906 34.078125 0.453125 C 19.273438 0.277344 6.46875 12.875 6.261719 27.828125 C 6.054688 42.816406 18.386719 55.253906 33.609375 55.40625 C 49.03125 55.566406 61.0625 43.71875 61.152344 28.285156 Z M 61.152344 28.285156 "/></g><g clip-rule="nonzero" clip-path="url(#57ac120b50)"><path style=" stroke:none;fill-rule:evenodd;fill:#000000;fill-opacity:1;" d="M 0.683594 101.808594 C 0.683594 95.496094 0.613281 89.183594 0.695312 82.878906 C 0.808594 74.441406 4.691406 68.148438 12.625 65.359375 C 26.972656 60.320312 41.597656 60.3125 55.984375 65.246094 C 64.4375 68.136719 68.359375 74.722656 68.398438 83.566406 C 68.445312 95.285156 68.554688 107 68.351562 118.710938 C 68.199219 127.75 64.921875 135.492188 59.78125 143.160156 C 56.308594 148.332031 55.707031 155.585938 54.433594 162.023438 C 52.617188 171.179688 51.429688 180.464844 49.847656 189.671875 C 48.671875 196.503906 45.414062 199.15625 38.472656 199.238281 C 35.765625 199.265625 33.058594 199.273438 30.355469 199.234375 C 23.355469 199.144531 20.402344 196.566406 19.199219 189.511719 C 17.050781 176.941406 15.125 164.324219 12.632812 151.824219 C 11.894531 148.152344 9.972656 144.515625 7.851562 141.359375 C 3.515625 134.886719 0.925781 127.953125 0.75 120.191406 C 0.613281 114.0625 0.722656 107.929688 0.722656 101.808594 C 0.707031 101.808594 0.695312 101.808594 0.683594 101.808594 Z M 0.683594 101.808594 "/></g><g clip-rule="nonzero" clip-path="url(#51f275b916)"><path style=" stroke:none;fill-rule:evenodd;fill:#000000;fill-opacity:1;" d="M 61.152344 28.285156 C 61.0625 43.71875 49.03125 55.566406 33.609375 55.40625 C 18.386719 55.253906 6.054688 42.816406 6.257812 27.828125 C 6.46875 12.875 19.273438 0.277344 34.078125 0.453125 C 49.238281 0.628906 61.246094 12.96875 61.152344 28.285156 Z M 61.152344 28.285156 "/></g></g><mask id="315c66b214"><g filter="url(#e6f93b3590)"><rect x="0" width="375" y="0" height="374.999991" style="fill:#000000;fill-opacity:0.1;stroke:none;"/></g></mask></g><g mask="url(#af7968fc24)" transform="matrix(1,0,0,1,91,102)"><g clip-path="url(#91aa454cd0)"><g clip-rule="nonzero" clip-path="url(#2eb784f618)"><path style=" stroke:none;fill-rule:nonzero;fill:#000000;fill-opacity:1;" d="M 0.257812 101.808594 C 0.273438 101.808594 0.285156 101.808594 0.296875 101.808594 C 0.296875 107.929688 0.1875 114.0625 0.324219 120.191406 C 0.5 127.953125 3.085938 134.886719 7.425781 141.359375 C 9.546875 144.515625 11.46875 148.152344 12.207031 151.824219 C 14.699219 164.324219 16.625 176.941406 18.777344 189.511719 C 19.980469 196.566406 22.933594 199.144531 29.933594 199.238281 C 32.636719 199.273438 35.339844 199.265625 38.046875 199.238281 C 44.988281 199.160156 48.25 196.503906 49.421875 189.671875 C 51.003906 180.464844 52.191406 171.179688 54.007812 162.027344 C 55.28125 155.585938 55.886719 148.332031 59.355469 143.164062 C 64.496094 135.492188 67.769531 127.75 67.925781 118.710938 C 68.128906 107 68.023438 95.285156 67.972656 83.566406 C 67.933594 74.722656 64.011719 68.140625 55.5625 65.246094 C 41.171875 60.3125 26.546875 60.320312 12.203125 65.363281 C 4.265625 68.148438 0.378906 74.441406 0.273438 82.878906 C 0.1875 89.183594 0.257812 95.496094 0.257812 101.808594 Z M 60.726562 28.285156 C 60.820312 12.96875 48.8125 0.628906 33.65625 0.453125 C 18.847656 0.277344 6.039062 12.875 5.835938 27.828125 C 5.628906 42.816406 17.960938 55.253906 33.183594 55.40625 C 48.605469 55.566406 60.636719 43.71875 60.726562 28.285156 Z M 60.726562 28.285156 "/></g><g clip-rule="nonzero" clip-path="url(#10e0449f3f)"><path style=" stroke:none;fill-rule:evenodd;fill:#000000;fill-opacity:1;" d="M 0.257812 101.808594 C 0.257812 95.496094 0.1875 89.183594 0.273438 82.878906 C 0.378906 74.441406 4.265625 68.148438 12.203125 65.359375 C 26.546875 60.320312 41.171875 60.3125 55.5625 65.246094 C 64.011719 68.136719 67.933594 74.722656 67.972656 83.566406 C 68.023438 95.285156 68.128906 107 67.925781 118.710938 C 67.769531 127.75 64.496094 135.492188 59.355469 143.160156 C 55.886719 148.332031 55.28125 155.585938 54.007812 162.023438 C 52.191406 171.179688 51.003906 180.464844 49.421875 189.671875 C 48.25 196.503906 44.988281 199.15625 38.046875 199.238281 C 35.339844 199.265625 32.636719 199.273438 29.933594 199.234375 C 22.933594 199.144531 19.980469 196.566406 18.777344 189.511719 C 16.625 176.941406 14.699219 164.324219 12.207031 151.824219 C 11.472656 148.152344 9.546875 144.515625 7.425781 141.359375 C 3.085938 134.886719 0.5 127.953125 0.324219 120.191406 C 0.1875 114.0625 0.296875 107.929688 0.296875 101.808594 C 0.285156 101.808594 0.273438 101.808594 0.257812 101.808594 Z M 0.257812 101.808594 "/></g><g clip-rule="nonzero" clip-path="url(#ade3ad19d5)"><path style=" stroke:none;fill-rule:evenodd;fill:#000000;fill-opacity:1;" d="M 60.726562 28.285156 C 60.640625 43.71875 48.605469 55.566406 33.183594 55.40625 C 17.960938 55.253906 5.628906 42.816406 5.835938 27.828125 C 6.039062 12.875 18.847656 0.277344 33.652344 0.453125 C 48.8125 0.628906 60.820312 12.96875 60.726562 28.285156 Z M 60.726562 28.285156 "/></g></g><mask id="af7968fc24"><g filter="url(#e6f93b3590)"><rect x="0" width="375" y="0" height="374.999991" style="fill:#000000;fill-opacity:0.1;stroke:none;"/></g></mask></g><g clip-rule="nonzero" clip-path="url(#154cfc0bd0)"><path style=" stroke:none;fill-rule:nonzero;fill:#8ccdb0;fill-opacity:1;" d="M 150.867188 239.570312 C 150.882812 239.570312 150.894531 239.570312 150.914062 239.570312 C 150.914062 246.378906 150.789062 253.191406 150.945312 259.996094 C 151.136719 268.625 154.011719 276.328125 158.835938 283.519531 C 161.191406 287.027344 163.328125 291.066406 164.144531 295.152344 C 166.917969 309.039062 169.054688 323.054688 171.441406 337.023438 C 172.777344 344.859375 176.0625 347.730469 183.839844 347.828125 C 186.84375 347.867188 189.847656 347.863281 192.855469 347.832031 C 200.566406 347.742188 204.191406 344.792969 205.496094 337.203125 C 207.253906 326.96875 208.574219 316.65625 210.589844 306.480469 C 212.003906 299.324219 212.679688 291.269531 216.53125 285.523438 C 222.242188 277.003906 225.882812 268.398438 226.054688 258.355469 C 226.28125 245.34375 226.164062 232.324219 226.105469 219.304688 C 226.0625 209.476562 221.703125 202.164062 212.316406 198.949219 C 196.332031 193.46875 180.082031 193.476562 164.140625 199.078125 C 155.320312 202.175781 151.007812 209.167969 150.882812 218.539062 C 150.792969 225.550781 150.867188 232.5625 150.867188 239.570312 Z M 218.054688 157.882812 C 218.160156 140.867188 204.816406 127.152344 187.972656 126.957031 C 171.523438 126.761719 157.296875 140.761719 157.066406 157.371094 C 156.835938 174.027344 170.539062 187.847656 187.453125 188.019531 C 204.589844 188.191406 217.957031 175.03125 218.054688 157.882812 Z M 218.054688 157.882812 "/></g><g clip-rule="nonzero" clip-path="url(#1e39d402ac)"><path style=" stroke:none;fill-rule:evenodd;fill:#8ccdb0;fill-opacity:1;" d="M 150.867188 239.570312 C 150.867188 232.5625 150.792969 225.550781 150.882812 218.539062 C 151.007812 209.167969 155.320312 202.175781 164.140625 199.078125 C 180.082031 193.476562 196.332031 193.46875 212.316406 198.949219 C 221.707031 202.164062 226.066406 209.476562 226.109375 219.304688 C 226.164062 232.324219 226.28125 245.34375 226.054688 258.355469 C 225.882812 268.398438 222.242188 277.003906 216.53125 285.523438 C 212.679688 291.269531 212.007812 299.324219 210.589844 306.480469 C 208.574219 316.65625 207.253906 326.96875 205.496094 337.203125 C 204.191406 344.792969 200.566406 347.742188 192.855469 347.832031 C 189.847656 347.863281 186.84375 347.867188 183.839844 347.828125 C 176.0625 347.730469 172.777344 344.859375 171.441406 337.023438 C 169.054688 323.054688 166.917969 309.039062 164.144531 295.152344 C 163.328125 291.066406 161.191406 287.027344 158.835938 283.519531 C 154.011719 276.328125 151.136719 268.625 150.945312 259.996094 C 150.789062 253.191406 150.914062 246.378906 150.914062 239.570312 C 150.894531 239.570312 150.882812 239.570312 150.867188 239.570312 Z M 150.867188 239.570312 "/></g><path style=" stroke:none;fill-rule:evenodd;fill:#8ccdb0;fill-opacity:1;" d="M 218.054688 157.882812 C 217.957031 175.03125 204.589844 188.191406 187.453125 188.019531 C 170.539062 187.84375 156.835938 174.027344 157.066406 157.371094 C 157.296875 140.761719 171.523438 126.761719 187.972656 126.957031 C 204.816406 127.152344 218.160156 140.867188 218.054688 157.882812 Z M 218.054688 157.882812 "/><g clip-rule="nonzero" clip-path="url(#2390de2fa9)"><g mask="url(#7ead4adfd3)" transform="matrix(1,0,0,1,150,126)"><g clip-path="url(#e7cab871ff)"><g clip-rule="nonzero" clip-path="url(#7eb2ce7243)"><path style=" stroke:none;fill-rule:nonzero;fill:#ffffff;fill-opacity:1;" d="M 0.867188 113.570312 C 0.882812 113.570312 0.894531 113.570312 0.914062 113.570312 C 0.914062 120.378906 0.789062 127.191406 0.945312 133.996094 C 1.136719 142.625 4.011719 150.328125 8.835938 157.519531 C 11.191406 161.027344 13.328125 165.066406 14.144531 169.152344 C 16.917969 183.039062 19.054688 197.054688 21.441406 211.023438 C 22.777344 218.859375 26.0625 221.730469 33.839844 221.828125 C 36.84375 221.867188 39.847656 221.863281 42.855469 221.832031 C 50.566406 221.742188 54.191406 218.792969 55.496094 211.203125 C 57.253906 200.96875 58.574219 190.65625 60.589844 180.480469 C 62.003906 173.324219 62.679688 165.269531 66.53125 159.523438 C 72.242188 151.003906 75.882812 142.398438 76.054688 132.355469 C 76.28125 119.34375 76.164062 106.324219 76.105469 93.304688 C 76.0625 83.476562 71.703125 76.164062 62.316406 72.949219 C 46.332031 67.46875 30.082031 67.476562 14.140625 73.078125 C 5.320312 76.175781 1.007812 83.167969 0.882812 92.539062 C 0.792969 99.550781 0.867188 106.5625 0.867188 113.570312 Z M 68.054688 31.882812 C 68.160156 14.867188 54.816406 1.152344 37.972656 0.957031 C 21.523438 0.761719 7.296875 14.761719 7.066406 31.371094 C 6.835938 48.027344 20.539062 61.847656 37.453125 62.019531 C 54.589844 62.191406 67.957031 49.03125 68.054688 31.882812 Z M 68.054688 31.882812 "/></g><g clip-rule="nonzero" clip-path="url(#018e3ad15e)"><path style=" stroke:none;fill-rule:evenodd;fill:#ffffff;fill-opacity:1;" d="M 0.867188 113.570312 C 0.867188 106.5625 0.792969 99.550781 0.882812 92.539062 C 1.007812 83.167969 5.320312 76.175781 14.140625 73.078125 C 30.082031 67.476562 46.332031 67.46875 62.316406 72.949219 C 71.707031 76.164062 76.066406 83.476562 76.109375 93.304688 C 76.164062 106.324219 76.28125 119.34375 76.054688 132.355469 C 75.882812 142.398438 72.242188 151.003906 66.53125 159.523438 C 62.679688 165.269531 62.007812 173.324219 60.589844 180.480469 C 58.574219 190.65625 57.253906 200.96875 55.496094 211.203125 C 54.191406 218.792969 50.566406 221.742188 42.855469 221.832031 C 39.847656 221.863281 36.84375 221.867188 33.839844 221.828125 C 26.0625 221.730469 22.777344 218.859375 21.441406 211.023438 C 19.054688 197.054688 16.917969 183.039062 14.144531 169.152344 C 13.328125 165.066406 11.191406 161.027344 8.835938 157.519531 C 4.011719 150.328125 1.136719 142.625 0.945312 133.996094 C 0.789062 127.191406 0.914062 120.378906 0.914062 113.570312 C 0.894531 113.570312 0.882812 113.570312 0.867188 113.570312 Z M 0.867188 113.570312 "/></g><g clip-rule="nonzero" clip-path="url(#663e5675bd)"><path style=" stroke:none;fill-rule:evenodd;fill:#ffffff;fill-opacity:1;" d="M 68.054688 31.882812 C 67.957031 49.03125 54.589844 62.191406 37.453125 62.019531 C 20.539062 61.84375 6.835938 48.027344 7.066406 31.371094 C 7.296875 14.761719 21.523438 0.761719 37.972656 0.957031 C 54.816406 1.152344 68.160156 14.867188 68.054688 31.882812 Z M 68.054688 31.882812 "/></g></g><mask id="7ead4adfd3"><g filter="url(#e6f93b3590)"><rect x="0" width="375" y="0" height="374.999991" style="fill:#000000;fill-opacity:0.4;stroke:none;"/></g></mask></g></g></g></svg>