<svg xmlns="http://www.w3.org/2000/svg" xmlns:xlink="http://www.w3.org/1999/xlink" width="500" zoomAndPan="magnify" viewBox="0 0 375 374.999991" height="500" preserveAspectRatio="xMidYMid meet" version="1.2"><defs><clipPath id="cc1f5ddf5a"><path d="M 29 2.851562 L 345 2.851562 L 345 371.851562 L 29 371.851562 Z M 29 2.851562 "/></clipPath></defs><g id="2ac9593b42"><path style=" stroke:none;fill-rule:nonzero;fill:#fbf6e2;fill-opacity:1;" d="M 310.253906 11.25 L 269.972656 11.25 C 269.808594 11.25 269.664062 11.308594 269.546875 11.425781 C 269.429688 11.542969 269.371094 11.683594 269.371094 11.851562 L 269.371094 41.292969 C 269.371094 41.53125 269.351562 41.769531 269.308594 42.003906 C 269.21875 42.449219 269.054688 42.867188 268.824219 43.253906 C 268.589844 43.644531 268.300781 43.984375 267.953125 44.273438 C 267.601562 44.5625 267.214844 44.789062 266.789062 44.945312 C 266.367188 45.101562 265.925781 45.183594 265.472656 45.191406 L 216.1875 45.191406 C 215.671875 45.183594 215.179688 45.082031 214.703125 44.878906 C 214.230469 44.679688 213.8125 44.398438 213.449219 44.03125 C 213.082031 43.667969 212.800781 43.25 212.601562 42.773438 C 212.402344 42.300781 212.296875 41.808594 212.289062 41.292969 L 212.289062 11.851562 C 212.292969 11.796875 212.285156 11.75 212.265625 11.699219 C 212.234375 11.566406 212.164062 11.460938 212.054688 11.375 C 211.949219 11.292969 211.828125 11.25 211.691406 11.25 L 171.398438 11.25 C 171.234375 11.25 171.089844 11.308594 170.972656 11.425781 C 170.855469 11.542969 170.796875 11.683594 170.796875 11.851562 L 170.796875 41.292969 C 170.792969 41.804688 170.6875 42.300781 170.488281 42.773438 C 170.289062 43.246094 170.007812 43.667969 169.644531 44.03125 C 169.285156 44.394531 168.867188 44.675781 168.390625 44.878906 C 167.917969 45.078125 167.425781 45.183594 166.910156 45.191406 L 117.621094 45.191406 C 117.105469 45.183594 116.609375 45.082031 116.136719 44.878906 C 115.660156 44.679688 115.242188 44.398438 114.878906 44.035156 C 114.511719 43.667969 114.230469 43.25 114.03125 42.777344 C 113.832031 42.300781 113.726562 41.808594 113.71875 41.292969 L 113.71875 11.851562 C 113.71875 11.683594 113.660156 11.542969 113.542969 11.425781 C 113.425781 11.308594 113.285156 11.25 113.121094 11.25 L 72.839844 11.25 C 72.671875 11.25 72.53125 11.308594 72.414062 11.425781 C 72.296875 11.542969 72.238281 11.683594 72.238281 11.851562 L 72.238281 49.414062 C 72.238281 49.515625 72.261719 49.609375 72.308594 49.695312 L 75.148438 55.046875 C 82.6875 69.289062 90.230469 83.527344 97.78125 97.765625 C 97.890625 97.976562 98.0625 98.085938 98.304688 98.085938 L 284.785156 98.085938 C 285.027344 98.085938 285.203125 97.980469 285.3125 97.765625 C 286.039062 96.398438 286.761719 95.035156 287.488281 93.671875 L 287.589844 93.472656 C 289.316406 90.207031 291.042969 86.949219 292.773438 83.6875 C 298.394531 73.066406 304.019531 62.445312 309.648438 51.828125 L 310.78125 49.679688 C 310.832031 49.589844 310.855469 49.496094 310.855469 49.398438 L 310.855469 11.851562 C 310.855469 11.683594 310.796875 11.542969 310.679688 11.425781 C 310.5625 11.308594 310.421875 11.25 310.253906 11.25 Z M 119.527344 67.742188 L 194.339844 67.742188 C 196.917969 67.742188 198.09375 69.761719 198.09375 71.640625 C 198.113281 72.65625 197.796875 73.558594 197.152344 74.339844 C 196.796875 74.742188 196.375 75.046875 195.882812 75.257812 C 195.390625 75.46875 194.878906 75.5625 194.34375 75.542969 L 119.511719 75.542969 C 116.933594 75.542969 115.757812 73.519531 115.757812 71.648438 C 115.757812 69.777344 116.933594 67.742188 119.511719 67.742188 Z M 263.328125 85.367188 L 223.871094 85.367188 C 221.296875 85.367188 220.117188 83.34375 220.117188 81.472656 C 220.117188 79.605469 221.292969 77.566406 223.871094 77.566406 L 263.3125 77.566406 C 265.886719 77.566406 267.066406 79.589844 267.066406 81.460938 C 267.066406 82.890625 266.382812 84.394531 264.945312 85.042969 C 264.421875 85.265625 263.878906 85.375 263.3125 85.367188 Z M 302.542969 318.722656 C 302.171875 314.398438 301.796875 310.078125 301.421875 305.757812 C 301.238281 303.574219 301.050781 301.390625 300.859375 299.207031 L 291.316406 189.300781 L 286.957031 139.019531 L 285.734375 124.871094 C 285.71875 124.714844 285.652344 124.585938 285.539062 124.484375 C 285.425781 124.378906 285.292969 124.324219 285.140625 124.324219 C 283.066406 124.324219 280.984375 124.289062 278.90625 124.265625 C 275.9375 124.234375 272.867188 124.199219 269.847656 124.199219 L 97.964844 124.199219 C 97.808594 124.199219 97.675781 124.253906 97.558594 124.355469 C 97.445312 124.460938 97.378906 124.589844 97.363281 124.742188 C 96.808594 131.183594 96.253906 137.625 95.695312 144.066406 L 86.066406 255.164062 C 84.347656 275.117188 82.617188 295.070312 80.882812 315.03125 L 80.472656 319.722656 C 80.460938 319.902344 80.515625 320.054688 80.632812 320.1875 C 80.75 320.316406 80.898438 320.378906 81.074219 320.378906 C 85.1875 320.378906 89.308594 320.378906 93.429688 320.378906 L 144.636719 320.378906 C 144.785156 320.378906 144.914062 320.328125 145.027344 320.230469 C 145.140625 320.132812 145.207031 320.011719 145.230469 319.863281 L 150.261719 284.992188 L 150.839844 280.964844 L 150.875 280.710938 C 151.382812 277.175781 151.898438 273.632812 152.410156 270.09375 C 153.550781 262.386719 157.695312 255.304688 164.085938 250.160156 C 171.613281 244.09375 181.488281 240.753906 191.878906 240.753906 C 204.875 240.753906 216.582031 245.980469 223.972656 255.082031 C 230.375 262.96875 231.589844 273.472656 232.761719 283.625 C 233.023438 285.851562 233.285156 288.152344 233.601562 290.351562 L 235.648438 304.441406 L 237.878906 319.863281 C 237.902344 320.011719 237.96875 320.132812 238.082031 320.230469 C 238.195312 320.328125 238.324219 320.378906 238.472656 320.378906 L 302.023438 320.378906 C 302.199219 320.378906 302.347656 320.3125 302.46875 320.1875 C 302.585938 320.054688 302.636719 319.902344 302.625 319.722656 Z M 117.097656 146.75 L 189.089844 146.75 C 189.625 146.726562 190.136719 146.824219 190.628906 147.03125 C 191.117188 147.242188 191.542969 147.542969 191.898438 147.941406 C 191.933594 147.984375 191.960938 148.027344 191.992188 148.070312 C 192.574219 148.828125 192.855469 149.6875 192.84375 150.640625 C 192.84375 152.527344 191.664062 154.546875 189.089844 154.546875 L 117.097656 154.546875 C 114.523438 154.546875 113.34375 152.527344 113.34375 150.65625 C 113.34375 148.78125 114.511719 146.75 117.097656 146.75 Z M 168.050781 234.785156 L 117.097656 234.785156 C 114.523438 234.785156 113.34375 232.761719 113.34375 230.890625 C 113.34375 229.023438 114.511719 226.992188 117.097656 226.992188 L 168.050781 226.992188 C 170.625 226.992188 171.804688 229.015625 171.804688 230.886719 C 171.804688 232.753906 170.625 234.785156 168.050781 234.785156 Z M 176.546875 184.898438 C 173.976562 184.898438 172.792969 182.875 172.792969 181.003906 C 172.792969 179.136719 173.972656 177.097656 176.546875 177.097656 L 225.894531 177.097656 C 228.464844 177.097656 229.648438 179.121094 229.648438 180.992188 C 229.648438 182.859375 228.46875 184.898438 225.894531 184.898438 Z M 219.828125 218.839844 C 217.253906 218.839844 216.074219 216.816406 216.074219 214.945312 C 216.074219 213.078125 217.246094 211.039062 219.828125 211.039062 L 274.417969 211.039062 C 276.996094 211.039062 278.171875 213.0625 278.171875 214.933594 C 278.171875 216.800781 277 218.839844 274.417969 218.839844 Z M 334.808594 345.722656 C 334.285156 344.097656 333.601562 342.542969 332.761719 341.058594 C 328.195312 333.128906 319.898438 328.316406 310.554688 328.179688 L 109.054688 328.179688 C 105.019531 328.179688 100.980469 328.167969 96.945312 328.148438 C 92.90625 328.125 88.863281 328.117188 84.816406 328.125 C 80.289062 328.125 76.316406 328.140625 72.695312 328.179688 C 65.824219 328.25 59.453125 330.804688 54.761719 335.382812 C 53.40625 336.722656 52.207031 338.1875 51.164062 339.78125 C 47.242188 345.730469 44.890625 353.867188 48.75 359.304688 C 51.441406 363.117188 55.339844 363.417969 59.09375 363.417969 C 59.566406 363.417969 60.046875 363.417969 60.519531 363.417969 L 319.304688 363.417969 C 320.082031 363.417969 320.894531 363.449219 321.765625 363.480469 C 322.636719 363.511719 323.597656 363.558594 324.527344 363.558594 C 326.042969 363.601562 327.535156 363.433594 329.003906 363.0625 C 332.003906 362.230469 334.082031 360.445312 335.1875 357.761719 C 336.613281 354.246094 336.125 349.703125 334.804688 345.71875 Z M 334.808594 345.722656 "/><path style=" stroke:none;fill-rule:nonzero;fill:#e68369;fill-opacity:1;" d="M 296.039062 105.878906 C 293.894531 105.820312 291.546875 105.78125 288.855469 105.773438 C 288.804688 105.773438 288.753906 105.777344 288.703125 105.789062 C 288.425781 105.859375 288.140625 105.898438 287.851562 105.898438 C 287.75 105.898438 287.640625 105.898438 287.480469 105.878906 L 95.527344 105.878906 C 95.425781 105.878906 95.324219 105.898438 95.222656 105.898438 C 95.125 105.898438 95.011719 105.898438 94.851562 105.878906 L 88.667969 105.878906 C 88.453125 105.878906 88.234375 105.878906 88.019531 105.878906 C 87.804688 105.878906 87.554688 105.878906 87.335938 105.878906 C 87.117188 105.878906 86.859375 105.878906 86.621094 105.90625 C 83.113281 106.160156 81.523438 108.824219 81.527344 111.191406 C 81.53125 113.558594 83.125 116.183594 86.605469 116.414062 C 88.722656 116.546875 91.039062 116.617188 93.726562 116.625 C 93.746094 116.625 93.765625 116.625 93.789062 116.625 C 93.929688 116.625 94.074219 116.605469 94.214844 116.605469 C 94.355469 116.605469 94.554688 116.605469 94.734375 116.628906 C 94.753906 116.632812 94.773438 116.632812 94.792969 116.628906 C 97.183594 116.628906 99.570312 116.570312 101.90625 116.523438 C 104.441406 116.46875 107.070312 116.414062 109.625 116.414062 L 293.292969 116.414062 C 293.636719 116.414062 293.953125 116.414062 294.28125 116.414062 C 296.757812 116.414062 301.308594 116.414062 301.695312 111.359375 C 301.695312 111.28125 301.695312 111.207031 301.71875 111.121094 C 301.578125 108.042969 299.351562 105.988281 296.039062 105.878906 Z M 229.320312 314.804688 L 225.703125 289.71875 L 223.378906 273.628906 C 222.550781 267.871094 220.714844 263.378906 217.667969 259.703125 C 217.097656 259.015625 216.484375 258.359375 215.839844 257.738281 C 209.757812 251.855469 200.804688 248.484375 191.273438 248.484375 C 178.992188 248.484375 168.414062 253.945312 163 263.039062 C 160.664062 266.964844 160.070312 271.121094 159.441406 275.519531 L 159.320312 276.359375 C 158.554688 281.675781 157.789062 286.988281 157.019531 292.304688 L 153.066406 319.695312 C 153.039062 319.875 153.085938 320.03125 153.207031 320.167969 C 153.328125 320.308594 153.480469 320.378906 153.664062 320.378906 L 229.433594 320.378906 C 229.617188 320.378906 229.769531 320.308594 229.890625 320.167969 C 230.007812 320.03125 230.050781 319.875 230.027344 319.695312 C 229.792969 318.0625 229.550781 316.4375 229.320312 314.804688 Z M 229.320312 314.804688 "/><path style=" stroke:none;fill-rule:nonzero;fill:#ecceae;fill-opacity:1;" d="M 135.695312 234.785156 C 135.277344 247.40625 137.0625 260.128906 143.316406 270.996094 C 145.414062 274.628906 147.921875 277.953125 150.839844 280.972656 L 150.261719 284.992188 L 145.230469 319.855469 C 145.207031 320.003906 145.140625 320.128906 145.027344 320.226562 C 144.914062 320.324219 144.785156 320.371094 144.636719 320.371094 L 93.429688 320.371094 C 89.3125 320.371094 85.195312 320.371094 81.074219 320.371094 C 80.898438 320.371094 80.75 320.308594 80.632812 320.179688 C 80.515625 320.046875 80.460938 319.894531 80.472656 319.71875 L 80.882812 315.023438 C 82.617188 295.0625 84.34375 275.105469 86.066406 255.15625 L 95.695312 144.058594 C 96.253906 137.617188 96.808594 131.179688 97.363281 124.738281 C 97.378906 124.582031 97.445312 124.453125 97.558594 124.351562 C 97.675781 124.246094 97.808594 124.191406 97.964844 124.191406 L 269.847656 124.191406 C 272.867188 124.191406 275.9375 124.226562 278.90625 124.257812 C 280.984375 124.28125 283.066406 124.308594 285.140625 124.316406 C 285.292969 124.320312 285.425781 124.371094 285.539062 124.476562 C 285.652344 124.582031 285.71875 124.710938 285.734375 124.863281 L 286.957031 139.015625 C 277.1875 139.226562 267.417969 139.433594 257.648438 139.640625 C 240.378906 140.003906 222.972656 140.390625 206.09375 144.074219 C 201.308594 145.109375 196.605469 146.4375 191.988281 148.070312 C 187 149.828125 182.191406 151.988281 177.5625 154.550781 C 171.285156 157.992188 165.628906 162.253906 160.585938 167.335938 C 146.140625 182.074219 139.242188 202.769531 136.644531 223.238281 C 136.488281 224.476562 136.34375 225.722656 136.226562 226.972656 C 135.964844 229.570312 135.777344 232.175781 135.695312 234.785156 Z M 195.789062 42.273438 C 196.675781 41.140625 195.730469 39.394531 194.421875 38.769531 C 193.117188 38.148438 191.621094 38.203125 190.222656 37.851562 C 184.082031 36.316406 182.714844 27.308594 186.46875 22.199219 C 190.222656 17.085938 196.792969 15.058594 202.957031 13.578125 C 206.027344 12.847656 209.125 12.160156 212.25 11.699219 C 212.21875 11.566406 212.148438 11.460938 212.039062 11.375 C 211.929688 11.292969 211.808594 11.25 211.671875 11.25 L 171.398438 11.25 C 171.234375 11.25 171.089844 11.308594 170.972656 11.425781 C 170.855469 11.542969 170.796875 11.683594 170.796875 11.851562 L 170.796875 41.292969 C 170.785156 42.359375 170.402344 43.269531 169.640625 44.019531 L 193.113281 43.167969 C 194.085938 43.144531 195.1875 43.050781 195.789062 42.273438 Z M 75.148438 55.046875 C 82.6875 69.289062 90.230469 83.527344 97.78125 97.765625 C 97.890625 97.976562 98.0625 98.085938 98.304688 98.085938 L 284.785156 98.085938 C 285.027344 98.085938 285.203125 97.980469 285.3125 97.765625 C 286.039062 96.398438 286.761719 95.035156 287.488281 93.671875 L 287.589844 93.472656 C 289.316406 90.207031 291.042969 86.949219 292.773438 83.6875 C 283.5 84.195312 274.222656 84.660156 264.941406 85.027344 C 261.863281 85.144531 258.78125 85.261719 255.699219 85.367188 C 213.515625 86.71875 171.347656 85.785156 129.929688 78.246094 C 118.484375 76.160156 106.292969 73.089844 98.730469 64.257812 C 90.328125 54.425781 90.378906 38.410156 98.859375 28.640625 C 102.6875 24.226562 108.011719 21.335938 113.71875 20.128906 L 113.71875 11.851562 C 113.71875 11.683594 113.660156 11.542969 113.542969 11.425781 C 113.425781 11.308594 113.285156 11.25 113.121094 11.25 L 72.839844 11.25 C 72.671875 11.25 72.53125 11.308594 72.414062 11.425781 C 72.296875 11.542969 72.238281 11.683594 72.238281 11.851562 L 72.238281 49.414062 C 72.238281 49.515625 72.261719 49.609375 72.308594 49.695312 Z M 300.5625 37.691406 C 300.761719 33.167969 294.625 31.933594 290.472656 30.125 C 284.75 27.640625 281.125 21.050781 282.078125 14.890625 C 282.277344 13.621094 282.65625 12.402344 283.207031 11.242188 L 269.972656 11.242188 C 269.808594 11.242188 269.664062 11.300781 269.546875 11.417969 C 269.429688 11.535156 269.371094 11.675781 269.371094 11.84375 L 269.371094 41.285156 C 269.371094 41.523438 269.351562 41.761719 269.308594 42 L 290.460938 42.835938 C 294.6875 43.007812 300.382812 41.910156 300.5625 37.699219 Z M 235.636719 304.4375 L 237.878906 319.863281 C 237.902344 320.011719 237.96875 320.132812 238.082031 320.230469 C 238.195312 320.328125 238.324219 320.378906 238.472656 320.378906 L 302.023438 320.378906 C 302.199219 320.378906 302.347656 320.3125 302.46875 320.1875 C 302.585938 320.054688 302.636719 319.902344 302.625 319.722656 L 302.53125 318.699219 C 302.164062 314.378906 301.789062 310.058594 301.410156 305.738281 C 280.296875 304.949219 259.171875 304.515625 238.03125 304.433594 C 237.230469 304.4375 236.433594 304.4375 235.636719 304.4375 Z M 334.804688 345.71875 C 249.207031 352.15625 163.335938 356.433594 78.035156 348.003906 C 70.0625 347.210938 61.859375 346.238281 54.851562 342.359375 C 53.53125 341.628906 52.300781 340.765625 51.164062 339.773438 C 47.242188 345.722656 44.890625 353.859375 48.75 359.296875 C 51.441406 363.117188 55.339844 363.417969 59.09375 363.417969 C 59.566406 363.417969 60.046875 363.417969 60.519531 363.417969 L 319.304688 363.417969 C 320.082031 363.417969 320.894531 363.449219 321.765625 363.480469 C 322.636719 363.511719 323.597656 363.558594 324.527344 363.558594 C 326.042969 363.601562 327.535156 363.433594 329.003906 363.0625 C 332.003906 362.230469 334.082031 360.445312 335.1875 357.761719 C 336.613281 354.246094 336.125 349.703125 334.804688 345.71875 Z M 334.804688 345.71875 "/><path style=" stroke:none;fill-rule:nonzero;fill:#d14b34;fill-opacity:1;" d="M 229.320312 314.804688 C 229.550781 316.4375 229.792969 318.0625 230.027344 319.695312 C 230.050781 319.875 230.007812 320.03125 229.890625 320.167969 C 229.769531 320.308594 229.617188 320.378906 229.433594 320.378906 L 153.660156 320.378906 C 153.476562 320.378906 153.324219 320.308594 153.203125 320.167969 C 153.082031 320.03125 153.035156 319.875 153.0625 319.695312 L 157.015625 292.304688 C 157.785156 286.988281 158.554688 281.675781 159.316406 276.359375 L 159.4375 275.519531 C 160.066406 271.121094 160.660156 266.964844 162.996094 263.039062 C 168.421875 253.945312 178.992188 248.484375 191.269531 248.484375 C 200.804688 248.484375 209.757812 251.855469 215.835938 257.738281 C 216.484375 258.359375 217.09375 259.015625 217.664062 259.703125 C 209.132812 258.5 200.246094 260.207031 193.347656 265.320312 C 182.582031 273.296875 178.550781 289.855469 185.984375 301.023438 C 193.519531 312.335938 208.894531 315.03125 222.492188 314.953125 C 224.746094 314.925781 227.027344 314.867188 229.320312 314.804688 Z M 141.890625 111.359375 C 136.648438 111.953125 131.238281 112.21875 126.289062 110.402344 C 123.804688 109.480469 121.746094 107.972656 120.113281 105.878906 L 95.527344 105.878906 C 95.425781 105.878906 95.324219 105.898438 95.222656 105.898438 C 95.125 105.898438 95.011719 105.898438 94.851562 105.878906 L 88.667969 105.878906 C 88.453125 105.878906 88.234375 105.878906 88.019531 105.878906 C 87.804688 105.878906 87.554688 105.878906 87.335938 105.878906 C 87.117188 105.878906 86.859375 105.878906 86.621094 105.90625 C 83.113281 106.160156 81.523438 108.824219 81.527344 111.191406 C 81.53125 113.558594 83.125 116.183594 86.605469 116.414062 C 88.722656 116.546875 91.039062 116.617188 93.726562 116.625 C 93.746094 116.625 93.765625 116.625 93.789062 116.625 C 93.929688 116.625 94.074219 116.605469 94.214844 116.605469 C 94.355469 116.605469 94.554688 116.605469 94.734375 116.628906 C 94.753906 116.632812 94.773438 116.632812 94.792969 116.628906 C 97.183594 116.628906 99.570312 116.570312 101.90625 116.523438 C 104.441406 116.46875 107.070312 116.414062 109.625 116.414062 L 293.292969 116.414062 C 293.636719 116.414062 293.953125 116.414062 294.28125 116.414062 C 296.757812 116.414062 301.308594 116.414062 301.695312 111.359375 Z M 141.890625 111.359375 "/><g clip-rule="nonzero" clip-path="url(#cc1f5ddf5a)"><path style=" stroke:none;fill-rule:nonzero;fill:#383333;fill-opacity:1;" d="M 336.144531 331.441406 C 342.285156 338.605469 346.675781 349.867188 343.621094 359.28125 C 341.160156 366.84375 334.121094 371.628906 326.289062 371.792969 C 322.769531 371.863281 319.234375 371.792969 315.714844 371.792969 L 88.214844 371.792969 C 75.003906 371.792969 61.792969 371.863281 48.582031 371.792969 C 44.335938 371.769531 40.300781 370.71875 36.875 368.113281 C 28.082031 361.429688 28.476562 349.671875 32.441406 340.359375 C 37.78125 327.828125 49.839844 320.394531 63.148438 319.824219 L 64.929688 299.261719 L 74.449219 189.351562 C 76.3125 167.835938 78.175781 146.320312 80.039062 124.796875 L 78.425781 124.796875 C 75.058594 124.765625 71.921875 123.921875 69.242188 121.804688 C 62.136719 116.199219 62.585938 105.089844 69.960938 99.929688 C 72.851562 97.90625 75.972656 97.542969 79.203125 97.492188 C 71.359375 82.679688 63.511719 67.867188 55.660156 53.054688 C 55.140625 52.292969 54.890625 51.449219 54.910156 50.523438 L 54.910156 7.351562 C 54.914062 7.054688 54.945312 6.765625 55.007812 6.476562 C 55.066406 6.1875 55.15625 5.90625 55.269531 5.636719 C 55.382812 5.367188 55.523438 5.109375 55.6875 4.863281 C 55.851562 4.621094 56.039062 4.394531 56.25 4.183594 C 56.457031 3.976562 56.683594 3.789062 56.929688 3.625 C 57.171875 3.460938 57.429688 3.324219 57.703125 3.207031 C 57.972656 3.09375 58.253906 3.007812 58.542969 2.945312 C 58.828125 2.886719 59.121094 2.855469 59.414062 2.851562 L 117.621094 2.851562 C 117.914062 2.855469 118.207031 2.886719 118.492188 2.949219 C 118.78125 3.007812 119.058594 3.097656 119.332031 3.210938 C 119.601562 3.324219 119.859375 3.464844 120.105469 3.628906 C 120.347656 3.792969 120.574219 3.980469 120.78125 4.1875 C 120.992188 4.394531 121.175781 4.621094 121.339844 4.867188 C 121.503906 5.109375 121.644531 5.367188 121.757812 5.636719 C 121.875 5.910156 121.960938 6.1875 122.023438 6.476562 C 122.082031 6.765625 122.117188 7.054688 122.121094 7.351562 L 122.121094 36.792969 L 153.480469 36.792969 L 153.480469 7.351562 C 153.484375 7.054688 153.515625 6.765625 153.578125 6.476562 C 153.636719 6.1875 153.726562 5.910156 153.839844 5.636719 C 153.953125 5.367188 154.09375 5.109375 154.257812 4.867188 C 154.421875 4.621094 154.609375 4.394531 154.816406 4.1875 C 155.023438 3.980469 155.25 3.792969 155.496094 3.628906 C 155.738281 3.464844 155.996094 3.324219 156.269531 3.210938 C 156.539062 3.097656 156.816406 3.007812 157.105469 2.949219 C 157.394531 2.886719 157.683594 2.855469 157.980469 2.851562 L 216.1875 2.851562 C 216.480469 2.855469 216.773438 2.886719 217.058594 2.949219 C 217.347656 3.007812 217.628906 3.097656 217.898438 3.210938 C 218.171875 3.324219 218.425781 3.464844 218.671875 3.628906 C 218.914062 3.792969 219.140625 3.980469 219.351562 4.1875 C 219.558594 4.394531 219.746094 4.621094 219.910156 4.867188 C 220.074219 5.109375 220.210938 5.367188 220.328125 5.636719 C 220.441406 5.910156 220.53125 6.1875 220.589844 6.476562 C 220.652344 6.765625 220.683594 7.054688 220.6875 7.351562 L 220.6875 36.792969 L 252.046875 36.792969 L 252.046875 7.351562 C 252.050781 7.054688 252.082031 6.765625 252.144531 6.476562 C 252.203125 6.1875 252.292969 5.910156 252.40625 5.636719 C 252.523438 5.367188 252.660156 5.109375 252.824219 4.867188 C 252.988281 4.621094 253.175781 4.394531 253.382812 4.1875 C 253.59375 3.980469 253.820312 3.792969 254.0625 3.628906 C 254.304688 3.464844 254.5625 3.324219 254.835938 3.210938 C 255.105469 3.097656 255.386719 3.007812 255.671875 2.949219 C 255.960938 2.886719 256.253906 2.855469 256.546875 2.851562 L 314.753906 2.851562 C 315.050781 2.855469 315.339844 2.886719 315.628906 2.949219 C 315.917969 3.007812 316.195312 3.097656 316.464844 3.210938 C 316.738281 3.324219 316.996094 3.464844 317.238281 3.628906 C 317.484375 3.792969 317.710938 3.980469 317.917969 4.1875 C 318.125 4.394531 318.3125 4.621094 318.476562 4.867188 C 318.640625 5.109375 318.78125 5.367188 318.894531 5.636719 C 319.007812 5.910156 319.097656 6.1875 319.15625 6.476562 C 319.21875 6.765625 319.25 7.054688 319.253906 7.351562 L 319.253906 50.523438 C 319.277344 51.457031 319.023438 52.304688 318.492188 53.070312 C 317.390625 55.148438 316.289062 57.230469 315.183594 59.3125 C 308.449219 72.050781 301.710938 84.773438 294.96875 97.484375 C 295.453125 97.484375 295.945312 97.484375 296.425781 97.484375 C 303.640625 97.753906 309.089844 102.835938 309.996094 109.792969 C 310.097656 110.234375 310.140625 110.683594 310.117188 111.136719 C 310.140625 111.59375 310.097656 112.039062 309.992188 112.480469 C 309.054688 119.445312 303.664062 124.53125 296.410156 124.792969 C 295.652344 124.816406 294.890625 124.832031 294.125 124.851562 C 294.71875 131.675781 295.3125 138.492188 295.902344 145.300781 L 305.4375 255.21875 C 307.300781 276.742188 309.164062 298.269531 311.027344 319.796875 C 320.570312 320.054688 329.886719 324.105469 336.144531 331.441406 Z M 328.84375 362.460938 C 338.296875 359.835938 335.894531 347.757812 332.222656 341.355469 C 327.75 333.554688 319.492188 328.90625 310.546875 328.777344 L 109.054688 328.777344 C 96.945312 328.777344 84.832031 328.652344 72.699219 328.777344 C 66.148438 328.84375 59.902344 331.207031 55.179688 335.8125 C 49.96875 340.890625 44.335938 352.042969 49.242188 358.957031 C 52.355469 363.351562 57.28125 362.792969 61.921875 362.792969 L 319.304688 362.792969 C 322.289062 362.792969 325.910156 363.277344 328.84375 362.460938 Z M 310.253906 49.414062 L 310.253906 11.851562 L 269.972656 11.851562 L 269.972656 41.292969 C 269.96875 41.585938 269.9375 41.878906 269.875 42.164062 C 269.816406 42.453125 269.726562 42.734375 269.613281 43.003906 C 269.496094 43.273438 269.359375 43.53125 269.195312 43.777344 C 269.03125 44.019531 268.84375 44.246094 268.636719 44.453125 C 268.425781 44.664062 268.203125 44.847656 267.957031 45.011719 C 267.714844 45.175781 267.457031 45.316406 267.183594 45.433594 C 266.914062 45.546875 266.632812 45.632812 266.347656 45.695312 C 266.058594 45.753906 265.765625 45.789062 265.472656 45.792969 L 216.1875 45.792969 C 215.894531 45.789062 215.601562 45.753906 215.3125 45.695312 C 215.027344 45.632812 214.746094 45.546875 214.476562 45.433594 C 214.203125 45.316406 213.945312 45.175781 213.703125 45.011719 C 213.457031 44.847656 213.234375 44.664062 213.023438 44.453125 C 212.816406 44.246094 212.628906 44.019531 212.464844 43.777344 C 212.300781 43.53125 212.160156 43.273438 212.046875 43.003906 C 211.933594 42.734375 211.84375 42.453125 211.785156 42.164062 C 211.722656 41.878906 211.691406 41.585938 211.6875 41.292969 L 211.6875 11.851562 L 171.398438 11.851562 L 171.398438 41.292969 C 171.394531 41.585938 171.363281 41.875 171.300781 42.164062 C 171.242188 42.453125 171.15625 42.730469 171.039062 43 C 170.925781 43.273438 170.789062 43.527344 170.625 43.773438 C 170.460938 44.015625 170.273438 44.242188 170.066406 44.449219 C 169.859375 44.660156 169.632812 44.84375 169.390625 45.007812 C 169.148438 45.175781 168.890625 45.3125 168.621094 45.429688 C 168.351562 45.542969 168.070312 45.632812 167.785156 45.691406 C 167.496094 45.753906 167.207031 45.785156 166.910156 45.792969 L 117.621094 45.792969 C 117.324219 45.789062 117.035156 45.753906 116.746094 45.695312 C 116.457031 45.632812 116.179688 45.546875 115.90625 45.433594 C 115.636719 45.316406 115.378906 45.175781 115.136719 45.011719 C 114.890625 44.847656 114.664062 44.664062 114.457031 44.453125 C 114.25 44.246094 114.0625 44.019531 113.898438 43.777344 C 113.734375 43.53125 113.59375 43.273438 113.480469 43.003906 C 113.363281 42.734375 113.277344 42.453125 113.21875 42.164062 C 113.15625 41.878906 113.125 41.585938 113.121094 41.292969 L 113.121094 11.851562 L 72.839844 11.851562 L 72.839844 49.414062 L 75.675781 54.769531 C 83.21875 69.015625 90.761719 83.257812 98.304688 97.492188 L 284.785156 97.492188 C 285.546875 96.0625 286.300781 94.636719 287.058594 93.207031 C 294.789062 78.605469 302.519531 64.007812 310.253906 49.414062 Z M 302.023438 319.789062 C 301.429688 312.953125 300.839844 306.113281 300.246094 299.269531 L 290.726562 189.363281 L 285.132812 124.925781 C 280.035156 124.894531 274.925781 124.796875 269.847656 124.796875 L 97.964844 124.796875 C 97.375 131.621094 96.785156 138.457031 96.1875 145.308594 L 86.667969 255.21875 C 84.808594 276.738281 82.945312 298.261719 81.074219 319.789062 C 93.429688 319.789062 105.78125 319.789062 118.128906 319.789062 L 144.636719 319.789062 C 146.3125 308.167969 147.992188 296.546875 149.667969 284.921875 C 150.382812 279.953125 151.085938 274.988281 151.816406 270.019531 C 153.011719 261.953125 157.371094 254.816406 163.707031 249.707031 C 181.082031 235.71875 209.964844 236.894531 224.441406 254.722656 C 232.398438 264.527344 232.46875 278.308594 234.199219 290.285156 C 235.617188 300.125 237.039062 309.957031 238.457031 319.789062 Z M 301.125 111.15625 C 300.992188 108.203125 298.796875 106.582031 296.03125 106.5 C 293.640625 106.433594 291.253906 106.402344 288.863281 106.390625 C 288.414062 106.503906 287.960938 106.539062 287.5 106.5 L 95.601562 106.5 C 95.355469 106.523438 95.109375 106.523438 94.867188 106.5 L 88.667969 106.5 C 87.988281 106.5 87.304688 106.449219 86.65625 106.5 C 80.601562 106.9375 80.621094 115.414062 86.628906 115.808594 C 88.976562 115.957031 91.339844 116.011719 93.714844 116.019531 C 94.070312 115.984375 94.425781 115.984375 94.785156 116.019531 C 99.734375 116.019531 104.710938 115.800781 109.617188 115.800781 L 292.382812 115.800781 C 296.007812 115.796875 300.859375 116.320312 301.117188 111.144531 Z M 229.433594 319.789062 C 227.992188 309.78125 226.550781 299.785156 225.109375 289.800781 L 222.785156 273.710938 C 221.914062 267.691406 219.914062 262.5 215.421875 258.167969 C 201.53125 244.734375 173.851562 245.992188 163.5 263.347656 C 161.074219 267.414062 160.558594 271.875 159.902344 276.441406 C 159.011719 282.632812 158.121094 288.820312 157.226562 295.011719 C 156.03125 303.269531 154.839844 311.527344 153.648438 319.777344 L 229.433594 319.777344 Z M 323.734375 171.085938 C 321.472656 170.4375 318.734375 171.878906 318.199219 174.230469 C 317.652344 176.617188 318.917969 179.074219 321.34375 179.761719 C 323.226562 180.308594 325.117188 180.847656 327 181.386719 C 329.261719 182.042969 332.003906 180.601562 332.539062 178.25 C 333.082031 175.863281 331.816406 173.410156 329.390625 172.714844 Z M 321.921875 152.808594 C 320.570312 154.960938 319.222656 157.121094 317.878906 159.289062 C 316.625 161.289062 317.390625 164.332031 319.492188 165.449219 C 319.75 165.589844 320.019531 165.707031 320.296875 165.796875 C 320.574219 165.886719 320.859375 165.949219 321.148438 165.984375 C 321.441406 166.023438 321.730469 166.03125 322.023438 166.011719 C 322.316406 165.992188 322.605469 165.945312 322.886719 165.871094 C 323.171875 165.796875 323.445312 165.695312 323.707031 165.570312 C 323.972656 165.441406 324.222656 165.292969 324.457031 165.117188 C 324.691406 164.941406 324.910156 164.746094 325.109375 164.53125 C 325.304688 164.316406 325.480469 164.082031 325.636719 163.832031 C 326.988281 161.675781 328.335938 159.515625 329.679688 157.351562 C 330.925781 155.355469 330.167969 152.304688 328.066406 151.210938 C 327.808594 151.066406 327.542969 150.949219 327.265625 150.859375 C 326.984375 150.765625 326.703125 150.703125 326.410156 150.664062 C 326.121094 150.628906 325.828125 150.617188 325.535156 150.636719 C 325.246094 150.65625 324.957031 150.703125 324.671875 150.777344 C 324.390625 150.847656 324.117188 150.949219 323.851562 151.074219 C 323.585938 151.203125 323.335938 151.351562 323.101562 151.527344 C 322.867188 151.699219 322.648438 151.894531 322.449219 152.109375 C 322.253906 152.324219 322.078125 152.558594 321.921875 152.808594 Z M 319.722656 187.140625 C 314.105469 185.738281 311.707031 194.410156 317.335938 195.820312 L 327.042969 198.242188 C 332.65625 199.648438 335.054688 190.972656 329.429688 189.570312 Z M 226.746094 210.441406 L 219.828125 210.441406 C 214.027344 210.441406 214.027344 219.441406 219.828125 219.441406 L 274.417969 219.441406 C 280.21875 219.441406 280.21875 210.441406 274.417969 210.441406 Z M 223.871094 76.96875 C 218.070312 76.96875 218.070312 85.96875 223.871094 85.96875 L 263.3125 85.96875 C 269.113281 85.96875 269.113281 76.96875 263.3125 76.96875 Z M 176.546875 176.5 C 170.746094 176.5 170.746094 185.5 176.546875 185.5 L 225.894531 185.5 C 231.695312 185.5 231.695312 176.5 225.894531 176.5 Z M 128.839844 67.140625 L 119.511719 67.140625 C 113.710938 67.140625 113.710938 76.140625 119.511719 76.140625 L 194.339844 76.140625 C 200.140625 76.140625 200.140625 67.140625 194.339844 67.140625 Z M 126.078125 146.136719 L 117.097656 146.136719 C 111.296875 146.136719 111.296875 155.136719 117.097656 155.136719 L 189.089844 155.136719 C 194.890625 155.136719 194.890625 146.136719 189.089844 146.136719 Z M 117.097656 226.386719 C 111.296875 226.386719 111.296875 235.386719 117.097656 235.386719 L 168.050781 235.386719 C 173.851562 235.386719 173.851562 226.386719 168.050781 226.386719 Z M 55.457031 125.273438 C 53.933594 123.375 50.679688 123.683594 49.089844 125.273438 C 47.226562 127.144531 47.566406 129.734375 49.089844 131.632812 L 56.308594 140.585938 C 57.832031 142.476562 61.082031 142.175781 62.675781 140.585938 C 64.546875 138.71875 64.207031 136.125 62.675781 134.222656 Z M 56.636719 144.089844 L 50.972656 146.523438 C 48.804688 147.453125 48.15625 150.8125 49.359375 152.664062 C 50.8125 154.917969 53.195312 155.273438 55.503906 154.277344 L 61.164062 151.847656 C 63.332031 150.910156 63.988281 147.558594 62.78125 145.691406 C 61.335938 143.441406 58.960938 143.085938 56.636719 144.089844 Z M 55.757812 164.949219 L 48.472656 168.996094 C 46.347656 170.175781 45.652344 173.089844 46.859375 175.15625 C 47.011719 175.40625 47.1875 175.640625 47.386719 175.859375 C 47.582031 176.074219 47.800781 176.269531 48.035156 176.445312 C 48.269531 176.621094 48.519531 176.773438 48.785156 176.898438 C 49.046875 177.027344 49.320312 177.125 49.605469 177.203125 C 49.890625 177.277344 50.175781 177.324219 50.46875 177.34375 C 50.761719 177.359375 51.054688 177.351562 51.34375 177.316406 C 51.636719 177.277344 51.921875 177.214844 52.199219 177.121094 C 52.476562 177.03125 52.746094 176.914062 53 176.769531 L 60.300781 172.714844 C 62.414062 171.539062 63.117188 168.621094 61.914062 166.574219 C 61.761719 166.320312 61.585938 166.085938 61.390625 165.867188 C 61.191406 165.648438 60.976562 165.453125 60.738281 165.277344 C 60.503906 165.097656 60.253906 164.945312 59.988281 164.820312 C 59.722656 164.691406 59.449219 164.589844 59.164062 164.511719 C 58.882812 164.4375 58.59375 164.390625 58.296875 164.371094 C 58.003906 164.351562 57.710938 164.359375 57.417969 164.394531 C 57.128906 164.433594 56.84375 164.496094 56.5625 164.589844 C 56.28125 164.679688 56.015625 164.800781 55.757812 164.941406 Z M 55.757812 164.949219 "/></g></g></svg>