<svg xmlns="http://www.w3.org/2000/svg" xmlns:xlink="http://www.w3.org/1999/xlink" width="500" zoomAndPan="magnify" viewBox="0 0 375 374.999991" height="500" preserveAspectRatio="xMidYMid meet" version="1.2"><defs><clipPath id="04c34e45c4"><path d="M 66 19 L 278 19 L 278 364.90625 L 66 364.90625 Z M 66 19 "/></clipPath><clipPath id="199e97dafe"><path d="M 45.625 10.289062 L 329.105469 10.289062 L 329.105469 92 L 45.625 92 Z M 45.625 10.289062 "/></clipPath></defs><g id="117249972d"><g clip-rule="nonzero" clip-path="url(#04c34e45c4)"><path style=" stroke:none;fill-rule:nonzero;fill:#0c0905;fill-opacity:1;" d="M 270.976562 159.160156 C 267.609375 159.160156 264.882812 161.886719 264.882812 165.253906 C 264.882812 165.660156 264.925781 166.054688 265 166.441406 C 258.800781 164.632812 243.277344 160.246094 238.4375 160.246094 C 232.34375 160.246094 222.421875 163.226562 220.636719 165 C 220.457031 165.179688 220.167969 165.445312 219.789062 165.777344 C 211.359375 173.191406 200.851562 177.839844 189.703125 179.195312 L 182.519531 180.066406 L 181.816406 97.714844 L 187.179688 105.914062 L 190.28125 97.238281 L 198.84375 104.378906 L 197.574219 95.417969 L 211.566406 101.191406 L 208.398438 93.691406 L 220.925781 97.738281 L 216.109375 89.015625 C 216.109375 89.015625 218.296875 89.078125 222 89.179688 C 225.703125 89.28125 230.164062 86.371094 230.164062 86.371094 C 230.164062 86.371094 223.492188 84 220.5 82.398438 C 217.511719 80.800781 212.914062 76.632812 211.078125 75.910156 C 209.242188 75.183594 202.273438 77.523438 202.273438 77.523438 L 192.128906 72.695312 L 191.042969 63.234375 C 191.042969 63.234375 194.683594 59.457031 195.769531 56.789062 C 196.851562 54.125 196.605469 50.75 196.605469 50.75 C 196.605469 50.75 199.398438 47.289062 201.199219 42.960938 C 203.003906 38.628906 207.804688 29.328125 211.386719 27.691406 C 214.96875 26.0625 224.875 21.203125 224.875 21.203125 C 224.875 21.203125 215.695312 18.089844 209.386719 20.78125 C 203.082031 23.472656 182.523438 36.046875 182.523438 36.046875 L 181.765625 91.503906 L 181.679688 81.894531 C 181.679688 81.894531 158.851562 74.671875 147.5 88.078125 C 146.714844 89.003906 145.976562 89.910156 145.28125 90.804688 C 142.234375 91.109375 137.882812 92.25 132.664062 95.605469 L 111.332031 109.316406 C 111.332031 109.316406 99.582031 95.390625 91.3125 84.070312 C 83.039062 72.753906 65.195312 78.847656 66.066406 94.953125 C 66.933594 111.058594 95.40625 141.53125 109.464844 140.660156 C 117.265625 140.175781 128.910156 134.597656 137.734375 129.730469 C 137.917969 130.734375 138.109375 131.761719 138.324219 132.824219 C 142.675781 154.589844 143.546875 177.222656 143.546875 177.222656 L 181.5 180.191406 L 180.835938 180.269531 L 181.679688 212.253906 L 180.835938 182.445312 L 150.074219 180.269531 C 150.074219 180.269531 124.828125 242.953125 128.746094 267.765625 L 177.933594 329.140625 L 170.53125 354.386719 L 143.546875 364.398438 L 180.835938 364.398438 L 190.992188 345.246094 L 201.003906 337.410156 C 201.003906 337.410156 198.390625 319.5625 187.074219 318.257812 L 155.296875 261.667969 L 181.679688 212.265625 L 182.523438 244.257812 C 182.523438 244.257812 191.863281 226.410156 195.34375 220.75 C 198.828125 215.09375 203.980469 194.636719 203.980469 194.636719 C 203.980469 194.636719 214.933594 192.457031 222.769531 188.542969 C 230.605469 184.621094 251.933594 167.210938 251.933594 167.210938 L 265.210938 167.210938 C 266.027344 169.617188 268.296875 171.34375 270.976562 171.34375 C 274.34375 171.34375 277.074219 168.617188 277.074219 165.253906 C 277.074219 161.886719 274.34375 159.160156 270.976562 159.160156 Z M 88.5 220.101562 C 85.132812 220.101562 82.40625 222.828125 82.40625 226.195312 C 82.40625 229.558594 85.132812 232.289062 88.5 232.289062 C 91.863281 232.289062 94.59375 229.558594 94.59375 226.195312 C 94.59375 222.828125 91.863281 220.101562 88.5 220.101562 Z M 182.523438 244.257812 C 185.890625 244.257812 188.617188 246.984375 188.617188 250.351562 C 188.617188 253.71875 185.890625 256.445312 182.523438 256.445312 C 179.160156 256.445312 176.429688 253.71875 176.429688 250.351562 C 176.429688 246.984375 179.160156 244.257812 182.523438 244.257812 "/></g><path style=" stroke:none;fill-rule:nonzero;fill:#ff3131;fill-opacity:1;" d="M 254.980469 269.503906 C 254.546875 268.632812 248.015625 265.152344 248.015625 265.152344 L 277.917969 185.53125 C 280.363281 179.023438 275.8125 172.007812 268.871094 171.589844 L 248.058594 170.328125 C 241.539062 175.519531 228.519531 185.664062 222.769531 188.542969 C 214.933594 192.457031 203.980469 194.636719 203.980469 194.636719 C 203.980469 194.636719 201.125 205.976562 198.226562 214.105469 C 220.871094 214.085938 241.921875 205.082031 241.921875 205.082031 L 232.78125 265.152344 C 232.78125 265.152344 226.90625 276.90625 231.476562 283.652344 L 253.238281 279.734375 L 270.433594 281.695312 L 295.679688 263.628906 L 274.351562 268.851562 C 274.351562 268.851562 255.417969 270.375 254.980469 269.503906 Z M 220.636719 165 C 221.371094 156.453125 222.699219 144.511719 225.039062 132.824219 C 227.394531 121.042969 227.832031 112.835938 225.941406 105.652344 C 233.515625 106.136719 251.636719 106.566406 262.777344 100.828125 C 275.300781 94.375 307.105469 64.648438 307.210938 48.523438 C 307.320312 32.394531 289.199219 27.152344 281.476562 38.847656 C 273.753906 50.546875 246.058594 72.003906 246.058594 72.003906 L 220.746094 73.480469 C 216.242188 73.742188 212.796875 74.683594 210.238281 75.773438 C 210.574219 75.78125 210.863281 75.824219 211.078125 75.910156 C 212.914062 76.632812 217.511719 80.800781 220.5 82.398438 C 223.492188 84 230.164062 86.371094 230.164062 86.371094 C 230.164062 86.371094 225.703125 89.28125 222 89.179688 C 219.378906 89.109375 217.523438 89.058594 216.660156 89.035156 C 216.300781 89.023438 216.109375 89.015625 216.109375 89.015625 L 220.925781 97.738281 L 208.398438 93.691406 L 211.566406 101.191406 L 197.574219 95.417969 L 198.84375 104.378906 L 190.28125 97.238281 L 187.179688 105.914062 L 181.679688 97.507812 L 181.894531 81.832031 L 182.523438 36.046875 C 182.523438 36.046875 162.316406 22.914062 156.085938 20.050781 C 149.855469 17.1875 140.59375 20.050781 140.59375 20.050781 C 140.59375 20.050781 150.359375 25.175781 153.898438 26.90625 C 157.433594 28.636719 161.980469 38.066406 163.664062 42.445312 C 165.347656 46.824219 168.039062 50.359375 168.039062 50.359375 C 168.039062 50.359375 167.707031 53.726562 168.714844 56.421875 C 169.726562 59.113281 173.261719 62.988281 173.261719 62.988281 L 171.914062 72.417969 L 161.644531 76.964844 C 161.644531 76.964844 154.738281 74.4375 152.886719 75.113281 C 151.035156 75.785156 146.320312 79.828125 143.289062 81.34375 C 140.257812 82.859375 133.523438 85.046875 133.523438 85.046875 C 133.523438 85.046875 137.898438 88.078125 141.605469 88.078125 C 145.308594 88.078125 147.5 88.078125 147.5 88.078125 L 142.449219 96.667969 L 155.078125 92.960938 L 151.707031 100.371094 L 165.851562 94.980469 L 164.335938 103.90625 L 173.09375 97 L 175.953125 105.761719 L 181.546875 97.703125 L 180.835938 180.269531 L 180.839844 180.269531 L 189.703125 179.195312 C 200.851562 177.839844 211.359375 173.191406 219.789062 165.777344 C 220.167969 165.445312 220.457031 165.179688 220.636719 165 Z M 181.679688 212.246094 L 182.523438 244.257812 C 182.523438 244.257812 176.628906 225.976562 167.921875 220.316406 C 159.214844 214.65625 158.023438 195.941406 158.023438 195.941406 L 153.992188 205.515625 C 153.992188 205.515625 139.628906 218.578125 128.3125 222.058594 C 116.992188 225.539062 93.484375 227.285156 93.484375 227.285156 L 119.171875 217.269531 L 143.546875 177.222656 L 180.835938 180.269531 L 180.894531 182.414062 L 181.679688 212.253906 L 181.679688 212.246094 "/><g clip-rule="nonzero" clip-path="url(#199e97dafe)"><path style=" stroke:none;fill-rule:nonzero;fill:#f68a74;fill-opacity:1;" d="M 182.425781 44.484375 C 182.425781 44.484375 175.394531 43.914062 174.746094 49.773438 C 174.148438 55.167969 173.933594 62.09375 180.308594 66.140625 C 181.414062 66.839844 182.828125 66.859375 183.949219 66.1875 C 190.433594 62.320312 190.410156 55.390625 189.957031 49.984375 C 189.46875 44.105469 182.425781 44.484375 182.425781 44.484375 Z M 74.484375 75.921875 C 74.484375 75.921875 73.394531 67.980469 71.542969 65.804688 C 69.695312 63.625 66.105469 61.886719 64.359375 60.144531 C 62.621094 58.402344 61.859375 58.402344 62.074219 60.144531 C 62.292969 61.886719 66.429688 65.691406 66.429688 65.691406 C 66.429688 65.691406 60.445312 63.410156 57.941406 63.085938 C 55.4375 62.757812 45.96875 59.382812 45.644531 60.035156 C 45.316406 60.6875 49.5625 63.625 49.5625 63.625 C 49.5625 63.625 48.144531 65.804688 48.582031 66.785156 C 49.019531 67.761719 52.28125 70.480469 52.28125 70.480469 C 52.28125 70.480469 51.523438 72.445312 52.5 73.53125 C 53.480469 74.617188 60.753906 79.082031 63.15625 80.492188 C 65.558594 81.910156 67.519531 81.910156 67.519531 81.910156 L 72.199219 91.484375 C 72.199219 91.484375 82.972656 94.421875 80.6875 83.976562 Z M 325.171875 15.078125 C 325.171875 15.078125 326.585938 17.253906 326.148438 18.234375 C 325.714844 19.214844 322.453125 21.933594 322.453125 21.933594 C 322.453125 21.933594 323.210938 23.890625 322.234375 24.980469 C 321.253906 26.070312 313.980469 30.527344 311.574219 31.945312 C 309.175781 33.359375 307.214844 33.359375 307.214844 33.359375 L 302.535156 42.9375 C 302.535156 42.9375 291.761719 45.875 294.046875 35.429688 L 300.25 27.375 C 300.25 27.375 301.339844 19.429688 303.1875 17.253906 C 305.039062 15.078125 308.628906 13.335938 310.371094 11.59375 C 312.113281 9.855469 312.875 9.855469 312.65625 11.59375 C 312.4375 13.335938 308.304688 17.144531 308.304688 17.144531 C 308.304688 17.144531 314.289062 14.859375 316.789062 14.53125 C 319.292969 14.207031 328.761719 10.835938 329.089844 11.488281 C 329.414062 12.140625 325.171875 15.078125 325.171875 15.078125 "/></g><path style=" stroke:none;fill-rule:nonzero;fill:#100f0d;fill-opacity:1;" d="M 267.621094 167.078125 L 248.042969 164.613281 C 247.980469 164.609375 247.917969 164.628906 247.871094 164.675781 C 244.613281 167.878906 241.210938 170.9375 237.699219 173.863281 C 235.933594 175.308594 234.148438 176.738281 232.285156 178.050781 C 230.425781 179.375 228.519531 180.636719 226.480469 181.632812 C 224.472656 182.632812 222.234375 183.222656 220.085938 184.027344 C 217.929688 184.800781 215.785156 185.609375 213.648438 186.429688 C 209.375 188.078125 205.125 189.78125 200.890625 191.53125 C 200.808594 191.566406 200.738281 191.640625 200.71875 191.730469 C 199.761719 195.371094 198.746094 198.996094 197.671875 202.597656 C 196.589844 206.199219 195.457031 209.789062 194.140625 213.304688 C 193.453125 215.042969 192.785156 216.8125 191.871094 218.410156 C 191.628906 218.796875 191.375 219.160156 191.105469 219.527344 C 190.804688 219.898438 190.5 220.257812 190.207031 220.632812 C 189.617188 221.367188 189.046875 222.121094 188.476562 222.875 C 186.328125 225.738281 184.269531 228.664062 182.25 231.617188 C 180.335938 227.992188 178.335938 224.421875 176.070312 220.992188 C 174.875 219.214844 173.601562 217.421875 171.984375 215.957031 C 171.195312 215.214844 170.3125 214.550781 169.425781 213.949219 C 168.535156 213.347656 167.71875 212.753906 167.332031 211.820312 C 167.117188 211.355469 166.992188 210.878906 166.851562 210.351562 C 166.710938 209.828125 166.558594 209.316406 166.410156 208.796875 L 165.480469 205.722656 L 163.570312 199.59375 L 159.664062 187.359375 C 159.644531 187.292969 159.597656 187.234375 159.53125 187.191406 C 159.390625 187.109375 159.203125 187.15625 159.121094 187.300781 L 148.992188 204.453125 C 145.765625 206.855469 142.484375 209.195312 139.15625 211.453125 C 135.8125 213.714844 132.417969 215.917969 128.871094 217.832031 C 127.070312 218.753906 125.285156 219.628906 123.261719 219.824219 L 117.257812 220.726562 L 105.253906 222.527344 C 105.167969 222.539062 105.105469 222.621094 105.121094 222.707031 C 105.132812 222.796875 105.214844 222.855469 105.300781 222.84375 L 123.328125 220.261719 C 123.828125 220.171875 124.328125 220.152344 124.832031 220 L 125.589844 219.804688 C 125.839844 219.730469 126.070312 219.621094 126.308594 219.53125 C 127.277344 219.179688 128.179688 218.703125 129.09375 218.257812 C 132.683594 216.351562 136.097656 214.160156 139.457031 211.894531 C 142.8125 209.625 146.117188 207.285156 149.371094 204.871094 C 149.398438 204.851562 149.425781 204.824219 149.445312 204.789062 L 159.296875 188.183594 L 162.96875 199.78125 L 164.867188 205.910156 L 165.789062 208.980469 C 165.933594 209.492188 166.085938 210.007812 166.21875 210.519531 C 166.351562 211.023438 166.5 211.582031 166.738281 212.09375 C 166.960938 212.617188 167.316406 213.101562 167.734375 213.492188 C 168.152344 213.882812 168.609375 214.191406 169.050781 214.496094 C 169.933594 215.09375 170.765625 215.726562 171.53125 216.445312 C 173.089844 217.867188 174.316406 219.601562 175.5 221.367188 C 177.839844 224.925781 179.914062 228.675781 181.894531 232.449219 C 181.917969 232.5 181.960938 232.546875 182.007812 232.582031 C 182.171875 232.6875 182.390625 232.648438 182.5 232.488281 C 184.613281 229.378906 186.773438 226.289062 189.019531 223.28125 C 189.582031 222.53125 190.148438 221.78125 190.734375 221.050781 C 191.019531 220.675781 191.324219 220.320312 191.617188 219.957031 C 191.898438 219.570312 192.1875 219.15625 192.441406 218.746094 C 193.398438 217.066406 194.054688 215.296875 194.75 213.535156 C 196.066406 209.988281 197.191406 206.390625 198.265625 202.773438 C 199.324219 199.210938 200.3125 195.625 201.25 192.023438 C 205.429688 190.285156 209.628906 188.589844 213.851562 186.949219 C 215.984375 186.125 218.121094 185.3125 220.269531 184.535156 C 222.402344 183.726562 224.621094 183.140625 226.714844 182.097656 C 228.792969 181.078125 230.710938 179.800781 232.578125 178.464844 C 234.453125 177.136719 236.242188 175.695312 238.011719 174.234375 C 241.503906 171.316406 244.855469 168.238281 248.089844 165.027344 L 267.585938 167.34375 C 267.660156 167.351562 267.726562 167.300781 267.738281 167.230469 C 267.746094 167.152344 267.695312 167.085938 267.621094 167.078125 Z M 245.097656 260.460938 C 243.78125 260.003906 242.378906 259.808594 240.984375 259.824219 C 240.289062 259.890625 239.589844 259.917969 238.910156 260.085938 C 238.226562 260.203125 237.5625 260.402344 236.910156 260.636719 C 236.25 260.847656 235.640625 261.1875 235.011719 261.460938 C 234.414062 261.800781 233.828125 262.160156 233.25 262.523438 C 233.183594 262.566406 233.15625 262.652344 233.1875 262.726562 C 233.222656 262.808594 233.320312 262.839844 233.402344 262.804688 L 233.414062 262.796875 C 234.03125 262.515625 234.625 262.199219 235.234375 261.929688 C 235.863281 261.699219 236.464844 261.398438 237.109375 261.230469 C 238.375 260.816406 239.6875 260.59375 241.007812 260.53125 C 242.324219 260.480469 243.640625 260.664062 244.914062 261.03125 C 246.179688 261.398438 247.410156 261.976562 248.476562 262.761719 L 248.488281 262.769531 C 248.542969 262.808594 248.617188 262.800781 248.664062 262.753906 C 248.714844 262.695312 248.714844 262.613281 248.660156 262.5625 C 247.644531 261.597656 246.410156 260.921875 245.097656 260.460938 Z M 244.542969 262.953125 C 243.230469 262.492188 241.828125 262.300781 240.429688 262.316406 C 239.738281 262.382812 239.035156 262.40625 238.359375 262.574219 C 237.671875 262.691406 237.007812 262.894531 236.359375 263.128906 C 235.695312 263.339844 235.089844 263.679688 234.457031 263.949219 C 233.859375 264.289062 233.277344 264.648438 232.699219 265.015625 C 232.628906 265.058594 232.605469 265.144531 232.636719 265.21875 C 232.671875 265.296875 232.765625 265.332031 232.847656 265.292969 L 232.863281 265.289062 C 233.480469 265.011719 234.070312 264.6875 234.683594 264.417969 C 235.3125 264.191406 235.914062 263.890625 236.558594 263.71875 C 237.820312 263.304688 239.136719 263.085938 240.453125 263.023438 C 241.773438 262.972656 243.09375 263.15625 244.363281 263.523438 C 245.625 263.890625 246.855469 264.46875 247.925781 265.25 L 247.9375 265.257812 C 247.988281 265.296875 248.066406 265.292969 248.113281 265.242188 C 248.164062 265.191406 248.164062 265.105469 248.109375 265.054688 C 247.09375 264.085938 245.859375 263.410156 244.542969 262.953125 Z M 180.289062 326.390625 C 180.589844 326.234375 180.886719 326.078125 181.183594 325.914062 L 181.632812 325.671875 L 182.050781 325.378906 L 182.890625 324.796875 L 183.664062 324.121094 C 184.636719 323.160156 185.472656 322.03125 185.972656 320.75 C 186.472656 319.472656 186.707031 318.089844 186.492188 316.730469 C 186.480469 316.664062 186.421875 316.613281 186.355469 316.617188 C 186.28125 316.617188 186.222656 316.679688 186.222656 316.753906 L 186.222656 316.769531 C 186.257812 318.054688 185.953125 319.355469 185.421875 320.515625 C 184.890625 321.6875 184.117188 322.734375 183.175781 323.605469 C 182.269531 324.53125 181.132812 325.1875 180.007812 325.828125 C 179.425781 326.121094 178.828125 326.382812 178.230469 326.65625 C 177.613281 326.886719 176.996094 327.105469 176.382812 327.351562 L 176.367188 327.359375 C 176.296875 327.386719 176.25 327.464844 176.269531 327.546875 C 176.292969 327.632812 176.378906 327.683594 176.464844 327.664062 C 177.113281 327.5 177.757812 327.316406 178.410156 327.140625 C 179.035156 326.898438 179.667969 326.660156 180.289062 326.390625 Z M 187.863281 318.246094 C 187.792969 318.25 187.730469 318.3125 187.734375 318.386719 L 187.734375 318.402344 C 187.769531 319.6875 187.464844 320.988281 186.933594 322.152344 C 186.402344 323.320312 185.625 324.363281 184.6875 325.242188 C 183.78125 326.164062 182.644531 326.820312 181.519531 327.460938 C 180.9375 327.753906 180.335938 328.015625 179.738281 328.289062 C 179.125 328.519531 178.503906 328.738281 177.890625 328.984375 L 177.878906 328.992188 C 177.804688 329.019531 177.765625 329.097656 177.785156 329.179688 C 177.804688 329.265625 177.890625 329.316406 177.976562 329.292969 C 178.625 329.132812 179.269531 328.949219 179.917969 328.773438 C 180.546875 328.53125 181.179688 328.292969 181.796875 328.023438 C 182.097656 327.867188 182.398438 327.710938 182.695312 327.546875 L 183.140625 327.300781 L 183.5625 327.015625 L 184.402344 326.429688 L 185.171875 325.753906 C 186.148438 324.796875 186.980469 323.664062 187.484375 322.382812 C 187.984375 321.105469 188.21875 319.726562 188.003906 318.363281 C 187.992188 318.296875 187.933594 318.246094 187.863281 318.246094 Z M 223.304688 98.542969 C 223.679688 99.664062 224.039062 100.789062 224.433594 101.902344 C 224.824219 103.019531 225.222656 104.132812 225.664062 105.230469 C 225.695312 105.304688 225.773438 105.347656 225.855469 105.324219 C 225.941406 105.304688 225.992188 105.21875 225.96875 105.132812 C 225.695312 104.015625 225.382812 102.917969 225.058594 101.816406 C 225.597656 101.28125 225.996094 100.609375 226.277344 99.910156 C 226.609375 99.113281 226.753906 98.265625 226.851562 97.425781 C 226.941406 96.585938 226.949219 95.742188 226.882812 94.90625 C 226.816406 94.070312 226.707031 93.242188 226.492188 92.429688 C 226.476562 92.367188 226.421875 92.324219 226.355469 92.328125 C 226.28125 92.332031 226.222656 92.394531 226.226562 92.46875 L 226.226562 92.472656 C 226.265625 93.289062 226.292969 94.109375 226.285156 94.925781 C 226.273438 95.738281 226.246094 96.554688 226.148438 97.351562 C 225.996094 98.769531 225.675781 100.175781 224.921875 101.363281 C 224.613281 100.347656 224.289062 99.339844 223.976562 98.328125 C 223.597656 97.210938 223.234375 96.082031 222.835938 94.972656 C 222.441406 93.855469 222.035156 92.742188 221.589844 91.648438 C 221.566406 91.585938 221.5 91.546875 221.433594 91.566406 C 221.359375 91.585938 221.316406 91.65625 221.332031 91.730469 C 221.617188 92.878906 221.9375 94.019531 222.269531 95.152344 C 222.59375 96.289062 222.960938 97.414062 223.304688 98.542969 Z M 134.628906 112.738281 C 134.769531 113.59375 134.949219 114.449219 135.253906 115.273438 C 135.515625 115.988281 135.84375 116.691406 136.3125 117.304688 C 136.328125 117.730469 136.347656 118.160156 136.363281 118.585938 C 136.394531 119.824219 136.523438 121.058594 136.636719 122.289062 C 136.761719 123.523438 136.96875 124.746094 137.132812 125.972656 L 137.847656 129.613281 C 137.863281 129.695312 137.945312 129.753906 138.027344 129.738281 C 138.113281 129.730469 138.175781 129.644531 138.164062 129.558594 L 138.164062 129.550781 L 137.644531 125.898438 C 137.519531 124.675781 137.347656 123.457031 137.261719 122.230469 C 137.070312 119.785156 136.9375 117.332031 137.007812 114.882812 C 137.046875 112.429688 137.234375 109.980469 137.601562 107.558594 C 137.792969 106.347656 138.011719 105.144531 138.316406 103.957031 C 138.597656 102.765625 138.941406 101.578125 139.410156 100.460938 L 139.414062 100.453125 C 139.441406 100.386719 139.414062 100.308594 139.347656 100.277344 C 139.28125 100.246094 139.203125 100.273438 139.167969 100.339844 C 138.085938 102.601562 137.46875 105.023438 137.015625 107.457031 C 136.570312 109.90625 136.378906 112.386719 136.304688 114.863281 L 136.296875 116.390625 C 136.125 115.964844 135.976562 115.527344 135.847656 115.082031 C 135.625 114.285156 135.460938 113.460938 135.328125 112.628906 C 135.050781 110.964844 134.910156 109.277344 134.757812 107.582031 C 134.75 107.515625 134.703125 107.460938 134.636719 107.453125 C 134.5625 107.445312 134.496094 107.5 134.488281 107.570312 C 134.386719 108.433594 134.375 109.296875 134.398438 110.160156 C 134.414062 111.019531 134.496094 111.882812 134.628906 112.738281 Z M 180.480469 57.535156 L 180.488281 57.527344 C 180.78125 57.304688 181.070312 57.078125 181.367188 56.910156 C 181.664062 56.742188 181.96875 56.609375 182.242188 56.605469 C 182.777344 56.574219 183.371094 57.050781 183.890625 57.53125 L 183.902344 57.539062 C 183.949219 57.582031 184.015625 57.597656 184.074219 57.570312 C 184.15625 57.539062 184.195312 57.441406 184.164062 57.359375 C 184.003906 56.980469 183.765625 56.65625 183.453125 56.371094 C 183.140625 56.097656 182.699219 55.875 182.207031 55.898438 C 181.722656 55.929688 181.324219 56.15625 181.019531 56.425781 C 180.703125 56.695312 180.457031 57 180.273438 57.363281 C 180.25 57.40625 180.253906 57.464844 180.289062 57.511719 C 180.335938 57.566406 180.421875 57.578125 180.480469 57.535156 Z M 308.429688 17.101562 C 308.40625 17.042969 308.34375 17.007812 308.28125 17.023438 C 308.207031 17.035156 308.160156 17.109375 308.171875 17.183594 L 308.175781 17.191406 C 308.46875 18.648438 308.652344 20.160156 308.34375 21.546875 C 308.277344 21.890625 308.152344 22.222656 308 22.527344 C 307.933594 22.6875 307.820312 22.820312 307.738281 22.96875 L 307.414062 23.429688 C 306.96875 24.046875 306.535156 24.667969 306.136719 25.316406 C 306.097656 25.378906 306.105469 25.464844 306.164062 25.519531 C 306.226562 25.578125 306.328125 25.578125 306.390625 25.511719 C 306.921875 24.96875 307.414062 24.390625 307.90625 23.8125 C 308.03125 23.667969 308.152344 23.53125 308.269531 23.371094 C 308.382812 23.199219 308.523438 23.035156 308.613281 22.851562 C 308.804688 22.488281 308.949219 22.097656 309.035156 21.699219 C 309.203125 20.90625 309.195312 20.105469 309.082031 19.332031 C 308.960938 18.558594 308.757812 17.808594 308.429688 17.101562 Z M 312.691406 18.464844 C 313.785156 18.105469 314.871094 17.714844 315.953125 17.320312 L 319.191406 16.125 C 320.261719 15.707031 321.34375 15.316406 322.421875 14.9375 C 322.949219 14.757812 323.523438 14.546875 324.011719 14.476562 C 324.527344 14.421875 325.179688 14.527344 325.046875 15.023438 L 325.039062 15.042969 C 325.023438 15.105469 325.058594 15.175781 325.117188 15.203125 C 325.1875 15.230469 325.265625 15.199219 325.296875 15.128906 C 325.371094 14.957031 325.382812 14.777344 325.316406 14.585938 C 325.238281 14.402344 325.085938 14.277344 324.933594 14.195312 C 324.621094 14.046875 324.308594 14.011719 324 14 C 323.34375 14.042969 322.8125 14.21875 322.242188 14.367188 C 321.121094 14.683594 320.035156 15.078125 318.945312 15.460938 C 317.867188 15.878906 316.789062 16.289062 315.726562 16.738281 C 314.664062 17.1875 313.605469 17.652344 312.570312 18.164062 C 312.496094 18.199219 312.460938 18.285156 312.484375 18.363281 C 312.515625 18.445312 312.605469 18.492188 312.691406 18.464844 Z M 326.25 17.066406 C 325.882812 16.484375 325.261719 16.078125 324.554688 16 C 323.835938 15.914062 323.171875 16.230469 322.605469 16.472656 C 321.4375 16.988281 320.316406 17.566406 319.179688 18.132812 C 318.0625 18.722656 316.9375 19.308594 315.832031 19.925781 C 314.902344 20.449219 313.980469 20.980469 313.070312 21.539062 C 312.921875 20.625 312.75 19.714844 312.496094 18.828125 C 312.238281 17.9375 311.945312 17.0625 311.542969 16.226562 C 311.519531 16.167969 311.453125 16.136719 311.386719 16.152344 C 311.316406 16.171875 311.273438 16.246094 311.292969 16.320312 L 311.292969 16.324219 C 311.519531 17.199219 311.734375 18.085938 311.917969 18.96875 C 312.097656 19.859375 312.265625 20.742188 312.371094 21.636719 C 312.503906 22.527344 312.558594 23.425781 312.589844 24.320312 C 312.617188 25.21875 312.5625 26.113281 312.472656 27.011719 L 312.472656 27.019531 C 312.464844 27.09375 312.511719 27.171875 312.585938 27.1875 C 312.671875 27.214844 312.761719 27.167969 312.785156 27.082031 C 312.914062 26.636719 313.015625 26.183594 313.082031 25.722656 C 313.121094 25.734375 313.164062 25.734375 313.203125 25.714844 C 313.984375 25.335938 314.746094 24.921875 315.511719 24.515625 L 317.78125 23.269531 C 318.535156 22.855469 319.292969 22.425781 320.046875 22.101562 C 320.421875 21.949219 320.820312 21.84375 321.21875 21.824219 C 321.609375 21.785156 322.035156 21.859375 322.363281 22.035156 L 322.390625 22.050781 C 322.445312 22.078125 322.515625 22.070312 322.554688 22.019531 C 322.601562 21.960938 322.59375 21.875 322.535156 21.832031 C 321.757812 21.195312 320.707031 21.273438 319.847656 21.539062 C 318.972656 21.824219 318.21875 22.242188 317.441406 22.648438 C 316.675781 23.066406 315.925781 23.503906 315.191406 23.972656 C 314.488281 24.421875 313.796875 24.878906 313.128906 25.378906 C 313.171875 25.027344 313.207031 24.675781 313.21875 24.324219 C 313.242188 23.527344 313.191406 22.730469 313.105469 21.9375 C 314.121094 21.472656 315.125 20.980469 316.128906 20.484375 L 319.503906 18.761719 C 320.617188 18.164062 321.742188 17.585938 322.859375 17.011719 C 323.425781 16.722656 323.949219 16.445312 324.519531 16.476562 C 325.082031 16.46875 325.644531 16.773438 326.023438 17.214844 L 326.03125 17.226562 C 326.074219 17.277344 326.148438 17.289062 326.207031 17.253906 C 326.269531 17.214844 326.289062 17.128906 326.25 17.066406 Z M 58.441406 64.410156 C 57.988281 64.992188 57.617188 65.628906 57.285156 66.285156 C 56.734375 66.015625 56.167969 65.765625 55.601562 65.523438 C 54.953125 65.25 54.296875 65 53.636719 64.753906 C 52.976562 64.519531 52.316406 64.28125 51.644531 64.078125 C 50.972656 63.867188 50.296875 63.664062 49.609375 63.5 C 49.550781 63.484375 49.484375 63.511719 49.453125 63.570312 C 49.421875 63.636719 49.445312 63.71875 49.515625 63.753906 C 50.144531 64.078125 50.789062 64.363281 51.4375 64.640625 C 52.082031 64.917969 52.734375 65.171875 53.394531 65.421875 C 54.054688 65.664062 54.714844 65.902344 55.386719 66.113281 C 55.957031 66.296875 56.535156 66.46875 57.117188 66.621094 C 57.117188 66.625 57.113281 66.632812 57.109375 66.636719 C 56.820312 67.242188 56.59375 67.875 56.398438 68.519531 C 55.863281 68.234375 55.324219 67.964844 54.777344 67.707031 C 54.125 67.398438 53.460938 67.113281 52.792969 66.832031 C 52.125 66.558594 51.457031 66.289062 50.773438 66.042969 C 50.09375 65.796875 49.410156 65.558594 48.714844 65.359375 C 48.652344 65.339844 48.589844 65.367188 48.554688 65.421875 C 48.519531 65.484375 48.542969 65.570312 48.609375 65.609375 C 49.238281 65.964844 49.890625 66.285156 50.542969 66.59375 C 51.191406 66.914062 51.855469 67.199219 52.519531 67.484375 C 53.1875 67.761719 53.855469 68.039062 54.535156 68.285156 C 55.113281 68.5 55.695312 68.703125 56.285156 68.886719 C 56.269531 68.953125 56.242188 69.023438 56.222656 69.09375 C 56.023438 69.945312 55.90625 70.824219 55.929688 71.707031 C 55.929688 71.828125 55.949219 71.949219 55.957031 72.074219 C 55.769531 71.945312 55.582031 71.820312 55.390625 71.703125 C 55.078125 71.503906 54.75 71.335938 54.421875 71.167969 C 54.085938 71.003906 53.753906 70.847656 53.40625 70.714844 C 53.058594 70.582031 52.710938 70.453125 52.34375 70.363281 C 52.292969 70.351562 52.238281 70.367188 52.203125 70.40625 C 52.15625 70.46875 52.164062 70.554688 52.222656 70.605469 C 52.511719 70.847656 52.820312 71.050781 53.136719 71.25 C 53.449219 71.449219 53.777344 71.625 54.101562 71.800781 C 54.433594 71.960938 54.765625 72.125 55.109375 72.261719 C 55.40625 72.378906 55.707031 72.492188 56.015625 72.578125 C 56.109375 73.164062 56.261719 73.738281 56.5 74.277344 C 56.527344 74.34375 56.605469 74.386719 56.679688 74.367188 C 56.765625 74.347656 56.820312 74.265625 56.800781 74.179688 L 56.800781 74.167969 C 56.621094 73.347656 56.527344 72.53125 56.554688 71.710938 C 56.605469 70.886719 56.71875 70.066406 56.910156 69.257812 C 57.304688 67.644531 57.929688 66.074219 58.667969 64.554688 L 58.671875 64.550781 C 58.699219 64.492188 58.683594 64.421875 58.632812 64.382812 C 58.574219 64.335938 58.488281 64.347656 58.441406 64.410156 Z M 69.359375 73.03125 C 69.414062 73.085938 69.414062 73.171875 69.359375 73.222656 C 69.316406 73.269531 69.246094 73.277344 69.195312 73.242188 C 68.570312 72.863281 68.042969 72.378906 67.5625 71.835938 C 67.09375 71.296875 66.640625 70.707031 66.386719 69.96875 C 66.160156 69.253906 66.066406 68.527344 66.066406 67.808594 C 66.066406 67.085938 66.117188 66.378906 66.269531 65.675781 C 66.289062 65.589844 66.375 65.535156 66.460938 65.550781 C 66.535156 65.570312 66.585938 65.636719 66.585938 65.707031 L 66.585938 65.710938 C 66.605469 66.402344 66.628906 67.097656 66.691406 67.777344 C 66.761719 68.453125 66.863281 69.125 67.058594 69.746094 C 67.242188 70.347656 67.640625 70.898438 68.027344 71.464844 C 68.425781 72.011719 68.875 72.539062 69.355469 73.023438 L 69.359375 73.03125 "/></g></svg>