<svg xmlns="http://www.w3.org/2000/svg" xmlns:xlink="http://www.w3.org/1999/xlink" width="500" zoomAndPan="magnify" viewBox="0 0 375 374.999991" height="500" preserveAspectRatio="xMidYMid meet" version="1.2"><defs><clipPath id="774c3593b0"><path d="M 0.0390625 256.648438 L 374.992188 256.648438 L 374.992188 359.105469 L 0.0390625 359.105469 Z M 0.0390625 256.648438 "/></clipPath><clipPath id="6d7721e535"><path d="M 104 288 L 272 288 L 272 359.183594 L 104 359.183594 Z M 104 288 "/></clipPath><clipPath id="258982571e"><path d="M 68 293 L 307 293 L 307 359.183594 L 68 359.183594 Z M 68 293 "/></clipPath><clipPath id="b637a6a366"><path d="M 154 334 L 220 334 L 220 359.183594 L 154 359.183594 Z M 154 334 "/></clipPath><clipPath id="837b568346"><path d="M 5.515625 338 L 370 338 L 370 359.132812 L 5.515625 359.132812 Z M 5.515625 338 "/></clipPath><clipPath id="1443cb21d0"><path d="M 102 15.683594 L 273 15.683594 L 273 277 L 102 277 Z M 102 15.683594 "/></clipPath><clipPath id="b814398baa"><path d="M 0.0390625 288.714844 L 374.992188 288.714844 L 374.992188 334.859375 L 0.0390625 334.859375 Z M 0.0390625 288.714844 "/></clipPath><clipPath id="10186dfa9d"><path d="M 11 79 L 364 79 L 364 359.183594 L 11 359.183594 Z M 11 79 "/></clipPath></defs><g id="bb65a606c2"><g clip-rule="nonzero" clip-path="url(#774c3593b0)"><path style=" stroke:none;fill-rule:nonzero;fill:#f8d893;fill-opacity:1;" d="M 94.65625 359.085938 L 279.929688 359.085938 L 279.929688 278.128906 L 94.65625 278.128906 Z M 218.234375 256.753906 L 157.246094 256.753906 L 157.246094 274.8125 L 218.234375 274.8125 Z M 318.734375 323.617188 L 318.734375 298.589844 L 306.261719 298.589844 L 306.261719 359.085938 L 374.988281 359.085938 L 374.988281 323.617188 Z M 56.300781 298.589844 L 68.761719 298.589844 L 68.761719 359.085938 L 0.0390625 359.085938 L 0.0390625 323.617188 L 56.300781 323.617188 L 56.300781 298.589844 "/></g><g clip-rule="nonzero" clip-path="url(#6d7721e535)"><path style=" stroke:none;fill-rule:nonzero;fill:#e6c17f;fill-opacity:1;" d="M 248.523438 298.589844 L 248.523438 359.085938 L 271.363281 359.085938 L 271.363281 298.589844 Z M 137.5 359.085938 L 237.707031 359.085938 L 237.707031 288.144531 L 137.5 288.144531 Z M 104.15625 298.589844 L 127 298.589844 L 127 359.085938 L 104.15625 359.085938 L 104.15625 298.589844 "/></g><g clip-rule="nonzero" clip-path="url(#258982571e)"><path style=" stroke:none;fill-rule:nonzero;fill:#fcf0dd;fill-opacity:1;" d="M 279.957031 293.019531 L 279.957031 359.085938 L 306.265625 359.085938 L 306.265625 293.019531 Z M 224.226562 334.371094 L 279.929688 334.371094 L 279.929688 358.6875 L 224.226562 358.6875 L 224.226562 359.085938 L 150.714844 359.085938 L 150.714844 358.6875 L 94.886719 358.6875 L 94.886719 359.085938 L 68.761719 359.085938 L 68.761719 293.019531 L 94.886719 293.019531 L 94.886719 334.371094 L 150.714844 334.371094 L 150.714844 299.902344 L 224.226562 299.902344 L 224.226562 334.371094 "/></g><g clip-rule="nonzero" clip-path="url(#b637a6a366)"><path style=" stroke:none;fill-rule:nonzero;fill:#e0b667;fill-opacity:1;" d="M 200.855469 334.339844 L 200.855469 359.085938 L 220 359.085938 L 220 334.339844 Z M 177.878906 359.085938 L 197.019531 359.085938 L 197.019531 334.339844 L 177.878906 334.339844 Z M 154.898438 334.339844 L 174.042969 334.339844 L 174.042969 359.085938 L 154.898438 359.085938 L 154.898438 334.339844 "/></g><g clip-rule="nonzero" clip-path="url(#837b568346)"><path style=" stroke:none;fill-rule:nonzero;fill:#fcf0dd;fill-opacity:1;" d="M 324.632812 359.132812 L 344.808594 359.132812 L 344.808594 338.632812 L 324.632812 338.632812 Z M 349.234375 338.632812 L 349.234375 359.132812 L 369.410156 359.132812 L 369.410156 338.632812 Z M 30.21875 359.132812 L 50.390625 359.132812 L 50.390625 338.632812 L 30.21875 338.632812 Z M 5.617188 338.632812 L 25.792969 338.632812 L 25.792969 359.132812 L 5.617188 359.132812 L 5.617188 338.632812 "/></g><g clip-rule="nonzero" clip-path="url(#1443cb21d0)"><path style=" stroke:none;fill-rule:nonzero;fill:#f8d893;fill-opacity:1;" d="M 257.089844 23.730469 L 257.089844 20.269531 L 258.074219 20.269531 L 258.074219 23.765625 C 258.820312 23.683594 259.519531 23.378906 260.078125 22.867188 C 260.773438 22.226562 261.179688 21.355469 261.214844 20.414062 C 261.253906 19.472656 260.925781 18.574219 260.285156 17.878906 C 259.648438 17.1875 258.777344 16.785156 257.835938 16.742188 C 257.785156 16.742188 257.734375 16.742188 257.683594 16.742188 C 256.796875 16.742188 255.953125 17.066406 255.296875 17.671875 C 254.605469 18.3125 254.199219 19.183594 254.164062 20.121094 C 254.125 21.0625 254.453125 21.964844 255.089844 22.660156 C 255.628906 23.238281 256.324219 23.597656 257.089844 23.730469 Z M 248.527344 110.222656 L 243.820312 103.53125 L 243.820312 92.71875 L 245.625 92.71875 L 245.625 94.65625 L 257.089844 94.65625 L 257.089844 94.640625 L 250.070312 94.640625 L 250.070312 83.847656 L 248.269531 83.847656 L 248.269531 70.625 L 252.289062 57.613281 L 252.289062 44.8125 C 252.289062 44.8125 252.078125 41.109375 254.199219 39.945312 C 255.539062 39.207031 256.539062 38.769531 257.089844 38.542969 L 257.089844 24.71875 C 256.046875 24.582031 255.089844 24.105469 254.367188 23.324219 C 253.550781 22.4375 253.128906 21.285156 253.179688 20.082031 C 253.230469 18.875 253.746094 17.765625 254.632812 16.949219 C 255.519531 16.132812 256.65625 15.707031 257.875 15.761719 C 259.082031 15.8125 260.195312 16.328125 261.011719 17.214844 C 261.824219 18.101562 262.246094 19.253906 262.199219 20.457031 C 262.148438 21.660156 261.632812 22.769531 260.742188 23.589844 C 260 24.273438 259.066406 24.664062 258.074219 24.746094 L 258.074219 38.421875 C 258.480469 38.574219 259.613281 39.023438 261.285156 39.945312 C 263.402344 41.109375 263.191406 44.8125 263.191406 44.8125 L 263.191406 57.613281 L 267.214844 70.625 L 267.214844 83.847656 L 265.414062 83.847656 L 265.414062 94.640625 L 258.074219 94.640625 L 258.074219 94.65625 L 269.261719 94.65625 L 269.261719 92.71875 L 271.0625 92.71875 L 271.0625 103.53125 L 266.355469 110.222656 Z M 270.460938 212.824219 C 268.171875 208.746094 268.664062 198.46875 268.664062 198.46875 L 268.664062 166.816406 L 272.582031 153.925781 L 272.582031 138.265625 L 266.441406 138.265625 L 266.441406 111.890625 L 248.527344 111.890625 L 248.527344 138.265625 L 242.179688 138.265625 L 242.179688 153.925781 L 246.097656 166.816406 L 246.097656 198.46875 C 246.097656 198.46875 246.585938 208.746094 244.304688 212.824219 C 242.019531 216.902344 242.179688 220.003906 242.179688 220.003906 L 242.179688 276.941406 L 272.582031 276.941406 L 272.582031 220.003906 C 272.582031 220.003906 272.742188 216.902344 270.460938 212.824219 Z M 117.148438 23.730469 L 117.148438 20.269531 L 118.132812 20.269531 L 118.132812 23.761719 C 118.875 23.679688 119.578125 23.378906 120.136719 22.867188 C 120.828125 22.226562 121.234375 21.355469 121.273438 20.414062 C 121.351562 18.472656 119.835938 16.824219 117.890625 16.742188 C 117.84375 16.742188 117.792969 16.742188 117.746094 16.742188 C 115.867188 16.742188 114.296875 18.230469 114.21875 20.121094 C 114.183594 21.0625 114.511719 21.964844 115.152344 22.660156 C 115.683594 23.238281 116.382812 23.597656 117.148438 23.730469 Z M 108.585938 110.222656 L 103.878906 103.53125 L 103.878906 92.71875 L 105.683594 92.71875 L 105.683594 94.65625 L 117.148438 94.65625 L 117.148438 94.640625 L 110.125 94.640625 L 110.125 83.847656 L 108.328125 83.847656 L 108.328125 70.625 L 112.347656 57.613281 L 112.347656 44.8125 C 112.347656 44.8125 112.136719 41.109375 114.253906 39.945312 C 115.597656 39.207031 116.597656 38.769531 117.148438 38.542969 L 117.148438 24.71875 C 116.105469 24.582031 115.148438 24.105469 114.425781 23.324219 C 113.609375 22.4375 113.1875 21.285156 113.238281 20.082031 C 113.339844 17.597656 115.417969 15.644531 117.933594 15.761719 C 120.417969 15.863281 122.359375 17.96875 122.257812 20.457031 C 122.203125 21.660156 121.691406 22.769531 120.800781 23.589844 C 120.058594 24.273438 119.125 24.664062 118.132812 24.746094 L 118.132812 38.421875 C 118.539062 38.574219 119.671875 39.023438 121.347656 39.945312 C 123.460938 41.109375 123.25 44.8125 123.25 44.8125 L 123.25 57.613281 L 127.273438 70.625 L 127.273438 83.847656 L 125.472656 83.847656 L 125.472656 94.640625 L 118.132812 94.640625 L 118.132812 94.65625 L 129.320312 94.65625 L 129.320312 92.71875 L 131.121094 92.71875 L 131.121094 103.53125 L 126.414062 110.222656 Z M 130.519531 212.824219 C 132.800781 216.902344 132.636719 220.003906 132.636719 220.003906 L 132.636719 276.941406 L 102.238281 276.941406 L 102.238281 220.003906 C 102.238281 220.003906 102.078125 216.902344 104.363281 212.824219 C 106.644531 208.746094 106.15625 198.46875 106.15625 198.46875 L 106.15625 166.816406 L 102.238281 153.925781 L 102.238281 138.265625 L 108.585938 138.265625 L 108.585938 111.890625 L 126.5 111.890625 L 126.5 138.265625 L 132.636719 138.265625 L 132.636719 153.925781 L 128.71875 166.816406 L 128.71875 198.46875 C 128.71875 198.46875 128.230469 208.746094 130.519531 212.824219 "/></g><path style=" stroke:none;fill-rule:nonzero;fill:#e6c17f;fill-opacity:1;" d="M 270.496094 212.882812 C 268.210938 208.804688 268.703125 198.527344 268.703125 198.527344 L 268.703125 166.878906 L 272.617188 153.988281 L 272.617188 138.324219 L 262.1875 138.324219 L 262.1875 153.988281 L 258.273438 166.878906 L 258.273438 198.527344 C 258.273438 198.527344 257.78125 208.804688 260.066406 212.882812 C 262.351562 216.960938 262.1875 220.0625 262.1875 220.0625 L 262.1875 277 L 272.617188 277 L 272.617188 220.0625 C 272.617188 220.0625 272.78125 216.960938 270.496094 212.882812 Z M 265.414062 83.847656 L 267.214844 83.847656 L 267.214844 70.625 L 263.191406 57.613281 L 263.191406 44.8125 C 263.191406 44.8125 263.402344 41.109375 261.285156 39.945312 C 259.171875 38.785156 257.898438 38.359375 257.898438 38.359375 L 257.582031 38.359375 L 257.582031 94.683594 L 265.414062 94.640625 Z M 128.757812 198.527344 L 128.757812 166.878906 L 132.675781 153.988281 L 132.675781 138.324219 L 122.246094 138.324219 L 122.246094 153.988281 L 118.328125 166.878906 L 118.328125 198.527344 C 118.328125 198.527344 117.835938 208.804688 120.125 212.882812 C 122.410156 216.960938 122.246094 220.0625 122.246094 220.0625 L 122.246094 277 L 132.675781 277 L 132.675781 220.0625 C 132.675781 220.0625 132.835938 216.960938 130.554688 212.882812 C 128.269531 208.804688 128.757812 198.527344 128.757812 198.527344 Z M 125.472656 94.640625 L 117.640625 94.683594 L 117.640625 38.359375 L 117.960938 38.359375 C 117.960938 38.359375 119.226562 38.785156 121.347656 39.945312 C 123.460938 41.109375 123.25 44.8125 123.25 44.8125 L 123.25 57.613281 L 127.273438 70.625 L 127.273438 83.847656 L 125.472656 83.847656 L 125.472656 94.640625 "/><path style=" stroke:none;fill-rule:nonzero;fill:#e6c17f;fill-opacity:1;" d="M 233.699219 263.667969 L 233.699219 274.8125 L 272.015625 274.8125 L 272.015625 263.667969 Z M 105.640625 263.667969 L 143.957031 263.667969 L 143.957031 274.8125 L 105.640625 274.8125 L 105.640625 263.667969 "/><path style=" stroke:none;fill-rule:nonzero;fill:#e0b667;fill-opacity:1;" d="M 217.429688 256.667969 L 217.429688 228.628906 C 217.429688 228.628906 216.144531 211.75 196.21875 205.375 C 188.246094 202.1875 187.851562 197.808594 187.851562 197.808594 L 187.566406 197.808594 C 187.566406 197.808594 187.164062 202.1875 179.195312 205.375 C 159.269531 211.75 157.984375 228.628906 157.984375 228.628906 L 157.984375 256.667969 Z M 271.179688 263.613281 L 271.179688 246.308594 C 271.179688 246.308594 270.386719 235.894531 258.089844 231.960938 C 253.171875 229.992188 252.925781 227.289062 252.925781 227.289062 L 252.75 227.289062 C 252.75 227.289062 252.503906 229.992188 247.582031 231.960938 C 235.289062 235.894531 234.492188 246.308594 234.492188 246.308594 L 234.492188 263.613281 Z M 106.433594 263.613281 L 106.433594 246.308594 C 106.433594 246.308594 107.226562 235.894531 119.523438 231.960938 C 124.445312 229.992188 124.6875 227.289062 124.6875 227.289062 L 124.867188 227.289062 C 124.867188 227.289062 125.109375 229.992188 130.027344 231.960938 C 142.328125 235.894531 143.121094 246.308594 143.121094 246.308594 L 143.121094 263.613281 L 106.433594 263.613281 "/><path style=" stroke:none;fill-rule:nonzero;fill:#a47b30;fill-opacity:1;" d="M 213.386719 258.882812 C 211.851562 258.882812 210.59375 260.136719 210.59375 261.671875 L 210.59375 270.109375 L 216.179688 270.109375 L 216.179688 261.671875 C 216.179688 260.136719 214.921875 258.882812 213.386719 258.882812 Z M 206.234375 258.882812 C 204.699219 258.882812 203.441406 260.136719 203.441406 261.671875 L 203.441406 270.109375 L 209.027344 270.109375 L 209.027344 261.671875 C 209.027344 260.136719 207.769531 258.882812 206.234375 258.882812 Z M 191.195312 258.882812 C 189.660156 258.882812 188.40625 260.136719 188.40625 261.671875 L 188.40625 270.109375 L 193.988281 270.109375 L 193.988281 261.671875 C 193.988281 260.136719 192.734375 258.882812 191.195312 258.882812 Z M 184.042969 258.882812 C 182.511719 258.882812 181.253906 260.136719 181.253906 261.671875 L 181.253906 270.109375 L 186.839844 270.109375 L 186.839844 261.671875 C 186.839844 260.136719 185.582031 258.882812 184.042969 258.882812 Z M 168.507812 258.882812 C 166.976562 258.882812 165.71875 260.136719 165.71875 261.671875 L 165.71875 270.109375 L 171.304688 270.109375 L 171.304688 261.671875 C 171.304688 260.136719 170.046875 258.882812 168.507812 258.882812 Z M 164.152344 261.671875 L 164.152344 270.109375 L 158.566406 270.109375 L 158.566406 261.671875 C 158.566406 260.136719 159.824219 258.882812 161.359375 258.882812 C 162.890625 258.882812 164.152344 260.136719 164.152344 261.671875 "/><path style=" stroke:none;fill-rule:nonzero;fill:#fcf0dd;fill-opacity:1;" d="M 279.914062 271.472656 L 279.914062 264.871094 C 279.914062 263.875 279.097656 263.058594 278.101562 263.058594 C 277.101562 263.058594 276.285156 263.875 276.285156 264.871094 L 276.285156 271.472656 L 271.296875 271.472656 L 271.296875 264.871094 C 271.296875 263.875 270.476562 263.058594 269.480469 263.058594 C 268.484375 263.058594 267.667969 263.875 267.667969 264.871094 L 267.667969 271.472656 L 262.679688 271.472656 L 262.679688 264.871094 C 262.679688 263.875 261.863281 263.058594 260.863281 263.058594 C 259.867188 263.058594 259.050781 263.875 259.050781 264.871094 L 259.050781 271.472656 L 253.917969 271.472656 L 253.917969 264.871094 C 253.917969 263.875 253.101562 263.058594 252.105469 263.058594 C 251.105469 263.058594 250.289062 263.875 250.289062 264.871094 L 250.289062 271.472656 L 245.445312 271.472656 L 245.445312 264.871094 C 245.445312 263.875 244.628906 263.058594 243.628906 263.058594 C 242.632812 263.058594 241.816406 263.875 241.816406 264.871094 L 241.816406 271.472656 L 236.824219 271.472656 L 236.824219 264.871094 C 236.824219 263.875 236.011719 263.058594 235.011719 263.058594 C 234.015625 263.058594 233.199219 263.875 233.199219 264.871094 L 233.199219 271.472656 L 228.0625 271.472656 L 228.0625 264.871094 C 228.0625 263.875 227.246094 263.058594 226.25 263.058594 C 225.25 263.058594 224.4375 263.875 224.4375 264.871094 L 224.4375 271.472656 L 219.449219 271.472656 L 219.449219 264.871094 C 219.449219 263.875 218.632812 263.058594 217.632812 263.058594 C 216.636719 263.058594 215.820312 263.875 215.820312 264.871094 L 215.820312 271.472656 L 210.828125 271.472656 L 210.828125 264.871094 C 210.828125 263.875 210.011719 263.058594 209.015625 263.058594 C 208.019531 263.058594 207.203125 263.875 207.203125 264.871094 L 207.203125 271.472656 L 202.070312 271.472656 L 202.070312 264.871094 C 202.070312 263.875 201.253906 263.058594 200.253906 263.058594 C 199.257812 263.058594 198.441406 263.875 198.441406 264.871094 L 198.441406 271.472656 L 193.515625 271.472656 L 193.515625 264.871094 C 193.515625 263.875 192.699219 263.058594 191.703125 263.058594 C 190.707031 263.058594 189.886719 263.875 189.886719 264.871094 L 189.886719 271.472656 L 184.898438 271.472656 L 184.898438 264.871094 C 184.898438 263.875 184.085938 263.058594 183.089844 263.058594 C 182.089844 263.058594 181.273438 263.875 181.273438 264.871094 L 181.273438 271.472656 L 176.136719 271.472656 L 176.136719 264.871094 C 176.136719 263.875 175.320312 263.058594 174.324219 263.058594 C 173.328125 263.058594 172.511719 263.875 172.511719 264.871094 L 172.511719 271.472656 L 167.523438 271.472656 L 167.523438 264.871094 C 167.523438 263.875 166.703125 263.058594 165.707031 263.058594 C 164.710938 263.058594 163.894531 263.875 163.894531 264.871094 L 163.894531 271.472656 L 158.902344 271.472656 L 158.902344 264.871094 C 158.902344 263.875 158.089844 263.058594 157.089844 263.058594 C 156.09375 263.058594 155.277344 263.875 155.277344 264.871094 L 155.277344 271.472656 L 150.140625 271.472656 L 150.140625 264.871094 C 150.140625 263.875 149.324219 263.058594 148.328125 263.058594 C 147.328125 263.058594 146.515625 263.875 146.515625 264.871094 L 146.515625 271.472656 L 141.667969 271.472656 L 141.667969 264.871094 C 141.667969 263.875 140.855469 263.058594 139.855469 263.058594 C 138.859375 263.058594 138.042969 263.875 138.042969 264.871094 L 138.042969 271.472656 L 133.050781 271.472656 L 133.050781 264.871094 C 133.050781 263.875 132.234375 263.058594 131.234375 263.058594 C 130.238281 263.058594 129.421875 263.875 129.421875 264.871094 L 129.421875 271.472656 L 124.289062 271.472656 L 124.289062 264.871094 C 124.289062 263.875 123.472656 263.058594 122.476562 263.058594 C 121.480469 263.058594 120.660156 263.875 120.660156 264.871094 L 120.660156 271.472656 L 115.671875 271.472656 L 115.671875 264.871094 C 115.671875 263.875 114.859375 263.058594 113.859375 263.058594 C 112.863281 263.058594 112.046875 263.875 112.046875 264.871094 L 112.046875 271.472656 L 107.054688 271.472656 L 107.054688 264.871094 C 107.054688 263.875 106.238281 263.058594 105.242188 263.058594 C 104.242188 263.058594 103.425781 263.875 103.425781 264.871094 L 103.425781 271.472656 L 98.292969 271.472656 L 98.292969 264.871094 C 98.292969 263.875 97.476562 263.058594 96.480469 263.058594 C 95.480469 263.058594 94.664062 263.875 94.664062 264.871094 L 94.664062 271.472656 L 94.65625 271.472656 L 94.65625 278.152344 L 279.929688 278.152344 L 279.929688 271.472656 Z M 137.5 281.648438 L 237.707031 281.648438 L 237.707031 288.167969 L 137.5 288.167969 L 137.5 281.648438 "/><g clip-rule="nonzero" clip-path="url(#b814398baa)"><path style=" stroke:none;fill-rule:nonzero;fill:#e6c17f;fill-opacity:1;" d="M 319.613281 298.578125 L 306.261719 298.578125 L 306.261719 302.914062 L 319.613281 302.914062 Z M 306.265625 288.863281 L 279.882812 288.863281 L 279.882812 293.199219 L 306.265625 293.199219 Z M 318.707031 327.636719 L 318.707031 331.289062 L 374.988281 331.289062 L 374.988281 327.636719 Z M 213.113281 312.109375 C 210.554688 311.089844 210.429688 309.683594 210.429688 309.683594 L 210.335938 309.683594 C 210.335938 309.683594 210.210938 311.089844 207.652344 312.109375 C 201.265625 314.152344 200.855469 319.566406 200.855469 319.566406 L 200.855469 334.558594 L 219.910156 334.558594 L 219.910156 319.566406 C 219.910156 319.566406 219.496094 314.152344 213.113281 312.109375 Z M 190.132812 312.109375 C 187.578125 311.089844 187.449219 309.683594 187.449219 309.683594 L 187.359375 309.683594 C 187.359375 309.683594 187.230469 311.089844 184.675781 312.109375 C 178.289062 314.152344 177.878906 319.566406 177.878906 319.566406 L 177.878906 334.558594 L 196.933594 334.558594 L 196.933594 319.566406 C 196.933594 319.566406 196.519531 314.152344 190.132812 312.109375 Z M 167.15625 312.109375 C 164.601562 311.089844 164.472656 309.683594 164.472656 309.683594 L 164.378906 309.683594 C 164.378906 309.683594 164.253906 311.089844 161.699219 312.109375 C 155.3125 314.152344 154.898438 319.566406 154.898438 319.566406 L 154.898438 334.558594 L 173.953125 334.558594 L 173.953125 319.566406 C 173.953125 319.566406 173.542969 314.152344 167.15625 312.109375 Z M 55.292969 302.914062 L 68.761719 302.914062 L 68.761719 298.578125 L 55.292969 298.578125 Z M 68.761719 293.199219 L 94.886719 293.199219 L 94.886719 288.863281 L 68.761719 288.863281 Z M 0.0390625 327.636719 L 56.332031 327.636719 L 56.332031 331.289062 L 0.0390625 331.289062 L 0.0390625 327.636719 "/></g><g clip-rule="nonzero" clip-path="url(#10186dfa9d)"><path style=" stroke:none;fill-rule:nonzero;fill:#a47b30;fill-opacity:1;" d="M 289.84375 311.460938 C 288.167969 311.460938 286.792969 318.007812 286.792969 325.597656 L 286.792969 359.046875 L 292.894531 359.046875 L 292.894531 325.597656 C 292.894531 318.007812 291.523438 311.460938 289.84375 311.460938 Z M 332.410156 343.191406 C 331.390625 343.191406 330.558594 344.027344 330.558594 345.042969 L 330.558594 352.21875 L 334.261719 352.21875 L 334.261719 345.042969 C 334.261719 344.027344 333.425781 343.191406 332.410156 343.191406 Z M 336.921875 343.191406 C 335.902344 343.191406 335.070312 344.027344 335.070312 345.042969 L 335.070312 352.21875 L 338.773438 352.21875 L 338.773438 345.042969 C 338.773438 344.027344 337.941406 343.191406 336.921875 343.191406 Z M 357.007812 343.191406 C 355.992188 343.191406 355.160156 344.027344 355.160156 345.042969 L 355.160156 352.21875 L 358.863281 352.21875 L 358.863281 345.042969 C 358.863281 344.027344 358.03125 343.191406 357.007812 343.191406 Z M 361.523438 343.191406 C 360.503906 343.191406 359.671875 344.027344 359.671875 345.042969 L 359.671875 352.21875 L 363.375 352.21875 L 363.375 345.042969 C 363.375 344.027344 362.542969 343.191406 361.523438 343.191406 Z M 85.183594 311.460938 C 83.507812 311.460938 82.132812 318.007812 82.132812 325.597656 L 82.132812 359.046875 L 88.234375 359.046875 L 88.234375 325.597656 C 88.234375 318.007812 86.863281 311.460938 85.183594 311.460938 Z M 261.472656 322.542969 C 261.472656 321.683594 260.769531 320.980469 259.910156 320.980469 C 259.050781 320.980469 258.34375 321.683594 258.34375 322.542969 L 258.34375 330.320312 L 261.472656 330.320312 Z M 265.375 322.542969 C 265.375 321.683594 264.671875 320.980469 263.8125 320.980469 C 262.949219 320.980469 262.246094 321.683594 262.246094 322.542969 L 262.246094 330.320312 L 265.375 330.320312 Z M 255.785156 320.980469 C 254.929688 320.980469 254.226562 321.683594 254.226562 322.542969 L 254.226562 330.320312 L 257.351562 330.320312 L 257.351562 322.542969 C 257.351562 321.683594 256.644531 320.980469 255.785156 320.980469 Z M 260.949219 356.609375 L 265.484375 356.609375 L 265.484375 338.183594 L 260.949219 338.183594 Z M 254.222656 356.609375 L 258.757812 356.609375 L 258.757812 338.183594 L 254.222656 338.183594 Z M 113.980469 322.542969 L 113.980469 330.320312 L 117.105469 330.320312 L 117.105469 322.542969 C 117.105469 321.683594 116.402344 320.980469 115.546875 320.980469 C 114.683594 320.980469 113.980469 321.683594 113.980469 322.542969 Z M 210.535156 320.980469 C 209.675781 320.980469 208.972656 321.683594 208.972656 322.542969 L 208.972656 330.320312 L 212.097656 330.320312 L 212.097656 322.542969 C 212.097656 321.683594 211.394531 320.980469 210.535156 320.980469 Z M 205.332031 355.351562 L 215.855469 355.351562 L 215.855469 338.984375 L 205.332031 338.984375 Z M 204.347656 338 L 216.839844 338 L 216.839844 356.335938 L 204.347656 356.335938 Z M 187.558594 320.980469 C 186.699219 320.980469 185.996094 321.683594 185.996094 322.542969 L 185.996094 330.320312 L 189.121094 330.320312 L 189.121094 322.542969 C 189.121094 321.683594 188.417969 320.980469 187.558594 320.980469 Z M 182.355469 355.351562 L 192.878906 355.351562 L 192.878906 338.984375 L 182.355469 338.984375 Z M 181.371094 338 L 193.859375 338 L 193.859375 356.335938 L 181.371094 356.335938 Z M 164.582031 320.980469 C 163.71875 320.980469 163.019531 321.683594 163.019531 322.542969 L 163.019531 330.320312 L 166.144531 330.320312 L 166.144531 322.542969 C 166.144531 321.683594 165.441406 320.980469 164.582031 320.980469 Z M 119.449219 320.980469 C 118.585938 320.980469 117.882812 321.683594 117.882812 322.542969 L 117.882812 330.320312 L 121.007812 330.320312 L 121.007812 322.542969 C 121.007812 321.683594 120.308594 320.980469 119.449219 320.980469 Z M 109.859375 322.542969 L 109.859375 330.320312 L 112.988281 330.320312 L 112.988281 322.542969 C 112.988281 321.683594 112.285156 320.980469 111.421875 320.980469 C 110.5625 320.980469 109.859375 321.683594 109.859375 322.542969 Z M 42.617188 343.191406 C 41.597656 343.191406 40.765625 344.027344 40.765625 345.042969 L 40.765625 352.21875 L 44.46875 352.21875 L 44.46875 345.042969 C 44.46875 344.027344 43.636719 343.191406 42.617188 343.191406 Z M 38.105469 343.191406 C 37.089844 343.191406 36.253906 344.027344 36.253906 345.042969 L 36.253906 352.21875 L 39.957031 352.21875 L 39.957031 345.042969 C 39.957031 344.027344 39.125 343.191406 38.105469 343.191406 Z M 18.015625 343.191406 C 17 343.191406 16.164062 344.027344 16.164062 345.042969 L 16.164062 352.21875 L 19.871094 352.21875 L 19.871094 345.042969 C 19.871094 344.027344 19.035156 343.191406 18.015625 343.191406 Z M 13.503906 343.191406 C 12.484375 343.191406 11.65625 344.027344 11.65625 345.042969 L 11.65625 352.21875 L 15.355469 352.21875 L 15.355469 345.042969 C 15.355469 344.027344 14.523438 343.191406 13.503906 343.191406 Z M 116.585938 356.609375 L 121.121094 356.609375 L 121.121094 338.183594 L 116.585938 338.183594 Z M 109.859375 356.609375 L 114.394531 356.609375 L 114.394531 338.183594 L 109.859375 338.183594 Z M 159.375 355.351562 L 169.898438 355.351562 L 169.898438 338.984375 L 159.375 338.984375 Z M 158.394531 338 L 170.882812 338 L 170.882812 356.335938 L 158.394531 356.335938 Z M 216.5 231.382812 L 214.742188 229.621094 L 210.238281 234.128906 L 214.742188 238.632812 L 216.5 236.875 Z M 216.5 251.199219 L 216.5 245.703125 L 214.742188 243.949219 L 210.238281 248.449219 L 214.742188 252.953125 Z M 211.570312 255.738281 L 212.28125 255.027344 L 207.777344 250.519531 L 203.269531 255.027344 L 203.980469 255.738281 Z M 198.3125 255.738281 L 199.023438 255.027344 L 194.519531 250.519531 L 190.011719 255.027344 L 190.726562 255.738281 Z M 184.71875 255.738281 L 185.429688 255.027344 L 180.925781 250.519531 L 176.417969 255.027344 L 177.132812 255.738281 Z M 171.007812 255.738281 L 171.722656 255.027344 L 167.21875 250.519531 L 162.710938 255.027344 L 163.421875 255.738281 Z M 158.894531 245.996094 L 158.917969 250.929688 L 160.945312 252.953125 L 165.453125 248.449219 L 160.945312 243.949219 Z M 160.945312 238.542969 L 165.453125 234.039062 L 160.945312 229.535156 L 158.859375 231.628906 L 158.890625 236.554688 Z M 178.484375 248.449219 L 173.976562 243.949219 L 169.472656 248.449219 L 173.976562 252.953125 Z M 167.21875 245.941406 L 171.722656 241.4375 L 167.21875 236.929688 L 162.710938 241.4375 Z M 169.472656 234.039062 L 173.976562 238.542969 L 178.484375 234.039062 L 173.976562 229.535156 Z M 214.851562 226.847656 L 215.871094 225.824219 C 215.378906 223.082031 213.273438 219.414062 213.273438 219.414062 L 210.34375 222.34375 Z M 208.128906 219.835938 L 211.363281 216.601562 C 211.363281 216.601562 209.269531 213.847656 206.898438 212.054688 L 203.621094 215.328125 Z M 203.960938 209.957031 C 203.960938 209.957031 201.238281 208.132812 197.910156 206.945312 L 196.636719 208.265625 L 201.140625 212.769531 Z M 165.003906 222.34375 L 162.074219 219.414062 C 162.074219 219.414062 159.96875 223.082031 159.472656 225.824219 L 160.496094 226.847656 Z M 169.472656 222.34375 L 173.976562 226.847656 L 178.484375 222.34375 L 173.976562 217.839844 Z M 162.710938 228.019531 L 167.21875 232.523438 L 171.722656 228.019531 L 167.21875 223.515625 Z M 171.722656 215.328125 L 168.445312 212.054688 C 166.078125 213.847656 163.984375 216.601562 163.984375 216.601562 L 167.21875 219.835938 Z M 205.878906 248.449219 L 201.371094 243.949219 L 196.867188 248.449219 L 201.371094 252.953125 Z M 192.304688 248.449219 L 187.796875 243.949219 L 183.292969 248.449219 L 187.796875 252.953125 Z M 212.476562 241.4375 L 207.96875 236.929688 L 203.464844 241.4375 L 207.96875 245.941406 Z M 198.65625 241.4375 L 194.152344 236.929688 L 189.644531 241.4375 L 194.152344 245.941406 Z M 185.542969 241.4375 L 181.039062 236.929688 L 176.53125 241.4375 L 181.039062 245.941406 Z M 205.65625 234.039062 L 201.148438 229.535156 L 196.640625 234.039062 L 201.148438 238.542969 Z M 192.304688 234.039062 L 187.796875 229.535156 L 183.292969 234.039062 L 187.796875 238.542969 Z M 196.660156 222.34375 L 201.167969 226.847656 L 205.671875 222.34375 L 201.167969 217.839844 Z M 183.292969 222.34375 L 187.796875 226.847656 L 192.304688 222.34375 L 187.796875 217.839844 Z M 207.96875 223.515625 L 203.464844 228.019531 L 207.96875 232.523438 L 212.476562 228.019531 Z M 189.644531 228.019531 L 194.152344 232.523438 L 198.65625 228.019531 L 194.152344 223.515625 Z M 176.53125 228.019531 L 181.039062 232.523438 L 185.542969 228.019531 L 181.039062 223.515625 Z M 194.152344 219.835938 L 198.65625 215.328125 L 194.152344 210.820312 L 189.644531 215.328125 Z M 181.039062 219.835938 L 185.542969 215.328125 L 181.039062 210.820312 L 176.53125 215.328125 Z M 178.707031 208.265625 L 177.433594 206.945312 C 174.105469 208.132812 171.390625 209.957031 171.390625 209.957031 L 174.203125 212.769531 Z M 192.304688 207.929688 L 187.796875 203.425781 L 183.292969 207.929688 L 187.796875 212.433594 Z M 266.742188 249.703125 L 269.523438 252.484375 L 270.605469 251.398438 L 270.605469 248.007812 L 269.523438 246.921875 Z M 266.742188 258.546875 L 269.523438 261.324219 L 270.605469 260.238281 L 270.605469 256.851562 L 269.523438 255.761719 Z M 262.441406 262.601562 L 262.878906 263.042969 L 267.566406 263.042969 L 268.003906 262.601562 L 265.222656 259.820312 Z M 259.820312 262.601562 L 257.039062 259.820312 L 254.261719 262.601562 L 254.699219 263.042969 L 259.382812 263.042969 Z M 245.871094 262.601562 L 246.308594 263.042969 L 250.992188 263.042969 L 251.429688 262.601562 L 248.652344 259.820312 Z M 237.414062 262.601562 L 237.851562 263.042969 L 242.53125 263.042969 L 242.972656 262.601562 L 240.191406 259.820312 Z M 236.320312 255.761719 L 235.058594 257.03125 L 235.070312 260.074219 L 236.320312 261.324219 L 239.101562 258.546875 Z M 239.101562 249.648438 L 236.320312 246.867188 L 235.035156 248.160156 L 235.054688 251.199219 L 236.320312 252.429688 Z M 244.367188 255.761719 L 241.585938 258.546875 L 244.367188 261.324219 L 247.148438 258.546875 Z M 240.191406 256.996094 L 242.976562 254.214844 L 240.191406 251.4375 L 237.414062 254.214844 Z M 247.148438 249.648438 L 244.367188 246.867188 L 241.585938 249.648438 L 244.367188 252.429688 Z M 270.21875 244.582031 C 269.914062 242.886719 268.617188 240.625 268.617188 240.625 L 266.808594 242.429688 L 269.589844 245.210938 Z M 267.4375 238.886719 C 267.4375 238.886719 266.144531 237.1875 264.679688 236.082031 L 262.660156 238.101562 L 265.441406 240.882812 Z M 258.347656 233.742188 L 261.128906 236.523438 L 262.867188 234.789062 C 262.867188 234.789062 261.191406 233.660156 259.136719 232.929688 Z M 238.824219 242.429688 L 237.019531 240.625 C 237.019531 240.625 235.714844 242.886719 235.414062 244.582031 L 236.042969 245.210938 Z M 241.585938 242.429688 L 244.367188 245.210938 L 247.148438 242.429688 L 244.367188 239.652344 Z M 237.414062 245.933594 L 240.191406 248.714844 L 242.976562 245.933594 L 240.191406 243.152344 Z M 242.976562 238.101562 L 240.953125 236.082031 C 239.492188 237.1875 238.195312 238.886719 238.195312 238.886719 L 240.191406 240.882812 Z M 261.273438 255.761719 L 258.492188 258.546875 L 261.273438 261.324219 L 264.050781 258.546875 Z M 252.894531 255.761719 L 250.113281 258.546875 L 252.894531 261.324219 L 255.671875 258.546875 Z M 268.125 254.214844 L 265.34375 251.4375 L 262.5625 254.214844 L 265.34375 256.996094 Z M 259.59375 254.214844 L 256.8125 251.4375 L 254.03125 254.214844 L 256.8125 256.996094 Z M 251.5 254.214844 L 248.722656 251.4375 L 245.941406 254.214844 L 248.722656 256.996094 Z M 263.914062 249.648438 L 261.132812 246.867188 L 258.351562 249.648438 L 261.132812 252.429688 Z M 255.671875 249.648438 L 252.894531 246.867188 L 250.113281 249.648438 L 252.894531 252.429688 Z M 261.144531 239.652344 L 258.367188 242.429688 L 261.144531 245.210938 L 263.925781 242.429688 Z M 255.671875 242.429688 L 252.894531 239.652344 L 250.113281 242.429688 L 252.894531 245.210938 Z M 265.34375 243.152344 L 262.5625 245.933594 L 265.34375 248.714844 L 268.125 245.933594 Z M 259.59375 245.933594 L 256.8125 243.152344 L 254.03125 245.933594 L 256.8125 248.714844 Z M 245.941406 245.933594 L 248.722656 248.714844 L 251.5 245.933594 L 248.722656 243.152344 Z M 254.03125 238.101562 L 256.8125 240.882812 L 259.59375 238.101562 L 256.8125 235.324219 Z M 245.941406 238.101562 L 248.722656 240.882812 L 251.5 238.101562 L 248.722656 235.324219 Z M 244.503906 236.523438 L 247.285156 233.742188 L 246.5 232.929688 C 244.445312 233.660156 242.765625 234.789062 242.765625 234.789062 Z M 250.113281 233.535156 L 252.894531 236.316406 L 255.671875 233.535156 L 252.894531 230.757812 Z M 138.679688 249.703125 L 141.460938 252.484375 L 142.546875 251.398438 L 142.546875 248.007812 L 141.460938 246.921875 Z M 138.679688 258.546875 L 141.460938 261.324219 L 142.546875 260.238281 L 142.546875 256.851562 L 141.460938 255.761719 Z M 134.378906 262.601562 L 134.820312 263.042969 L 139.503906 263.042969 L 139.941406 262.601562 L 137.160156 259.820312 Z M 126.199219 262.601562 L 126.640625 263.042969 L 131.320312 263.042969 L 131.761719 262.601562 L 128.980469 259.820312 Z M 117.808594 262.601562 L 118.25 263.042969 L 122.933594 263.042969 L 123.371094 262.601562 L 120.589844 259.820312 Z M 114.914062 262.601562 L 112.132812 259.820312 L 109.351562 262.601562 L 109.789062 263.042969 L 114.472656 263.042969 Z M 108.261719 255.761719 L 106.996094 257.03125 L 107.007812 260.074219 L 108.261719 261.324219 L 111.042969 258.546875 Z M 111.042969 249.648438 L 108.261719 246.867188 L 106.976562 248.160156 L 106.992188 251.199219 L 108.261719 252.429688 Z M 116.304688 255.761719 L 113.523438 258.546875 L 116.304688 261.324219 L 119.085938 258.546875 Z M 112.132812 256.996094 L 114.914062 254.214844 L 112.132812 251.4375 L 109.351562 254.214844 Z M 116.304688 252.429688 L 119.085938 249.648438 L 116.304688 246.867188 L 113.523438 249.648438 Z M 141.527344 245.210938 L 142.160156 244.582031 C 141.855469 242.886719 140.558594 240.625 140.558594 240.625 L 138.75 242.429688 Z M 137.382812 240.882812 L 139.378906 238.886719 C 139.378906 238.886719 138.085938 237.1875 136.621094 236.082031 L 134.601562 238.101562 Z M 130.289062 233.742188 L 133.070312 236.523438 L 134.808594 234.789062 C 134.808594 234.789062 133.128906 233.660156 131.074219 232.929688 Z M 107.355469 244.582031 L 107.984375 245.210938 L 110.765625 242.429688 L 108.957031 240.625 C 108.957031 240.625 107.65625 242.886719 107.355469 244.582031 Z M 116.304688 239.652344 L 113.523438 242.429688 L 116.304688 245.210938 L 119.085938 242.429688 Z M 114.914062 245.933594 L 112.132812 243.152344 L 109.351562 245.933594 L 112.132812 248.714844 Z M 110.136719 238.886719 L 112.132812 240.882812 L 114.914062 238.101562 L 112.890625 236.082031 C 111.429688 237.1875 110.136719 238.886719 110.136719 238.886719 Z M 133.210938 255.761719 L 130.429688 258.546875 L 133.210938 261.324219 L 135.992188 258.546875 Z M 124.832031 255.761719 L 122.050781 258.546875 L 124.832031 261.324219 L 127.613281 258.546875 Z M 140.066406 254.214844 L 137.28125 251.4375 L 134.5 254.214844 L 137.28125 256.996094 Z M 131.535156 254.214844 L 128.753906 251.4375 L 125.972656 254.214844 L 128.753906 256.996094 Z M 123.441406 254.214844 L 120.660156 251.4375 L 117.878906 254.214844 L 120.660156 256.996094 Z M 135.855469 249.648438 L 133.074219 246.867188 L 130.292969 249.648438 L 133.074219 252.429688 Z M 127.613281 249.648438 L 124.832031 246.867188 L 122.050781 249.648438 L 124.832031 252.429688 Z M 135.867188 242.429688 L 133.085938 239.652344 L 130.304688 242.429688 L 133.085938 245.210938 Z M 127.613281 242.429688 L 124.832031 239.652344 L 122.050781 242.429688 L 124.832031 245.210938 Z M 137.28125 243.152344 L 134.5 245.933594 L 137.28125 248.714844 L 140.066406 245.933594 Z M 131.535156 245.933594 L 128.753906 243.152344 L 125.972656 245.933594 L 128.753906 248.714844 Z M 123.441406 245.933594 L 120.660156 243.152344 L 117.878906 245.933594 L 120.660156 248.714844 Z M 125.972656 238.101562 L 128.753906 240.882812 L 131.535156 238.101562 L 128.753906 235.324219 Z M 117.878906 238.101562 L 120.660156 240.882812 L 123.441406 238.101562 L 120.660156 235.324219 Z M 114.707031 234.789062 L 116.445312 236.523438 L 119.226562 233.742188 L 118.4375 232.929688 C 116.382812 233.660156 114.707031 234.789062 114.707031 234.789062 Z M 122.050781 233.535156 L 124.832031 236.316406 L 127.613281 233.535156 L 124.832031 230.757812 Z M 266.441406 110.25 L 248.527344 110.25 L 248.527344 111.890625 L 266.441406 111.890625 Z M 246.097656 169.0625 L 268.664062 169.0625 L 268.664062 166.816406 L 246.097656 166.816406 Z M 241.039062 153.601562 L 273.679688 153.601562 L 273.679688 149.6875 L 241.039062 149.6875 Z M 263.257812 79.617188 L 262.277344 79.617188 L 262.277344 92.839844 L 263.257812 92.839844 Z M 253.3125 79.617188 L 252.332031 79.617188 L 252.332031 92.839844 L 253.3125 92.839844 Z M 258.074219 79.617188 L 257.089844 79.617188 L 257.089844 92.839844 L 258.074219 92.839844 Z M 253.410156 134.996094 L 250.628906 137.773438 C 250.863281 137.773438 256.191406 137.773438 256.191406 137.773438 Z M 261.675781 134.996094 L 258.894531 137.773438 C 259.128906 137.773438 264.457031 137.773438 264.457031 137.773438 Z M 258.894531 113.136719 L 261.675781 115.917969 L 264.457031 113.136719 C 264.222656 113.136719 258.894531 113.136719 258.894531 113.136719 Z M 253.410156 115.917969 L 256.191406 113.136719 C 255.953125 113.136719 250.628906 113.136719 250.628906 113.136719 Z M 265.875 131.558594 L 263.097656 134.335938 L 265.875 137.117188 C 265.875 136.882812 265.875 131.558594 265.875 131.558594 Z M 249.101562 137.117188 L 251.882812 134.335938 L 249.101562 131.558594 C 249.101562 131.796875 249.101562 137.117188 249.101562 137.117188 Z M 260.535156 134.363281 L 257.753906 131.585938 L 254.976562 134.363281 L 257.753906 137.144531 Z M 249.101562 128.460938 L 251.882812 125.679688 L 249.101562 122.898438 C 249.101562 123.132812 249.101562 128.460938 249.101562 128.460938 Z M 260.535156 125.703125 L 257.753906 122.925781 L 254.976562 125.703125 L 257.753906 128.488281 Z M 265.875 114.003906 L 263.097656 116.785156 L 265.875 119.566406 C 265.875 119.328125 265.875 114.003906 265.875 114.003906 Z M 249.101562 119.566406 L 251.882812 116.785156 L 249.101562 114.003906 C 249.101562 114.242188 249.101562 119.566406 249.101562 119.566406 Z M 264.457031 130.035156 L 261.675781 127.253906 L 258.894531 130.035156 L 261.675781 132.816406 Z M 253.582031 132.816406 L 256.363281 130.035156 L 253.582031 127.253906 L 250.800781 130.035156 Z M 261.675781 118.597656 L 258.894531 121.375 L 261.675781 124.15625 L 264.457031 121.375 Z M 253.582031 118.597656 L 250.800781 121.375 L 253.582031 124.15625 L 256.363281 121.375 Z M 254.976562 116.808594 L 257.753906 119.589844 L 260.535156 116.808594 L 257.753906 114.03125 Z M 265.875 122.898438 L 263.097656 125.679688 L 265.875 128.460938 C 265.875 128.222656 265.875 122.898438 265.875 122.898438 Z M 126.5 110.25 L 108.585938 110.25 L 108.585938 111.890625 L 126.5 111.890625 Z M 128.722656 166.816406 L 106.15625 166.816406 L 106.15625 169.0625 L 128.722656 169.0625 Z M 133.738281 149.6875 L 101.09375 149.6875 L 101.09375 153.601562 L 133.738281 153.601562 Z M 123.316406 79.617188 L 122.332031 79.617188 L 122.332031 92.839844 L 123.316406 92.839844 Z M 113.367188 79.617188 L 112.386719 79.617188 L 112.386719 92.839844 L 113.367188 92.839844 Z M 118.132812 79.617188 L 117.148438 79.617188 L 117.148438 92.839844 L 118.132812 92.839844 Z M 113.46875 134.996094 L 110.6875 137.773438 C 110.921875 137.773438 116.25 137.773438 116.25 137.773438 Z M 121.734375 134.996094 L 118.953125 137.773438 C 119.1875 137.773438 124.515625 137.773438 124.515625 137.773438 Z M 118.953125 113.136719 L 121.734375 115.917969 L 124.515625 113.136719 C 124.28125 113.136719 118.953125 113.136719 118.953125 113.136719 Z M 113.46875 115.917969 L 116.25 113.136719 C 116.007812 113.136719 110.6875 113.136719 110.6875 113.136719 Z M 125.933594 131.558594 L 123.152344 134.335938 L 125.933594 137.117188 C 125.933594 136.882812 125.933594 131.558594 125.933594 131.558594 Z M 109.160156 137.117188 L 111.941406 134.335938 L 109.160156 131.558594 C 109.160156 131.796875 109.160156 137.117188 109.160156 137.117188 Z M 120.59375 134.363281 L 117.8125 131.585938 L 115.03125 134.363281 L 117.8125 137.144531 Z M 109.160156 128.460938 L 111.941406 125.679688 L 109.160156 122.898438 C 109.160156 123.132812 109.160156 128.460938 109.160156 128.460938 Z M 120.59375 125.703125 L 117.8125 122.925781 L 115.03125 125.703125 L 117.8125 128.488281 Z M 125.933594 114.003906 L 123.152344 116.785156 L 125.933594 119.566406 C 125.933594 119.328125 125.933594 114.003906 125.933594 114.003906 Z M 109.160156 119.566406 L 111.941406 116.785156 L 109.160156 114.003906 C 109.160156 114.242188 109.160156 119.566406 109.160156 119.566406 Z M 124.515625 130.035156 L 121.734375 127.253906 L 118.953125 130.035156 L 121.734375 132.816406 Z M 113.640625 132.816406 L 116.421875 130.035156 L 113.640625 127.253906 L 110.859375 130.035156 Z M 121.734375 118.597656 L 118.953125 121.375 L 121.734375 124.15625 L 124.515625 121.375 Z M 113.640625 118.597656 L 110.859375 121.375 L 113.640625 124.15625 L 116.421875 121.375 Z M 115.03125 116.808594 L 117.8125 119.589844 L 120.59375 116.808594 L 117.8125 114.03125 Z M 125.933594 122.898438 L 123.152344 125.679688 L 125.933594 128.460938 C 125.933594 128.222656 125.933594 122.898438 125.933594 122.898438 Z M 149.867188 296.546875 L 225.070312 296.546875 L 225.070312 299.960938 L 149.867188 299.960938 L 149.867188 296.546875 "/></g><path style=" stroke:none;fill-rule:nonzero;fill:#e0b667;fill-opacity:1;" d="M 216.691406 255.929688 L 158.71875 255.929688 L 158.71875 228.683594 C 158.722656 228.644531 159.074219 224.515625 161.796875 219.691406 C 164.296875 215.25 169.386719 209.285156 179.46875 206.058594 C 183.988281 204.253906 186.199219 202.042969 187.277344 200.375 L 187.277344 200.992188 L 188.261719 200.992188 L 188.261719 200.554688 C 189.386719 202.203125 191.605469 204.324219 195.992188 206.078125 C 206.023438 209.285156 211.113281 215.25 213.617188 219.691406 C 216.332031 224.507812 216.6875 228.628906 216.691406 228.628906 Z M 184.644531 177.757812 C 184.644531 176.046875 186.039062 174.652344 187.753906 174.652344 C 189.464844 174.652344 190.859375 176.046875 190.859375 177.757812 C 190.859375 179.300781 189.730469 180.570312 188.261719 180.816406 L 188.261719 177.511719 L 187.277344 177.511719 L 187.277344 180.816406 C 185.789062 180.589844 184.644531 179.308594 184.644531 177.757812 Z M 196.492188 204.691406 C 189.121094 201.742188 188.585938 197.769531 188.582031 197.738281 L 188.523438 197.066406 L 188.261719 197.066406 L 188.261719 181.796875 C 190.277344 181.542969 191.84375 179.84375 191.84375 177.757812 C 191.84375 175.503906 190.011719 173.667969 187.753906 173.667969 C 185.496094 173.667969 183.664062 175.503906 183.664062 177.757812 C 183.664062 179.851562 185.25 181.5625 187.277344 181.800781 L 187.277344 197.074219 L 186.90625 197.078125 L 186.828125 197.730469 C 186.824219 197.769531 186.292969 201.742188 178.96875 204.675781 C 158.804688 211.125 157.257812 228.402344 157.246094 228.628906 L 157.246094 257.40625 L 218.167969 257.40625 L 218.164062 228.574219 C 218.148438 228.402344 216.609375 211.125 196.492188 204.691406 Z M 270.441406 262.878906 L 235.230469 262.878906 L 235.230469 246.367188 C 235.261719 245.964844 236.160156 236.390625 247.859375 232.644531 C 250.503906 231.585938 251.898438 230.296875 252.640625 229.253906 L 253.035156 229.253906 C 253.785156 230.300781 255.195312 231.597656 257.863281 232.660156 C 269.515625 236.390625 270.410156 245.964844 270.441406 246.308594 Z M 251.136719 214.917969 C 251.136719 213.960938 251.910156 213.1875 252.863281 213.1875 C 253.820312 213.1875 254.59375 213.960938 254.59375 214.917969 C 254.59375 215.695312 254.074219 216.34375 253.371094 216.5625 L 253.371094 214.761719 L 252.386719 214.761719 L 252.386719 216.566406 C 251.667969 216.359375 251.136719 215.703125 251.136719 214.917969 Z M 271.914062 246.253906 C 271.910156 246.144531 270.941406 235.296875 258.363281 231.277344 C 254.003906 229.53125 253.660156 227.234375 253.660156 227.222656 L 253.597656 226.550781 L 253.371094 226.550781 L 253.371094 217.578125 C 254.625 217.339844 255.578125 216.242188 255.578125 214.917969 C 255.578125 213.421875 254.363281 212.207031 252.863281 212.207031 C 251.371094 212.207031 250.152344 213.421875 250.152344 214.917969 C 250.152344 216.246094 251.117188 217.351562 252.386719 217.582031 L 252.386719 226.5625 L 252.097656 226.566406 L 252.015625 227.210938 C 252.011719 227.234375 251.667969 229.53125 247.359375 231.257812 C 234.734375 235.296875 233.765625 246.144531 233.757812 246.308594 L 233.757812 264.351562 L 271.917969 264.351562 Z M 142.382812 262.878906 L 107.171875 262.878906 L 107.171875 246.367188 C 107.175781 246.265625 108.058594 236.402344 119.800781 232.644531 C 122.441406 231.585938 123.839844 230.296875 124.582031 229.253906 L 124.976562 229.253906 C 125.726562 230.300781 127.132812 231.597656 129.804688 232.660156 C 141.457031 236.390625 142.351562 245.964844 142.382812 246.308594 Z M 123.074219 214.917969 C 123.074219 213.960938 123.851562 213.1875 124.804688 213.1875 C 125.757812 213.1875 126.535156 213.960938 126.535156 214.917969 C 126.535156 215.695312 126.015625 216.347656 125.308594 216.5625 L 125.308594 214.761719 L 124.324219 214.761719 L 124.324219 216.566406 C 123.609375 216.359375 123.074219 215.703125 123.074219 214.917969 Z M 130.304688 231.277344 C 125.945312 229.53125 125.601562 227.234375 125.601562 227.222656 L 125.539062 226.550781 L 125.308594 226.550781 L 125.308594 217.578125 C 126.566406 217.339844 127.519531 216.242188 127.519531 214.917969 C 127.519531 213.421875 126.304688 212.207031 124.804688 212.207031 C 123.3125 212.207031 122.09375 213.421875 122.09375 214.917969 C 122.09375 216.246094 123.058594 217.351562 124.324219 217.578125 L 124.324219 226.5625 L 124.039062 226.566406 L 123.957031 227.210938 C 123.953125 227.234375 123.609375 229.53125 119.300781 231.257812 C 106.675781 235.296875 105.707031 246.144531 105.699219 246.308594 L 105.699219 264.351562 L 143.859375 264.351562 L 143.855469 246.253906 C 143.847656 246.144531 142.878906 235.296875 130.304688 231.277344 "/></g></svg>