<svg xmlns="http://www.w3.org/2000/svg" xmlns:xlink="http://www.w3.org/1999/xlink" width="500" zoomAndPan="magnify" viewBox="0 0 375 374.999991" height="500" preserveAspectRatio="xMidYMid meet" version="1.2"><defs><clipPath id="ad78434485"><path d="M 74 69 L 307.023438 69 L 307.023438 366 L 74 366 Z M 74 69 "/></clipPath><clipPath id="28715de9c6"><path d="M 76 166 L 307.023438 166 L 307.023438 366 L 76 366 Z M 76 166 "/></clipPath></defs><g id="12a4b3cac6"><path style=" stroke:none;fill-rule:nonzero;fill:#dba660;fill-opacity:1;" d="M 146.773438 125.238281 C 141.835938 125.238281 137.839844 121.148438 137.839844 116.203125 C 137.839844 79.625 244.148438 79.625 244.148438 116.203125 C 244.148438 121.148438 240.140625 125.160156 235.207031 125.160156 C 230.273438 125.160156 226.265625 121.148438 226.265625 116.203125 C 225.457031 113.566406 213.382812 106.269531 191 106.269531 C 168.617188 106.269531 156.53125 113.566406 155.714844 116.34375 C 155.714844 121.289062 151.71875 125.238281 146.773438 125.238281 Z M 146.773438 125.238281 "/><path style=" stroke:none;fill-rule:nonzero;fill:#c9cee2;fill-opacity:1;" d="M 237.367188 55.378906 C 239.648438 65.335938 239.648438 75.289062 237.367188 85.238281 C 226.816406 75.996094 226.816406 66.042969 237.367188 55.378906 Z M 237.367188 55.378906 "/><path style=" stroke:none;fill-rule:nonzero;fill:#c9cee2;fill-opacity:1;" d="M 144.15625 55.792969 C 141.875 65.746094 141.558594 76.378906 144.296875 85.5 C 154.847656 76.257812 154.707031 66.457031 144.15625 55.792969 Z M 144.15625 55.792969 "/><g clip-rule="nonzero" clip-path="url(#ad78434485)"><path style=" stroke:none;fill-rule:nonzero;fill:#e3e7f0;fill-opacity:1;" d="M 307.15625 248.449219 C 307.15625 296.613281 278.871094 338.839844 236.722656 355.863281 C 206.425781 368.1875 174.785156 368.523438 144.265625 355.863281 C 102.691406 338.589844 67.777344 290.261719 75.398438 232.65625 C 80.316406 194.015625 105.359375 160.859375 139.011719 143.835938 C 142.140625 142.265625 144.824219 140.363281 147.171875 138.011719 C 149.296875 136.109375 150.972656 134.089844 152.425781 131.738281 C 152.648438 131.402344 152.761719 131.179688 152.875 130.84375 C 156.003906 125.914062 157.679688 120.199219 157.792969 114.152344 L 157.792969 69.910156 L 223.753906 69.910156 L 223.753906 114.824219 C 224.089844 120.089844 225.542969 125.242188 228.113281 129.722656 C 228.339844 130.507812 228.785156 131.179688 229.234375 131.851562 C 230.351562 133.753906 231.691406 135.546875 233.257812 137.113281 C 240.535156 145.066406 247.613281 144.238281 265.007812 158.621094 C 290.835938 180.011719 307.15625 212.273438 307.15625 248.449219 Z M 307.15625 248.449219 "/></g><path style=" stroke:none;fill-rule:nonzero;fill:#c9cee2;fill-opacity:1;" d="M 258.636719 179.453125 C 259.195312 184.398438 255.976562 189.421875 247.457031 189.421875 C 236.277344 189.421875 217.941406 184.492188 211.34375 165.117188 C 208.007812 155.421875 198.753906 149.878906 188.761719 148.089844 C 172.886719 147.980469 157.234375 144.730469 147.171875 138.011719 C 149.296875 136.109375 150.972656 134.089844 152.425781 131.738281 C 152.648438 131.402344 152.761719 131.179688 152.875 130.84375 C 160.699219 134.539062 170.539062 136.890625 180.824219 137.675781 C 181.046875 136.332031 181.605469 135.097656 182.277344 133.980469 C 184.066406 131.289062 187.195312 129.722656 190.550781 130.28125 C 193.277344 130.28125 201.988281 132.648438 208.328125 136.21875 L 208.4375 136.21875 C 215.816406 134.875 222.636719 132.746094 228.113281 129.722656 C 228.339844 130.507812 228.785156 131.179688 229.234375 131.851562 C 230.351562 133.753906 231.691406 135.546875 233.257812 137.113281 C 229.34375 140.027344 224.3125 142.378906 218.722656 144.058594 C 222.746094 148.089844 225.898438 152.632812 228.226562 159.292969 C 232.921875 172.84375 248.351562 171.5 248.910156 171.390625 C 253.714844 170.828125 258.1875 174.523438 258.636719 179.453125 Z M 258.636719 179.453125 "/><path style=" stroke:none;fill-rule:nonzero;fill:#c9cee2;fill-opacity:1;" d="M 229.234375 131.851562 C 209.3125 142.492188 173.242188 142.738281 152.425781 131.738281 C 155.78125 126.585938 157.679688 120.535156 157.792969 114.152344 C 170.824219 124.113281 208.3125 124.914062 223.753906 114.601562 L 223.753906 114.824219 C 224.089844 120.875 225.988281 126.808594 229.234375 131.851562 Z M 229.234375 131.851562 "/><path style=" stroke:none;fill-rule:nonzero;fill:#df3260;fill-opacity:1;" d="M 292.011719 247.824219 C 291.753906 282.292969 275.296875 314.738281 245.664062 332.371094 C 209.917969 353.640625 171.625 353.671875 135.695312 332.371094 C 105.972656 314.753906 90.121094 282.164062 89.992188 247.824219 Z M 292.011719 247.824219 "/><path style=" stroke:none;fill-rule:nonzero;fill:#c9cee2;fill-opacity:1;" d="M 237.894531 81.980469 C 237.894531 94.753906 216.828125 105.121094 190.871094 105.121094 C 164.820312 105.121094 143.757812 94.753906 143.757812 81.980469 C 143.757812 69.210938 164.820312 58.84375 190.871094 58.84375 C 216.828125 58.84375 237.894531 69.210938 237.894531 81.980469 Z M 237.894531 81.980469 "/><path style=" stroke:none;fill-rule:nonzero;fill:#e3e7f0;fill-opacity:1;" d="M 237.894531 58.84375 C 237.894531 71.617188 216.828125 81.980469 190.871094 81.980469 C 164.820312 81.980469 143.757812 71.617188 143.757812 58.84375 C 143.757812 46.070312 164.820312 35.703125 190.871094 35.703125 C 216.828125 35.703125 237.894531 46.070312 237.894531 58.84375 Z M 237.894531 58.84375 "/><path style=" stroke:none;fill-rule:nonzero;fill:#d0cef2;fill-opacity:1;" d="M 190.871094 72.304688 C 166.546875 72.304688 153.417969 62.75 153.417969 58.847656 C 153.417969 54.226562 168.007812 45.382812 190.871094 45.382812 C 213.683594 45.382812 228.230469 54.226562 228.230469 58.847656 C 228.230469 63.464844 213.683594 72.304688 190.871094 72.304688 Z M 190.871094 72.304688 "/><path style=" stroke:none;fill-rule:nonzero;fill:#9ea9c9;fill-opacity:1;" d="M 155.5 55.378906 L 156.871094 63.503906 C 154.585938 61.671875 153.445312 59.957031 153.445312 58.8125 C 153.445312 57.78125 154.128906 56.640625 155.5 55.378906 Z M 155.5 55.378906 "/><path style=" stroke:none;fill-rule:nonzero;fill:#9ea9c9;fill-opacity:1;" d="M 228.226562 58.8125 C 228.226562 60.183594 226.972656 61.902344 224.804688 63.617188 L 226.171875 55.378906 C 227.542969 56.640625 228.226562 57.78125 228.226562 58.8125 Z M 228.226562 58.8125 "/><path style=" stroke:none;fill-rule:nonzero;fill:#aa6256;fill-opacity:1;" d="M 231.078125 26.574219 C 231.078125 27.886719 225.96875 56.542969 226.164062 55.421875 L 224.792969 63.664062 C 219.195312 67.898438 207.199219 72.363281 190.859375 72.363281 C 173.722656 72.363281 162.179688 67.554688 156.925781 63.550781 L 155.554688 55.421875 C 153.429688 43.101562 150.640625 27.902344 150.640625 26.574219 C 150.640625 15.703125 168.578125 6.773438 190.746094 6.773438 C 213.027344 6.773438 231.078125 15.703125 231.078125 26.574219 Z M 231.078125 26.574219 "/><path style=" stroke:none;fill-rule:nonzero;fill:#bf7d5a;fill-opacity:1;" d="M 231.039062 26.574219 C 231.039062 37.484375 213.042969 46.34375 190.863281 46.34375 C 168.605469 46.34375 150.609375 37.484375 150.609375 26.574219 C 150.609375 15.660156 168.605469 6.800781 190.863281 6.800781 C 213.042969 6.800781 231.039062 15.660156 231.039062 26.574219 Z M 231.039062 26.574219 "/><path style=" stroke:none;fill-rule:nonzero;fill:#f45170;fill-opacity:1;" d="M 291.980469 247.84375 C 291.980469 263.613281 246.785156 276.410156 191.085938 276.410156 C 135.1875 276.410156 89.996094 263.613281 89.996094 247.84375 C 89.996094 232.078125 135.1875 219.28125 191.085938 219.28125 C 246.785156 219.28125 291.980469 232.078125 291.980469 247.84375 Z M 291.980469 247.84375 "/><path style=" stroke:none;fill-rule:nonzero;fill:#ffffff;fill-opacity:0.7;" d="M 175.945312 157.550781 C 183.539062 166.199219 165.96875 180.007812 145.773438 195.582031 C 125.316406 211.164062 109.832031 223.785156 101.835938 217.738281 C 94.019531 211.863281 98.875 190.480469 119.695312 172.222656 C 140.304688 153.925781 168.550781 148.890625 175.945312 157.550781 Z M 175.945312 157.550781 "/><path style=" stroke:none;fill-rule:nonzero;fill:#ffffff;fill-opacity:0.3;" d="M 130.9375 301.429688 C 130.9375 304.550781 128.472656 306.890625 125.488281 306.890625 C 122.503906 306.890625 120.039062 304.550781 120.039062 301.429688 C 120.039062 298.441406 122.503906 296.101562 125.488281 296.101562 C 128.472656 296.101562 130.9375 298.441406 130.9375 301.429688 Z M 130.9375 301.429688 "/><path style=" stroke:none;fill-rule:nonzero;fill:#ffffff;fill-opacity:0.3;" d="M 166.769531 312.414062 C 166.769531 316.433594 163.59375 319.449219 159.746094 319.449219 C 155.902344 319.449219 152.726562 316.433594 152.726562 312.414062 C 152.726562 308.5625 155.902344 305.546875 159.746094 305.546875 C 163.59375 305.546875 166.769531 308.5625 166.769531 312.414062 Z M 166.769531 312.414062 "/><path style=" stroke:none;fill-rule:nonzero;fill:#ffffff;fill-opacity:0.3;" d="M 255.277344 298.691406 C 255.277344 302.707031 252.097656 305.722656 248.253906 305.722656 C 244.410156 305.722656 241.234375 302.707031 241.234375 298.691406 C 241.234375 294.835938 244.410156 291.824219 248.253906 291.824219 C 252.097656 291.824219 255.277344 294.835938 255.277344 298.691406 Z M 255.277344 298.691406 "/><path style=" stroke:none;fill-rule:nonzero;fill:#ffffff;fill-opacity:0.3;" d="M 150.234375 288.234375 C 150.234375 290.285156 148.613281 291.824219 146.652344 291.824219 C 144.691406 291.824219 143.070312 290.285156 143.070312 288.234375 C 143.070312 286.269531 144.691406 284.734375 146.652344 284.734375 C 148.613281 284.734375 150.234375 286.269531 150.234375 288.234375 Z M 150.234375 288.234375 "/><path style=" stroke:none;fill-rule:nonzero;fill:#ffffff;fill-opacity:0.3;" d="M 220.382812 322.949219 C 220.382812 325 218.765625 326.539062 216.804688 326.539062 C 214.84375 326.539062 213.222656 325 213.222656 322.949219 C 213.222656 320.984375 214.84375 319.449219 216.804688 319.449219 C 218.765625 319.449219 220.382812 320.984375 220.382812 322.949219 Z M 220.382812 322.949219 "/><path style=" stroke:none;fill-rule:nonzero;fill:#ffffff;fill-opacity:0.3;" d="M 214.054688 290.1875 C 214.054688 292.695312 212.078125 294.574219 209.679688 294.574219 C 207.285156 294.574219 205.304688 292.695312 205.304688 290.1875 C 205.304688 287.789062 207.285156 285.910156 209.679688 285.910156 C 212.078125 285.910156 214.054688 287.789062 214.054688 290.1875 Z M 214.054688 290.1875 "/><path style=" stroke:none;fill-rule:nonzero;fill:#ffffff;fill-opacity:0.3;" d="M 184.65625 296.074219 C 184.65625 297.328125 183.664062 298.269531 182.464844 298.269531 C 181.261719 298.269531 180.273438 297.328125 180.273438 296.074219 C 180.273438 294.871094 181.261719 293.929688 182.464844 293.929688 C 183.664062 293.929688 184.65625 294.871094 184.65625 296.074219 Z M 184.65625 296.074219 "/><path style=" stroke:none;fill-rule:nonzero;fill:#ffffff;fill-opacity:0.3;" d="M 115.769531 281.453125 C 115.769531 282.707031 114.777344 283.648438 113.578125 283.648438 C 112.378906 283.648438 111.386719 282.707031 111.386719 281.453125 C 111.386719 280.25 112.378906 279.308594 113.578125 279.308594 C 114.777344 279.308594 115.769531 280.25 115.769531 281.453125 Z M 115.769531 281.453125 "/><path style=" stroke:none;fill-rule:nonzero;fill:#ffffff;fill-opacity:0.4;" d="M 151.945312 240.957031 C 152.042969 243.429688 147.007812 245.601562 140.789062 245.800781 C 134.472656 246 129.339844 244.21875 129.242188 241.648438 C 129.242188 241.449219 129.242188 241.152344 129.339844 240.957031 L 129.242188 240.957031 C 129.242188 234.921875 134.375 229.976562 140.59375 229.976562 C 146.910156 229.976562 151.945312 234.921875 151.945312 240.957031 Z M 151.945312 240.957031 "/><path style=" stroke:none;fill-rule:nonzero;fill:#ffffff;fill-opacity:0.4;" d="M 207.648438 262.4375 C 207.71875 264.253906 204.027344 265.847656 199.460938 265.996094 C 194.828125 266.140625 191.058594 264.832031 190.988281 262.945312 C 190.988281 262.800781 190.988281 262.582031 191.058594 262.4375 L 190.988281 262.4375 C 190.988281 258.011719 194.753906 254.382812 199.316406 254.382812 C 203.953125 254.382812 207.648438 258.011719 207.648438 262.4375 Z M 207.648438 262.4375 "/><path style=" stroke:none;fill-rule:nonzero;fill:#ffffff;fill-opacity:0.4;" d="M 249.664062 236.472656 C 249.738281 238.097656 246 239.53125 241.378906 239.660156 C 236.6875 239.789062 232.875 238.621094 232.800781 236.925781 C 232.800781 236.796875 232.800781 236.601562 232.875 236.472656 L 232.800781 236.472656 C 232.800781 232.5 236.613281 229.246094 241.234375 229.246094 C 245.925781 229.246094 249.664062 232.5 249.664062 236.472656 Z M 249.664062 236.472656 "/><path style=" stroke:none;fill-rule:nonzero;fill:#dba660;fill-opacity:1;" d="M 207.675781 26.554688 C 207.675781 32.308594 197.355469 34.792969 190.894531 34.792969 L 190.78125 34.792969 C 184.058594 34.792969 173.996094 32.238281 173.996094 26.554688 C 173.996094 21.980469 181.417969 18.320312 190.78125 18.320312 L 190.894531 18.320312 C 200.140625 18.320312 207.675781 21.980469 207.675781 26.554688 Z M 207.675781 26.554688 "/><path style=" stroke:none;fill-rule:nonzero;fill:#aa6256;fill-opacity:1;" d="M 207.65625 26.5625 C 207.65625 28.085938 206.765625 30.195312 205.332031 30.824219 C 202.425781 28.359375 197.035156 26.5625 190.886719 26.5625 L 190.773438 26.5625 C 184.511719 26.5625 179.128906 28.472656 176.332031 30.824219 C 174.867188 30.019531 174.003906 28.085938 174.003906 26.5625 C 174.003906 21.972656 181.382812 18.277344 190.773438 18.277344 L 190.886719 18.277344 C 200.164062 18.277344 207.65625 21.972656 207.65625 26.5625 Z M 207.65625 26.5625 "/><path style=" stroke:none;fill-rule:nonzero;fill:#ffffff;fill-opacity:0.4;" d="M 245.414062 232.058594 C 245.285156 232.789062 244.207031 233.097656 242.933594 232.867188 C 241.660156 232.640625 240.613281 231.949219 240.746094 231.21875 C 240.832031 230.734375 242.050781 230.453125 243.324219 230.679688 C 244.597656 230.910156 245.503906 231.574219 245.414062 232.058594 Z M 245.414062 232.058594 "/><path style=" stroke:none;fill-rule:nonzero;fill:#ffffff;fill-opacity:0.4;" d="M 133.21875 236.140625 C 133.671875 237.21875 135.4375 237.324219 137.320312 236.535156 C 139.207031 235.746094 140.582031 234.328125 140.132812 233.246094 C 139.832031 232.527344 137.855469 232.511719 135.972656 233.300781 C 134.085938 234.089844 132.917969 235.421875 133.21875 236.140625 Z M 133.21875 236.140625 "/><path style=" stroke:none;fill-rule:nonzero;fill:#dba660;fill-opacity:1;" d="M 260.089844 175.308594 C 260.648438 180.246094 257.472656 185.277344 248.910156 185.277344 C 237.730469 185.277344 219.394531 180.351562 212.796875 160.972656 C 209.097656 150.222656 199.96875 146.367188 189.878906 143.835938 C 185.070312 143.273438 181.605469 138.796875 182.164062 133.980469 C 182.886719 128.929688 187.136719 125.324219 192.003906 126.136719 C 192.5625 126.136719 197.929688 126.808594 204.636719 129.609375 C 216.613281 134.628906 225.40625 142.917969 229.679688 155.148438 C 234.375 168.699219 249.804688 167.355469 250.363281 167.246094 C 255.171875 166.683594 259.640625 170.382812 260.089844 175.308594 Z M 260.089844 175.308594 "/><path style=" stroke:none;fill-rule:nonzero;fill:#dba660;fill-opacity:1;" d="M 137.839844 116.203125 C 137.839844 111.257812 141.847656 107.246094 146.78125 107.246094 C 151.71875 107.246094 155.726562 111.257812 155.726562 116.203125 C 156.578125 118.785156 168.761719 126.035156 191 126.035156 C 213.238281 126.035156 225.414062 118.785156 226.285156 116.027344 C 226.285156 111.074219 230.28125 107.15625 235.21875 107.15625 C 240.152344 107.15625 244.148438 111.257812 244.148438 116.203125 C 244.148438 152.847656 137.839844 153.324219 137.839844 116.203125 Z M 137.839844 116.203125 "/><path style=" stroke:none;fill-rule:nonzero;fill:#bf7d5a;fill-opacity:1;" d="M 243.320312 110.839844 C 234.441406 141.398438 147.371094 141.414062 138.570312 111.128906 C 137.949219 113.089844 137.636719 116.074219 137.996094 118.570312 C 143.40625 155.988281 256.078125 150.890625 243.320312 110.839844 Z M 243.320312 110.839844 "/><g clip-rule="nonzero" clip-path="url(#28715de9c6)"><path style=" stroke:none;fill-rule:nonzero;fill:#c9cee2;fill-opacity:0.3;" d="M 273.855469 166.789062 C 276.464844 230.84375 236.648438 297.015625 154.285156 297.015625 C 121.59375 297.015625 95.714844 286.515625 76.410156 269.984375 C 83.953125 310.722656 112.824219 342.796875 144.265625 355.863281 C 174.785156 368.523438 206.425781 368.1875 236.722656 355.863281 C 278.871094 338.839844 307.15625 296.613281 307.15625 248.449219 C 307.15625 216.609375 294.496094 187.820312 273.855469 166.789062 Z M 273.855469 166.789062 "/></g><path style=" stroke:none;fill-rule:nonzero;fill:#ffffff;fill-opacity:1;" d="M 250.785156 261.65625 C 249.96875 261.308594 249.265625 261.929688 249.425781 262.742188 C 250.082031 266.503906 250.628906 269.808594 250.378906 270.066406 C 250.019531 269.867188 249.167969 266.71875 248.160156 263.011719 C 247.792969 262.300781 246.875 262.007812 246.476562 262.726562 C 241.878906 269.453125 237.679688 275.464844 237.269531 275.164062 C 237.007812 274.65625 240.492188 268.246094 244.425781 261.476562 C 244.824219 260.757812 244.207031 260.050781 243.496094 260.164062 C 239.589844 260.769531 236.441406 261.367188 236.183594 261.117188 C 236.386719 260.757812 239.476562 259.804688 243.175781 258.789062 C 243.988281 258.628906 244.128906 257.660156 243.460938 257.105469 C 236.796875 252.601562 230.898438 248.339844 231.097656 247.980469 C 231.601562 247.71875 237.949219 251.109375 244.660156 255.207031 C 245.476562 255.554688 246.179688 254.933594 246.171875 254.171875 C 245.367188 250.613281 244.976562 247.613281 245.171875 247 C 245.429688 247.503906 246.332031 250.5 247.441406 253.902344 C 247.601562 254.714844 248.570312 254.855469 248.96875 254.136719 C 253.515625 247.5625 257.765625 241.398438 258.226562 241.800781 C 258.4375 242.207031 254.953125 248.613281 251.015625 255.386719 C 250.617188 256.105469 251.1875 256.964844 252 256.800781 C 255.855469 256.09375 259.054688 255.597656 259.257812 255.746094 C 259.058594 256.105469 255.96875 257.058594 252.269531 258.070312 C 251.457031 258.234375 251.316406 259.203125 251.984375 259.757812 C 258.648438 264.261719 264.546875 268.523438 264.347656 268.882812 C 263.84375 269.140625 257.496094 265.753906 250.785156 261.65625 Z M 250.785156 261.65625 "/></g></svg>