<svg xmlns="http://www.w3.org/2000/svg" xmlns:xlink="http://www.w3.org/1999/xlink" width="500" zoomAndPan="magnify" viewBox="0 0 375 374.999991" height="500" preserveAspectRatio="xMidYMid meet" version="1.2"><defs><clipPath id="b64c755774"><path d="M 50 48.046875 L 75 48.046875 L 75 89 L 50 89 Z M 50 48.046875 "/></clipPath></defs><g id="5ff881f394"><rect x="0" width="375" y="0" height="374.999991" style="fill:#ffffff;fill-opacity:1;stroke:none;"/><rect x="0" width="375" y="0" height="374.999991" style="fill:#ffffff;fill-opacity:1;stroke:none;"/><path style=" stroke:none;fill-rule:nonzero;fill:#ffca6c;fill-opacity:1;" d="M 10.242188 82.734375 C 8.332031 82.203125 5.753906 83.207031 4.738281 85.0625 C 1.882812 90.273438 3.4375 113.621094 3.789062 119.785156 C 3.953125 122.648438 4.855469 123.867188 7.847656 123.117188 C 12.40625 121.96875 13 119.59375 12.660156 114.925781 C 11.976562 105.441406 11.289062 95.960938 10.601562 86.480469 Z M 10.242188 82.734375 "/><path style=" stroke:none;fill-rule:nonzero;fill:#ffca6c;fill-opacity:1;" d="M 33.78125 60.6875 C 32.347656 60.003906 30.605469 60.859375 29.679688 62.238281 C 26.71875 66.660156 27.910156 86.886719 22.675781 100.949219 C 22.1875 102.257812 22.136719 103.117188 23.460938 103.773438 C 26.675781 105.367188 30.964844 103.425781 31.832031 97.300781 C 32.1875 94.796875 31.910156 92.246094 31.824219 89.714844 C 31.5625 81.78125 33.277344 73.78125 36.730469 66.804688 Z M 33.78125 60.6875 "/><g clip-rule="nonzero" clip-path="url(#b64c755774)"><path style=" stroke:none;fill-rule:nonzero;fill:#ffca6c;fill-opacity:1;" d="M 72.90625 49.429688 C 71.746094 48.523438 70.046875 48.785156 68.878906 49.683594 C 63.902344 53.503906 59.226562 75.542969 50.960938 87.457031 C 52.859375 89.445312 55.996094 89.375 58.304688 88.003906 C 65.027344 83.992188 71.640625 63.902344 74.160156 56.53125 Z M 72.90625 49.429688 "/></g><path style=" stroke:none;fill-rule:nonzero;fill:#ffca6c;fill-opacity:1;" d="M 107.207031 51.628906 C 106.25 50.625 104.796875 49.984375 103.484375 50.476562 C 99.992188 51.792969 96.402344 64.445312 91.199219 73.035156 C 89.769531 75.40625 88.167969 78.566406 85.601562 79.585938 C 84.394531 80.066406 82.859375 79.816406 82.117188 78.667969 C 82.445312 85.785156 86.605469 89.183594 90.003906 88.707031 C 92.429688 88.367188 94.285156 86.222656 95.753906 84.082031 C 100.339844 77.402344 103.300781 69.394531 104.253906 61.101562 Z M 107.207031 51.628906 "/><path style=" stroke:none;fill-rule:nonzero;fill:#ffb63c;fill-opacity:1;" d="M 227.265625 206.699219 C 224.539062 201.109375 221.699219 195.578125 219.246094 189.832031 C 218.011719 186.945312 216.53125 183.71875 213.835938 182.242188 C 211.296875 180.855469 208.078125 181.371094 206.316406 183.808594 C 208.355469 189.488281 216.46875 212.863281 222.113281 215.140625 C 223.765625 215.808594 225.769531 215.265625 226.945312 213.828125 Z M 227.265625 206.699219 "/><path style=" stroke:none;fill-rule:nonzero;fill:#ffb63c;fill-opacity:1;" d="M 262.296875 202.300781 C 261.910156 202.988281 260.949219 203.027344 260.324219 202.601562 C 258.839844 201.585938 259.039062 199.347656 249.640625 184.464844 C 248.328125 182.386719 246.707031 180.320312 244.449219 179.804688 C 242.507812 179.363281 241.492188 179.976562 240.167969 181.371094 C 240.070312 181.476562 240.746094 183.226562 240.816406 183.441406 C 242.960938 190.246094 245.371094 197.265625 248.964844 203.445312 C 250.261719 205.679688 253.238281 208.511719 255.828125 208.867188 C 257.953125 209.160156 260.070312 208.035156 261.652344 206.453125 Z M 262.296875 202.300781 "/><path style=" stroke:none;fill-rule:nonzero;fill:#ffb63c;fill-opacity:1;" d="M 273.308594 177.933594 C 275.085938 176.695312 277.242188 175.949219 279.054688 177.128906 C 281.070312 178.4375 280.890625 179.261719 291.253906 210.246094 C 291.460938 210.867188 291.351562 211.203125 290.695312 211.226562 C 286.964844 211.351562 283.355469 209.34375 280.699219 206.46875 C 276.039062 201.421875 271.539062 189.855469 271.910156 181.433594 Z M 273.308594 177.933594 "/><path style=" stroke:none;fill-rule:nonzero;fill:#ffb63c;fill-opacity:1;" d="M 303.378906 179.328125 C 304.949219 177.605469 307.648438 177.980469 309.476562 179.363281 C 315.199219 183.699219 315.742188 200.175781 320.722656 204.121094 C 322.328125 205.390625 324.820312 205.554688 326.132812 203.929688 C 325.671875 207.539062 324.3125 211.007812 322.246094 213.863281 C 321.550781 214.824219 320.710938 215.757812 319.621094 216.046875 C 318.09375 216.449219 316.546875 215.457031 315.410156 214.269531 C 308.605469 207.15625 310.828125 195.050781 306.625 186.3125 Z M 303.378906 179.328125 "/><path style=" stroke:none;fill-rule:nonzero;fill:#ffb63c;fill-opacity:1;" d="M 353.792969 212.675781 C 346.355469 208.160156 346.75 196.761719 342.773438 189.425781 C 341.953125 187.910156 340.925781 186.320312 339.394531 185.792969 C 337.890625 185.273438 336.445312 185.769531 335.316406 187.019531 C 340.222656 205.191406 339.667969 211.121094 342.585938 214.757812 C 344.636719 217.316406 348.371094 218.011719 351.074219 216.335938 Z M 353.792969 212.675781 "/><path style=" stroke:none;fill-rule:nonzero;fill:#ffb63c;fill-opacity:1;" d="M 362.566406 202.195312 C 363.839844 200.910156 365.316406 200.070312 367.011719 200.445312 C 370.835938 201.292969 370.226562 202.953125 371.152344 228.527344 L 371.152344 241.660156 C 367.441406 240.753906 365.089844 236.730469 363.617188 232.886719 C 361.789062 228.101562 361.691406 222.847656 360.964844 212.714844 Z M 362.566406 202.195312 "/><path style=" stroke:none;fill-rule:nonzero;fill:#ffca6c;fill-opacity:1;" d="M 367.804688 234.800781 C 367.742188 225.195312 367.339844 215.59375 366.609375 206.023438 C 366.539062 205.101562 366.457031 204.148438 366.042969 203.34375 C 364.894531 201.101562 362.308594 201.871094 360.9375 203.289062 C 353.273438 211.207031 351.855469 213.257812 349.53125 212.761719 C 347.703125 212.375 346.769531 210.183594 346.117188 208.269531 C 339.449219 188.703125 339.40625 187.734375 338.160156 186.898438 C 337.117188 186.199219 335.699219 186.582031 334.757812 187.4375 C 332.75 189.261719 331.804688 194.015625 323.820312 206.9375 C 322.886719 208.449219 321.574219 210.128906 319.921875 209.867188 C 316.433594 209.3125 315.238281 199.800781 314.253906 196.949219 C 312.429688 191.652344 310.175781 186.53125 307.523438 181.671875 C 306.949219 180.621094 306.269531 179.503906 305.199219 179.15625 C 304.09375 178.796875 302.878906 179.40625 302.097656 180.335938 C 300.070312 182.746094 299.050781 190.222656 289.6875 203.953125 C 288.515625 205.667969 286.070312 205.242188 285.464844 203.207031 C 278.636719 180.246094 278.910156 180.613281 277.808594 179.101562 C 276.996094 177.988281 275.695312 177.1875 274.414062 177.441406 C 269.5625 178.410156 267.011719 195.03125 261.289062 202.929688 C 258.847656 206.300781 257.394531 206.757812 255.085938 202.992188 C 242.007812 181.664062 242.394531 181.628906 240.6875 181.25 C 238.359375 180.734375 230.851562 198.386719 229.347656 201.21875 C 228 203.757812 225.933594 206.675781 223.3125 206.089844 C 221.292969 205.636719 220.1875 203.304688 219.363281 201.234375 C 217.601562 196.8125 215.835938 192.386719 214.074219 187.964844 C 212.972656 185.195312 211.042969 181.910156 208.335938 182.472656 C 206.222656 182.910156 205.171875 185.488281 204.535156 187.746094 C 202.007812 196.691406 200.527344 205.996094 200.136719 215.355469 C 200.023438 218.09375 202.050781 220.351562 204.546875 220.179688 C 250.890625 216.949219 298.097656 216.285156 341.941406 232.894531 C 346.679688 234.691406 351.421875 236.726562 355.46875 239.972656 C 359.519531 243.21875 362.855469 247.832031 363.84375 253.226562 Z M 367.804688 234.800781 "/><path style=" stroke:none;fill-rule:nonzero;fill:#ffca6c;fill-opacity:1;" d="M 139.382812 68.871094 C 138.765625 67.628906 137.691406 66.617188 136.417969 66.382812 C 135.371094 66.1875 134.367188 66.847656 133.488281 67.5 C 120.332031 77.246094 117.242188 84.820312 112.617188 84.472656 C 111.394531 84.378906 109.996094 83.144531 109.570312 81.878906 C 107.867188 88.914062 113.003906 93.40625 117.488281 91.964844 C 120.105469 91.121094 120.578125 90.101562 135.117188 73.382812 Z M 139.382812 68.871094 "/><path style=" stroke:none;fill-rule:nonzero;fill:#ffca6c;fill-opacity:1;" d="M 161.203125 95.671875 C 156.871094 96.933594 152.585938 98.546875 148.457031 100.425781 C 144.332031 102.308594 139.589844 104.082031 135.714844 101.636719 C 135.398438 103.144531 134.984375 104.675781 135.132812 106.214844 C 135.5 109.992188 138.09375 111.671875 141.128906 110.917969 C 145.414062 109.851562 150.613281 103.425781 157.042969 101.679688 Z M 161.203125 95.671875 "/><path style=" stroke:none;fill-rule:nonzero;fill:#ffde9b;fill-opacity:1;" d="M 13.164062 145.117188 C 22.390625 126.585938 38.6875 112.445312 57.253906 106.851562 C 75.824219 101.261719 96.832031 103.210938 113.398438 113.972656 C 129.726562 124.582031 141.117188 142.828125 151.714844 160.09375 C 161.9375 176.757812 172.554688 194.613281 186.03125 208.273438 C 186.953125 209.210938 188.226562 209.640625 189.472656 209.441406 C 193.375 208.820312 197.25 208 201.082031 206.992188 C 204.6875 206.046875 208.320312 204.894531 211.398438 202.632812 C 218.730469 197.246094 218.644531 188.488281 214.332031 184.984375 C 212.078125 183.152344 210.019531 183.113281 198.175781 181.433594 C 195.066406 180.992188 192.953125 181.164062 193.859375 176.980469 C 195.566406 169.105469 202.078125 163.566406 204.886719 156.082031 C 205.515625 154.410156 204.9375 153.601562 203.914062 153.34375 C 202.257812 152.925781 193.921875 155.074219 179.371094 152.90625 C 177.707031 152.660156 174.105469 152.832031 173.28125 150.960938 C 171.78125 147.558594 178.917969 136.015625 182.664062 127.222656 C 183.765625 124.632812 183.136719 122.972656 180.367188 123.503906 C 168.074219 125.847656 163.789062 128.4375 160.453125 128.816406 C 156.453125 129.269531 153.207031 127.003906 154.953125 122.046875 C 159.871094 108.101562 168.195312 98.824219 165.410156 95.59375 C 164.636719 94.695312 163.449219 95.117188 162.339844 95.378906 C 159.421875 96.070312 156.707031 97.480469 154.273438 99.375 C 151.074219 101.871094 147.050781 104.109375 143.523438 106.28125 C 142.753906 106.757812 141.949219 107.207031 141.078125 107.375 C 140.210938 107.542969 139.25 107.398438 138.566406 106.78125 C 137.191406 105.535156 137.660156 102.117188 137.820312 100.433594 C 140.121094 76.230469 140.324219 75.25 140.121094 71.796875 C 139.898438 67.953125 137.980469 66.507812 134.808594 68.996094 C 128.667969 73.820312 118.265625 86.132812 113.925781 86.746094 C 111.511719 87.089844 111.171875 84.6875 110.996094 82.625 C 108.382812 52.558594 108.628906 53.503906 108.027344 52.441406 C 107.625 51.738281 106.804688 51.242188 106.097656 51.542969 C 105.585938 51.761719 105.269531 52.316406 104.992188 52.839844 C 90.664062 79.589844 91.023438 79.460938 89.179688 80.851562 C 88.207031 81.582031 86.851562 81.96875 85.699219 81.558594 C 84.554688 81.152344 84.261719 79.667969 83.757812 78.566406 C 73.859375 56.964844 75.546875 48.226562 72.242188 49.464844 C 71.773438 49.640625 71.460938 50.113281 71.191406 50.570312 C 65.3125 60.425781 63.902344 72.816406 58.246094 82.828125 C 57.636719 83.902344 56.957031 84.976562 55.953125 85.621094 C 54.804688 86.363281 53.226562 85.914062 52.484375 84.699219 C 49.199219 79.332031 45.664062 74.148438 41.894531 69.179688 C 39.964844 66.636719 32.332031 54.917969 31.496094 64.140625 C 30.734375 72.523438 29.941406 80.902344 29.15625 89.285156 C 28.960938 91.375 29.566406 100.5 26.859375 100.816406 C 25.9375 100.925781 25.1875 100.0625 24.601562 99.273438 C 13.53125 84.464844 13.398438 83.988281 11.867188 83.152344 C 10.734375 82.535156 9.21875 82.539062 8.34375 83.542969 C 7.558594 84.4375 7.503906 85.808594 7.496094 87.050781 C 7.257812 119.945312 6.121094 118.34375 13.796875 143.296875 "/><path style=" stroke:none;fill-rule:nonzero;fill:#ffb63c;fill-opacity:1;" d="M 19.085938 147.785156 C 17.621094 148.753906 15.613281 147.753906 14.703125 146.164062 C 12.902344 143.023438 13.824219 134.355469 12.222656 122.742188 C 11.652344 118.617188 12.027344 113.003906 7.902344 111.082031 C 6.203125 110.292969 3.507812 111.0625 2.316406 112.601562 C 5.902344 126.519531 4.75 153.632812 13.242188 152.667969 C 15.996094 152.355469 17.34375 148.917969 19.085938 147.785156 Z M 19.085938 147.785156 "/><path style=" stroke:none;fill-rule:nonzero;fill:#ffb63c;fill-opacity:1;" d="M 255.449219 241.5 L 255.425781 241.5 C 255.371094 243.640625 254.433594 245.753906 252.792969 246.898438 C 250.511719 248.527344 250.300781 248.132812 219.84375 248.609375 C 201.441406 248.917969 171.839844 249.8125 156.058594 244.554688 C 148.6875 242.097656 141.628906 237.902344 136.601562 231.503906 L 155.566406 225.191406 C 161.40625 232.070312 164.117188 234.023438 172.78125 234.1875 C 181.167969 234.359375 189.449219 232.105469 197.8125 231.847656 C 235.695312 230.894531 213.792969 230.320312 239.328125 229.078125 C 245.171875 228.824219 251.84375 231.90625 254.355469 236.957031 L 255.425781 236.214844 C 255.425781 236.460938 255.453125 241.828125 255.449219 241.5 Z M 255.449219 241.5 "/><path style=" stroke:none;fill-rule:nonzero;fill:#ffca6c;fill-opacity:1;" d="M 155.554688 220.722656 C 161.484375 227.648438 164.117188 229.511719 172.78125 229.707031 C 181.15625 229.894531 189.445312 227.613281 197.820312 227.375 C 235.207031 226.296875 216.175781 225.617188 239.324219 224.609375 C 246.589844 224.292969 254.964844 229.15625 255.429688 236.203125 C 255.585938 238.59375 254.640625 241.125 252.804688 242.425781 C 251.15625 243.589844 249.078125 243.660156 247.121094 243.691406 C 184.089844 244.734375 152.707031 247.480469 136.59375 227.03125 "/><path style=" stroke:none;fill-rule:nonzero;fill:#ffb63c;fill-opacity:1;" d="M 37.121094 173.917969 C 35.953125 174.125 34.722656 174.242188 33.613281 173.785156 C 31.203125 172.796875 31.601562 169.636719 31.648438 167.34375 C 31.746094 162.601562 31.84375 157.859375 31.941406 153.121094 C 32.015625 149.386719 33 144.269531 30.898438 140.984375 C 29.722656 139.148438 27.363281 138.371094 25.457031 139.191406 C 26.09375 152.84375 20.492188 166.71875 24.347656 179.917969 C 25.085938 182.449219 26.390625 185.085938 28.683594 185.949219 C 31.011719 186.828125 33.652344 185.503906 35.234375 183.4375 C 36.8125 181.371094 37.550781 178.703125 38.179688 176.09375 Z M 37.121094 173.917969 "/><path style=" stroke:none;fill-rule:nonzero;fill:#ffb63c;fill-opacity:1;" d="M 62.699219 200.371094 C 61.429688 200.476562 60.039062 200.546875 59.019531 199.710938 C 57.414062 198.394531 57.46875 195.445312 57.417969 193.460938 C 57.355469 191.132812 57.53125 188.804688 57.480469 186.476562 C 57.378906 181.988281 57.222656 177.503906 57.097656 173.019531 C 57 169.578125 57.21875 163.441406 53.476562 162.066406 C 52.15625 161.582031 51.214844 162.09375 50.054688 162.921875 C 50.355469 174.203125 46.449219 185.675781 47.953125 196.84375 C 48.28125 199.296875 48.945312 201.847656 50.597656 203.546875 C 52.269531 205.273438 54.796875 205.835938 57.023438 205.222656 C 59.25 204.613281 61.449219 202.484375 62.699219 200.371094 Z M 62.699219 200.371094 "/><path style=" stroke:none;fill-rule:nonzero;fill:#ffb63c;fill-opacity:1;" d="M 86.878906 231.503906 C 85.609375 231.722656 84.230469 230.417969 83.628906 229.171875 C 82.761719 227.375 82.929688 227.863281 81.398438 201.894531 C 81.132812 197.410156 81.324219 191.160156 77.164062 188.652344 C 75.644531 187.734375 74.105469 187.601562 72.382812 188.632812 C 71.59375 201.101562 70.785156 213.621094 72.132812 226.027344 C 72.308594 227.628906 72.523438 229.242188 73.050781 230.75 C 74.410156 234.621094 77.328125 236.105469 80.753906 235.171875 C 83.167969 234.515625 84.882812 232.949219 86.878906 231.503906 Z M 86.878906 231.503906 "/><path style=" stroke:none;fill-rule:nonzero;fill:#ffa20d;fill-opacity:1;" d="M 107.902344 227.859375 C 202.296875 183.589844 197.035156 185.480469 198.414062 185.742188 C 203.402344 186.695312 205.5 191.648438 205.273438 197.101562 C 205.226562 198.253906 204.617188 199.296875 203.660156 199.769531 L 115.015625 243.695312 Z M 107.902344 227.859375 "/><path style=" stroke:none;fill-rule:nonzero;fill:#ffca6c;fill-opacity:1;" d="M 81.953125 268.855469 C 52.050781 239.394531 23.542969 208.683594 3.421875 170.5625 C 2.914062 169.597656 2.589844 168.511719 2.476562 167.40625 C 0.410156 147.367188 -0.0625 128.734375 2.316406 112.601562 C 4.21875 111.949219 6.148438 113.195312 7.113281 115.109375 C 8.078125 117.027344 8.195312 119.300781 8.292969 121.484375 C 9.257812 143.574219 9.109375 144.339844 9.984375 146.574219 C 10.644531 148.257812 12.003906 149.734375 13.667969 149.902344 C 15.742188 150.113281 17.5 148.34375 18.914062 146.664062 C 23.738281 140.929688 24.230469 139.21875 25.988281 139.074219 C 30.835938 138.6875 29.050781 149.316406 28.988281 152.050781 C 28.839844 158.21875 28.691406 164.382812 28.542969 170.546875 C 28.496094 172.511719 28.679688 174.917969 30.304688 175.75 C 32.996094 177.136719 36.527344 172.929688 49.664062 163.152344 C 50.972656 162.175781 52.792969 162.949219 53.113281 164.648438 C 55.285156 176.054688 51.523438 188.628906 54.730469 199.875 C 55.84375 203.765625 58.054688 204.367188 60.96875 200.917969 C 63.304688 198.148438 65.636719 195.382812 67.976562 192.617188 C 69.371094 190.960938 73.191406 186.234375 75.160156 189.570312 C 76.019531 191.023438 75.746094 190.226562 76.960938 223.640625 C 77.070312 226.734375 77.421875 230.3125 79.785156 232.007812 C 81.394531 233.160156 83.535156 233.050781 85.328125 232.304688 C 88.675781 230.914062 91.582031 227.089844 99.828125 223.496094 C 101.660156 222.695312 104.554688 221.625 106.617188 222.402344 C 107.066406 222.570312 107.4375 222.929688 107.753906 223.320312 C 111.054688 227.359375 113.980469 231.773438 116.472656 236.460938 C 117.949219 239.242188 119.640625 241.386719 117.136719 243.871094 C 116.375 244.628906 87.011719 269.285156 87.265625 269.074219 C 85.679688 270.410156 83.441406 270.320312 81.953125 268.855469 Z M 81.953125 268.855469 "/><path style=" stroke:none;fill-rule:nonzero;fill:#ffb63c;fill-opacity:1;" d="M 128.480469 267.273438 C 124.441406 263.890625 123.042969 258.015625 121.894531 252.585938 C 120.597656 246.429688 119.296875 240.269531 117.996094 234.109375 C 116.742188 228.175781 112.984375 222.328125 106.921875 222.5625 C 103.246094 222.703125 99.285156 224.335938 97.621094 227.933594 C 114.789062 263.371094 113.222656 264.640625 116.542969 267.699219 C 118.515625 269.515625 121.183594 270.070312 123.722656 270.558594 Z M 128.480469 267.273438 "/><path style=" stroke:none;fill-rule:nonzero;fill:#ffca6c;fill-opacity:1;" d="M 137.515625 249.929688 C 138.546875 248.523438 140.5 248.578125 141.902344 249.46875 C 143.308594 250.359375 144.121094 252.035156 144.78125 253.65625 C 146.730469 258.460938 150.320312 271.378906 152.972656 272.417969 C 154.148438 272.878906 155.324219 271.820312 156.199219 270.847656 C 158.613281 268.164062 161.007812 265.464844 163.425781 262.777344 C 160.351562 279.003906 160.304688 281.347656 158.183594 283.746094 C 155.960938 286.257812 152.175781 286.449219 149.285156 284.976562 C 146.390625 283.5 144.253906 280.6875 142.523438 277.75 C 138.820312 271.453125 136.542969 264.15625 135.945312 256.691406 Z M 137.515625 249.929688 "/><path style=" stroke:none;fill-rule:nonzero;fill:#ffca6c;fill-opacity:1;" d="M 169.230469 255.046875 C 170.871094 254.75 171.949219 255.503906 172.980469 256.738281 C 177.800781 262.511719 178.761719 270.980469 182.523438 277.636719 C 183.910156 280.089844 185.308594 280.234375 187.082031 278.292969 C 192.011719 272.886719 194.238281 264.808594 199.828125 260.242188 C 199.679688 268.535156 197.5625 276.652344 194.90625 284.417969 C 194.164062 286.582031 193.316406 288.828125 191.675781 290.277344 C 184.566406 296.582031 172.144531 284.195312 171.285156 268.839844 C 171.125 265.957031 171.304688 262.847656 169.859375 260.433594 Z M 169.230469 255.046875 "/><path style=" stroke:none;fill-rule:nonzero;fill:#ffca6c;fill-opacity:1;" d="M 201.160156 259.140625 C 202.484375 258.597656 204.128906 258.972656 205.199219 259.988281 C 206.632812 261.347656 206.410156 261.277344 216.648438 281.800781 C 218.429688 285.371094 220.464844 286.148438 222.707031 282.714844 C 227.496094 275.382812 230.839844 267.492188 236.59375 260.640625 C 234.332031 272.824219 232.007812 299.945312 219.785156 298.652344 C 213.082031 297.941406 199.871094 283.011719 200.878906 264 "/><path style=" stroke:none;fill-rule:nonzero;fill:#ffca6c;fill-opacity:1;" d="M 277.664062 257.796875 C 276.722656 256.699219 276.292969 256.503906 275.1875 256.640625 C 274.082031 256.78125 273.132812 257.554688 272.3125 258.378906 C 266.855469 263.839844 264.621094 272.226562 259.683594 278.25 C 258.539062 279.640625 256.855469 280.996094 255.265625 280.316406 C 254.023438 279.785156 254.121094 279.53125 243.675781 262.945312 C 244.308594 273.359375 246.507812 284.144531 249.972656 293.863281 C 250.808594 296.203125 252.011719 298.800781 254.242188 299.386719 C 255.964844 299.839844 257.738281 298.894531 259.15625 297.734375 C 264.679688 293.207031 275.0625 265.632812 277.664062 257.796875 Z M 277.664062 257.796875 "/><path style=" stroke:none;fill-rule:nonzero;fill:#ffca6c;fill-opacity:1;" d="M 315.226562 251.785156 C 315.027344 251.484375 314.136719 250.664062 313.78125 250.457031 C 309.816406 248.136719 308.917969 253.660156 300.003906 275.417969 C 298.503906 279.078125 296.785156 280.664062 293.203125 278.546875 C 292.019531 277.847656 290.859375 277.445312 289.566406 276.15625 C 289.246094 278.796875 289.660156 282.101562 289.863281 284.753906 C 290.511719 293.285156 297.570312 299.089844 303.878906 290.597656 C 309.054688 283.632812 311.589844 274.816406 314.011719 266.234375 Z M 315.226562 251.785156 "/><path style=" stroke:none;fill-rule:nonzero;fill:#ffca6c;fill-opacity:1;" d="M 345.328125 239.40625 C 343.945312 238.65625 341.558594 238.808594 340.914062 239.84375 C 339.996094 241.308594 340.199219 241.128906 333.5625 266.664062 C 333.144531 268.273438 332.585938 270.070312 331.199219 270.773438 C 330.257812 271.253906 329.125 271.085938 328.1875 270.597656 C 327.25 270.109375 327.871094 270.503906 327.097656 269.742188 C 326.949219 272.675781 327.335938 275.644531 328.851562 278.070312 C 330.765625 281.140625 333.523438 282.472656 336.574219 280.558594 C 340.460938 278.117188 342.671875 271.46875 343.808594 267.429688 C 345.566406 261.1875 346.800781 254.78125 348.03125 248.382812 Z M 345.328125 239.40625 "/><path style=" stroke:none;fill-rule:nonzero;fill:#ffca6c;fill-opacity:1;" d="M 374.332031 218.453125 C 374.003906 217.789062 373.101562 217.648438 372.4375 217.847656 C 370.148438 218.535156 369.140625 223.066406 368.675781 225.398438 C 367.144531 233.066406 365.273438 240.480469 363.742188 248.148438 C 363.296875 250.386719 362.625 253.324219 360.25 253.972656 C 359.160156 254.273438 358.203125 254.023438 357.738281 252.90625 C 357.761719 256.679688 359.402344 261.511719 362.195312 263.359375 C 364.421875 264.828125 366.867188 264.125 368.199219 261.289062 C 368.769531 260.074219 369.027344 258.71875 369.277344 257.378906 C 373.484375 234.996094 372.070312 237.589844 374.332031 218.453125 Z M 374.332031 218.453125 "/><path style=" stroke:none;fill-rule:nonzero;fill:#ffde9b;fill-opacity:1;" d="M 98.613281 279.03125 C 97.566406 278.4375 96.792969 277.386719 96.488281 276.140625 C 93.300781 263.019531 92.738281 249.136719 94.863281 235.757812 C 95.539062 231.5 96.78125 226.796875 101.148438 225.542969 C 103.527344 224.859375 106.066406 225.574219 108.148438 227.015625 C 113.984375 231.058594 115.882812 238.988281 116.863281 246.328125 C 117.792969 253.25 118.359375 260.605469 122.074219 266.296875 C 124.027344 269.289062 125.894531 268.84375 127.785156 265.761719 C 131.027344 260.476562 134.265625 255.191406 137.507812 249.902344 C 140.496094 259.257812 144.628906 268.003906 149.796875 276.136719 C 151.675781 279.085938 153.574219 279.371094 155.898438 275.660156 C 166.4375 258.835938 166.3125 255.054688 168.964844 255.027344 C 170.496094 255.015625 171.402344 256.859375 171.960938 258.425781 C 173.894531 263.875 175.828125 269.328125 177.765625 274.777344 C 178.824219 277.765625 180.207031 285.773438 183.984375 286.285156 C 185.351562 286.472656 186.714844 285.71875 187.6875 284.652344 C 189.015625 283.195312 188.734375 283.441406 199.539062 260.816406 C 199.816406 260.234375 200.121094 259.621094 200.652344 259.316406 C 201.332031 258.925781 202.203125 259.179688 202.792969 259.714844 C 206.675781 263.230469 213.160156 295.683594 221.789062 289.691406 C 223.933594 288.199219 223.972656 287.304688 236.820312 260.160156 C 237.375 258.988281 238.242188 257.628906 239.433594 257.820312 C 240.472656 257.984375 241.132812 259.3125 241.730469 259.882812 C 242.558594 260.675781 243.351562 261.515625 243.847656 262.589844 L 252.613281 281.503906 C 253.460938 283.339844 254.90625 288.554688 257.726562 287.355469 C 259.308594 286.679688 258.898438 286.765625 274.339844 259.460938 C 274.9375 258.402344 275.816406 257.199219 276.933594 257.421875 C 277.660156 257.566406 278.15625 258.285156 278.578125 258.945312 C 293.679688 282.59375 292.085938 280.160156 293.53125 282.355469 C 296.300781 286.5625 298.65625 285.164062 300.679688 280.527344 C 313.929688 250.175781 313.148438 251.605469 313.71875 251.296875 C 314.4375 250.910156 315.207031 251.671875 315.707031 252.359375 C 319.394531 257.449219 323.0625 262.558594 326.699219 267.691406 C 328.300781 269.945312 329.964844 273.492188 332.003906 275.234375 C 333.929688 276.875 335.265625 273.085938 335.773438 271.378906 C 343.496094 245.425781 341.570312 239.589844 345.253906 239.410156 C 346.363281 239.355469 347.269531 240.324219 348.019531 241.222656 C 353.074219 247.257812 358.128906 253.289062 363.183594 259.320312 C 364.386719 259.203125 364.253906 257.328125 364.585938 256.054688 C 367.839844 243.515625 371.09375 230.972656 374.347656 218.429688 C 374.554688 233.246094 374.796875 248.140625 375 262.957031 C 350.882812 323.667969 183.191406 326.980469 98.613281 279.03125 Z M 98.613281 279.03125 "/><path style=" stroke:none;fill-rule:nonzero;fill:#ffa20d;fill-opacity:1;" d="M 108.675781 239.851562 C 108.675781 240.183594 108.644531 240.507812 108.585938 240.832031 C 108.53125 241.152344 108.441406 241.464844 108.328125 241.769531 C 108.214844 242.074219 108.074219 242.363281 107.90625 242.636719 C 107.738281 242.910156 107.550781 243.164062 107.335938 243.394531 C 107.125 243.628906 106.894531 243.835938 106.644531 244.019531 C 106.394531 244.199219 106.132812 244.355469 105.855469 244.480469 C 105.578125 244.605469 105.292969 244.703125 105 244.765625 C 104.703125 244.832031 104.40625 244.863281 104.109375 244.863281 C 103.808594 244.863281 103.511719 244.832031 103.214844 244.765625 C 102.921875 244.703125 102.636719 244.605469 102.359375 244.480469 C 102.082031 244.355469 101.820312 244.199219 101.570312 244.019531 C 101.320312 243.835938 101.089844 243.628906 100.878906 243.394531 C 100.664062 243.164062 100.476562 242.910156 100.308594 242.636719 C 100.140625 242.363281 100 242.074219 99.886719 241.769531 C 99.773438 241.464844 99.6875 241.152344 99.628906 240.832031 C 99.570312 240.507812 99.539062 240.183594 99.539062 239.851562 C 99.539062 239.523438 99.570312 239.199219 99.628906 238.875 C 99.6875 238.554688 99.773438 238.242188 99.886719 237.9375 C 100 237.632812 100.140625 237.34375 100.308594 237.070312 C 100.476562 236.796875 100.664062 236.542969 100.878906 236.3125 C 101.089844 236.078125 101.320312 235.871094 101.570312 235.6875 C 101.820312 235.507812 102.082031 235.351562 102.359375 235.226562 C 102.636719 235.101562 102.921875 235.003906 103.214844 234.941406 C 103.511719 234.875 103.808594 234.84375 104.109375 234.84375 C 104.40625 234.84375 104.703125 234.875 105 234.941406 C 105.292969 235.003906 105.578125 235.101562 105.855469 235.226562 C 106.132812 235.351562 106.394531 235.507812 106.644531 235.6875 C 106.894531 235.871094 107.125 236.078125 107.335938 236.3125 C 107.550781 236.542969 107.738281 236.796875 107.90625 237.070312 C 108.074219 237.34375 108.214844 237.632812 108.328125 237.9375 C 108.441406 238.242188 108.53125 238.554688 108.585938 238.875 C 108.644531 239.199219 108.675781 239.523438 108.675781 239.851562 Z M 108.675781 239.851562 "/><path style=" stroke:none;fill-rule:nonzero;fill:#ffffff;fill-opacity:0.4;" d="M 273.5 305.453125 C 280.296875 304.585938 280.382812 293.773438 273.5 294.652344 C 264.289062 295.828125 255.125 295.914062 245.894531 294.90625 C 238.996094 294.152344 239.050781 304.957031 245.894531 305.703125 C 254.828125 306.679688 263.996094 306.667969 273.5 305.453125 Z M 273.5 305.453125 "/><path style=" stroke:none;fill-rule:nonzero;fill:#ffffff;fill-opacity:0.4;" d="M 290.554688 303.339844 C 293.378906 303.339844 296.082031 300.855469 295.953125 297.9375 C 295.820312 295.011719 293.582031 292.539062 290.554688 292.539062 C 289.851562 292.539062 289.148438 292.539062 288.441406 292.539062 C 285.621094 292.539062 282.914062 295.023438 283.042969 297.9375 C 283.175781 300.863281 285.417969 303.339844 288.441406 303.339844 C 289.148438 303.339844 289.851562 303.339844 290.554688 303.339844 Z M 290.554688 303.339844 "/><path style=" stroke:none;fill-rule:nonzero;fill:#ffffff;fill-opacity:0.4;" d="M 72.847656 97.546875 C 81.355469 96.273438 89.761719 97.09375 97.972656 99.574219 C 104.636719 101.585938 107.484375 91.164062 100.839844 89.160156 C 90.671875 86.089844 80.453125 85.5625 69.976562 87.128906 C 63.128906 88.15625 66.039062 98.5625 72.847656 97.546875 Z M 72.847656 97.546875 "/><path style=" stroke:none;fill-rule:nonzero;fill:#ffffff;fill-opacity:0.4;" d="M 111.769531 105.457031 C 112.050781 105.726562 112.3125 106.003906 112.582031 106.289062 C 113.332031 107.078125 112.007812 105.449219 112.679688 106.421875 C 114.289062 108.738281 117.484375 110.023438 120.066406 108.359375 C 122.367188 106.875 123.726562 103.453125 122.003906 100.96875 C 121.226562 99.851562 120.390625 98.765625 119.402344 97.820312 C 117.363281 95.863281 113.769531 95.640625 111.769531 97.820312 C 109.824219 99.9375 109.59375 103.367188 111.769531 105.457031 Z M 111.769531 105.457031 "/></g></svg>